G04 #@! TF.GenerationSoftware,KiCad,Pcbnew,5.1.2*
G04 #@! TF.CreationDate,2019-05-01T14:56:28-06:00*
G04 #@! TF.ProjectId,microphone_array_adapter_board,6d696372-6f70-4686-9f6e-655f61727261,1*
G04 #@! TF.SameCoordinates,PX826a3b0PY7270e00*
G04 #@! TF.FileFunction,Legend,Bot*
G04 #@! TF.FilePolarity,Positive*
%FSLAX46Y46*%
G04 Gerber Fmt 4.6, Leading zero omitted, Abs format (unit mm)*
G04 Created by KiCad (PCBNEW 5.1.2) date 2019-05-01 14:56:28*
%MOMM*%
%LPD*%
G04 APERTURE LIST*
%ADD10C,0.150000*%
%ADD11C,0.120000*%
%ADD12C,0.250000*%
G04 APERTURE END LIST*
D10*
X10761904Y51178572D02*
X10000000Y51178572D01*
X10380952Y50797620D02*
X10380952Y51559524D01*
X9619047Y51797620D02*
X9000000Y51797620D01*
X9333333Y51416667D01*
X9190476Y51416667D01*
X9095238Y51369048D01*
X9047619Y51321429D01*
X9000000Y51226191D01*
X9000000Y50988096D01*
X9047619Y50892858D01*
X9095238Y50845239D01*
X9190476Y50797620D01*
X9476190Y50797620D01*
X9571428Y50845239D01*
X9619047Y50892858D01*
X8714285Y51797620D02*
X8380952Y50797620D01*
X8047619Y51797620D01*
X7809523Y51797620D02*
X7190476Y51797620D01*
X7523809Y51416667D01*
X7380952Y51416667D01*
X7285714Y51369048D01*
X7238095Y51321429D01*
X7190476Y51226191D01*
X7190476Y50988096D01*
X7238095Y50892858D01*
X7285714Y50845239D01*
X7380952Y50797620D01*
X7666666Y50797620D01*
X7761904Y50845239D01*
X7809523Y50892858D01*
D11*
X12087221Y25010000D02*
X12412779Y25010000D01*
X12087221Y23990000D02*
X12412779Y23990000D01*
X15087221Y25010000D02*
X15412779Y25010000D01*
X15087221Y23990000D02*
X15412779Y23990000D01*
D12*
X7295000Y41070000D02*
G75*
G03X7295000Y41070000I-125000J0D01*
G01*
D11*
X20910000Y41440000D02*
X20910000Y47660000D01*
X3590000Y41440000D02*
X20910000Y41440000D01*
X3590000Y47660000D02*
X3590000Y41440000D01*
X20910000Y47660000D02*
X3590000Y47660000D01*
X12990000Y3602064D02*
X12990000Y2397936D01*
X15710000Y3602064D02*
X15710000Y2397936D01*
X11490000Y2662779D02*
X11490000Y2337221D01*
X12510000Y2662779D02*
X12510000Y2337221D01*
X12985000Y52050000D02*
X12985000Y49765000D01*
X12985000Y49765000D02*
X11515000Y49765000D01*
X11515000Y49765000D02*
X11515000Y52050000D01*
X11740000Y54662779D02*
X11740000Y54337221D01*
X12760000Y54662779D02*
X12760000Y54337221D01*
D10*
X9525000Y27800000D02*
X9525000Y32200000D01*
X15050000Y26225000D02*
X15050000Y32200000D01*
X9916666Y24547620D02*
X10250000Y25023810D01*
X10488095Y24547620D02*
X10488095Y25547620D01*
X10107142Y25547620D01*
X10011904Y25500000D01*
X9964285Y25452381D01*
X9916666Y25357143D01*
X9916666Y25214286D01*
X9964285Y25119048D01*
X10011904Y25071429D01*
X10107142Y25023810D01*
X10488095Y25023810D01*
X9535714Y25452381D02*
X9488095Y25500000D01*
X9392857Y25547620D01*
X9154761Y25547620D01*
X9059523Y25500000D01*
X9011904Y25452381D01*
X8964285Y25357143D01*
X8964285Y25261905D01*
X9011904Y25119048D01*
X9583333Y24547620D01*
X8964285Y24547620D01*
X17916666Y24547620D02*
X18250000Y25023810D01*
X18488095Y24547620D02*
X18488095Y25547620D01*
X18107142Y25547620D01*
X18011904Y25500000D01*
X17964285Y25452381D01*
X17916666Y25357143D01*
X17916666Y25214286D01*
X17964285Y25119048D01*
X18011904Y25071429D01*
X18107142Y25023810D01*
X18488095Y25023810D01*
X17583333Y25547620D02*
X16964285Y25547620D01*
X17297619Y25166667D01*
X17154761Y25166667D01*
X17059523Y25119048D01*
X17011904Y25071429D01*
X16964285Y24976191D01*
X16964285Y24738096D01*
X17011904Y24642858D01*
X17059523Y24595239D01*
X17154761Y24547620D01*
X17440476Y24547620D01*
X17535714Y24595239D01*
X17583333Y24642858D01*
X10200000Y49257143D02*
X10200000Y48400000D01*
X10257142Y48228572D01*
X10371428Y48114286D01*
X10542857Y48057143D01*
X10657142Y48057143D01*
X9685714Y49142858D02*
X9628571Y49200000D01*
X9514285Y49257143D01*
X9228571Y49257143D01*
X9114285Y49200000D01*
X9057142Y49142858D01*
X9000000Y49028572D01*
X9000000Y48914286D01*
X9057142Y48742858D01*
X9742857Y48057143D01*
X9000000Y48057143D01*
X9761904Y57547620D02*
X9190476Y57547620D01*
X9476190Y56547620D02*
X9476190Y57547620D01*
X8857142Y56547620D02*
X8857142Y57547620D01*
X8476190Y57547620D01*
X8380952Y57500000D01*
X8333333Y57452381D01*
X8285714Y57357143D01*
X8285714Y57214286D01*
X8333333Y57119048D01*
X8380952Y57071429D01*
X8476190Y57023810D01*
X8857142Y57023810D01*
X7333333Y56547620D02*
X7904761Y56547620D01*
X7619047Y56547620D02*
X7619047Y57547620D01*
X7714285Y57404762D01*
X7809523Y57309524D01*
X7904761Y57261905D01*
X6511904Y55178572D02*
X5750000Y55178572D01*
X6130952Y54797620D02*
X6130952Y55559524D01*
X5369047Y55797620D02*
X4750000Y55797620D01*
X5083333Y55416667D01*
X4940476Y55416667D01*
X4845238Y55369048D01*
X4797619Y55321429D01*
X4750000Y55226191D01*
X4750000Y54988096D01*
X4797619Y54892858D01*
X4845238Y54845239D01*
X4940476Y54797620D01*
X5226190Y54797620D01*
X5321428Y54845239D01*
X5369047Y54892858D01*
X4464285Y55797620D02*
X4130952Y54797620D01*
X3797619Y55797620D01*
X3559523Y55797620D02*
X2940476Y55797620D01*
X3273809Y55416667D01*
X3130952Y55416667D01*
X3035714Y55369048D01*
X2988095Y55321429D01*
X2940476Y55226191D01*
X2940476Y54988096D01*
X2988095Y54892858D01*
X3035714Y54845239D01*
X3130952Y54797620D01*
X3416666Y54797620D01*
X3511904Y54845239D01*
X3559523Y54892858D01*
X17261904Y57547620D02*
X16690476Y57547620D01*
X16976190Y56547620D02*
X16976190Y57547620D01*
X16357142Y56547620D02*
X16357142Y57547620D01*
X15976190Y57547620D01*
X15880952Y57500000D01*
X15833333Y57452381D01*
X15785714Y57357143D01*
X15785714Y57214286D01*
X15833333Y57119048D01*
X15880952Y57071429D01*
X15976190Y57023810D01*
X16357142Y57023810D01*
X15404761Y57452381D02*
X15357142Y57500000D01*
X15261904Y57547620D01*
X15023809Y57547620D01*
X14928571Y57500000D01*
X14880952Y57452381D01*
X14833333Y57357143D01*
X14833333Y57261905D01*
X14880952Y57119048D01*
X15452380Y56547620D01*
X14833333Y56547620D01*
X20511904Y55750000D02*
X20607142Y55797620D01*
X20750000Y55797620D01*
X20892857Y55750000D01*
X20988095Y55654762D01*
X21035714Y55559524D01*
X21083333Y55369048D01*
X21083333Y55226191D01*
X21035714Y55035715D01*
X20988095Y54940477D01*
X20892857Y54845239D01*
X20750000Y54797620D01*
X20654761Y54797620D01*
X20511904Y54845239D01*
X20464285Y54892858D01*
X20464285Y55226191D01*
X20654761Y55226191D01*
X20035714Y54797620D02*
X20035714Y55797620D01*
X19464285Y54797620D01*
X19464285Y55797620D01*
X18988095Y54797620D02*
X18988095Y55797620D01*
X18750000Y55797620D01*
X18607142Y55750000D01*
X18511904Y55654762D01*
X18464285Y55559524D01*
X18416666Y55369048D01*
X18416666Y55226191D01*
X18464285Y55035715D01*
X18511904Y54940477D01*
X18607142Y54845239D01*
X18750000Y54797620D01*
X18988095Y54797620D01*
X14416666Y5392858D02*
X14464285Y5345239D01*
X14607142Y5297620D01*
X14702380Y5297620D01*
X14845238Y5345239D01*
X14940476Y5440477D01*
X14988095Y5535715D01*
X15035714Y5726191D01*
X15035714Y5869048D01*
X14988095Y6059524D01*
X14940476Y6154762D01*
X14845238Y6250000D01*
X14702380Y6297620D01*
X14607142Y6297620D01*
X14464285Y6250000D01*
X14416666Y6202381D01*
X13464285Y5297620D02*
X14035714Y5297620D01*
X13750000Y5297620D02*
X13750000Y6297620D01*
X13845238Y6154762D01*
X13940476Y6059524D01*
X14035714Y6011905D01*
X11966666Y4242858D02*
X12014285Y4195239D01*
X12157142Y4147620D01*
X12252380Y4147620D01*
X12395238Y4195239D01*
X12490476Y4290477D01*
X12538095Y4385715D01*
X12585714Y4576191D01*
X12585714Y4719048D01*
X12538095Y4909524D01*
X12490476Y5004762D01*
X12395238Y5100000D01*
X12252380Y5147620D01*
X12157142Y5147620D01*
X12014285Y5100000D01*
X11966666Y5052381D01*
X11585714Y5052381D02*
X11538095Y5100000D01*
X11442857Y5147620D01*
X11204761Y5147620D01*
X11109523Y5100000D01*
X11061904Y5052381D01*
X11014285Y4957143D01*
X11014285Y4861905D01*
X11061904Y4719048D01*
X11633333Y4147620D01*
X11014285Y4147620D01*
X18166666Y33892858D02*
X18214285Y33845239D01*
X18357142Y33797620D01*
X18452380Y33797620D01*
X18595238Y33845239D01*
X18690476Y33940477D01*
X18738095Y34035715D01*
X18785714Y34226191D01*
X18785714Y34369048D01*
X18738095Y34559524D01*
X18690476Y34654762D01*
X18595238Y34750000D01*
X18452380Y34797620D01*
X18357142Y34797620D01*
X18214285Y34750000D01*
X18166666Y34702381D01*
X17833333Y34797620D02*
X17214285Y34797620D01*
X17547619Y34416667D01*
X17404761Y34416667D01*
X17309523Y34369048D01*
X17261904Y34321429D01*
X17214285Y34226191D01*
X17214285Y33988096D01*
X17261904Y33892858D01*
X17309523Y33845239D01*
X17404761Y33797620D01*
X17690476Y33797620D01*
X17785714Y33845239D01*
X17833333Y33892858D01*
X16166666Y33892858D02*
X16214285Y33845239D01*
X16357142Y33797620D01*
X16452380Y33797620D01*
X16595238Y33845239D01*
X16690476Y33940477D01*
X16738095Y34035715D01*
X16785714Y34226191D01*
X16785714Y34369048D01*
X16738095Y34559524D01*
X16690476Y34654762D01*
X16595238Y34750000D01*
X16452380Y34797620D01*
X16357142Y34797620D01*
X16214285Y34750000D01*
X16166666Y34702381D01*
X15309523Y34464286D02*
X15309523Y33797620D01*
X15547619Y34845239D02*
X15785714Y34130953D01*
X15166666Y34130953D01*
X14738095Y50797620D02*
X14738095Y51797620D01*
X14500000Y51797620D01*
X14357142Y51750000D01*
X14261904Y51654762D01*
X14214285Y51559524D01*
X14166666Y51369048D01*
X14166666Y51226191D01*
X14214285Y51035715D01*
X14261904Y50940477D01*
X14357142Y50845239D01*
X14500000Y50797620D01*
X14738095Y50797620D01*
X13214285Y50797620D02*
X13785714Y50797620D01*
X13500000Y50797620D02*
X13500000Y51797620D01*
X13595238Y51654762D01*
X13690476Y51559524D01*
X13785714Y51511905D01*
X12416666Y56297620D02*
X12750000Y56773810D01*
X12988095Y56297620D02*
X12988095Y57297620D01*
X12607142Y57297620D01*
X12511904Y57250000D01*
X12464285Y57202381D01*
X12416666Y57107143D01*
X12416666Y56964286D01*
X12464285Y56869048D01*
X12511904Y56821429D01*
X12607142Y56773810D01*
X12988095Y56773810D01*
X11464285Y56297620D02*
X12035714Y56297620D01*
X11750000Y56297620D02*
X11750000Y57297620D01*
X11845238Y57154762D01*
X11940476Y57059524D01*
X12035714Y57011905D01*
X17011904Y30797620D02*
X17011904Y29988096D01*
X16964285Y29892858D01*
X16916666Y29845239D01*
X16821428Y29797620D01*
X16630952Y29797620D01*
X16535714Y29845239D01*
X16488095Y29892858D01*
X16440476Y29988096D01*
X16440476Y30797620D01*
X15440476Y29797620D02*
X16011904Y29797620D01*
X15726190Y29797620D02*
X15726190Y30797620D01*
X15821428Y30654762D01*
X15916666Y30559524D01*
X16011904Y30511905D01*
M02*
