M48
; DRILL file {KiCad 5.1.2} date Wed 01 May 2019 02:56:31 PM MDT
; FORMAT={-:-/ absolute / inch / decimal}
; #@! TF.CreationDate,2019-05-01T14:56:31-06:00
; #@! TF.GenerationSoftware,Kicad,Pcbnew,5.1.2
FMAT,2
INCH
T1C0.0118
T2C0.0157
T3C0.0315
T4C0.0394
T5C0.0669
T6C0.1260
T7C0.1280
%
G90
G05
T1
X0.2756Y1.25
X0.2756Y1.1516
X0.2756Y1.0531
X0.2756Y0.9547
X0.2756Y0.8563
X0.2756Y0.7579
X0.2756Y0.6594
X0.2756Y0.4626
X0.2756Y0.3642
X0.4134Y1.1516
X0.4134Y0.8563
X0.4134Y0.6594
X0.4134Y0.4626
X0.5315Y1.1516
X0.5315Y0.8563
X0.5315Y0.7579
X0.5315Y0.6594
X0.5315Y0.4626
X0.6102Y1.1516
X0.6102Y1.0531
X0.6988Y1.25
X0.6988Y1.1516
X0.6988Y1.0531
X0.6988Y0.9547
X0.6988Y0.8563
X0.6988Y0.7579
X0.6988Y0.6594
X0.6988Y0.4626
X0.6988Y0.3642
T2
X0.4035Y0.0591
X0.4183Y1.4419
X0.4232Y2.1752
X0.4823Y1.939
X0.5413Y0.9055
X0.5811Y0.9055
X0.6196Y0.9055
X0.6299Y2.1161
X0.6594Y0.9055
X0.6693Y0.0591
T3
X0.2122Y0.5496
X0.3024Y0.5496
X0.3417Y0.3598
X0.3819Y0.2898
X0.422Y0.3598
X0.4622Y0.2898
X0.5028Y0.3598
X0.5425Y0.2898
X0.5827Y0.3598
X0.6228Y0.2898
X0.6622Y0.5496
X0.7524Y0.5496
T4
X0.2823Y1.8039
X0.2823Y1.7039
X0.3823Y1.8039
X0.3823Y1.7039
X0.4823Y1.8039
X0.4823Y1.7039
X0.5823Y1.8039
X0.5823Y1.7039
X0.6823Y1.8039
X0.6823Y1.7039
T5
X0.1624Y0.3248
X0.8022Y0.3248
T6
X0.8169Y1.1909
X0.1476Y1.1811
T7
X0.2323Y0.1898
X0.7323Y0.1898
T0
M30
