%FSLAX45Y45*%
G04 Gerber Fmt 4.5, Leading zero omitted, Abs format (unit mm)*
G04 Created by KiCad (PCBNEW 5.1.2) date 2019-05-01 14:56:33*
%MOMM*%
%LPD*%
G04 APERTURE LIST*
%ADD10C,0.100000*%
%ADD11C,0.200000*%
%ADD12C,0.300000*%
G04 APERTURE END LIST*
D10*
X200000Y6000000D02*
X2250000Y6000000D01*
X200000Y0D02*
X2250000Y0D01*
X200000Y0D02*
G75*
G02X0Y200000I0J200000D01*
G01*
X2450000Y200000D02*
G75*
G02X2250000Y0I-200000J0D01*
G01*
X2250000Y6000000D02*
G75*
G02X2450000Y5800000I0J-200000D01*
G01*
X0Y5800000D02*
G75*
G02X200000Y6000000I200000J0D01*
G01*
X2450000Y200000D02*
X2450000Y5800000D01*
X0Y5800000D02*
X0Y200000D01*
D11*
X685000Y3190000D02*
X715000Y3160000D01*
X715000Y3190000D02*
X685000Y3160000D01*
X685000Y2940000D02*
X715000Y2910000D01*
X715000Y2940000D02*
X685000Y2910000D01*
X685000Y2690000D02*
X715000Y2660000D01*
X715000Y2690000D02*
X685000Y2660000D01*
X685000Y2440000D02*
X715000Y2410000D01*
X715000Y2440000D02*
X685000Y2410000D01*
X685000Y2190000D02*
X715000Y2160000D01*
X715000Y2190000D02*
X685000Y2160000D01*
X685000Y1940000D02*
X715000Y1910000D01*
X715000Y1940000D02*
X685000Y1910000D01*
X685000Y1690000D02*
X715000Y1660000D01*
X715000Y1690000D02*
X685000Y1660000D01*
X685000Y1190000D02*
X715000Y1160000D01*
X715000Y1190000D02*
X685000Y1160000D01*
X685000Y940000D02*
X715000Y910000D01*
X715000Y940000D02*
X685000Y910000D01*
X1035000Y2940000D02*
X1065000Y2910000D01*
X1065000Y2940000D02*
X1035000Y2910000D01*
X1035000Y2190000D02*
X1065000Y2160000D01*
X1065000Y2190000D02*
X1035000Y2160000D01*
X1035000Y1690000D02*
X1065000Y1660000D01*
X1065000Y1690000D02*
X1035000Y1660000D01*
X1035000Y1190000D02*
X1065000Y1160000D01*
X1065000Y1190000D02*
X1035000Y1160000D01*
X1335000Y2940000D02*
X1365000Y2910000D01*
X1365000Y2940000D02*
X1335000Y2910000D01*
X1335000Y2190000D02*
X1365000Y2160000D01*
X1365000Y2190000D02*
X1335000Y2160000D01*
X1335000Y1940000D02*
X1365000Y1910000D01*
X1365000Y1940000D02*
X1335000Y1910000D01*
X1335000Y1690000D02*
X1365000Y1660000D01*
X1365000Y1690000D02*
X1335000Y1660000D01*
X1335000Y1190000D02*
X1365000Y1160000D01*
X1365000Y1190000D02*
X1335000Y1160000D01*
X1535000Y2940000D02*
X1565000Y2910000D01*
X1565000Y2940000D02*
X1535000Y2910000D01*
X1535000Y2690000D02*
X1565000Y2660000D01*
X1565000Y2690000D02*
X1535000Y2660000D01*
X1760000Y3190000D02*
X1790000Y3160000D01*
X1790000Y3190000D02*
X1760000Y3160000D01*
X1760000Y2940000D02*
X1790000Y2910000D01*
X1790000Y2940000D02*
X1760000Y2910000D01*
X1760000Y2690000D02*
X1790000Y2660000D01*
X1790000Y2690000D02*
X1760000Y2660000D01*
X1760000Y2440000D02*
X1790000Y2410000D01*
X1790000Y2440000D02*
X1760000Y2410000D01*
X1760000Y2190000D02*
X1790000Y2160000D01*
X1790000Y2190000D02*
X1760000Y2160000D01*
X1760000Y1940000D02*
X1790000Y1910000D01*
X1790000Y1940000D02*
X1760000Y1910000D01*
X1760000Y1690000D02*
X1790000Y1660000D01*
X1790000Y1690000D02*
X1760000Y1660000D01*
X1760000Y1190000D02*
X1790000Y1160000D01*
X1790000Y1190000D02*
X1760000Y1160000D01*
X1760000Y940000D02*
X1790000Y910000D01*
X1790000Y940000D02*
X1760000Y910000D01*
X1045000Y150000D02*
G75*
G03X1045000Y150000I-20000J0D01*
G01*
X1082500Y3662500D02*
G75*
G03X1082500Y3662500I-20000J0D01*
G01*
X1095000Y5525000D02*
G75*
G03X1095000Y5525000I-20000J0D01*
G01*
X1245000Y4925000D02*
G75*
G03X1245000Y4925000I-20000J0D01*
G01*
X1395000Y2300000D02*
G75*
G03X1395000Y2300000I-20000J0D01*
G01*
X1496110Y2300000D02*
G75*
G03X1496110Y2300000I-20000J0D01*
G01*
X1593890Y2300000D02*
G75*
G03X1593890Y2300000I-20000J0D01*
G01*
X1620000Y5375000D02*
G75*
G03X1620000Y5375000I-20000J0D01*
G01*
X1695000Y2300000D02*
G75*
G03X1695000Y2300000I-20000J0D01*
G01*
X1720000Y150000D02*
G75*
G03X1720000Y150000I-20000J0D01*
G01*
X539000Y1436000D02*
X539000Y1356000D01*
X499000Y1396000D02*
X579000Y1396000D01*
X768000Y1436000D02*
X768000Y1356000D01*
X728000Y1396000D02*
X808000Y1396000D01*
X868000Y954000D02*
X868000Y874000D01*
X828000Y914000D02*
X908000Y914000D01*
X970000Y776000D02*
X970000Y696000D01*
X930000Y736000D02*
X1010000Y736000D01*
X1072000Y954000D02*
X1072000Y874000D01*
X1032000Y914000D02*
X1112000Y914000D01*
X1174000Y776000D02*
X1174000Y696000D01*
X1134000Y736000D02*
X1214000Y736000D01*
X1277000Y954000D02*
X1277000Y874000D01*
X1237000Y914000D02*
X1317000Y914000D01*
X1378000Y776000D02*
X1378000Y696000D01*
X1338000Y736000D02*
X1418000Y736000D01*
X1480000Y954000D02*
X1480000Y874000D01*
X1440000Y914000D02*
X1520000Y914000D01*
X1582000Y776000D02*
X1582000Y696000D01*
X1542000Y736000D02*
X1622000Y736000D01*
X1682000Y1436000D02*
X1682000Y1356000D01*
X1642000Y1396000D02*
X1722000Y1396000D01*
X1911000Y1436000D02*
X1911000Y1356000D01*
X1871000Y1396000D02*
X1951000Y1396000D01*
X752356Y4546644D02*
X752356Y4617356D01*
X681644Y4617356D01*
X681644Y4546644D01*
X752356Y4546644D01*
X752356Y4292644D02*
X752356Y4363356D01*
X681644Y4363356D01*
X681644Y4292644D01*
X752356Y4292644D01*
X1006356Y4546644D02*
X1006356Y4617356D01*
X935644Y4617356D01*
X935644Y4546644D01*
X1006356Y4546644D01*
X1006356Y4292644D02*
X1006356Y4363356D01*
X935644Y4363356D01*
X935644Y4292644D01*
X1006356Y4292644D01*
X1260356Y4546644D02*
X1260356Y4617356D01*
X1189644Y4617356D01*
X1189644Y4546644D01*
X1260356Y4546644D01*
X1260356Y4292644D02*
X1260356Y4363356D01*
X1189644Y4363356D01*
X1189644Y4292644D01*
X1260356Y4292644D01*
X1514356Y4546644D02*
X1514356Y4617356D01*
X1443644Y4617356D01*
X1443644Y4546644D01*
X1514356Y4546644D01*
X1514356Y4292644D02*
X1514356Y4363356D01*
X1443644Y4363356D01*
X1443644Y4292644D01*
X1514356Y4292644D01*
X1768356Y4546644D02*
X1768356Y4617356D01*
X1697644Y4617356D01*
X1697644Y4546644D01*
X1768356Y4546644D01*
X1768356Y4292644D02*
X1768356Y4363356D01*
X1697644Y4363356D01*
X1697644Y4292644D01*
X1768356Y4292644D01*
X412500Y740000D02*
X497500Y825000D01*
X412500Y910000D01*
X327500Y825000D01*
X412500Y740000D01*
X2037500Y740000D02*
X2122500Y825000D01*
X2037500Y910000D01*
X1952500Y825000D01*
X2037500Y740000D01*
X1915000Y3185000D02*
X2235000Y2865000D01*
X2235000Y3185000D02*
X1915000Y2865000D01*
X2235000Y3025000D02*
G75*
G03X2235000Y3025000I-160000J0D01*
G01*
X215000Y3160000D02*
X535000Y2840000D01*
X535000Y3160000D02*
X215000Y2840000D01*
X535000Y3000000D02*
G75*
G03X535000Y3000000I-160000J0D01*
G01*
X427500Y644500D02*
X752500Y319500D01*
X752500Y644500D02*
X427500Y319500D01*
X590000Y644500D02*
X590000Y319500D01*
X427500Y482000D02*
X752500Y482000D01*
X1697500Y644500D02*
X2022500Y319500D01*
X2022500Y644500D02*
X1697500Y319500D01*
X1860000Y644500D02*
X1860000Y319500D01*
X1697500Y482000D02*
X2022500Y482000D01*
D12*
X281428Y-470714D02*
X281428Y-170714D01*
X352857Y-170714D01*
X395714Y-185000D01*
X424286Y-213571D01*
X438571Y-242143D01*
X452857Y-299286D01*
X452857Y-342143D01*
X438571Y-399286D01*
X424286Y-427857D01*
X395714Y-456429D01*
X352857Y-470714D01*
X281428Y-470714D01*
X581428Y-470714D02*
X581428Y-270714D01*
X581428Y-327857D02*
X595714Y-299286D01*
X610000Y-285000D01*
X638571Y-270714D01*
X667143Y-270714D01*
X767143Y-470714D02*
X767143Y-270714D01*
X767143Y-170714D02*
X752857Y-185000D01*
X767143Y-199286D01*
X781428Y-185000D01*
X767143Y-170714D01*
X767143Y-199286D01*
X952857Y-470714D02*
X924286Y-456429D01*
X910000Y-427857D01*
X910000Y-170714D01*
X1110000Y-470714D02*
X1081428Y-456429D01*
X1067143Y-427857D01*
X1067143Y-170714D01*
X1452857Y-470714D02*
X1452857Y-170714D01*
X1552857Y-385000D01*
X1652857Y-170714D01*
X1652857Y-470714D01*
X1924286Y-470714D02*
X1924286Y-313572D01*
X1910000Y-285000D01*
X1881428Y-270714D01*
X1824286Y-270714D01*
X1795714Y-285000D01*
X1924286Y-456429D02*
X1895714Y-470714D01*
X1824286Y-470714D01*
X1795714Y-456429D01*
X1781428Y-427857D01*
X1781428Y-399286D01*
X1795714Y-370714D01*
X1824286Y-356429D01*
X1895714Y-356429D01*
X1924286Y-342143D01*
X2067143Y-270714D02*
X2067143Y-570714D01*
X2067143Y-285000D02*
X2095714Y-270714D01*
X2152857Y-270714D01*
X2181428Y-285000D01*
X2195714Y-299286D01*
X2210000Y-327857D01*
X2210000Y-413571D01*
X2195714Y-442143D01*
X2181428Y-456429D01*
X2152857Y-470714D01*
X2095714Y-470714D01*
X2067143Y-456429D01*
X2338571Y-442143D02*
X2352857Y-456429D01*
X2338571Y-470714D01*
X2324286Y-456429D01*
X2338571Y-442143D01*
X2338571Y-470714D01*
X2338571Y-285000D02*
X2352857Y-299286D01*
X2338571Y-313572D01*
X2324286Y-299286D01*
X2338571Y-285000D01*
X2338571Y-313572D01*
X-35000Y-950000D02*
X-5000Y-980000D01*
X-5000Y-950000D02*
X-35000Y-980000D01*
X338571Y-800714D02*
X367143Y-800714D01*
X395714Y-815000D01*
X410000Y-829286D01*
X424286Y-857857D01*
X438571Y-915000D01*
X438571Y-986429D01*
X424286Y-1043571D01*
X410000Y-1072143D01*
X395714Y-1086429D01*
X367143Y-1100714D01*
X338571Y-1100714D01*
X310000Y-1086429D01*
X295714Y-1072143D01*
X281428Y-1043571D01*
X267143Y-986429D01*
X267143Y-915000D01*
X281428Y-857857D01*
X295714Y-829286D01*
X310000Y-815000D01*
X338571Y-800714D01*
X567143Y-1072143D02*
X581428Y-1086429D01*
X567143Y-1100714D01*
X552857Y-1086429D01*
X567143Y-1072143D01*
X567143Y-1100714D01*
X681428Y-800714D02*
X867143Y-800714D01*
X767143Y-915000D01*
X810000Y-915000D01*
X838571Y-929286D01*
X852857Y-943571D01*
X867143Y-972143D01*
X867143Y-1043571D01*
X852857Y-1072143D01*
X838571Y-1086429D01*
X810000Y-1100714D01*
X724286Y-1100714D01*
X695714Y-1086429D01*
X681428Y-1072143D01*
X1052857Y-800714D02*
X1081428Y-800714D01*
X1110000Y-815000D01*
X1124286Y-829286D01*
X1138571Y-857857D01*
X1152857Y-915000D01*
X1152857Y-986429D01*
X1138571Y-1043571D01*
X1124286Y-1072143D01*
X1110000Y-1086429D01*
X1081428Y-1100714D01*
X1052857Y-1100714D01*
X1024286Y-1086429D01*
X1010000Y-1072143D01*
X995714Y-1043571D01*
X981428Y-986429D01*
X981428Y-915000D01*
X995714Y-857857D01*
X1010000Y-829286D01*
X1024286Y-815000D01*
X1052857Y-800714D01*
X1281428Y-1100714D02*
X1281428Y-900714D01*
X1281428Y-929286D02*
X1295714Y-915000D01*
X1324286Y-900714D01*
X1367143Y-900714D01*
X1395714Y-915000D01*
X1410000Y-943571D01*
X1410000Y-1100714D01*
X1410000Y-943571D02*
X1424286Y-915000D01*
X1452857Y-900714D01*
X1495714Y-900714D01*
X1524286Y-915000D01*
X1538571Y-943571D01*
X1538571Y-1100714D01*
X1681428Y-1100714D02*
X1681428Y-900714D01*
X1681428Y-929286D02*
X1695714Y-915000D01*
X1724286Y-900714D01*
X1767143Y-900714D01*
X1795714Y-915000D01*
X1810000Y-943571D01*
X1810000Y-1100714D01*
X1810000Y-943571D02*
X1824286Y-915000D01*
X1852857Y-900714D01*
X1895714Y-900714D01*
X1924286Y-915000D01*
X1938571Y-943571D01*
X1938571Y-1100714D01*
X2524286Y-786429D02*
X2267143Y-1172143D01*
X2910000Y-800714D02*
X2938571Y-800714D01*
X2967143Y-815000D01*
X2981428Y-829286D01*
X2995714Y-857857D01*
X3010000Y-915000D01*
X3010000Y-986429D01*
X2995714Y-1043571D01*
X2981428Y-1072143D01*
X2967143Y-1086429D01*
X2938571Y-1100714D01*
X2910000Y-1100714D01*
X2881428Y-1086429D01*
X2867143Y-1072143D01*
X2852857Y-1043571D01*
X2838571Y-986429D01*
X2838571Y-915000D01*
X2852857Y-857857D01*
X2867143Y-829286D01*
X2881428Y-815000D01*
X2910000Y-800714D01*
X3138571Y-1072143D02*
X3152857Y-1086429D01*
X3138571Y-1100714D01*
X3124286Y-1086429D01*
X3138571Y-1072143D01*
X3138571Y-1100714D01*
X3338571Y-800714D02*
X3367143Y-800714D01*
X3395714Y-815000D01*
X3410000Y-829286D01*
X3424286Y-857857D01*
X3438571Y-915000D01*
X3438571Y-986429D01*
X3424286Y-1043571D01*
X3410000Y-1072143D01*
X3395714Y-1086429D01*
X3367143Y-1100714D01*
X3338571Y-1100714D01*
X3310000Y-1086429D01*
X3295714Y-1072143D01*
X3281428Y-1043571D01*
X3267143Y-986429D01*
X3267143Y-915000D01*
X3281428Y-857857D01*
X3295714Y-829286D01*
X3310000Y-815000D01*
X3338571Y-800714D01*
X3724286Y-1100714D02*
X3552857Y-1100714D01*
X3638571Y-1100714D02*
X3638571Y-800714D01*
X3610000Y-843571D01*
X3581428Y-872143D01*
X3552857Y-886429D01*
X3838571Y-829286D02*
X3852857Y-815000D01*
X3881428Y-800714D01*
X3952857Y-800714D01*
X3981428Y-815000D01*
X3995714Y-829286D01*
X4010000Y-857857D01*
X4010000Y-886429D01*
X3995714Y-929286D01*
X3824286Y-1100714D01*
X4010000Y-1100714D01*
X4124286Y-800714D02*
X4124286Y-857857D01*
X4238571Y-800714D02*
X4238571Y-857857D01*
X4681428Y-1215000D02*
X4667143Y-1200714D01*
X4638571Y-1157857D01*
X4624286Y-1129286D01*
X4610000Y-1086429D01*
X4595714Y-1015000D01*
X4595714Y-957857D01*
X4610000Y-886429D01*
X4624286Y-843571D01*
X4638571Y-815000D01*
X4667143Y-772143D01*
X4681428Y-757857D01*
X4781428Y-829286D02*
X4795714Y-815000D01*
X4824286Y-800714D01*
X4895714Y-800714D01*
X4924286Y-815000D01*
X4938571Y-829286D01*
X4952857Y-857857D01*
X4952857Y-886429D01*
X4938571Y-929286D01*
X4767143Y-1100714D01*
X4952857Y-1100714D01*
X5095714Y-1100714D02*
X5152857Y-1100714D01*
X5181428Y-1086429D01*
X5195714Y-1072143D01*
X5224286Y-1029286D01*
X5238571Y-972143D01*
X5238571Y-857857D01*
X5224286Y-829286D01*
X5210000Y-815000D01*
X5181428Y-800714D01*
X5124286Y-800714D01*
X5095714Y-815000D01*
X5081428Y-829286D01*
X5067143Y-857857D01*
X5067143Y-929286D01*
X5081428Y-957857D01*
X5095714Y-972143D01*
X5124286Y-986429D01*
X5181428Y-986429D01*
X5210000Y-972143D01*
X5224286Y-957857D01*
X5238571Y-929286D01*
X5595714Y-1100714D02*
X5595714Y-800714D01*
X5724286Y-1100714D02*
X5724286Y-943571D01*
X5710000Y-915000D01*
X5681428Y-900714D01*
X5638571Y-900714D01*
X5610000Y-915000D01*
X5595714Y-929286D01*
X5910000Y-1100714D02*
X5881428Y-1086429D01*
X5867143Y-1072143D01*
X5852857Y-1043571D01*
X5852857Y-957857D01*
X5867143Y-929286D01*
X5881428Y-915000D01*
X5910000Y-900714D01*
X5952857Y-900714D01*
X5981428Y-915000D01*
X5995714Y-929286D01*
X6010000Y-957857D01*
X6010000Y-1043571D01*
X5995714Y-1072143D01*
X5981428Y-1086429D01*
X5952857Y-1100714D01*
X5910000Y-1100714D01*
X6181428Y-1100714D02*
X6152857Y-1086429D01*
X6138571Y-1057857D01*
X6138571Y-800714D01*
X6410000Y-1086429D02*
X6381428Y-1100714D01*
X6324286Y-1100714D01*
X6295714Y-1086429D01*
X6281428Y-1057857D01*
X6281428Y-943571D01*
X6295714Y-915000D01*
X6324286Y-900714D01*
X6381428Y-900714D01*
X6410000Y-915000D01*
X6424286Y-943571D01*
X6424286Y-972143D01*
X6281428Y-1000714D01*
X6538571Y-1086429D02*
X6567143Y-1100714D01*
X6624286Y-1100714D01*
X6652857Y-1086429D01*
X6667143Y-1057857D01*
X6667143Y-1043571D01*
X6652857Y-1015000D01*
X6624286Y-1000714D01*
X6581428Y-1000714D01*
X6552857Y-986429D01*
X6538571Y-957857D01*
X6538571Y-943571D01*
X6552857Y-915000D01*
X6581428Y-900714D01*
X6624286Y-900714D01*
X6652857Y-915000D01*
X6767143Y-1215000D02*
X6781428Y-1200714D01*
X6810000Y-1157857D01*
X6824286Y-1129286D01*
X6838571Y-1086429D01*
X6852857Y-1015000D01*
X6852857Y-957857D01*
X6838571Y-886429D01*
X6824286Y-843571D01*
X6810000Y-815000D01*
X6781428Y-772143D01*
X6767143Y-757857D01*
X-5000Y-1361000D02*
G75*
G03X-5000Y-1361000I-20000J0D01*
G01*
X338571Y-1196714D02*
X367143Y-1196714D01*
X395714Y-1211000D01*
X410000Y-1225286D01*
X424286Y-1253857D01*
X438571Y-1311000D01*
X438571Y-1382429D01*
X424286Y-1439571D01*
X410000Y-1468143D01*
X395714Y-1482429D01*
X367143Y-1496714D01*
X338571Y-1496714D01*
X310000Y-1482429D01*
X295714Y-1468143D01*
X281428Y-1439571D01*
X267143Y-1382429D01*
X267143Y-1311000D01*
X281428Y-1253857D01*
X295714Y-1225286D01*
X310000Y-1211000D01*
X338571Y-1196714D01*
X567143Y-1468143D02*
X581428Y-1482429D01*
X567143Y-1496714D01*
X552857Y-1482429D01*
X567143Y-1468143D01*
X567143Y-1496714D01*
X838571Y-1296714D02*
X838571Y-1496714D01*
X767143Y-1182429D02*
X695714Y-1396714D01*
X881428Y-1396714D01*
X1052857Y-1196714D02*
X1081428Y-1196714D01*
X1110000Y-1211000D01*
X1124286Y-1225286D01*
X1138571Y-1253857D01*
X1152857Y-1311000D01*
X1152857Y-1382429D01*
X1138571Y-1439571D01*
X1124286Y-1468143D01*
X1110000Y-1482429D01*
X1081428Y-1496714D01*
X1052857Y-1496714D01*
X1024286Y-1482429D01*
X1010000Y-1468143D01*
X995714Y-1439571D01*
X981428Y-1382429D01*
X981428Y-1311000D01*
X995714Y-1253857D01*
X1010000Y-1225286D01*
X1024286Y-1211000D01*
X1052857Y-1196714D01*
X1281428Y-1496714D02*
X1281428Y-1296714D01*
X1281428Y-1325286D02*
X1295714Y-1311000D01*
X1324286Y-1296714D01*
X1367143Y-1296714D01*
X1395714Y-1311000D01*
X1410000Y-1339572D01*
X1410000Y-1496714D01*
X1410000Y-1339572D02*
X1424286Y-1311000D01*
X1452857Y-1296714D01*
X1495714Y-1296714D01*
X1524286Y-1311000D01*
X1538571Y-1339572D01*
X1538571Y-1496714D01*
X1681428Y-1496714D02*
X1681428Y-1296714D01*
X1681428Y-1325286D02*
X1695714Y-1311000D01*
X1724286Y-1296714D01*
X1767143Y-1296714D01*
X1795714Y-1311000D01*
X1810000Y-1339572D01*
X1810000Y-1496714D01*
X1810000Y-1339572D02*
X1824286Y-1311000D01*
X1852857Y-1296714D01*
X1895714Y-1296714D01*
X1924286Y-1311000D01*
X1938571Y-1339572D01*
X1938571Y-1496714D01*
X2524286Y-1182429D02*
X2267143Y-1568143D01*
X2910000Y-1196714D02*
X2938571Y-1196714D01*
X2967143Y-1211000D01*
X2981428Y-1225286D01*
X2995714Y-1253857D01*
X3010000Y-1311000D01*
X3010000Y-1382429D01*
X2995714Y-1439571D01*
X2981428Y-1468143D01*
X2967143Y-1482429D01*
X2938571Y-1496714D01*
X2910000Y-1496714D01*
X2881428Y-1482429D01*
X2867143Y-1468143D01*
X2852857Y-1439571D01*
X2838571Y-1382429D01*
X2838571Y-1311000D01*
X2852857Y-1253857D01*
X2867143Y-1225286D01*
X2881428Y-1211000D01*
X2910000Y-1196714D01*
X3138571Y-1468143D02*
X3152857Y-1482429D01*
X3138571Y-1496714D01*
X3124286Y-1482429D01*
X3138571Y-1468143D01*
X3138571Y-1496714D01*
X3338571Y-1196714D02*
X3367143Y-1196714D01*
X3395714Y-1211000D01*
X3410000Y-1225286D01*
X3424286Y-1253857D01*
X3438571Y-1311000D01*
X3438571Y-1382429D01*
X3424286Y-1439571D01*
X3410000Y-1468143D01*
X3395714Y-1482429D01*
X3367143Y-1496714D01*
X3338571Y-1496714D01*
X3310000Y-1482429D01*
X3295714Y-1468143D01*
X3281428Y-1439571D01*
X3267143Y-1382429D01*
X3267143Y-1311000D01*
X3281428Y-1253857D01*
X3295714Y-1225286D01*
X3310000Y-1211000D01*
X3338571Y-1196714D01*
X3724286Y-1496714D02*
X3552857Y-1496714D01*
X3638571Y-1496714D02*
X3638571Y-1196714D01*
X3610000Y-1239572D01*
X3581428Y-1268143D01*
X3552857Y-1282429D01*
X3981428Y-1196714D02*
X3924286Y-1196714D01*
X3895714Y-1211000D01*
X3881428Y-1225286D01*
X3852857Y-1268143D01*
X3838571Y-1325286D01*
X3838571Y-1439571D01*
X3852857Y-1468143D01*
X3867143Y-1482429D01*
X3895714Y-1496714D01*
X3952857Y-1496714D01*
X3981428Y-1482429D01*
X3995714Y-1468143D01*
X4010000Y-1439571D01*
X4010000Y-1368143D01*
X3995714Y-1339572D01*
X3981428Y-1325286D01*
X3952857Y-1311000D01*
X3895714Y-1311000D01*
X3867143Y-1325286D01*
X3852857Y-1339572D01*
X3838571Y-1368143D01*
X4124286Y-1196714D02*
X4124286Y-1253857D01*
X4238571Y-1196714D02*
X4238571Y-1253857D01*
X4681428Y-1611000D02*
X4667143Y-1596714D01*
X4638571Y-1553857D01*
X4624286Y-1525286D01*
X4610000Y-1482429D01*
X4595714Y-1411000D01*
X4595714Y-1353857D01*
X4610000Y-1282429D01*
X4624286Y-1239572D01*
X4638571Y-1211000D01*
X4667143Y-1168143D01*
X4681428Y-1153857D01*
X4952857Y-1496714D02*
X4781428Y-1496714D01*
X4867143Y-1496714D02*
X4867143Y-1196714D01*
X4838571Y-1239572D01*
X4810000Y-1268143D01*
X4781428Y-1282429D01*
X5138571Y-1196714D02*
X5167143Y-1196714D01*
X5195714Y-1211000D01*
X5210000Y-1225286D01*
X5224286Y-1253857D01*
X5238571Y-1311000D01*
X5238571Y-1382429D01*
X5224286Y-1439571D01*
X5210000Y-1468143D01*
X5195714Y-1482429D01*
X5167143Y-1496714D01*
X5138571Y-1496714D01*
X5110000Y-1482429D01*
X5095714Y-1468143D01*
X5081428Y-1439571D01*
X5067143Y-1382429D01*
X5067143Y-1311000D01*
X5081428Y-1253857D01*
X5095714Y-1225286D01*
X5110000Y-1211000D01*
X5138571Y-1196714D01*
X5595714Y-1496714D02*
X5595714Y-1196714D01*
X5724286Y-1496714D02*
X5724286Y-1339572D01*
X5710000Y-1311000D01*
X5681428Y-1296714D01*
X5638571Y-1296714D01*
X5610000Y-1311000D01*
X5595714Y-1325286D01*
X5910000Y-1496714D02*
X5881428Y-1482429D01*
X5867143Y-1468143D01*
X5852857Y-1439571D01*
X5852857Y-1353857D01*
X5867143Y-1325286D01*
X5881428Y-1311000D01*
X5910000Y-1296714D01*
X5952857Y-1296714D01*
X5981428Y-1311000D01*
X5995714Y-1325286D01*
X6010000Y-1353857D01*
X6010000Y-1439571D01*
X5995714Y-1468143D01*
X5981428Y-1482429D01*
X5952857Y-1496714D01*
X5910000Y-1496714D01*
X6181428Y-1496714D02*
X6152857Y-1482429D01*
X6138571Y-1453857D01*
X6138571Y-1196714D01*
X6410000Y-1482429D02*
X6381428Y-1496714D01*
X6324286Y-1496714D01*
X6295714Y-1482429D01*
X6281428Y-1453857D01*
X6281428Y-1339572D01*
X6295714Y-1311000D01*
X6324286Y-1296714D01*
X6381428Y-1296714D01*
X6410000Y-1311000D01*
X6424286Y-1339572D01*
X6424286Y-1368143D01*
X6281428Y-1396714D01*
X6538571Y-1482429D02*
X6567143Y-1496714D01*
X6624286Y-1496714D01*
X6652857Y-1482429D01*
X6667143Y-1453857D01*
X6667143Y-1439571D01*
X6652857Y-1411000D01*
X6624286Y-1396714D01*
X6581428Y-1396714D01*
X6552857Y-1382429D01*
X6538571Y-1353857D01*
X6538571Y-1339572D01*
X6552857Y-1311000D01*
X6581428Y-1296714D01*
X6624286Y-1296714D01*
X6652857Y-1311000D01*
X6767143Y-1611000D02*
X6781428Y-1596714D01*
X6810000Y-1553857D01*
X6824286Y-1525286D01*
X6838571Y-1482429D01*
X6852857Y-1411000D01*
X6852857Y-1353857D01*
X6838571Y-1282429D01*
X6824286Y-1239572D01*
X6810000Y-1211000D01*
X6781428Y-1168143D01*
X6767143Y-1153857D01*
X-45000Y-1717000D02*
X-45000Y-1797000D01*
X-85000Y-1757000D02*
X-5000Y-1757000D01*
X338571Y-1592714D02*
X367143Y-1592714D01*
X395714Y-1607000D01*
X410000Y-1621286D01*
X424286Y-1649857D01*
X438571Y-1707000D01*
X438571Y-1778429D01*
X424286Y-1835571D01*
X410000Y-1864143D01*
X395714Y-1878429D01*
X367143Y-1892714D01*
X338571Y-1892714D01*
X310000Y-1878429D01*
X295714Y-1864143D01*
X281428Y-1835571D01*
X267143Y-1778429D01*
X267143Y-1707000D01*
X281428Y-1649857D01*
X295714Y-1621286D01*
X310000Y-1607000D01*
X338571Y-1592714D01*
X567143Y-1864143D02*
X581428Y-1878429D01*
X567143Y-1892714D01*
X552857Y-1878429D01*
X567143Y-1864143D01*
X567143Y-1892714D01*
X752857Y-1721286D02*
X724286Y-1707000D01*
X710000Y-1692714D01*
X695714Y-1664143D01*
X695714Y-1649857D01*
X710000Y-1621286D01*
X724286Y-1607000D01*
X752857Y-1592714D01*
X810000Y-1592714D01*
X838571Y-1607000D01*
X852857Y-1621286D01*
X867143Y-1649857D01*
X867143Y-1664143D01*
X852857Y-1692714D01*
X838571Y-1707000D01*
X810000Y-1721286D01*
X752857Y-1721286D01*
X724286Y-1735571D01*
X710000Y-1749857D01*
X695714Y-1778429D01*
X695714Y-1835571D01*
X710000Y-1864143D01*
X724286Y-1878429D01*
X752857Y-1892714D01*
X810000Y-1892714D01*
X838571Y-1878429D01*
X852857Y-1864143D01*
X867143Y-1835571D01*
X867143Y-1778429D01*
X852857Y-1749857D01*
X838571Y-1735571D01*
X810000Y-1721286D01*
X1052857Y-1592714D02*
X1081428Y-1592714D01*
X1110000Y-1607000D01*
X1124286Y-1621286D01*
X1138571Y-1649857D01*
X1152857Y-1707000D01*
X1152857Y-1778429D01*
X1138571Y-1835571D01*
X1124286Y-1864143D01*
X1110000Y-1878429D01*
X1081428Y-1892714D01*
X1052857Y-1892714D01*
X1024286Y-1878429D01*
X1010000Y-1864143D01*
X995714Y-1835571D01*
X981428Y-1778429D01*
X981428Y-1707000D01*
X995714Y-1649857D01*
X1010000Y-1621286D01*
X1024286Y-1607000D01*
X1052857Y-1592714D01*
X1281428Y-1892714D02*
X1281428Y-1692714D01*
X1281428Y-1721286D02*
X1295714Y-1707000D01*
X1324286Y-1692714D01*
X1367143Y-1692714D01*
X1395714Y-1707000D01*
X1410000Y-1735571D01*
X1410000Y-1892714D01*
X1410000Y-1735571D02*
X1424286Y-1707000D01*
X1452857Y-1692714D01*
X1495714Y-1692714D01*
X1524286Y-1707000D01*
X1538571Y-1735571D01*
X1538571Y-1892714D01*
X1681428Y-1892714D02*
X1681428Y-1692714D01*
X1681428Y-1721286D02*
X1695714Y-1707000D01*
X1724286Y-1692714D01*
X1767143Y-1692714D01*
X1795714Y-1707000D01*
X1810000Y-1735571D01*
X1810000Y-1892714D01*
X1810000Y-1735571D02*
X1824286Y-1707000D01*
X1852857Y-1692714D01*
X1895714Y-1692714D01*
X1924286Y-1707000D01*
X1938571Y-1735571D01*
X1938571Y-1892714D01*
X2524286Y-1578429D02*
X2267143Y-1964143D01*
X2910000Y-1592714D02*
X2938571Y-1592714D01*
X2967143Y-1607000D01*
X2981428Y-1621286D01*
X2995714Y-1649857D01*
X3010000Y-1707000D01*
X3010000Y-1778429D01*
X2995714Y-1835571D01*
X2981428Y-1864143D01*
X2967143Y-1878429D01*
X2938571Y-1892714D01*
X2910000Y-1892714D01*
X2881428Y-1878429D01*
X2867143Y-1864143D01*
X2852857Y-1835571D01*
X2838571Y-1778429D01*
X2838571Y-1707000D01*
X2852857Y-1649857D01*
X2867143Y-1621286D01*
X2881428Y-1607000D01*
X2910000Y-1592714D01*
X3138571Y-1864143D02*
X3152857Y-1878429D01*
X3138571Y-1892714D01*
X3124286Y-1878429D01*
X3138571Y-1864143D01*
X3138571Y-1892714D01*
X3338571Y-1592714D02*
X3367143Y-1592714D01*
X3395714Y-1607000D01*
X3410000Y-1621286D01*
X3424286Y-1649857D01*
X3438571Y-1707000D01*
X3438571Y-1778429D01*
X3424286Y-1835571D01*
X3410000Y-1864143D01*
X3395714Y-1878429D01*
X3367143Y-1892714D01*
X3338571Y-1892714D01*
X3310000Y-1878429D01*
X3295714Y-1864143D01*
X3281428Y-1835571D01*
X3267143Y-1778429D01*
X3267143Y-1707000D01*
X3281428Y-1649857D01*
X3295714Y-1621286D01*
X3310000Y-1607000D01*
X3338571Y-1592714D01*
X3538571Y-1592714D02*
X3724286Y-1592714D01*
X3624286Y-1707000D01*
X3667143Y-1707000D01*
X3695714Y-1721286D01*
X3710000Y-1735571D01*
X3724286Y-1764143D01*
X3724286Y-1835571D01*
X3710000Y-1864143D01*
X3695714Y-1878429D01*
X3667143Y-1892714D01*
X3581428Y-1892714D01*
X3552857Y-1878429D01*
X3538571Y-1864143D01*
X4010000Y-1892714D02*
X3838571Y-1892714D01*
X3924286Y-1892714D02*
X3924286Y-1592714D01*
X3895714Y-1635571D01*
X3867143Y-1664143D01*
X3838571Y-1678429D01*
X4124286Y-1592714D02*
X4124286Y-1649857D01*
X4238571Y-1592714D02*
X4238571Y-1649857D01*
X4681428Y-2007000D02*
X4667143Y-1992714D01*
X4638571Y-1949857D01*
X4624286Y-1921286D01*
X4610000Y-1878429D01*
X4595714Y-1807000D01*
X4595714Y-1749857D01*
X4610000Y-1678429D01*
X4624286Y-1635571D01*
X4638571Y-1607000D01*
X4667143Y-1564143D01*
X4681428Y-1549857D01*
X4952857Y-1892714D02*
X4781428Y-1892714D01*
X4867143Y-1892714D02*
X4867143Y-1592714D01*
X4838571Y-1635571D01*
X4810000Y-1664143D01*
X4781428Y-1678429D01*
X5067143Y-1621286D02*
X5081428Y-1607000D01*
X5110000Y-1592714D01*
X5181428Y-1592714D01*
X5210000Y-1607000D01*
X5224286Y-1621286D01*
X5238571Y-1649857D01*
X5238571Y-1678429D01*
X5224286Y-1721286D01*
X5052857Y-1892714D01*
X5238571Y-1892714D01*
X5595714Y-1892714D02*
X5595714Y-1592714D01*
X5724286Y-1892714D02*
X5724286Y-1735571D01*
X5710000Y-1707000D01*
X5681428Y-1692714D01*
X5638571Y-1692714D01*
X5610000Y-1707000D01*
X5595714Y-1721286D01*
X5910000Y-1892714D02*
X5881428Y-1878429D01*
X5867143Y-1864143D01*
X5852857Y-1835571D01*
X5852857Y-1749857D01*
X5867143Y-1721286D01*
X5881428Y-1707000D01*
X5910000Y-1692714D01*
X5952857Y-1692714D01*
X5981428Y-1707000D01*
X5995714Y-1721286D01*
X6010000Y-1749857D01*
X6010000Y-1835571D01*
X5995714Y-1864143D01*
X5981428Y-1878429D01*
X5952857Y-1892714D01*
X5910000Y-1892714D01*
X6181428Y-1892714D02*
X6152857Y-1878429D01*
X6138571Y-1849857D01*
X6138571Y-1592714D01*
X6410000Y-1878429D02*
X6381428Y-1892714D01*
X6324286Y-1892714D01*
X6295714Y-1878429D01*
X6281428Y-1849857D01*
X6281428Y-1735571D01*
X6295714Y-1707000D01*
X6324286Y-1692714D01*
X6381428Y-1692714D01*
X6410000Y-1707000D01*
X6424286Y-1735571D01*
X6424286Y-1764143D01*
X6281428Y-1792714D01*
X6538571Y-1878429D02*
X6567143Y-1892714D01*
X6624286Y-1892714D01*
X6652857Y-1878429D01*
X6667143Y-1849857D01*
X6667143Y-1835571D01*
X6652857Y-1807000D01*
X6624286Y-1792714D01*
X6581428Y-1792714D01*
X6552857Y-1778429D01*
X6538571Y-1749857D01*
X6538571Y-1735571D01*
X6552857Y-1707000D01*
X6581428Y-1692714D01*
X6624286Y-1692714D01*
X6652857Y-1707000D01*
X6767143Y-2007000D02*
X6781428Y-1992714D01*
X6810000Y-1949857D01*
X6824286Y-1921286D01*
X6838571Y-1878429D01*
X6852857Y-1807000D01*
X6852857Y-1749857D01*
X6838571Y-1678429D01*
X6824286Y-1635571D01*
X6810000Y-1607000D01*
X6781428Y-1564143D01*
X6767143Y-1549857D01*
X-19644Y-2188356D02*
X-19644Y-2117644D01*
X-90356Y-2117644D01*
X-90356Y-2188356D01*
X-19644Y-2188356D01*
X438571Y-2288714D02*
X267143Y-2288714D01*
X352857Y-2288714D02*
X352857Y-1988714D01*
X324286Y-2031571D01*
X295714Y-2060143D01*
X267143Y-2074429D01*
X567143Y-2260143D02*
X581428Y-2274429D01*
X567143Y-2288714D01*
X552857Y-2274429D01*
X567143Y-2260143D01*
X567143Y-2288714D01*
X767143Y-1988714D02*
X795714Y-1988714D01*
X824286Y-2003000D01*
X838571Y-2017286D01*
X852857Y-2045857D01*
X867143Y-2103000D01*
X867143Y-2174429D01*
X852857Y-2231572D01*
X838571Y-2260143D01*
X824286Y-2274429D01*
X795714Y-2288714D01*
X767143Y-2288714D01*
X738571Y-2274429D01*
X724286Y-2260143D01*
X710000Y-2231572D01*
X695714Y-2174429D01*
X695714Y-2103000D01*
X710000Y-2045857D01*
X724286Y-2017286D01*
X738571Y-2003000D01*
X767143Y-1988714D01*
X1052857Y-1988714D02*
X1081428Y-1988714D01*
X1110000Y-2003000D01*
X1124286Y-2017286D01*
X1138571Y-2045857D01*
X1152857Y-2103000D01*
X1152857Y-2174429D01*
X1138571Y-2231572D01*
X1124286Y-2260143D01*
X1110000Y-2274429D01*
X1081428Y-2288714D01*
X1052857Y-2288714D01*
X1024286Y-2274429D01*
X1010000Y-2260143D01*
X995714Y-2231572D01*
X981428Y-2174429D01*
X981428Y-2103000D01*
X995714Y-2045857D01*
X1010000Y-2017286D01*
X1024286Y-2003000D01*
X1052857Y-1988714D01*
X1281428Y-2288714D02*
X1281428Y-2088714D01*
X1281428Y-2117286D02*
X1295714Y-2103000D01*
X1324286Y-2088714D01*
X1367143Y-2088714D01*
X1395714Y-2103000D01*
X1410000Y-2131572D01*
X1410000Y-2288714D01*
X1410000Y-2131572D02*
X1424286Y-2103000D01*
X1452857Y-2088714D01*
X1495714Y-2088714D01*
X1524286Y-2103000D01*
X1538571Y-2131572D01*
X1538571Y-2288714D01*
X1681428Y-2288714D02*
X1681428Y-2088714D01*
X1681428Y-2117286D02*
X1695714Y-2103000D01*
X1724286Y-2088714D01*
X1767143Y-2088714D01*
X1795714Y-2103000D01*
X1810000Y-2131572D01*
X1810000Y-2288714D01*
X1810000Y-2131572D02*
X1824286Y-2103000D01*
X1852857Y-2088714D01*
X1895714Y-2088714D01*
X1924286Y-2103000D01*
X1938571Y-2131572D01*
X1938571Y-2288714D01*
X2524286Y-1974429D02*
X2267143Y-2360143D01*
X2910000Y-1988714D02*
X2938571Y-1988714D01*
X2967143Y-2003000D01*
X2981428Y-2017286D01*
X2995714Y-2045857D01*
X3010000Y-2103000D01*
X3010000Y-2174429D01*
X2995714Y-2231572D01*
X2981428Y-2260143D01*
X2967143Y-2274429D01*
X2938571Y-2288714D01*
X2910000Y-2288714D01*
X2881428Y-2274429D01*
X2867143Y-2260143D01*
X2852857Y-2231572D01*
X2838571Y-2174429D01*
X2838571Y-2103000D01*
X2852857Y-2045857D01*
X2867143Y-2017286D01*
X2881428Y-2003000D01*
X2910000Y-1988714D01*
X3138571Y-2260143D02*
X3152857Y-2274429D01*
X3138571Y-2288714D01*
X3124286Y-2274429D01*
X3138571Y-2260143D01*
X3138571Y-2288714D01*
X3338571Y-1988714D02*
X3367143Y-1988714D01*
X3395714Y-2003000D01*
X3410000Y-2017286D01*
X3424286Y-2045857D01*
X3438571Y-2103000D01*
X3438571Y-2174429D01*
X3424286Y-2231572D01*
X3410000Y-2260143D01*
X3395714Y-2274429D01*
X3367143Y-2288714D01*
X3338571Y-2288714D01*
X3310000Y-2274429D01*
X3295714Y-2260143D01*
X3281428Y-2231572D01*
X3267143Y-2174429D01*
X3267143Y-2103000D01*
X3281428Y-2045857D01*
X3295714Y-2017286D01*
X3310000Y-2003000D01*
X3338571Y-1988714D01*
X3538571Y-1988714D02*
X3724286Y-1988714D01*
X3624286Y-2103000D01*
X3667143Y-2103000D01*
X3695714Y-2117286D01*
X3710000Y-2131572D01*
X3724286Y-2160143D01*
X3724286Y-2231572D01*
X3710000Y-2260143D01*
X3695714Y-2274429D01*
X3667143Y-2288714D01*
X3581428Y-2288714D01*
X3552857Y-2274429D01*
X3538571Y-2260143D01*
X3867143Y-2288714D02*
X3924286Y-2288714D01*
X3952857Y-2274429D01*
X3967143Y-2260143D01*
X3995714Y-2217286D01*
X4010000Y-2160143D01*
X4010000Y-2045857D01*
X3995714Y-2017286D01*
X3981428Y-2003000D01*
X3952857Y-1988714D01*
X3895714Y-1988714D01*
X3867143Y-2003000D01*
X3852857Y-2017286D01*
X3838571Y-2045857D01*
X3838571Y-2117286D01*
X3852857Y-2145857D01*
X3867143Y-2160143D01*
X3895714Y-2174429D01*
X3952857Y-2174429D01*
X3981428Y-2160143D01*
X3995714Y-2145857D01*
X4010000Y-2117286D01*
X4124286Y-1988714D02*
X4124286Y-2045857D01*
X4238571Y-1988714D02*
X4238571Y-2045857D01*
X4681428Y-2403000D02*
X4667143Y-2388714D01*
X4638571Y-2345857D01*
X4624286Y-2317286D01*
X4610000Y-2274429D01*
X4595714Y-2203000D01*
X4595714Y-2145857D01*
X4610000Y-2074429D01*
X4624286Y-2031571D01*
X4638571Y-2003000D01*
X4667143Y-1960143D01*
X4681428Y-1945857D01*
X4952857Y-2288714D02*
X4781428Y-2288714D01*
X4867143Y-2288714D02*
X4867143Y-1988714D01*
X4838571Y-2031571D01*
X4810000Y-2060143D01*
X4781428Y-2074429D01*
X5138571Y-1988714D02*
X5167143Y-1988714D01*
X5195714Y-2003000D01*
X5210000Y-2017286D01*
X5224286Y-2045857D01*
X5238571Y-2103000D01*
X5238571Y-2174429D01*
X5224286Y-2231572D01*
X5210000Y-2260143D01*
X5195714Y-2274429D01*
X5167143Y-2288714D01*
X5138571Y-2288714D01*
X5110000Y-2274429D01*
X5095714Y-2260143D01*
X5081428Y-2231572D01*
X5067143Y-2174429D01*
X5067143Y-2103000D01*
X5081428Y-2045857D01*
X5095714Y-2017286D01*
X5110000Y-2003000D01*
X5138571Y-1988714D01*
X5595714Y-2288714D02*
X5595714Y-1988714D01*
X5724286Y-2288714D02*
X5724286Y-2131572D01*
X5710000Y-2103000D01*
X5681428Y-2088714D01*
X5638571Y-2088714D01*
X5610000Y-2103000D01*
X5595714Y-2117286D01*
X5910000Y-2288714D02*
X5881428Y-2274429D01*
X5867143Y-2260143D01*
X5852857Y-2231572D01*
X5852857Y-2145857D01*
X5867143Y-2117286D01*
X5881428Y-2103000D01*
X5910000Y-2088714D01*
X5952857Y-2088714D01*
X5981428Y-2103000D01*
X5995714Y-2117286D01*
X6010000Y-2145857D01*
X6010000Y-2231572D01*
X5995714Y-2260143D01*
X5981428Y-2274429D01*
X5952857Y-2288714D01*
X5910000Y-2288714D01*
X6181428Y-2288714D02*
X6152857Y-2274429D01*
X6138571Y-2245857D01*
X6138571Y-1988714D01*
X6410000Y-2274429D02*
X6381428Y-2288714D01*
X6324286Y-2288714D01*
X6295714Y-2274429D01*
X6281428Y-2245857D01*
X6281428Y-2131572D01*
X6295714Y-2103000D01*
X6324286Y-2088714D01*
X6381428Y-2088714D01*
X6410000Y-2103000D01*
X6424286Y-2131572D01*
X6424286Y-2160143D01*
X6281428Y-2188714D01*
X6538571Y-2274429D02*
X6567143Y-2288714D01*
X6624286Y-2288714D01*
X6652857Y-2274429D01*
X6667143Y-2245857D01*
X6667143Y-2231572D01*
X6652857Y-2203000D01*
X6624286Y-2188714D01*
X6581428Y-2188714D01*
X6552857Y-2174429D01*
X6538571Y-2145857D01*
X6538571Y-2131572D01*
X6552857Y-2103000D01*
X6581428Y-2088714D01*
X6624286Y-2088714D01*
X6652857Y-2103000D01*
X6767143Y-2403000D02*
X6781428Y-2388714D01*
X6810000Y-2345857D01*
X6824286Y-2317286D01*
X6838571Y-2274429D01*
X6852857Y-2203000D01*
X6852857Y-2145857D01*
X6838571Y-2074429D01*
X6824286Y-2031571D01*
X6810000Y-2003000D01*
X6781428Y-1960143D01*
X6767143Y-1945857D01*
X-90000Y-2634000D02*
X-5000Y-2549000D01*
X-90000Y-2464000D01*
X-175000Y-2549000D01*
X-90000Y-2634000D01*
X438571Y-2684714D02*
X267143Y-2684714D01*
X352857Y-2684714D02*
X352857Y-2384714D01*
X324286Y-2427572D01*
X295714Y-2456143D01*
X267143Y-2470429D01*
X567143Y-2656143D02*
X581428Y-2670429D01*
X567143Y-2684714D01*
X552857Y-2670429D01*
X567143Y-2656143D01*
X567143Y-2684714D01*
X681428Y-2384714D02*
X881428Y-2384714D01*
X752857Y-2684714D01*
X1052857Y-2384714D02*
X1081428Y-2384714D01*
X1110000Y-2399000D01*
X1124286Y-2413286D01*
X1138571Y-2441857D01*
X1152857Y-2499000D01*
X1152857Y-2570429D01*
X1138571Y-2627572D01*
X1124286Y-2656143D01*
X1110000Y-2670429D01*
X1081428Y-2684714D01*
X1052857Y-2684714D01*
X1024286Y-2670429D01*
X1010000Y-2656143D01*
X995714Y-2627572D01*
X981428Y-2570429D01*
X981428Y-2499000D01*
X995714Y-2441857D01*
X1010000Y-2413286D01*
X1024286Y-2399000D01*
X1052857Y-2384714D01*
X1281428Y-2684714D02*
X1281428Y-2484714D01*
X1281428Y-2513286D02*
X1295714Y-2499000D01*
X1324286Y-2484714D01*
X1367143Y-2484714D01*
X1395714Y-2499000D01*
X1410000Y-2527572D01*
X1410000Y-2684714D01*
X1410000Y-2527572D02*
X1424286Y-2499000D01*
X1452857Y-2484714D01*
X1495714Y-2484714D01*
X1524286Y-2499000D01*
X1538571Y-2527572D01*
X1538571Y-2684714D01*
X1681428Y-2684714D02*
X1681428Y-2484714D01*
X1681428Y-2513286D02*
X1695714Y-2499000D01*
X1724286Y-2484714D01*
X1767143Y-2484714D01*
X1795714Y-2499000D01*
X1810000Y-2527572D01*
X1810000Y-2684714D01*
X1810000Y-2527572D02*
X1824286Y-2499000D01*
X1852857Y-2484714D01*
X1895714Y-2484714D01*
X1924286Y-2499000D01*
X1938571Y-2527572D01*
X1938571Y-2684714D01*
X2524286Y-2370429D02*
X2267143Y-2756143D01*
X2910000Y-2384714D02*
X2938571Y-2384714D01*
X2967143Y-2399000D01*
X2981428Y-2413286D01*
X2995714Y-2441857D01*
X3010000Y-2499000D01*
X3010000Y-2570429D01*
X2995714Y-2627572D01*
X2981428Y-2656143D01*
X2967143Y-2670429D01*
X2938571Y-2684714D01*
X2910000Y-2684714D01*
X2881428Y-2670429D01*
X2867143Y-2656143D01*
X2852857Y-2627572D01*
X2838571Y-2570429D01*
X2838571Y-2499000D01*
X2852857Y-2441857D01*
X2867143Y-2413286D01*
X2881428Y-2399000D01*
X2910000Y-2384714D01*
X3138571Y-2656143D02*
X3152857Y-2670429D01*
X3138571Y-2684714D01*
X3124286Y-2670429D01*
X3138571Y-2656143D01*
X3138571Y-2684714D01*
X3338571Y-2384714D02*
X3367143Y-2384714D01*
X3395714Y-2399000D01*
X3410000Y-2413286D01*
X3424286Y-2441857D01*
X3438571Y-2499000D01*
X3438571Y-2570429D01*
X3424286Y-2627572D01*
X3410000Y-2656143D01*
X3395714Y-2670429D01*
X3367143Y-2684714D01*
X3338571Y-2684714D01*
X3310000Y-2670429D01*
X3295714Y-2656143D01*
X3281428Y-2627572D01*
X3267143Y-2570429D01*
X3267143Y-2499000D01*
X3281428Y-2441857D01*
X3295714Y-2413286D01*
X3310000Y-2399000D01*
X3338571Y-2384714D01*
X3695714Y-2384714D02*
X3638571Y-2384714D01*
X3610000Y-2399000D01*
X3595714Y-2413286D01*
X3567143Y-2456143D01*
X3552857Y-2513286D01*
X3552857Y-2627572D01*
X3567143Y-2656143D01*
X3581428Y-2670429D01*
X3610000Y-2684714D01*
X3667143Y-2684714D01*
X3695714Y-2670429D01*
X3710000Y-2656143D01*
X3724286Y-2627572D01*
X3724286Y-2556143D01*
X3710000Y-2527572D01*
X3695714Y-2513286D01*
X3667143Y-2499000D01*
X3610000Y-2499000D01*
X3581428Y-2513286D01*
X3567143Y-2527572D01*
X3552857Y-2556143D01*
X3824286Y-2384714D02*
X4024286Y-2384714D01*
X3895714Y-2684714D01*
X4124286Y-2384714D02*
X4124286Y-2441857D01*
X4238571Y-2384714D02*
X4238571Y-2441857D01*
X4681428Y-2799000D02*
X4667143Y-2784714D01*
X4638571Y-2741857D01*
X4624286Y-2713286D01*
X4610000Y-2670429D01*
X4595714Y-2599000D01*
X4595714Y-2541857D01*
X4610000Y-2470429D01*
X4624286Y-2427572D01*
X4638571Y-2399000D01*
X4667143Y-2356143D01*
X4681428Y-2341857D01*
X4781428Y-2413286D02*
X4795714Y-2399000D01*
X4824286Y-2384714D01*
X4895714Y-2384714D01*
X4924286Y-2399000D01*
X4938571Y-2413286D01*
X4952857Y-2441857D01*
X4952857Y-2470429D01*
X4938571Y-2513286D01*
X4767143Y-2684714D01*
X4952857Y-2684714D01*
X5310000Y-2684714D02*
X5310000Y-2384714D01*
X5438571Y-2684714D02*
X5438571Y-2527572D01*
X5424286Y-2499000D01*
X5395714Y-2484714D01*
X5352857Y-2484714D01*
X5324286Y-2499000D01*
X5310000Y-2513286D01*
X5624286Y-2684714D02*
X5595714Y-2670429D01*
X5581428Y-2656143D01*
X5567143Y-2627572D01*
X5567143Y-2541857D01*
X5581428Y-2513286D01*
X5595714Y-2499000D01*
X5624286Y-2484714D01*
X5667143Y-2484714D01*
X5695714Y-2499000D01*
X5710000Y-2513286D01*
X5724286Y-2541857D01*
X5724286Y-2627572D01*
X5710000Y-2656143D01*
X5695714Y-2670429D01*
X5667143Y-2684714D01*
X5624286Y-2684714D01*
X5895714Y-2684714D02*
X5867143Y-2670429D01*
X5852857Y-2641857D01*
X5852857Y-2384714D01*
X6124286Y-2670429D02*
X6095714Y-2684714D01*
X6038571Y-2684714D01*
X6010000Y-2670429D01*
X5995714Y-2641857D01*
X5995714Y-2527572D01*
X6010000Y-2499000D01*
X6038571Y-2484714D01*
X6095714Y-2484714D01*
X6124286Y-2499000D01*
X6138571Y-2527572D01*
X6138571Y-2556143D01*
X5995714Y-2584714D01*
X6252857Y-2670429D02*
X6281428Y-2684714D01*
X6338571Y-2684714D01*
X6367143Y-2670429D01*
X6381428Y-2641857D01*
X6381428Y-2627572D01*
X6367143Y-2599000D01*
X6338571Y-2584714D01*
X6295714Y-2584714D01*
X6267143Y-2570429D01*
X6252857Y-2541857D01*
X6252857Y-2527572D01*
X6267143Y-2499000D01*
X6295714Y-2484714D01*
X6338571Y-2484714D01*
X6367143Y-2499000D01*
X6481428Y-2799000D02*
X6495714Y-2784714D01*
X6524286Y-2741857D01*
X6538571Y-2713286D01*
X6552857Y-2670429D01*
X6567143Y-2599000D01*
X6567143Y-2541857D01*
X6552857Y-2470429D01*
X6538571Y-2427572D01*
X6524286Y-2399000D01*
X6495714Y-2356143D01*
X6481428Y-2341857D01*
X-325000Y-2785000D02*
X-5000Y-3105000D01*
X-5000Y-2785000D02*
X-325000Y-3105000D01*
X-5000Y-2945000D02*
G75*
G03X-5000Y-2945000I-160000J0D01*
G01*
X252857Y-2780714D02*
X438571Y-2780714D01*
X338571Y-2895000D01*
X381428Y-2895000D01*
X410000Y-2909286D01*
X424286Y-2923571D01*
X438571Y-2952143D01*
X438571Y-3023571D01*
X424286Y-3052143D01*
X410000Y-3066429D01*
X381428Y-3080714D01*
X295714Y-3080714D01*
X267143Y-3066429D01*
X252857Y-3052143D01*
X567143Y-3052143D02*
X581428Y-3066429D01*
X567143Y-3080714D01*
X552857Y-3066429D01*
X567143Y-3052143D01*
X567143Y-3080714D01*
X695714Y-2809286D02*
X710000Y-2795000D01*
X738571Y-2780714D01*
X810000Y-2780714D01*
X838571Y-2795000D01*
X852857Y-2809286D01*
X867143Y-2837857D01*
X867143Y-2866429D01*
X852857Y-2909286D01*
X681428Y-3080714D01*
X867143Y-3080714D01*
X1052857Y-2780714D02*
X1081428Y-2780714D01*
X1110000Y-2795000D01*
X1124286Y-2809286D01*
X1138571Y-2837857D01*
X1152857Y-2895000D01*
X1152857Y-2966429D01*
X1138571Y-3023571D01*
X1124286Y-3052143D01*
X1110000Y-3066429D01*
X1081428Y-3080714D01*
X1052857Y-3080714D01*
X1024286Y-3066429D01*
X1010000Y-3052143D01*
X995714Y-3023571D01*
X981428Y-2966429D01*
X981428Y-2895000D01*
X995714Y-2837857D01*
X1010000Y-2809286D01*
X1024286Y-2795000D01*
X1052857Y-2780714D01*
X1281428Y-3080714D02*
X1281428Y-2880714D01*
X1281428Y-2909286D02*
X1295714Y-2895000D01*
X1324286Y-2880714D01*
X1367143Y-2880714D01*
X1395714Y-2895000D01*
X1410000Y-2923571D01*
X1410000Y-3080714D01*
X1410000Y-2923571D02*
X1424286Y-2895000D01*
X1452857Y-2880714D01*
X1495714Y-2880714D01*
X1524286Y-2895000D01*
X1538571Y-2923571D01*
X1538571Y-3080714D01*
X1681428Y-3080714D02*
X1681428Y-2880714D01*
X1681428Y-2909286D02*
X1695714Y-2895000D01*
X1724286Y-2880714D01*
X1767143Y-2880714D01*
X1795714Y-2895000D01*
X1810000Y-2923571D01*
X1810000Y-3080714D01*
X1810000Y-2923571D02*
X1824286Y-2895000D01*
X1852857Y-2880714D01*
X1895714Y-2880714D01*
X1924286Y-2895000D01*
X1938571Y-2923571D01*
X1938571Y-3080714D01*
X2524286Y-2766429D02*
X2267143Y-3152143D01*
X2910000Y-2780714D02*
X2938571Y-2780714D01*
X2967143Y-2795000D01*
X2981428Y-2809286D01*
X2995714Y-2837857D01*
X3010000Y-2895000D01*
X3010000Y-2966429D01*
X2995714Y-3023571D01*
X2981428Y-3052143D01*
X2967143Y-3066429D01*
X2938571Y-3080714D01*
X2910000Y-3080714D01*
X2881428Y-3066429D01*
X2867143Y-3052143D01*
X2852857Y-3023571D01*
X2838571Y-2966429D01*
X2838571Y-2895000D01*
X2852857Y-2837857D01*
X2867143Y-2809286D01*
X2881428Y-2795000D01*
X2910000Y-2780714D01*
X3138571Y-3052143D02*
X3152857Y-3066429D01*
X3138571Y-3080714D01*
X3124286Y-3066429D01*
X3138571Y-3052143D01*
X3138571Y-3080714D01*
X3438571Y-3080714D02*
X3267143Y-3080714D01*
X3352857Y-3080714D02*
X3352857Y-2780714D01*
X3324286Y-2823571D01*
X3295714Y-2852143D01*
X3267143Y-2866429D01*
X3552857Y-2809286D02*
X3567143Y-2795000D01*
X3595714Y-2780714D01*
X3667143Y-2780714D01*
X3695714Y-2795000D01*
X3710000Y-2809286D01*
X3724286Y-2837857D01*
X3724286Y-2866429D01*
X3710000Y-2909286D01*
X3538571Y-3080714D01*
X3724286Y-3080714D01*
X3981428Y-2780714D02*
X3924286Y-2780714D01*
X3895714Y-2795000D01*
X3881428Y-2809286D01*
X3852857Y-2852143D01*
X3838571Y-2909286D01*
X3838571Y-3023571D01*
X3852857Y-3052143D01*
X3867143Y-3066429D01*
X3895714Y-3080714D01*
X3952857Y-3080714D01*
X3981428Y-3066429D01*
X3995714Y-3052143D01*
X4010000Y-3023571D01*
X4010000Y-2952143D01*
X3995714Y-2923571D01*
X3981428Y-2909286D01*
X3952857Y-2895000D01*
X3895714Y-2895000D01*
X3867143Y-2909286D01*
X3852857Y-2923571D01*
X3838571Y-2952143D01*
X4124286Y-2780714D02*
X4124286Y-2837857D01*
X4238571Y-2780714D02*
X4238571Y-2837857D01*
X4681428Y-3195000D02*
X4667143Y-3180714D01*
X4638571Y-3137857D01*
X4624286Y-3109286D01*
X4610000Y-3066429D01*
X4595714Y-2995000D01*
X4595714Y-2937857D01*
X4610000Y-2866429D01*
X4624286Y-2823571D01*
X4638571Y-2795000D01*
X4667143Y-2752143D01*
X4681428Y-2737857D01*
X4781428Y-2809286D02*
X4795714Y-2795000D01*
X4824286Y-2780714D01*
X4895714Y-2780714D01*
X4924286Y-2795000D01*
X4938571Y-2809286D01*
X4952857Y-2837857D01*
X4952857Y-2866429D01*
X4938571Y-2909286D01*
X4767143Y-3080714D01*
X4952857Y-3080714D01*
X5310000Y-3080714D02*
X5310000Y-2780714D01*
X5438571Y-3080714D02*
X5438571Y-2923571D01*
X5424286Y-2895000D01*
X5395714Y-2880714D01*
X5352857Y-2880714D01*
X5324286Y-2895000D01*
X5310000Y-2909286D01*
X5624286Y-3080714D02*
X5595714Y-3066429D01*
X5581428Y-3052143D01*
X5567143Y-3023571D01*
X5567143Y-2937857D01*
X5581428Y-2909286D01*
X5595714Y-2895000D01*
X5624286Y-2880714D01*
X5667143Y-2880714D01*
X5695714Y-2895000D01*
X5710000Y-2909286D01*
X5724286Y-2937857D01*
X5724286Y-3023571D01*
X5710000Y-3052143D01*
X5695714Y-3066429D01*
X5667143Y-3080714D01*
X5624286Y-3080714D01*
X5895714Y-3080714D02*
X5867143Y-3066429D01*
X5852857Y-3037857D01*
X5852857Y-2780714D01*
X6124286Y-3066429D02*
X6095714Y-3080714D01*
X6038571Y-3080714D01*
X6010000Y-3066429D01*
X5995714Y-3037857D01*
X5995714Y-2923571D01*
X6010000Y-2895000D01*
X6038571Y-2880714D01*
X6095714Y-2880714D01*
X6124286Y-2895000D01*
X6138571Y-2923571D01*
X6138571Y-2952143D01*
X5995714Y-2980714D01*
X6252857Y-3066429D02*
X6281428Y-3080714D01*
X6338571Y-3080714D01*
X6367143Y-3066429D01*
X6381428Y-3037857D01*
X6381428Y-3023571D01*
X6367143Y-2995000D01*
X6338571Y-2980714D01*
X6295714Y-2980714D01*
X6267143Y-2966429D01*
X6252857Y-2937857D01*
X6252857Y-2923571D01*
X6267143Y-2895000D01*
X6295714Y-2880714D01*
X6338571Y-2880714D01*
X6367143Y-2895000D01*
X6481428Y-3195000D02*
X6495714Y-3180714D01*
X6524286Y-3137857D01*
X6538571Y-3109286D01*
X6552857Y-3066429D01*
X6567143Y-2995000D01*
X6567143Y-2937857D01*
X6552857Y-2866429D01*
X6538571Y-2823571D01*
X6524286Y-2795000D01*
X6495714Y-2752143D01*
X6481428Y-2737857D01*
X7024286Y-3195000D02*
X7010000Y-3180714D01*
X6981428Y-3137857D01*
X6967143Y-3109286D01*
X6952857Y-3066429D01*
X6938571Y-2995000D01*
X6938571Y-2937857D01*
X6952857Y-2866429D01*
X6967143Y-2823571D01*
X6981428Y-2795000D01*
X7010000Y-2752143D01*
X7024286Y-2737857D01*
X7138571Y-2880714D02*
X7138571Y-3080714D01*
X7138571Y-2909286D02*
X7152857Y-2895000D01*
X7181428Y-2880714D01*
X7224286Y-2880714D01*
X7252857Y-2895000D01*
X7267143Y-2923571D01*
X7267143Y-3080714D01*
X7452857Y-3080714D02*
X7424286Y-3066429D01*
X7410000Y-3052143D01*
X7395714Y-3023571D01*
X7395714Y-2937857D01*
X7410000Y-2909286D01*
X7424286Y-2895000D01*
X7452857Y-2880714D01*
X7495714Y-2880714D01*
X7524286Y-2895000D01*
X7538571Y-2909286D01*
X7552857Y-2937857D01*
X7552857Y-3023571D01*
X7538571Y-3052143D01*
X7524286Y-3066429D01*
X7495714Y-3080714D01*
X7452857Y-3080714D01*
X7638571Y-2880714D02*
X7752857Y-2880714D01*
X7681428Y-2780714D02*
X7681428Y-3037857D01*
X7695714Y-3066429D01*
X7724286Y-3080714D01*
X7752857Y-3080714D01*
X8081428Y-2880714D02*
X8081428Y-3180714D01*
X8081428Y-2895000D02*
X8110000Y-2880714D01*
X8167143Y-2880714D01*
X8195714Y-2895000D01*
X8210000Y-2909286D01*
X8224286Y-2937857D01*
X8224286Y-3023571D01*
X8210000Y-3052143D01*
X8195714Y-3066429D01*
X8167143Y-3080714D01*
X8110000Y-3080714D01*
X8081428Y-3066429D01*
X8395714Y-3080714D02*
X8367143Y-3066429D01*
X8352857Y-3037857D01*
X8352857Y-2780714D01*
X8638571Y-3080714D02*
X8638571Y-2923571D01*
X8624286Y-2895000D01*
X8595714Y-2880714D01*
X8538571Y-2880714D01*
X8510000Y-2895000D01*
X8638571Y-3066429D02*
X8610000Y-3080714D01*
X8538571Y-3080714D01*
X8510000Y-3066429D01*
X8495714Y-3037857D01*
X8495714Y-3009286D01*
X8510000Y-2980714D01*
X8538571Y-2966429D01*
X8610000Y-2966429D01*
X8638571Y-2952143D01*
X8738571Y-2880714D02*
X8852857Y-2880714D01*
X8781428Y-2780714D02*
X8781428Y-3037857D01*
X8795714Y-3066429D01*
X8824286Y-3080714D01*
X8852857Y-3080714D01*
X9067143Y-3066429D02*
X9038571Y-3080714D01*
X8981428Y-3080714D01*
X8952857Y-3066429D01*
X8938571Y-3037857D01*
X8938571Y-2923571D01*
X8952857Y-2895000D01*
X8981428Y-2880714D01*
X9038571Y-2880714D01*
X9067143Y-2895000D01*
X9081428Y-2923571D01*
X9081428Y-2952143D01*
X8938571Y-2980714D01*
X9338571Y-3080714D02*
X9338571Y-2780714D01*
X9338571Y-3066429D02*
X9310000Y-3080714D01*
X9252857Y-3080714D01*
X9224286Y-3066429D01*
X9210000Y-3052143D01*
X9195714Y-3023571D01*
X9195714Y-2937857D01*
X9210000Y-2909286D01*
X9224286Y-2895000D01*
X9252857Y-2880714D01*
X9310000Y-2880714D01*
X9338571Y-2895000D01*
X9452857Y-3195000D02*
X9467143Y-3180714D01*
X9495714Y-3137857D01*
X9510000Y-3109286D01*
X9524286Y-3066429D01*
X9538571Y-2995000D01*
X9538571Y-2937857D01*
X9524286Y-2866429D01*
X9510000Y-2823571D01*
X9495714Y-2795000D01*
X9467143Y-2752143D01*
X9452857Y-2737857D01*
X-330000Y-3232500D02*
X-5000Y-3557500D01*
X-5000Y-3232500D02*
X-330000Y-3557500D01*
X-167500Y-3232500D02*
X-167500Y-3557500D01*
X-330000Y-3395000D02*
X-5000Y-3395000D01*
X252857Y-3230714D02*
X438571Y-3230714D01*
X338571Y-3345000D01*
X381428Y-3345000D01*
X410000Y-3359286D01*
X424286Y-3373571D01*
X438571Y-3402143D01*
X438571Y-3473571D01*
X424286Y-3502143D01*
X410000Y-3516429D01*
X381428Y-3530714D01*
X295714Y-3530714D01*
X267143Y-3516429D01*
X252857Y-3502143D01*
X567143Y-3502143D02*
X581428Y-3516429D01*
X567143Y-3530714D01*
X552857Y-3516429D01*
X567143Y-3502143D01*
X567143Y-3530714D01*
X695714Y-3259286D02*
X710000Y-3245000D01*
X738571Y-3230714D01*
X810000Y-3230714D01*
X838571Y-3245000D01*
X852857Y-3259286D01*
X867143Y-3287857D01*
X867143Y-3316429D01*
X852857Y-3359286D01*
X681428Y-3530714D01*
X867143Y-3530714D01*
X1138571Y-3230714D02*
X995714Y-3230714D01*
X981428Y-3373571D01*
X995714Y-3359286D01*
X1024286Y-3345000D01*
X1095714Y-3345000D01*
X1124286Y-3359286D01*
X1138571Y-3373571D01*
X1152857Y-3402143D01*
X1152857Y-3473571D01*
X1138571Y-3502143D01*
X1124286Y-3516429D01*
X1095714Y-3530714D01*
X1024286Y-3530714D01*
X995714Y-3516429D01*
X981428Y-3502143D01*
X1281428Y-3530714D02*
X1281428Y-3330714D01*
X1281428Y-3359286D02*
X1295714Y-3345000D01*
X1324286Y-3330714D01*
X1367143Y-3330714D01*
X1395714Y-3345000D01*
X1410000Y-3373571D01*
X1410000Y-3530714D01*
X1410000Y-3373571D02*
X1424286Y-3345000D01*
X1452857Y-3330714D01*
X1495714Y-3330714D01*
X1524286Y-3345000D01*
X1538571Y-3373571D01*
X1538571Y-3530714D01*
X1681428Y-3530714D02*
X1681428Y-3330714D01*
X1681428Y-3359286D02*
X1695714Y-3345000D01*
X1724286Y-3330714D01*
X1767143Y-3330714D01*
X1795714Y-3345000D01*
X1810000Y-3373571D01*
X1810000Y-3530714D01*
X1810000Y-3373571D02*
X1824286Y-3345000D01*
X1852857Y-3330714D01*
X1895714Y-3330714D01*
X1924286Y-3345000D01*
X1938571Y-3373571D01*
X1938571Y-3530714D01*
X2524286Y-3216429D02*
X2267143Y-3602143D01*
X2910000Y-3230714D02*
X2938571Y-3230714D01*
X2967143Y-3245000D01*
X2981428Y-3259286D01*
X2995714Y-3287857D01*
X3010000Y-3345000D01*
X3010000Y-3416429D01*
X2995714Y-3473571D01*
X2981428Y-3502143D01*
X2967143Y-3516429D01*
X2938571Y-3530714D01*
X2910000Y-3530714D01*
X2881428Y-3516429D01*
X2867143Y-3502143D01*
X2852857Y-3473571D01*
X2838571Y-3416429D01*
X2838571Y-3345000D01*
X2852857Y-3287857D01*
X2867143Y-3259286D01*
X2881428Y-3245000D01*
X2910000Y-3230714D01*
X3138571Y-3502143D02*
X3152857Y-3516429D01*
X3138571Y-3530714D01*
X3124286Y-3516429D01*
X3138571Y-3502143D01*
X3138571Y-3530714D01*
X3438571Y-3530714D02*
X3267143Y-3530714D01*
X3352857Y-3530714D02*
X3352857Y-3230714D01*
X3324286Y-3273571D01*
X3295714Y-3302143D01*
X3267143Y-3316429D01*
X3552857Y-3259286D02*
X3567143Y-3245000D01*
X3595714Y-3230714D01*
X3667143Y-3230714D01*
X3695714Y-3245000D01*
X3710000Y-3259286D01*
X3724286Y-3287857D01*
X3724286Y-3316429D01*
X3710000Y-3359286D01*
X3538571Y-3530714D01*
X3724286Y-3530714D01*
X3895714Y-3359286D02*
X3867143Y-3345000D01*
X3852857Y-3330714D01*
X3838571Y-3302143D01*
X3838571Y-3287857D01*
X3852857Y-3259286D01*
X3867143Y-3245000D01*
X3895714Y-3230714D01*
X3952857Y-3230714D01*
X3981428Y-3245000D01*
X3995714Y-3259286D01*
X4010000Y-3287857D01*
X4010000Y-3302143D01*
X3995714Y-3330714D01*
X3981428Y-3345000D01*
X3952857Y-3359286D01*
X3895714Y-3359286D01*
X3867143Y-3373571D01*
X3852857Y-3387857D01*
X3838571Y-3416429D01*
X3838571Y-3473571D01*
X3852857Y-3502143D01*
X3867143Y-3516429D01*
X3895714Y-3530714D01*
X3952857Y-3530714D01*
X3981428Y-3516429D01*
X3995714Y-3502143D01*
X4010000Y-3473571D01*
X4010000Y-3416429D01*
X3995714Y-3387857D01*
X3981428Y-3373571D01*
X3952857Y-3359286D01*
X4124286Y-3230714D02*
X4124286Y-3287857D01*
X4238571Y-3230714D02*
X4238571Y-3287857D01*
X4681428Y-3645000D02*
X4667143Y-3630714D01*
X4638571Y-3587857D01*
X4624286Y-3559286D01*
X4610000Y-3516429D01*
X4595714Y-3445000D01*
X4595714Y-3387857D01*
X4610000Y-3316429D01*
X4624286Y-3273571D01*
X4638571Y-3245000D01*
X4667143Y-3202143D01*
X4681428Y-3187857D01*
X4781428Y-3259286D02*
X4795714Y-3245000D01*
X4824286Y-3230714D01*
X4895714Y-3230714D01*
X4924286Y-3245000D01*
X4938571Y-3259286D01*
X4952857Y-3287857D01*
X4952857Y-3316429D01*
X4938571Y-3359286D01*
X4767143Y-3530714D01*
X4952857Y-3530714D01*
X5310000Y-3530714D02*
X5310000Y-3230714D01*
X5438571Y-3530714D02*
X5438571Y-3373571D01*
X5424286Y-3345000D01*
X5395714Y-3330714D01*
X5352857Y-3330714D01*
X5324286Y-3345000D01*
X5310000Y-3359286D01*
X5624286Y-3530714D02*
X5595714Y-3516429D01*
X5581428Y-3502143D01*
X5567143Y-3473571D01*
X5567143Y-3387857D01*
X5581428Y-3359286D01*
X5595714Y-3345000D01*
X5624286Y-3330714D01*
X5667143Y-3330714D01*
X5695714Y-3345000D01*
X5710000Y-3359286D01*
X5724286Y-3387857D01*
X5724286Y-3473571D01*
X5710000Y-3502143D01*
X5695714Y-3516429D01*
X5667143Y-3530714D01*
X5624286Y-3530714D01*
X5895714Y-3530714D02*
X5867143Y-3516429D01*
X5852857Y-3487857D01*
X5852857Y-3230714D01*
X6124286Y-3516429D02*
X6095714Y-3530714D01*
X6038571Y-3530714D01*
X6010000Y-3516429D01*
X5995714Y-3487857D01*
X5995714Y-3373571D01*
X6010000Y-3345000D01*
X6038571Y-3330714D01*
X6095714Y-3330714D01*
X6124286Y-3345000D01*
X6138571Y-3373571D01*
X6138571Y-3402143D01*
X5995714Y-3430714D01*
X6252857Y-3516429D02*
X6281428Y-3530714D01*
X6338571Y-3530714D01*
X6367143Y-3516429D01*
X6381428Y-3487857D01*
X6381428Y-3473571D01*
X6367143Y-3445000D01*
X6338571Y-3430714D01*
X6295714Y-3430714D01*
X6267143Y-3416429D01*
X6252857Y-3387857D01*
X6252857Y-3373571D01*
X6267143Y-3345000D01*
X6295714Y-3330714D01*
X6338571Y-3330714D01*
X6367143Y-3345000D01*
X6481428Y-3645000D02*
X6495714Y-3630714D01*
X6524286Y-3587857D01*
X6538571Y-3559286D01*
X6552857Y-3516429D01*
X6567143Y-3445000D01*
X6567143Y-3387857D01*
X6552857Y-3316429D01*
X6538571Y-3273571D01*
X6524286Y-3245000D01*
X6495714Y-3202143D01*
X6481428Y-3187857D01*
X7024286Y-3645000D02*
X7010000Y-3630714D01*
X6981428Y-3587857D01*
X6967143Y-3559286D01*
X6952857Y-3516429D01*
X6938571Y-3445000D01*
X6938571Y-3387857D01*
X6952857Y-3316429D01*
X6967143Y-3273571D01*
X6981428Y-3245000D01*
X7010000Y-3202143D01*
X7024286Y-3187857D01*
X7138571Y-3330714D02*
X7138571Y-3530714D01*
X7138571Y-3359286D02*
X7152857Y-3345000D01*
X7181428Y-3330714D01*
X7224286Y-3330714D01*
X7252857Y-3345000D01*
X7267143Y-3373571D01*
X7267143Y-3530714D01*
X7452857Y-3530714D02*
X7424286Y-3516429D01*
X7410000Y-3502143D01*
X7395714Y-3473571D01*
X7395714Y-3387857D01*
X7410000Y-3359286D01*
X7424286Y-3345000D01*
X7452857Y-3330714D01*
X7495714Y-3330714D01*
X7524286Y-3345000D01*
X7538571Y-3359286D01*
X7552857Y-3387857D01*
X7552857Y-3473571D01*
X7538571Y-3502143D01*
X7524286Y-3516429D01*
X7495714Y-3530714D01*
X7452857Y-3530714D01*
X7638571Y-3330714D02*
X7752857Y-3330714D01*
X7681428Y-3230714D02*
X7681428Y-3487857D01*
X7695714Y-3516429D01*
X7724286Y-3530714D01*
X7752857Y-3530714D01*
X8081428Y-3330714D02*
X8081428Y-3630714D01*
X8081428Y-3345000D02*
X8110000Y-3330714D01*
X8167143Y-3330714D01*
X8195714Y-3345000D01*
X8210000Y-3359286D01*
X8224286Y-3387857D01*
X8224286Y-3473571D01*
X8210000Y-3502143D01*
X8195714Y-3516429D01*
X8167143Y-3530714D01*
X8110000Y-3530714D01*
X8081428Y-3516429D01*
X8395714Y-3530714D02*
X8367143Y-3516429D01*
X8352857Y-3487857D01*
X8352857Y-3230714D01*
X8638571Y-3530714D02*
X8638571Y-3373571D01*
X8624286Y-3345000D01*
X8595714Y-3330714D01*
X8538571Y-3330714D01*
X8510000Y-3345000D01*
X8638571Y-3516429D02*
X8610000Y-3530714D01*
X8538571Y-3530714D01*
X8510000Y-3516429D01*
X8495714Y-3487857D01*
X8495714Y-3459286D01*
X8510000Y-3430714D01*
X8538571Y-3416429D01*
X8610000Y-3416429D01*
X8638571Y-3402143D01*
X8738571Y-3330714D02*
X8852857Y-3330714D01*
X8781428Y-3230714D02*
X8781428Y-3487857D01*
X8795714Y-3516429D01*
X8824286Y-3530714D01*
X8852857Y-3530714D01*
X9067143Y-3516429D02*
X9038571Y-3530714D01*
X8981428Y-3530714D01*
X8952857Y-3516429D01*
X8938571Y-3487857D01*
X8938571Y-3373571D01*
X8952857Y-3345000D01*
X8981428Y-3330714D01*
X9038571Y-3330714D01*
X9067143Y-3345000D01*
X9081428Y-3373571D01*
X9081428Y-3402143D01*
X8938571Y-3430714D01*
X9338571Y-3530714D02*
X9338571Y-3230714D01*
X9338571Y-3516429D02*
X9310000Y-3530714D01*
X9252857Y-3530714D01*
X9224286Y-3516429D01*
X9210000Y-3502143D01*
X9195714Y-3473571D01*
X9195714Y-3387857D01*
X9210000Y-3359286D01*
X9224286Y-3345000D01*
X9252857Y-3330714D01*
X9310000Y-3330714D01*
X9338571Y-3345000D01*
X9452857Y-3645000D02*
X9467143Y-3630714D01*
X9495714Y-3587857D01*
X9510000Y-3559286D01*
X9524286Y-3516429D01*
X9538571Y-3445000D01*
X9538571Y-3387857D01*
X9524286Y-3316429D01*
X9510000Y-3273571D01*
X9495714Y-3245000D01*
X9467143Y-3202143D01*
X9452857Y-3187857D01*
M02*
