G04 #@! TF.GenerationSoftware,KiCad,Pcbnew,5.1.2*
G04 #@! TF.CreationDate,2019-05-01T14:56:28-06:00*
G04 #@! TF.ProjectId,microphone_array_adapter_board,6d696372-6f70-4686-9f6e-655f61727261,1*
G04 #@! TF.SameCoordinates,PX826a3b0PY7270e00*
G04 #@! TF.FileFunction,Legend,Top*
G04 #@! TF.FilePolarity,Positive*
%FSLAX46Y46*%
G04 Gerber Fmt 4.6, Leading zero omitted, Abs format (unit mm)*
G04 Created by KiCad (PCBNEW 5.1.2) date 2019-05-01 14:56:28*
%MOMM*%
%LPD*%
G04 APERTURE LIST*
%ADD10C,0.150000*%
%ADD11C,0.120000*%
%ADD12C,0.010000*%
G04 APERTURE END LIST*
D10*
X4738095Y41178572D02*
X5500000Y41178572D01*
X5119047Y40797620D02*
X5119047Y41559524D01*
X5880952Y41797620D02*
X6500000Y41797620D01*
X6166666Y41416667D01*
X6309523Y41416667D01*
X6404761Y41369048D01*
X6452380Y41321429D01*
X6500000Y41226191D01*
X6500000Y40988096D01*
X6452380Y40892858D01*
X6404761Y40845239D01*
X6309523Y40797620D01*
X6023809Y40797620D01*
X5928571Y40845239D01*
X5880952Y40892858D01*
X6785714Y41797620D02*
X7119047Y40797620D01*
X7452380Y41797620D01*
X7690476Y41797620D02*
X8309523Y41797620D01*
X7976190Y41416667D01*
X8119047Y41416667D01*
X8214285Y41369048D01*
X8261904Y41321429D01*
X8309523Y41226191D01*
X8309523Y40988096D01*
X8261904Y40892858D01*
X8214285Y40845239D01*
X8119047Y40797620D01*
X7833333Y40797620D01*
X7738095Y40845239D01*
X7690476Y40892858D01*
X5814285Y42910715D02*
X5385714Y42910715D01*
X5600000Y42910715D02*
X5600000Y43660715D01*
X5528571Y43553572D01*
X5457142Y43482143D01*
X5385714Y43446429D01*
X5385714Y46339286D02*
X5421428Y46375000D01*
X5492857Y46410715D01*
X5671428Y46410715D01*
X5742857Y46375000D01*
X5778571Y46339286D01*
X5814285Y46267858D01*
X5814285Y46196429D01*
X5778571Y46089286D01*
X5350000Y45660715D01*
X5814285Y45660715D01*
X5607142Y52947620D02*
X5607142Y53947620D01*
X5940476Y53233334D01*
X6273809Y53947620D01*
X6273809Y52947620D01*
X6750000Y52947620D02*
X6750000Y53614286D01*
X6750000Y53947620D02*
X6702380Y53900000D01*
X6750000Y53852381D01*
X6797619Y53900000D01*
X6750000Y53947620D01*
X6750000Y53852381D01*
X7654761Y52995239D02*
X7559523Y52947620D01*
X7369047Y52947620D01*
X7273809Y52995239D01*
X7226190Y53042858D01*
X7178571Y53138096D01*
X7178571Y53423810D01*
X7226190Y53519048D01*
X7273809Y53566667D01*
X7369047Y53614286D01*
X7559523Y53614286D01*
X7654761Y53566667D01*
X8083333Y52947620D02*
X8083333Y53614286D01*
X8083333Y53423810D02*
X8130952Y53519048D01*
X8178571Y53566667D01*
X8273809Y53614286D01*
X8369047Y53614286D01*
X8845238Y52947620D02*
X8750000Y52995239D01*
X8702380Y53042858D01*
X8654761Y53138096D01*
X8654761Y53423810D01*
X8702380Y53519048D01*
X8750000Y53566667D01*
X8845238Y53614286D01*
X8988095Y53614286D01*
X9083333Y53566667D01*
X9130952Y53519048D01*
X9178571Y53423810D01*
X9178571Y53138096D01*
X9130952Y53042858D01*
X9083333Y52995239D01*
X8988095Y52947620D01*
X8845238Y52947620D01*
X9607142Y53614286D02*
X9607142Y52614286D01*
X9607142Y53566667D02*
X9702380Y53614286D01*
X9892857Y53614286D01*
X9988095Y53566667D01*
X10035714Y53519048D01*
X10083333Y53423810D01*
X10083333Y53138096D01*
X10035714Y53042858D01*
X9988095Y52995239D01*
X9892857Y52947620D01*
X9702380Y52947620D01*
X9607142Y52995239D01*
X10511904Y52947620D02*
X10511904Y53947620D01*
X10940476Y52947620D02*
X10940476Y53471429D01*
X10892857Y53566667D01*
X10797619Y53614286D01*
X10654761Y53614286D01*
X10559523Y53566667D01*
X10511904Y53519048D01*
X11559523Y52947620D02*
X11464285Y52995239D01*
X11416666Y53042858D01*
X11369047Y53138096D01*
X11369047Y53423810D01*
X11416666Y53519048D01*
X11464285Y53566667D01*
X11559523Y53614286D01*
X11702380Y53614286D01*
X11797619Y53566667D01*
X11845238Y53519048D01*
X11892857Y53423810D01*
X11892857Y53138096D01*
X11845238Y53042858D01*
X11797619Y52995239D01*
X11702380Y52947620D01*
X11559523Y52947620D01*
X12321428Y53614286D02*
X12321428Y52947620D01*
X12321428Y53519048D02*
X12369047Y53566667D01*
X12464285Y53614286D01*
X12607142Y53614286D01*
X12702380Y53566667D01*
X12750000Y53471429D01*
X12750000Y52947620D01*
X13607142Y52995239D02*
X13511904Y52947620D01*
X13321428Y52947620D01*
X13226190Y52995239D01*
X13178571Y53090477D01*
X13178571Y53471429D01*
X13226190Y53566667D01*
X13321428Y53614286D01*
X13511904Y53614286D01*
X13607142Y53566667D01*
X13654761Y53471429D01*
X13654761Y53376191D01*
X13178571Y53280953D01*
X14797619Y53233334D02*
X15273809Y53233334D01*
X14702380Y52947620D02*
X15035714Y53947620D01*
X15369047Y52947620D01*
X15702380Y52947620D02*
X15702380Y53614286D01*
X15702380Y53423810D02*
X15750000Y53519048D01*
X15797619Y53566667D01*
X15892857Y53614286D01*
X15988095Y53614286D01*
X16321428Y52947620D02*
X16321428Y53614286D01*
X16321428Y53423810D02*
X16369047Y53519048D01*
X16416666Y53566667D01*
X16511904Y53614286D01*
X16607142Y53614286D01*
X17369047Y52947620D02*
X17369047Y53471429D01*
X17321428Y53566667D01*
X17226190Y53614286D01*
X17035714Y53614286D01*
X16940476Y53566667D01*
X17369047Y52995239D02*
X17273809Y52947620D01*
X17035714Y52947620D01*
X16940476Y52995239D01*
X16892857Y53090477D01*
X16892857Y53185715D01*
X16940476Y53280953D01*
X17035714Y53328572D01*
X17273809Y53328572D01*
X17369047Y53376191D01*
X17750000Y53614286D02*
X17988095Y52947620D01*
X18226190Y53614286D02*
X17988095Y52947620D01*
X17892857Y52709524D01*
X17845238Y52661905D01*
X17750000Y52614286D01*
X7083333Y51583334D02*
X7559523Y51583334D01*
X6988095Y51297620D02*
X7321428Y52297620D01*
X7654761Y51297620D01*
X8416666Y51297620D02*
X8416666Y52297620D01*
X8416666Y51345239D02*
X8321428Y51297620D01*
X8130952Y51297620D01*
X8035714Y51345239D01*
X7988095Y51392858D01*
X7940476Y51488096D01*
X7940476Y51773810D01*
X7988095Y51869048D01*
X8035714Y51916667D01*
X8130952Y51964286D01*
X8321428Y51964286D01*
X8416666Y51916667D01*
X9321428Y51297620D02*
X9321428Y51821429D01*
X9273809Y51916667D01*
X9178571Y51964286D01*
X8988095Y51964286D01*
X8892857Y51916667D01*
X9321428Y51345239D02*
X9226190Y51297620D01*
X8988095Y51297620D01*
X8892857Y51345239D01*
X8845238Y51440477D01*
X8845238Y51535715D01*
X8892857Y51630953D01*
X8988095Y51678572D01*
X9226190Y51678572D01*
X9321428Y51726191D01*
X9797619Y51964286D02*
X9797619Y50964286D01*
X9797619Y51916667D02*
X9892857Y51964286D01*
X10083333Y51964286D01*
X10178571Y51916667D01*
X10226190Y51869048D01*
X10273809Y51773810D01*
X10273809Y51488096D01*
X10226190Y51392858D01*
X10178571Y51345239D01*
X10083333Y51297620D01*
X9892857Y51297620D01*
X9797619Y51345239D01*
X10559523Y51964286D02*
X10940476Y51964286D01*
X10702380Y52297620D02*
X10702380Y51440477D01*
X10750000Y51345239D01*
X10845238Y51297620D01*
X10940476Y51297620D01*
X11654761Y51345239D02*
X11559523Y51297620D01*
X11369047Y51297620D01*
X11273809Y51345239D01*
X11226190Y51440477D01*
X11226190Y51821429D01*
X11273809Y51916667D01*
X11369047Y51964286D01*
X11559523Y51964286D01*
X11654761Y51916667D01*
X11702380Y51821429D01*
X11702380Y51726191D01*
X11226190Y51630953D01*
X12130952Y51297620D02*
X12130952Y51964286D01*
X12130952Y51773810D02*
X12178571Y51869048D01*
X12226190Y51916667D01*
X12321428Y51964286D01*
X12416666Y51964286D01*
X13845238Y51821429D02*
X13988095Y51773810D01*
X14035714Y51726191D01*
X14083333Y51630953D01*
X14083333Y51488096D01*
X14035714Y51392858D01*
X13988095Y51345239D01*
X13892857Y51297620D01*
X13511904Y51297620D01*
X13511904Y52297620D01*
X13845238Y52297620D01*
X13940476Y52250000D01*
X13988095Y52202381D01*
X14035714Y52107143D01*
X14035714Y52011905D01*
X13988095Y51916667D01*
X13940476Y51869048D01*
X13845238Y51821429D01*
X13511904Y51821429D01*
X14654761Y51297620D02*
X14559523Y51345239D01*
X14511904Y51392858D01*
X14464285Y51488096D01*
X14464285Y51773810D01*
X14511904Y51869048D01*
X14559523Y51916667D01*
X14654761Y51964286D01*
X14797619Y51964286D01*
X14892857Y51916667D01*
X14940476Y51869048D01*
X14988095Y51773810D01*
X14988095Y51488096D01*
X14940476Y51392858D01*
X14892857Y51345239D01*
X14797619Y51297620D01*
X14654761Y51297620D01*
X15845238Y51297620D02*
X15845238Y51821429D01*
X15797619Y51916667D01*
X15702380Y51964286D01*
X15511904Y51964286D01*
X15416666Y51916667D01*
X15845238Y51345239D02*
X15750000Y51297620D01*
X15511904Y51297620D01*
X15416666Y51345239D01*
X15369047Y51440477D01*
X15369047Y51535715D01*
X15416666Y51630953D01*
X15511904Y51678572D01*
X15750000Y51678572D01*
X15845238Y51726191D01*
X16321428Y51297620D02*
X16321428Y51964286D01*
X16321428Y51773810D02*
X16369047Y51869048D01*
X16416666Y51916667D01*
X16511904Y51964286D01*
X16607142Y51964286D01*
X17369047Y51297620D02*
X17369047Y52297620D01*
X17369047Y51345239D02*
X17273809Y51297620D01*
X17083333Y51297620D01*
X16988095Y51345239D01*
X16940476Y51392858D01*
X16892857Y51488096D01*
X16892857Y51773810D01*
X16940476Y51869048D01*
X16988095Y51916667D01*
X17083333Y51964286D01*
X17273809Y51964286D01*
X17369047Y51916667D01*
X9940476Y49647620D02*
X9607142Y50123810D01*
X9369047Y49647620D02*
X9369047Y50647620D01*
X9750000Y50647620D01*
X9845238Y50600000D01*
X9892857Y50552381D01*
X9940476Y50457143D01*
X9940476Y50314286D01*
X9892857Y50219048D01*
X9845238Y50171429D01*
X9750000Y50123810D01*
X9369047Y50123810D01*
X10750000Y49695239D02*
X10654761Y49647620D01*
X10464285Y49647620D01*
X10369047Y49695239D01*
X10321428Y49790477D01*
X10321428Y50171429D01*
X10369047Y50266667D01*
X10464285Y50314286D01*
X10654761Y50314286D01*
X10750000Y50266667D01*
X10797619Y50171429D01*
X10797619Y50076191D01*
X10321428Y49980953D01*
X11130952Y50314286D02*
X11369047Y49647620D01*
X11607142Y50314286D01*
X11988095Y49742858D02*
X12035714Y49695239D01*
X11988095Y49647620D01*
X11940476Y49695239D01*
X11988095Y49742858D01*
X11988095Y49647620D01*
X13750000Y49647620D02*
X13178571Y49647620D01*
X13464285Y49647620D02*
X13464285Y50647620D01*
X13369047Y50504762D01*
X13273809Y50409524D01*
X13178571Y50361905D01*
X14178571Y49742858D02*
X14226190Y49695239D01*
X14178571Y49647620D01*
X14130952Y49695239D01*
X14178571Y49742858D01*
X14178571Y49647620D01*
X15178571Y49647620D02*
X14607142Y49647620D01*
X14892857Y49647620D02*
X14892857Y50647620D01*
X14797619Y50504762D01*
X14702380Y50409524D01*
X14607142Y50361905D01*
X11464285Y40845239D02*
X11607142Y40797620D01*
X11845238Y40797620D01*
X11940476Y40845239D01*
X11988095Y40892858D01*
X12035714Y40988096D01*
X12035714Y41083334D01*
X11988095Y41178572D01*
X11940476Y41226191D01*
X11845238Y41273810D01*
X11654761Y41321429D01*
X11559523Y41369048D01*
X11511904Y41416667D01*
X11464285Y41511905D01*
X11464285Y41607143D01*
X11511904Y41702381D01*
X11559523Y41750000D01*
X11654761Y41797620D01*
X11892857Y41797620D01*
X12035714Y41750000D01*
X12464285Y40797620D02*
X12464285Y41797620D01*
X12702380Y41797620D01*
X12845238Y41750000D01*
X12940476Y41654762D01*
X12988095Y41559524D01*
X13035714Y41369048D01*
X13035714Y41226191D01*
X12988095Y41035715D01*
X12940476Y40940477D01*
X12845238Y40845239D01*
X12702380Y40797620D01*
X12464285Y40797620D01*
X19738095Y46400000D02*
X19642857Y46447620D01*
X19500000Y46447620D01*
X19357142Y46400000D01*
X19261904Y46304762D01*
X19214285Y46209524D01*
X19166666Y46019048D01*
X19166666Y45876191D01*
X19214285Y45685715D01*
X19261904Y45590477D01*
X19357142Y45495239D01*
X19500000Y45447620D01*
X19595238Y45447620D01*
X19738095Y45495239D01*
X19785714Y45542858D01*
X19785714Y45876191D01*
X19595238Y45876191D01*
X20214285Y45447620D02*
X20214285Y46447620D01*
X20785714Y45447620D01*
X20785714Y46447620D01*
X21261904Y45447620D02*
X21261904Y46447620D01*
X21500000Y46447620D01*
X21642857Y46400000D01*
X21738095Y46304762D01*
X21785714Y46209524D01*
X21833333Y46019048D01*
X21833333Y45876191D01*
X21785714Y45685715D01*
X21738095Y45590477D01*
X21642857Y45495239D01*
X21500000Y45447620D01*
X21261904Y45447620D01*
X16595238Y41797620D02*
X16833333Y40797620D01*
X17023809Y41511905D01*
X17214285Y40797620D01*
X17452380Y41797620D01*
X17785714Y40845239D02*
X17928571Y40797620D01*
X18166666Y40797620D01*
X18261904Y40845239D01*
X18309523Y40892858D01*
X18357142Y40988096D01*
X18357142Y41083334D01*
X18309523Y41178572D01*
X18261904Y41226191D01*
X18166666Y41273810D01*
X17976190Y41321429D01*
X17880952Y41369048D01*
X17833333Y41416667D01*
X17785714Y41511905D01*
X17785714Y41607143D01*
X17833333Y41702381D01*
X17880952Y41750000D01*
X17976190Y41797620D01*
X18214285Y41797620D01*
X18357142Y41750000D01*
X13464285Y40845239D02*
X13607142Y40797620D01*
X13845238Y40797620D01*
X13940476Y40845239D01*
X13988095Y40892858D01*
X14035714Y40988096D01*
X14035714Y41083334D01*
X13988095Y41178572D01*
X13940476Y41226191D01*
X13845238Y41273810D01*
X13654761Y41321429D01*
X13559523Y41369048D01*
X13511904Y41416667D01*
X13464285Y41511905D01*
X13464285Y41607143D01*
X13511904Y41702381D01*
X13559523Y41750000D01*
X13654761Y41797620D01*
X13892857Y41797620D01*
X14035714Y41750000D01*
X15035714Y40892858D02*
X14988095Y40845239D01*
X14845238Y40797620D01*
X14750000Y40797620D01*
X14607142Y40845239D01*
X14511904Y40940477D01*
X14464285Y41035715D01*
X14416666Y41226191D01*
X14416666Y41369048D01*
X14464285Y41559524D01*
X14511904Y41654762D01*
X14607142Y41750000D01*
X14750000Y41797620D01*
X14845238Y41797620D01*
X14988095Y41750000D01*
X15035714Y41702381D01*
X15464285Y40797620D02*
X15464285Y41797620D01*
X16035714Y40797620D02*
X15607142Y41369048D01*
X16035714Y41797620D02*
X15464285Y41226191D01*
D11*
X3940000Y16185000D02*
X20560000Y16185000D01*
X20560000Y16185000D02*
X20560000Y9785000D01*
X20560000Y6715000D02*
X20560000Y315000D01*
X20560000Y315000D02*
X3940000Y315000D01*
X3940000Y16185000D02*
X3940000Y9785000D01*
X3940000Y6715000D02*
X3940000Y315000D01*
D12*
G36*
X14116977Y37435328D02*
G01*
X14159139Y37419328D01*
X14187739Y37393240D01*
X14204585Y37356118D01*
X14210401Y37322552D01*
X14211785Y37290458D01*
X14209513Y37255081D01*
X14202985Y37213752D01*
X14191602Y37163804D01*
X14174765Y37102565D01*
X14151872Y37027369D01*
X14125873Y36946400D01*
X14090771Y36836584D01*
X14062449Y36742570D01*
X14040141Y36661297D01*
X14023079Y36589701D01*
X14010495Y36524720D01*
X14001620Y36463290D01*
X13999102Y36440640D01*
X13994192Y36314297D01*
X14006655Y36197960D01*
X14036753Y36090678D01*
X14084744Y35991504D01*
X14145404Y35906028D01*
X14170600Y35878302D01*
X14201241Y35848400D01*
X14233182Y35819903D01*
X14262281Y35796392D01*
X14284394Y35781447D01*
X14293547Y35778000D01*
X14294856Y35786684D01*
X14290273Y35809236D01*
X14282667Y35834876D01*
X14270687Y35878163D01*
X14260537Y35927980D01*
X14252531Y35980574D01*
X14246982Y36032194D01*
X14244201Y36079088D01*
X14244503Y36117504D01*
X14248199Y36143691D01*
X14255603Y36153897D01*
X14256064Y36153920D01*
X14270113Y36151541D01*
X14299942Y36145004D01*
X14341653Y36135210D01*
X14391345Y36123058D01*
X14410917Y36118159D01*
X14701096Y36034678D01*
X14983737Y35932393D01*
X15258296Y35811579D01*
X15524230Y35672512D01*
X15780994Y35515464D01*
X16028045Y35340712D01*
X16167751Y35230465D01*
X16250952Y35159172D01*
X16318770Y35093497D01*
X16373878Y35029731D01*
X16418945Y34964166D01*
X16456643Y34893095D01*
X16489644Y34812808D01*
X16508870Y34756920D01*
X16537244Y34676320D01*
X16566578Y34609915D01*
X16600055Y34553340D01*
X16640859Y34502234D01*
X16692173Y34452232D01*
X16757180Y34398972D01*
X16785997Y34377075D01*
X16890277Y34293675D01*
X17000244Y34195968D01*
X17112172Y34087656D01*
X17222335Y33972441D01*
X17327006Y33854024D01*
X17391798Y33775251D01*
X17417001Y33742234D01*
X17445483Y33702714D01*
X17475046Y33660030D01*
X17503493Y33617517D01*
X17528626Y33578512D01*
X17548249Y33546351D01*
X17560163Y33524372D01*
X17562497Y33516072D01*
X17552285Y33518043D01*
X17527830Y33526026D01*
X17493749Y33538475D01*
X17481050Y33543349D01*
X17434000Y33560538D01*
X17384487Y33576926D01*
X17342862Y33589094D01*
X17341173Y33589530D01*
X17304395Y33596931D01*
X17261910Y33602460D01*
X17219072Y33605811D01*
X17181232Y33606676D01*
X17153743Y33604748D01*
X17142736Y33600924D01*
X17145707Y33590758D01*
X17159539Y33570069D01*
X17181283Y33543238D01*
X17182443Y33541908D01*
X17242808Y33460961D01*
X17284077Y33378416D01*
X17305961Y33295283D01*
X17308172Y33212572D01*
X17295376Y33146689D01*
X17268405Y33089544D01*
X17222960Y33034071D01*
X17160874Y32981237D01*
X17083982Y32932008D01*
X16994117Y32887349D01*
X16893112Y32848226D01*
X16782801Y32815606D01*
X16665018Y32790455D01*
X16600336Y32780503D01*
X16561339Y32775126D01*
X16531313Y32770655D01*
X16514920Y32767800D01*
X16513226Y32767271D01*
X16507753Y32758588D01*
X16493753Y32736788D01*
X16473753Y32705805D01*
X16463112Y32689360D01*
X16429187Y32642931D01*
X16383344Y32588543D01*
X16329783Y32530472D01*
X16272704Y32472994D01*
X16216307Y32420385D01*
X16164792Y32376921D01*
X16134057Y32354343D01*
X16069115Y32310725D01*
X16076585Y32340023D01*
X16091852Y32404350D01*
X16102957Y32463349D01*
X16110719Y32523394D01*
X16115958Y32590854D01*
X16119493Y32672102D01*
X16119559Y32674120D01*
X16125150Y32846840D01*
X16070635Y32879448D01*
X15934594Y32949412D01*
X15786129Y33004308D01*
X15627154Y33043463D01*
X15579983Y33051679D01*
X15506238Y33059859D01*
X15418429Y33063951D01*
X15322364Y33064119D01*
X15223847Y33060528D01*
X15128686Y33053341D01*
X15042687Y33042724D01*
X15000429Y33035287D01*
X14815750Y32988172D01*
X14639352Y32922620D01*
X14470522Y32838320D01*
X14308544Y32734961D01*
X14306419Y32733446D01*
X14242480Y32687820D01*
X14275860Y32665716D01*
X14299865Y32643525D01*
X14323917Y32611554D01*
X14334640Y32592826D01*
X14345819Y32568552D01*
X14353080Y32545778D01*
X14357182Y32519240D01*
X14358887Y32483677D01*
X14358956Y32433825D01*
X14358877Y32425200D01*
X14357007Y32372088D01*
X14352665Y32306105D01*
X14346435Y32234473D01*
X14338895Y32164411D01*
X14336017Y32141303D01*
X14322738Y32018569D01*
X14315574Y31903703D01*
X14314534Y31799418D01*
X14319626Y31708432D01*
X14330858Y31633458D01*
X14334390Y31618456D01*
X14369866Y31514937D01*
X14419331Y31426045D01*
X14482286Y31352164D01*
X14558228Y31293677D01*
X14646656Y31250968D01*
X14747070Y31224419D01*
X14858967Y31214414D01*
X14862960Y31214369D01*
X14953730Y31218266D01*
X15045616Y31232178D01*
X15142502Y31257032D01*
X15248268Y31293754D01*
X15323350Y31324313D01*
X15361657Y31340438D01*
X15384658Y31348987D01*
X15395688Y31350475D01*
X15398081Y31345415D01*
X15395526Y31335434D01*
X15373089Y31287294D01*
X15335763Y31233048D01*
X15286677Y31175983D01*
X15228962Y31119386D01*
X15165746Y31066545D01*
X15100159Y31020747D01*
X15090003Y31014503D01*
X15057858Y30994650D01*
X15040320Y30981331D01*
X15034474Y30970783D01*
X15037408Y30959244D01*
X15041383Y30951702D01*
X15055175Y30909640D01*
X15050058Y30870160D01*
X15028060Y30838135D01*
X14984204Y30805676D01*
X14923231Y30773393D01*
X14848315Y30742512D01*
X14762630Y30714258D01*
X14669353Y30689856D01*
X14613099Y30677965D01*
X14514792Y30662995D01*
X14429412Y30659047D01*
X14352825Y30666108D01*
X14304160Y30677051D01*
X14246493Y30694672D01*
X14197778Y30713703D01*
X14150717Y30737571D01*
X14098012Y30769703D01*
X14075560Y30784412D01*
X13998079Y30841125D01*
X13925778Y30905805D01*
X13855047Y30982060D01*
X13782275Y31073500D01*
X13770657Y31089160D01*
X13681891Y31204304D01*
X13595782Y31303851D01*
X13508545Y31391474D01*
X13416396Y31470850D01*
X13315550Y31545651D01*
X13266360Y31578775D01*
X13141406Y31652697D01*
X13004023Y31719855D01*
X12860924Y31777423D01*
X12718819Y31822575D01*
X12643000Y31841206D01*
X12612520Y31847828D01*
X12643000Y31864224D01*
X12664487Y31874825D01*
X12699549Y31891088D01*
X12743081Y31910678D01*
X12783834Y31928598D01*
X12894188Y31976575D01*
X12844794Y31984988D01*
X12806742Y31989161D01*
X12752420Y31991987D01*
X12685829Y31993532D01*
X12610968Y31993860D01*
X12531839Y31993038D01*
X12452442Y31991131D01*
X12376777Y31988204D01*
X12308845Y31984322D01*
X12252647Y31979552D01*
X12216342Y31974716D01*
X12160045Y31964169D01*
X12102817Y31952185D01*
X12048646Y31939737D01*
X12001522Y31927796D01*
X11965433Y31917335D01*
X11944368Y31909326D01*
X11941960Y31907853D01*
X11928157Y31901170D01*
X11900313Y31890051D01*
X11863644Y31876546D01*
X11850732Y31871997D01*
X11689908Y31806088D01*
X11535489Y31723276D01*
X11390252Y31625501D01*
X11256973Y31514703D01*
X11138429Y31392821D01*
X11101512Y31348625D01*
X11074438Y31315454D01*
X11051834Y31288883D01*
X11036836Y31272538D01*
X11032844Y31269168D01*
X11027922Y31277187D01*
X11021454Y31302322D01*
X11013927Y31341471D01*
X11005829Y31391532D01*
X10997645Y31449404D01*
X10989865Y31511983D01*
X10982975Y31576169D01*
X10980519Y31602240D01*
X10973461Y31752902D01*
X10977772Y31915599D01*
X10993038Y32085813D01*
X11018845Y32259027D01*
X11054777Y32430721D01*
X11057533Y32442046D01*
X11127121Y32685217D01*
X11214320Y32919181D01*
X11319485Y33144606D01*
X11442977Y33362164D01*
X11585154Y33572526D01*
X11746373Y33776363D01*
X11808210Y33847234D01*
X11838395Y33881576D01*
X11862397Y33910019D01*
X11877640Y33929434D01*
X11881725Y33936622D01*
X11871444Y33933630D01*
X11847037Y33921335D01*
X11811431Y33901482D01*
X11767552Y33875818D01*
X11718328Y33846087D01*
X11666686Y33814037D01*
X11615552Y33781412D01*
X11567854Y33749959D01*
X11560960Y33745303D01*
X11358856Y33596735D01*
X11163667Y33429830D01*
X11114745Y33384065D01*
X11070017Y33341815D01*
X11037622Y33312895D01*
X11016978Y33298062D01*
X11007508Y33298075D01*
X11008631Y33313693D01*
X11019768Y33345673D01*
X11040338Y33394776D01*
X11064491Y33449823D01*
X11168442Y33662189D01*
X11287861Y33862936D01*
X11423854Y34053665D01*
X11577524Y34235980D01*
X11682473Y34345803D01*
X11833521Y34487942D01*
X11988533Y34615536D01*
X12151842Y34731729D01*
X12327783Y34839667D01*
X12466525Y34914974D01*
X12527874Y34946975D01*
X12571697Y34970701D01*
X12597765Y34986366D01*
X12605849Y34994188D01*
X12595722Y34994382D01*
X12567155Y34987165D01*
X12519920Y34972752D01*
X12453790Y34951360D01*
X12434720Y34945092D01*
X12272524Y34886477D01*
X12114791Y34818479D01*
X11957499Y34739092D01*
X11796625Y34646308D01*
X11655493Y34556358D01*
X11539500Y34477241D01*
X11436533Y34401669D01*
X11340965Y34325125D01*
X11247166Y34243096D01*
X11149511Y34151067D01*
X11145742Y34147403D01*
X11005394Y34004579D01*
X10881107Y33864044D01*
X10769731Y33721474D01*
X10668112Y33572548D01*
X10573098Y33412943D01*
X10481536Y33238335D01*
X10478859Y33232920D01*
X10411528Y33089996D01*
X10355513Y32955994D01*
X10308506Y32824762D01*
X10268195Y32690149D01*
X10252166Y32628978D01*
X10239085Y32577217D01*
X10227817Y32532946D01*
X10219258Y32499666D01*
X10214306Y32480876D01*
X10213468Y32478019D01*
X10203422Y32478224D01*
X10176062Y32480485D01*
X10134261Y32484517D01*
X10080890Y32490039D01*
X10018822Y32496766D01*
X9984792Y32500564D01*
X9760707Y32525086D01*
X9553183Y32546215D01*
X9358795Y32564238D01*
X9174118Y32579441D01*
X8995728Y32592110D01*
X8820200Y32602531D01*
X8685680Y32609167D01*
X8613932Y32612490D01*
X8549149Y32615652D01*
X8494011Y32618508D01*
X8451197Y32620916D01*
X8423387Y32622730D01*
X8413277Y32623790D01*
X8415773Y32633899D01*
X8426726Y32658764D01*
X8444596Y32695449D01*
X8467845Y32741018D01*
X8494935Y32792535D01*
X8524328Y32847065D01*
X8554486Y32901671D01*
X8583869Y32953417D01*
X8604051Y32987876D01*
X8714991Y33162161D01*
X8840252Y33337205D01*
X8937166Y33460580D01*
X8984519Y33516169D01*
X9043279Y33581447D01*
X9109707Y33652557D01*
X9180061Y33725642D01*
X9250602Y33796845D01*
X9317591Y33862310D01*
X9377286Y33918180D01*
X9404001Y33941984D01*
X9437351Y33971585D01*
X9463679Y33996029D01*
X9480010Y34012478D01*
X9483834Y34018033D01*
X9474243Y34014565D01*
X9450028Y34002723D01*
X9414271Y33984098D01*
X9370055Y33960283D01*
X9340534Y33944046D01*
X9066344Y33780910D01*
X8801552Y33600864D01*
X8548360Y33405543D01*
X8308970Y33196579D01*
X8224742Y33116527D01*
X8166491Y33058400D01*
X8101935Y32991494D01*
X8034727Y32919797D01*
X7968522Y32847298D01*
X7906974Y32777983D01*
X7853737Y32715840D01*
X7822080Y32677117D01*
X7807692Y32658746D01*
X7795420Y32644249D01*
X7782747Y32633038D01*
X7767152Y32624530D01*
X7746115Y32618138D01*
X7717118Y32613277D01*
X7677641Y32609360D01*
X7625164Y32605803D01*
X7557168Y32602019D01*
X7481720Y32597995D01*
X7387469Y32592222D01*
X7277958Y32584351D01*
X7158087Y32574812D01*
X7032758Y32564032D01*
X6906871Y32552443D01*
X6785329Y32540474D01*
X6673031Y32528554D01*
X6617932Y32522286D01*
X6568913Y32516788D01*
X6527807Y32512631D01*
X6498475Y32510170D01*
X6484783Y32509764D01*
X6484285Y32509928D01*
X6487844Y32520090D01*
X6502743Y32544065D01*
X6527494Y32579909D01*
X6560607Y32625674D01*
X6600594Y32679417D01*
X6645966Y32739192D01*
X6695234Y32803054D01*
X6746911Y32869057D01*
X6799506Y32935256D01*
X6851532Y32999706D01*
X6901500Y33060462D01*
X6946491Y33113904D01*
X6997176Y33171399D01*
X7060337Y33240072D01*
X7133449Y33317394D01*
X7213986Y33400837D01*
X7299423Y33487872D01*
X7387236Y33575970D01*
X7474899Y33662602D01*
X7559888Y33745239D01*
X7639676Y33821354D01*
X7711740Y33888416D01*
X7773553Y33943897D01*
X7786520Y33955154D01*
X8123030Y34232038D01*
X8469701Y34491950D01*
X8825950Y34734573D01*
X9191194Y34959592D01*
X9564852Y35166691D01*
X9946339Y35355553D01*
X10335075Y35525862D01*
X10730475Y35677302D01*
X11131958Y35809558D01*
X11289180Y35855620D01*
X11298314Y35856063D01*
X11303671Y35848405D01*
X11306225Y35828800D01*
X11306948Y35793400D01*
X11306960Y35785390D01*
X11316953Y35675076D01*
X11346490Y35564086D01*
X11394909Y35453887D01*
X11461548Y35345945D01*
X11545744Y35241725D01*
X11559309Y35227074D01*
X11587695Y35198398D01*
X11622344Y35165605D01*
X11660201Y35131316D01*
X11698210Y35098151D01*
X11733318Y35068732D01*
X11762468Y35045678D01*
X11782607Y35031610D01*
X11790476Y35028770D01*
X11788875Y35039155D01*
X11781631Y35063430D01*
X11770280Y35096476D01*
X11769498Y35098637D01*
X11747747Y35175894D01*
X14684186Y35175894D01*
X14691480Y35171561D01*
X14714848Y35163215D01*
X14750721Y35152027D01*
X14795526Y35139170D01*
X14798982Y35138217D01*
X14967007Y35088622D01*
X15133080Y35033149D01*
X15292444Y34973562D01*
X15440339Y34911627D01*
X15554226Y34858081D01*
X15598848Y34834692D01*
X15647061Y34807567D01*
X15695873Y34778616D01*
X15742296Y34749751D01*
X15783339Y34722885D01*
X15816012Y34699929D01*
X15837326Y34682795D01*
X15844290Y34673394D01*
X15843967Y34672821D01*
X15832085Y34670729D01*
X15804210Y34669425D01*
X15764658Y34669026D01*
X15723297Y34669525D01*
X15659078Y34669873D01*
X15600436Y34668254D01*
X15550448Y34664935D01*
X15512192Y34660177D01*
X15488746Y34654245D01*
X15482720Y34648928D01*
X15491124Y34641373D01*
X15500500Y34639981D01*
X15536242Y34632779D01*
X15579798Y34611114D01*
X15632067Y34574363D01*
X15693950Y34521902D01*
X15757237Y34462086D01*
X15818612Y34403614D01*
X15870169Y34358930D01*
X15914917Y34326064D01*
X15955867Y34303045D01*
X15996030Y34287905D01*
X16037234Y34278858D01*
X16075605Y34278983D01*
X16100482Y34292645D01*
X16110265Y34318541D01*
X16108751Y34336944D01*
X16107282Y34357366D01*
X16111819Y34365760D01*
X16127013Y34357811D01*
X16151286Y34335647D01*
X16182201Y34301796D01*
X16217321Y34258785D01*
X16226656Y34246657D01*
X16267728Y34199756D01*
X16311392Y34166431D01*
X16363391Y34143331D01*
X16429463Y34127106D01*
X16432371Y34126573D01*
X16477207Y34118610D01*
X16505700Y34114213D01*
X16521452Y34113068D01*
X16528066Y34114862D01*
X16529200Y34118145D01*
X16522668Y34127840D01*
X16505135Y34148589D01*
X16479696Y34176812D01*
X16463672Y34193993D01*
X16371676Y34303060D01*
X16292442Y34420690D01*
X16228792Y34542387D01*
X16199593Y34614554D01*
X16188547Y34643057D01*
X16176855Y34664404D01*
X16160544Y34682989D01*
X16135646Y34703204D01*
X16098188Y34729443D01*
X16091854Y34733753D01*
X15936785Y34828631D01*
X15765462Y34914048D01*
X15579962Y34989304D01*
X15382364Y35053700D01*
X15174748Y35106539D01*
X14959191Y35147120D01*
X14798821Y35168514D01*
X14753862Y35173030D01*
X14716877Y35175881D01*
X14692196Y35176788D01*
X14684186Y35175894D01*
X11747747Y35175894D01*
X11732813Y35228937D01*
X11715877Y35362615D01*
X11718482Y35499204D01*
X11740424Y35638238D01*
X11766459Y35727624D01*
X12355394Y35727624D01*
X12364930Y35658934D01*
X12384074Y35601462D01*
X12429971Y35527868D01*
X12490719Y35465648D01*
X12562970Y35417453D01*
X12643380Y35385933D01*
X12661733Y35381521D01*
X12696834Y35377284D01*
X12746501Y35375535D01*
X12805155Y35376088D01*
X12867217Y35378758D01*
X12927110Y35383363D01*
X12979254Y35389715D01*
X12996060Y35392584D01*
X13030199Y35399879D01*
X13054762Y35406689D01*
X13064623Y35411584D01*
X13064640Y35411721D01*
X13057069Y35420205D01*
X13036913Y35437439D01*
X13008008Y35460201D01*
X12997191Y35468385D01*
X12910788Y35544137D01*
X12841313Y35628540D01*
X12789403Y35720074D01*
X12755692Y35817222D01*
X12740818Y35918465D01*
X12745415Y36022285D01*
X12751152Y36056054D01*
X12762784Y36113976D01*
X12780174Y36075135D01*
X12798087Y36046474D01*
X12825743Y36014203D01*
X12857773Y35983497D01*
X12888808Y35959529D01*
X12912359Y35947745D01*
X12922047Y35946535D01*
X12928016Y35951559D01*
X12931161Y35966506D01*
X12932376Y35995065D01*
X12932560Y36031099D01*
X12942076Y36137500D01*
X12970300Y36249459D01*
X13016742Y36365869D01*
X13080913Y36485626D01*
X13162323Y36607623D01*
X13221954Y36684780D01*
X13243778Y36712686D01*
X13258250Y36733338D01*
X13262749Y36742939D01*
X13262279Y36743200D01*
X13247137Y36737696D01*
X13217950Y36722256D01*
X13177395Y36698490D01*
X13128151Y36668009D01*
X13072893Y36632422D01*
X13024000Y36599903D01*
X12893885Y36506375D01*
X12774580Y36409074D01*
X12667399Y36309470D01*
X12573653Y36209033D01*
X12494655Y36109234D01*
X12431718Y36011544D01*
X12386154Y35917434D01*
X12368249Y35865224D01*
X12356346Y35798957D01*
X12355394Y35727624D01*
X11766459Y35727624D01*
X11781497Y35779249D01*
X11841496Y35921770D01*
X11920216Y36065333D01*
X12017452Y36209471D01*
X12132997Y36353717D01*
X12266647Y36497604D01*
X12418197Y36640664D01*
X12465094Y36681612D01*
X12596278Y36788558D01*
X12734906Y36891036D01*
X12878890Y36988001D01*
X13026140Y37078411D01*
X13174567Y37161221D01*
X13322083Y37235387D01*
X13466599Y37299867D01*
X13606026Y37353616D01*
X13738274Y37395591D01*
X13861256Y37424748D01*
X13972881Y37440043D01*
X13984738Y37440857D01*
X14059446Y37442188D01*
X14116977Y37435328D01*
X14116977Y37435328D01*
G37*
X14116977Y37435328D02*
X14159139Y37419328D01*
X14187739Y37393240D01*
X14204585Y37356118D01*
X14210401Y37322552D01*
X14211785Y37290458D01*
X14209513Y37255081D01*
X14202985Y37213752D01*
X14191602Y37163804D01*
X14174765Y37102565D01*
X14151872Y37027369D01*
X14125873Y36946400D01*
X14090771Y36836584D01*
X14062449Y36742570D01*
X14040141Y36661297D01*
X14023079Y36589701D01*
X14010495Y36524720D01*
X14001620Y36463290D01*
X13999102Y36440640D01*
X13994192Y36314297D01*
X14006655Y36197960D01*
X14036753Y36090678D01*
X14084744Y35991504D01*
X14145404Y35906028D01*
X14170600Y35878302D01*
X14201241Y35848400D01*
X14233182Y35819903D01*
X14262281Y35796392D01*
X14284394Y35781447D01*
X14293547Y35778000D01*
X14294856Y35786684D01*
X14290273Y35809236D01*
X14282667Y35834876D01*
X14270687Y35878163D01*
X14260537Y35927980D01*
X14252531Y35980574D01*
X14246982Y36032194D01*
X14244201Y36079088D01*
X14244503Y36117504D01*
X14248199Y36143691D01*
X14255603Y36153897D01*
X14256064Y36153920D01*
X14270113Y36151541D01*
X14299942Y36145004D01*
X14341653Y36135210D01*
X14391345Y36123058D01*
X14410917Y36118159D01*
X14701096Y36034678D01*
X14983737Y35932393D01*
X15258296Y35811579D01*
X15524230Y35672512D01*
X15780994Y35515464D01*
X16028045Y35340712D01*
X16167751Y35230465D01*
X16250952Y35159172D01*
X16318770Y35093497D01*
X16373878Y35029731D01*
X16418945Y34964166D01*
X16456643Y34893095D01*
X16489644Y34812808D01*
X16508870Y34756920D01*
X16537244Y34676320D01*
X16566578Y34609915D01*
X16600055Y34553340D01*
X16640859Y34502234D01*
X16692173Y34452232D01*
X16757180Y34398972D01*
X16785997Y34377075D01*
X16890277Y34293675D01*
X17000244Y34195968D01*
X17112172Y34087656D01*
X17222335Y33972441D01*
X17327006Y33854024D01*
X17391798Y33775251D01*
X17417001Y33742234D01*
X17445483Y33702714D01*
X17475046Y33660030D01*
X17503493Y33617517D01*
X17528626Y33578512D01*
X17548249Y33546351D01*
X17560163Y33524372D01*
X17562497Y33516072D01*
X17552285Y33518043D01*
X17527830Y33526026D01*
X17493749Y33538475D01*
X17481050Y33543349D01*
X17434000Y33560538D01*
X17384487Y33576926D01*
X17342862Y33589094D01*
X17341173Y33589530D01*
X17304395Y33596931D01*
X17261910Y33602460D01*
X17219072Y33605811D01*
X17181232Y33606676D01*
X17153743Y33604748D01*
X17142736Y33600924D01*
X17145707Y33590758D01*
X17159539Y33570069D01*
X17181283Y33543238D01*
X17182443Y33541908D01*
X17242808Y33460961D01*
X17284077Y33378416D01*
X17305961Y33295283D01*
X17308172Y33212572D01*
X17295376Y33146689D01*
X17268405Y33089544D01*
X17222960Y33034071D01*
X17160874Y32981237D01*
X17083982Y32932008D01*
X16994117Y32887349D01*
X16893112Y32848226D01*
X16782801Y32815606D01*
X16665018Y32790455D01*
X16600336Y32780503D01*
X16561339Y32775126D01*
X16531313Y32770655D01*
X16514920Y32767800D01*
X16513226Y32767271D01*
X16507753Y32758588D01*
X16493753Y32736788D01*
X16473753Y32705805D01*
X16463112Y32689360D01*
X16429187Y32642931D01*
X16383344Y32588543D01*
X16329783Y32530472D01*
X16272704Y32472994D01*
X16216307Y32420385D01*
X16164792Y32376921D01*
X16134057Y32354343D01*
X16069115Y32310725D01*
X16076585Y32340023D01*
X16091852Y32404350D01*
X16102957Y32463349D01*
X16110719Y32523394D01*
X16115958Y32590854D01*
X16119493Y32672102D01*
X16119559Y32674120D01*
X16125150Y32846840D01*
X16070635Y32879448D01*
X15934594Y32949412D01*
X15786129Y33004308D01*
X15627154Y33043463D01*
X15579983Y33051679D01*
X15506238Y33059859D01*
X15418429Y33063951D01*
X15322364Y33064119D01*
X15223847Y33060528D01*
X15128686Y33053341D01*
X15042687Y33042724D01*
X15000429Y33035287D01*
X14815750Y32988172D01*
X14639352Y32922620D01*
X14470522Y32838320D01*
X14308544Y32734961D01*
X14306419Y32733446D01*
X14242480Y32687820D01*
X14275860Y32665716D01*
X14299865Y32643525D01*
X14323917Y32611554D01*
X14334640Y32592826D01*
X14345819Y32568552D01*
X14353080Y32545778D01*
X14357182Y32519240D01*
X14358887Y32483677D01*
X14358956Y32433825D01*
X14358877Y32425200D01*
X14357007Y32372088D01*
X14352665Y32306105D01*
X14346435Y32234473D01*
X14338895Y32164411D01*
X14336017Y32141303D01*
X14322738Y32018569D01*
X14315574Y31903703D01*
X14314534Y31799418D01*
X14319626Y31708432D01*
X14330858Y31633458D01*
X14334390Y31618456D01*
X14369866Y31514937D01*
X14419331Y31426045D01*
X14482286Y31352164D01*
X14558228Y31293677D01*
X14646656Y31250968D01*
X14747070Y31224419D01*
X14858967Y31214414D01*
X14862960Y31214369D01*
X14953730Y31218266D01*
X15045616Y31232178D01*
X15142502Y31257032D01*
X15248268Y31293754D01*
X15323350Y31324313D01*
X15361657Y31340438D01*
X15384658Y31348987D01*
X15395688Y31350475D01*
X15398081Y31345415D01*
X15395526Y31335434D01*
X15373089Y31287294D01*
X15335763Y31233048D01*
X15286677Y31175983D01*
X15228962Y31119386D01*
X15165746Y31066545D01*
X15100159Y31020747D01*
X15090003Y31014503D01*
X15057858Y30994650D01*
X15040320Y30981331D01*
X15034474Y30970783D01*
X15037408Y30959244D01*
X15041383Y30951702D01*
X15055175Y30909640D01*
X15050058Y30870160D01*
X15028060Y30838135D01*
X14984204Y30805676D01*
X14923231Y30773393D01*
X14848315Y30742512D01*
X14762630Y30714258D01*
X14669353Y30689856D01*
X14613099Y30677965D01*
X14514792Y30662995D01*
X14429412Y30659047D01*
X14352825Y30666108D01*
X14304160Y30677051D01*
X14246493Y30694672D01*
X14197778Y30713703D01*
X14150717Y30737571D01*
X14098012Y30769703D01*
X14075560Y30784412D01*
X13998079Y30841125D01*
X13925778Y30905805D01*
X13855047Y30982060D01*
X13782275Y31073500D01*
X13770657Y31089160D01*
X13681891Y31204304D01*
X13595782Y31303851D01*
X13508545Y31391474D01*
X13416396Y31470850D01*
X13315550Y31545651D01*
X13266360Y31578775D01*
X13141406Y31652697D01*
X13004023Y31719855D01*
X12860924Y31777423D01*
X12718819Y31822575D01*
X12643000Y31841206D01*
X12612520Y31847828D01*
X12643000Y31864224D01*
X12664487Y31874825D01*
X12699549Y31891088D01*
X12743081Y31910678D01*
X12783834Y31928598D01*
X12894188Y31976575D01*
X12844794Y31984988D01*
X12806742Y31989161D01*
X12752420Y31991987D01*
X12685829Y31993532D01*
X12610968Y31993860D01*
X12531839Y31993038D01*
X12452442Y31991131D01*
X12376777Y31988204D01*
X12308845Y31984322D01*
X12252647Y31979552D01*
X12216342Y31974716D01*
X12160045Y31964169D01*
X12102817Y31952185D01*
X12048646Y31939737D01*
X12001522Y31927796D01*
X11965433Y31917335D01*
X11944368Y31909326D01*
X11941960Y31907853D01*
X11928157Y31901170D01*
X11900313Y31890051D01*
X11863644Y31876546D01*
X11850732Y31871997D01*
X11689908Y31806088D01*
X11535489Y31723276D01*
X11390252Y31625501D01*
X11256973Y31514703D01*
X11138429Y31392821D01*
X11101512Y31348625D01*
X11074438Y31315454D01*
X11051834Y31288883D01*
X11036836Y31272538D01*
X11032844Y31269168D01*
X11027922Y31277187D01*
X11021454Y31302322D01*
X11013927Y31341471D01*
X11005829Y31391532D01*
X10997645Y31449404D01*
X10989865Y31511983D01*
X10982975Y31576169D01*
X10980519Y31602240D01*
X10973461Y31752902D01*
X10977772Y31915599D01*
X10993038Y32085813D01*
X11018845Y32259027D01*
X11054777Y32430721D01*
X11057533Y32442046D01*
X11127121Y32685217D01*
X11214320Y32919181D01*
X11319485Y33144606D01*
X11442977Y33362164D01*
X11585154Y33572526D01*
X11746373Y33776363D01*
X11808210Y33847234D01*
X11838395Y33881576D01*
X11862397Y33910019D01*
X11877640Y33929434D01*
X11881725Y33936622D01*
X11871444Y33933630D01*
X11847037Y33921335D01*
X11811431Y33901482D01*
X11767552Y33875818D01*
X11718328Y33846087D01*
X11666686Y33814037D01*
X11615552Y33781412D01*
X11567854Y33749959D01*
X11560960Y33745303D01*
X11358856Y33596735D01*
X11163667Y33429830D01*
X11114745Y33384065D01*
X11070017Y33341815D01*
X11037622Y33312895D01*
X11016978Y33298062D01*
X11007508Y33298075D01*
X11008631Y33313693D01*
X11019768Y33345673D01*
X11040338Y33394776D01*
X11064491Y33449823D01*
X11168442Y33662189D01*
X11287861Y33862936D01*
X11423854Y34053665D01*
X11577524Y34235980D01*
X11682473Y34345803D01*
X11833521Y34487942D01*
X11988533Y34615536D01*
X12151842Y34731729D01*
X12327783Y34839667D01*
X12466525Y34914974D01*
X12527874Y34946975D01*
X12571697Y34970701D01*
X12597765Y34986366D01*
X12605849Y34994188D01*
X12595722Y34994382D01*
X12567155Y34987165D01*
X12519920Y34972752D01*
X12453790Y34951360D01*
X12434720Y34945092D01*
X12272524Y34886477D01*
X12114791Y34818479D01*
X11957499Y34739092D01*
X11796625Y34646308D01*
X11655493Y34556358D01*
X11539500Y34477241D01*
X11436533Y34401669D01*
X11340965Y34325125D01*
X11247166Y34243096D01*
X11149511Y34151067D01*
X11145742Y34147403D01*
X11005394Y34004579D01*
X10881107Y33864044D01*
X10769731Y33721474D01*
X10668112Y33572548D01*
X10573098Y33412943D01*
X10481536Y33238335D01*
X10478859Y33232920D01*
X10411528Y33089996D01*
X10355513Y32955994D01*
X10308506Y32824762D01*
X10268195Y32690149D01*
X10252166Y32628978D01*
X10239085Y32577217D01*
X10227817Y32532946D01*
X10219258Y32499666D01*
X10214306Y32480876D01*
X10213468Y32478019D01*
X10203422Y32478224D01*
X10176062Y32480485D01*
X10134261Y32484517D01*
X10080890Y32490039D01*
X10018822Y32496766D01*
X9984792Y32500564D01*
X9760707Y32525086D01*
X9553183Y32546215D01*
X9358795Y32564238D01*
X9174118Y32579441D01*
X8995728Y32592110D01*
X8820200Y32602531D01*
X8685680Y32609167D01*
X8613932Y32612490D01*
X8549149Y32615652D01*
X8494011Y32618508D01*
X8451197Y32620916D01*
X8423387Y32622730D01*
X8413277Y32623790D01*
X8415773Y32633899D01*
X8426726Y32658764D01*
X8444596Y32695449D01*
X8467845Y32741018D01*
X8494935Y32792535D01*
X8524328Y32847065D01*
X8554486Y32901671D01*
X8583869Y32953417D01*
X8604051Y32987876D01*
X8714991Y33162161D01*
X8840252Y33337205D01*
X8937166Y33460580D01*
X8984519Y33516169D01*
X9043279Y33581447D01*
X9109707Y33652557D01*
X9180061Y33725642D01*
X9250602Y33796845D01*
X9317591Y33862310D01*
X9377286Y33918180D01*
X9404001Y33941984D01*
X9437351Y33971585D01*
X9463679Y33996029D01*
X9480010Y34012478D01*
X9483834Y34018033D01*
X9474243Y34014565D01*
X9450028Y34002723D01*
X9414271Y33984098D01*
X9370055Y33960283D01*
X9340534Y33944046D01*
X9066344Y33780910D01*
X8801552Y33600864D01*
X8548360Y33405543D01*
X8308970Y33196579D01*
X8224742Y33116527D01*
X8166491Y33058400D01*
X8101935Y32991494D01*
X8034727Y32919797D01*
X7968522Y32847298D01*
X7906974Y32777983D01*
X7853737Y32715840D01*
X7822080Y32677117D01*
X7807692Y32658746D01*
X7795420Y32644249D01*
X7782747Y32633038D01*
X7767152Y32624530D01*
X7746115Y32618138D01*
X7717118Y32613277D01*
X7677641Y32609360D01*
X7625164Y32605803D01*
X7557168Y32602019D01*
X7481720Y32597995D01*
X7387469Y32592222D01*
X7277958Y32584351D01*
X7158087Y32574812D01*
X7032758Y32564032D01*
X6906871Y32552443D01*
X6785329Y32540474D01*
X6673031Y32528554D01*
X6617932Y32522286D01*
X6568913Y32516788D01*
X6527807Y32512631D01*
X6498475Y32510170D01*
X6484783Y32509764D01*
X6484285Y32509928D01*
X6487844Y32520090D01*
X6502743Y32544065D01*
X6527494Y32579909D01*
X6560607Y32625674D01*
X6600594Y32679417D01*
X6645966Y32739192D01*
X6695234Y32803054D01*
X6746911Y32869057D01*
X6799506Y32935256D01*
X6851532Y32999706D01*
X6901500Y33060462D01*
X6946491Y33113904D01*
X6997176Y33171399D01*
X7060337Y33240072D01*
X7133449Y33317394D01*
X7213986Y33400837D01*
X7299423Y33487872D01*
X7387236Y33575970D01*
X7474899Y33662602D01*
X7559888Y33745239D01*
X7639676Y33821354D01*
X7711740Y33888416D01*
X7773553Y33943897D01*
X7786520Y33955154D01*
X8123030Y34232038D01*
X8469701Y34491950D01*
X8825950Y34734573D01*
X9191194Y34959592D01*
X9564852Y35166691D01*
X9946339Y35355553D01*
X10335075Y35525862D01*
X10730475Y35677302D01*
X11131958Y35809558D01*
X11289180Y35855620D01*
X11298314Y35856063D01*
X11303671Y35848405D01*
X11306225Y35828800D01*
X11306948Y35793400D01*
X11306960Y35785390D01*
X11316953Y35675076D01*
X11346490Y35564086D01*
X11394909Y35453887D01*
X11461548Y35345945D01*
X11545744Y35241725D01*
X11559309Y35227074D01*
X11587695Y35198398D01*
X11622344Y35165605D01*
X11660201Y35131316D01*
X11698210Y35098151D01*
X11733318Y35068732D01*
X11762468Y35045678D01*
X11782607Y35031610D01*
X11790476Y35028770D01*
X11788875Y35039155D01*
X11781631Y35063430D01*
X11770280Y35096476D01*
X11769498Y35098637D01*
X11747747Y35175894D01*
X14684186Y35175894D01*
X14691480Y35171561D01*
X14714848Y35163215D01*
X14750721Y35152027D01*
X14795526Y35139170D01*
X14798982Y35138217D01*
X14967007Y35088622D01*
X15133080Y35033149D01*
X15292444Y34973562D01*
X15440339Y34911627D01*
X15554226Y34858081D01*
X15598848Y34834692D01*
X15647061Y34807567D01*
X15695873Y34778616D01*
X15742296Y34749751D01*
X15783339Y34722885D01*
X15816012Y34699929D01*
X15837326Y34682795D01*
X15844290Y34673394D01*
X15843967Y34672821D01*
X15832085Y34670729D01*
X15804210Y34669425D01*
X15764658Y34669026D01*
X15723297Y34669525D01*
X15659078Y34669873D01*
X15600436Y34668254D01*
X15550448Y34664935D01*
X15512192Y34660177D01*
X15488746Y34654245D01*
X15482720Y34648928D01*
X15491124Y34641373D01*
X15500500Y34639981D01*
X15536242Y34632779D01*
X15579798Y34611114D01*
X15632067Y34574363D01*
X15693950Y34521902D01*
X15757237Y34462086D01*
X15818612Y34403614D01*
X15870169Y34358930D01*
X15914917Y34326064D01*
X15955867Y34303045D01*
X15996030Y34287905D01*
X16037234Y34278858D01*
X16075605Y34278983D01*
X16100482Y34292645D01*
X16110265Y34318541D01*
X16108751Y34336944D01*
X16107282Y34357366D01*
X16111819Y34365760D01*
X16127013Y34357811D01*
X16151286Y34335647D01*
X16182201Y34301796D01*
X16217321Y34258785D01*
X16226656Y34246657D01*
X16267728Y34199756D01*
X16311392Y34166431D01*
X16363391Y34143331D01*
X16429463Y34127106D01*
X16432371Y34126573D01*
X16477207Y34118610D01*
X16505700Y34114213D01*
X16521452Y34113068D01*
X16528066Y34114862D01*
X16529200Y34118145D01*
X16522668Y34127840D01*
X16505135Y34148589D01*
X16479696Y34176812D01*
X16463672Y34193993D01*
X16371676Y34303060D01*
X16292442Y34420690D01*
X16228792Y34542387D01*
X16199593Y34614554D01*
X16188547Y34643057D01*
X16176855Y34664404D01*
X16160544Y34682989D01*
X16135646Y34703204D01*
X16098188Y34729443D01*
X16091854Y34733753D01*
X15936785Y34828631D01*
X15765462Y34914048D01*
X15579962Y34989304D01*
X15382364Y35053700D01*
X15174748Y35106539D01*
X14959191Y35147120D01*
X14798821Y35168514D01*
X14753862Y35173030D01*
X14716877Y35175881D01*
X14692196Y35176788D01*
X14684186Y35175894D01*
X11747747Y35175894D01*
X11732813Y35228937D01*
X11715877Y35362615D01*
X11718482Y35499204D01*
X11740424Y35638238D01*
X11766459Y35727624D01*
X12355394Y35727624D01*
X12364930Y35658934D01*
X12384074Y35601462D01*
X12429971Y35527868D01*
X12490719Y35465648D01*
X12562970Y35417453D01*
X12643380Y35385933D01*
X12661733Y35381521D01*
X12696834Y35377284D01*
X12746501Y35375535D01*
X12805155Y35376088D01*
X12867217Y35378758D01*
X12927110Y35383363D01*
X12979254Y35389715D01*
X12996060Y35392584D01*
X13030199Y35399879D01*
X13054762Y35406689D01*
X13064623Y35411584D01*
X13064640Y35411721D01*
X13057069Y35420205D01*
X13036913Y35437439D01*
X13008008Y35460201D01*
X12997191Y35468385D01*
X12910788Y35544137D01*
X12841313Y35628540D01*
X12789403Y35720074D01*
X12755692Y35817222D01*
X12740818Y35918465D01*
X12745415Y36022285D01*
X12751152Y36056054D01*
X12762784Y36113976D01*
X12780174Y36075135D01*
X12798087Y36046474D01*
X12825743Y36014203D01*
X12857773Y35983497D01*
X12888808Y35959529D01*
X12912359Y35947745D01*
X12922047Y35946535D01*
X12928016Y35951559D01*
X12931161Y35966506D01*
X12932376Y35995065D01*
X12932560Y36031099D01*
X12942076Y36137500D01*
X12970300Y36249459D01*
X13016742Y36365869D01*
X13080913Y36485626D01*
X13162323Y36607623D01*
X13221954Y36684780D01*
X13243778Y36712686D01*
X13258250Y36733338D01*
X13262749Y36742939D01*
X13262279Y36743200D01*
X13247137Y36737696D01*
X13217950Y36722256D01*
X13177395Y36698490D01*
X13128151Y36668009D01*
X13072893Y36632422D01*
X13024000Y36599903D01*
X12893885Y36506375D01*
X12774580Y36409074D01*
X12667399Y36309470D01*
X12573653Y36209033D01*
X12494655Y36109234D01*
X12431718Y36011544D01*
X12386154Y35917434D01*
X12368249Y35865224D01*
X12356346Y35798957D01*
X12355394Y35727624D01*
X11766459Y35727624D01*
X11781497Y35779249D01*
X11841496Y35921770D01*
X11920216Y36065333D01*
X12017452Y36209471D01*
X12132997Y36353717D01*
X12266647Y36497604D01*
X12418197Y36640664D01*
X12465094Y36681612D01*
X12596278Y36788558D01*
X12734906Y36891036D01*
X12878890Y36988001D01*
X13026140Y37078411D01*
X13174567Y37161221D01*
X13322083Y37235387D01*
X13466599Y37299867D01*
X13606026Y37353616D01*
X13738274Y37395591D01*
X13861256Y37424748D01*
X13972881Y37440043D01*
X13984738Y37440857D01*
X14059446Y37442188D01*
X14116977Y37435328D01*
D10*
D11*
X11770000Y18157143D02*
X11770000Y17300000D01*
X11712857Y17128572D01*
X11598571Y17014286D01*
X11427142Y16957143D01*
X11312857Y16957143D01*
X12970000Y16957143D02*
X12284285Y16957143D01*
X12627142Y16957143D02*
X12627142Y18157143D01*
X12512857Y17985715D01*
X12398571Y17871429D01*
X12284285Y17814286D01*
M02*
