G04 #@! TF.GenerationSoftware,KiCad,Pcbnew,5.1.2*
G04 #@! TF.CreationDate,2019-05-01T14:56:28-06:00*
G04 #@! TF.ProjectId,microphone_array_adapter_board,6d696372-6f70-4686-9f6e-655f61727261,1*
G04 #@! TF.SameCoordinates,PX826a3b0PY7270e00*
G04 #@! TF.FileFunction,Soldermask,Bot*
G04 #@! TF.FilePolarity,Negative*
%FSLAX46Y46*%
G04 Gerber Fmt 4.6, Leading zero omitted, Abs format (unit mm)*
G04 Created by KiCad (PCBNEW 5.1.2) date 2019-05-01 14:56:28*
%MOMM*%
%LPD*%
G04 APERTURE LIST*
%ADD10C,0.100000*%
%ADD11C,0.976600*%
%ADD12C,3.301600*%
%ADD13R,1.504800X1.504800*%
%ADD14C,1.504800*%
%ADD15C,2.854800*%
%ADD16C,3.554800*%
%ADD17C,1.804800*%
%ADD18R,1.804800X1.804800*%
%ADD19R,3.301600X1.701600*%
%ADD20C,1.351600*%
%ADD21C,0.691600*%
%ADD22R,0.551600X1.601600*%
G04 APERTURE END LIST*
D10*
G36*
X13305581Y25024624D02*
G01*
X13329281Y25021109D01*
X13352523Y25015287D01*
X13375082Y25007215D01*
X13396742Y24996971D01*
X13417292Y24984653D01*
X13436537Y24970381D01*
X13454290Y24954290D01*
X13470381Y24936537D01*
X13484653Y24917292D01*
X13496971Y24896742D01*
X13507215Y24875082D01*
X13515287Y24852523D01*
X13521109Y24829281D01*
X13524624Y24805581D01*
X13525800Y24781650D01*
X13525800Y24218350D01*
X13524624Y24194419D01*
X13521109Y24170719D01*
X13515287Y24147477D01*
X13507215Y24124918D01*
X13496971Y24103258D01*
X13484653Y24082708D01*
X13470381Y24063463D01*
X13454290Y24045710D01*
X13436537Y24029619D01*
X13417292Y24015347D01*
X13396742Y24003029D01*
X13375082Y23992785D01*
X13352523Y23984713D01*
X13329281Y23978891D01*
X13305581Y23975376D01*
X13281650Y23974200D01*
X12793350Y23974200D01*
X12769419Y23975376D01*
X12745719Y23978891D01*
X12722477Y23984713D01*
X12699918Y23992785D01*
X12678258Y24003029D01*
X12657708Y24015347D01*
X12638463Y24029619D01*
X12620710Y24045710D01*
X12604619Y24063463D01*
X12590347Y24082708D01*
X12578029Y24103258D01*
X12567785Y24124918D01*
X12559713Y24147477D01*
X12553891Y24170719D01*
X12550376Y24194419D01*
X12549200Y24218350D01*
X12549200Y24781650D01*
X12550376Y24805581D01*
X12553891Y24829281D01*
X12559713Y24852523D01*
X12567785Y24875082D01*
X12578029Y24896742D01*
X12590347Y24917292D01*
X12604619Y24936537D01*
X12620710Y24954290D01*
X12638463Y24970381D01*
X12657708Y24984653D01*
X12678258Y24996971D01*
X12699918Y25007215D01*
X12722477Y25015287D01*
X12745719Y25021109D01*
X12769419Y25024624D01*
X12793350Y25025800D01*
X13281650Y25025800D01*
X13305581Y25024624D01*
X13305581Y25024624D01*
G37*
D11*
X13037500Y24500000D03*
D10*
G36*
X11730581Y25024624D02*
G01*
X11754281Y25021109D01*
X11777523Y25015287D01*
X11800082Y25007215D01*
X11821742Y24996971D01*
X11842292Y24984653D01*
X11861537Y24970381D01*
X11879290Y24954290D01*
X11895381Y24936537D01*
X11909653Y24917292D01*
X11921971Y24896742D01*
X11932215Y24875082D01*
X11940287Y24852523D01*
X11946109Y24829281D01*
X11949624Y24805581D01*
X11950800Y24781650D01*
X11950800Y24218350D01*
X11949624Y24194419D01*
X11946109Y24170719D01*
X11940287Y24147477D01*
X11932215Y24124918D01*
X11921971Y24103258D01*
X11909653Y24082708D01*
X11895381Y24063463D01*
X11879290Y24045710D01*
X11861537Y24029619D01*
X11842292Y24015347D01*
X11821742Y24003029D01*
X11800082Y23992785D01*
X11777523Y23984713D01*
X11754281Y23978891D01*
X11730581Y23975376D01*
X11706650Y23974200D01*
X11218350Y23974200D01*
X11194419Y23975376D01*
X11170719Y23978891D01*
X11147477Y23984713D01*
X11124918Y23992785D01*
X11103258Y24003029D01*
X11082708Y24015347D01*
X11063463Y24029619D01*
X11045710Y24045710D01*
X11029619Y24063463D01*
X11015347Y24082708D01*
X11003029Y24103258D01*
X10992785Y24124918D01*
X10984713Y24147477D01*
X10978891Y24170719D01*
X10975376Y24194419D01*
X10974200Y24218350D01*
X10974200Y24781650D01*
X10975376Y24805581D01*
X10978891Y24829281D01*
X10984713Y24852523D01*
X10992785Y24875082D01*
X11003029Y24896742D01*
X11015347Y24917292D01*
X11029619Y24936537D01*
X11045710Y24954290D01*
X11063463Y24970381D01*
X11082708Y24984653D01*
X11103258Y24996971D01*
X11124918Y25007215D01*
X11147477Y25015287D01*
X11170719Y25021109D01*
X11194419Y25024624D01*
X11218350Y25025800D01*
X11706650Y25025800D01*
X11730581Y25024624D01*
X11730581Y25024624D01*
G37*
D11*
X11462500Y24500000D03*
D10*
G36*
X16305581Y25024624D02*
G01*
X16329281Y25021109D01*
X16352523Y25015287D01*
X16375082Y25007215D01*
X16396742Y24996971D01*
X16417292Y24984653D01*
X16436537Y24970381D01*
X16454290Y24954290D01*
X16470381Y24936537D01*
X16484653Y24917292D01*
X16496971Y24896742D01*
X16507215Y24875082D01*
X16515287Y24852523D01*
X16521109Y24829281D01*
X16524624Y24805581D01*
X16525800Y24781650D01*
X16525800Y24218350D01*
X16524624Y24194419D01*
X16521109Y24170719D01*
X16515287Y24147477D01*
X16507215Y24124918D01*
X16496971Y24103258D01*
X16484653Y24082708D01*
X16470381Y24063463D01*
X16454290Y24045710D01*
X16436537Y24029619D01*
X16417292Y24015347D01*
X16396742Y24003029D01*
X16375082Y23992785D01*
X16352523Y23984713D01*
X16329281Y23978891D01*
X16305581Y23975376D01*
X16281650Y23974200D01*
X15793350Y23974200D01*
X15769419Y23975376D01*
X15745719Y23978891D01*
X15722477Y23984713D01*
X15699918Y23992785D01*
X15678258Y24003029D01*
X15657708Y24015347D01*
X15638463Y24029619D01*
X15620710Y24045710D01*
X15604619Y24063463D01*
X15590347Y24082708D01*
X15578029Y24103258D01*
X15567785Y24124918D01*
X15559713Y24147477D01*
X15553891Y24170719D01*
X15550376Y24194419D01*
X15549200Y24218350D01*
X15549200Y24781650D01*
X15550376Y24805581D01*
X15553891Y24829281D01*
X15559713Y24852523D01*
X15567785Y24875082D01*
X15578029Y24896742D01*
X15590347Y24917292D01*
X15604619Y24936537D01*
X15620710Y24954290D01*
X15638463Y24970381D01*
X15657708Y24984653D01*
X15678258Y24996971D01*
X15699918Y25007215D01*
X15722477Y25015287D01*
X15745719Y25021109D01*
X15769419Y25024624D01*
X15793350Y25025800D01*
X16281650Y25025800D01*
X16305581Y25024624D01*
X16305581Y25024624D01*
G37*
D11*
X16037500Y24500000D03*
D10*
G36*
X14730581Y25024624D02*
G01*
X14754281Y25021109D01*
X14777523Y25015287D01*
X14800082Y25007215D01*
X14821742Y24996971D01*
X14842292Y24984653D01*
X14861537Y24970381D01*
X14879290Y24954290D01*
X14895381Y24936537D01*
X14909653Y24917292D01*
X14921971Y24896742D01*
X14932215Y24875082D01*
X14940287Y24852523D01*
X14946109Y24829281D01*
X14949624Y24805581D01*
X14950800Y24781650D01*
X14950800Y24218350D01*
X14949624Y24194419D01*
X14946109Y24170719D01*
X14940287Y24147477D01*
X14932215Y24124918D01*
X14921971Y24103258D01*
X14909653Y24082708D01*
X14895381Y24063463D01*
X14879290Y24045710D01*
X14861537Y24029619D01*
X14842292Y24015347D01*
X14821742Y24003029D01*
X14800082Y23992785D01*
X14777523Y23984713D01*
X14754281Y23978891D01*
X14730581Y23975376D01*
X14706650Y23974200D01*
X14218350Y23974200D01*
X14194419Y23975376D01*
X14170719Y23978891D01*
X14147477Y23984713D01*
X14124918Y23992785D01*
X14103258Y24003029D01*
X14082708Y24015347D01*
X14063463Y24029619D01*
X14045710Y24045710D01*
X14029619Y24063463D01*
X14015347Y24082708D01*
X14003029Y24103258D01*
X13992785Y24124918D01*
X13984713Y24147477D01*
X13978891Y24170719D01*
X13975376Y24194419D01*
X13974200Y24218350D01*
X13974200Y24781650D01*
X13975376Y24805581D01*
X13978891Y24829281D01*
X13984713Y24852523D01*
X13992785Y24875082D01*
X14003029Y24896742D01*
X14015347Y24917292D01*
X14029619Y24936537D01*
X14045710Y24954290D01*
X14063463Y24970381D01*
X14082708Y24984653D01*
X14103258Y24996971D01*
X14124918Y25007215D01*
X14147477Y25015287D01*
X14170719Y25021109D01*
X14194419Y25024624D01*
X14218350Y25025800D01*
X14706650Y25025800D01*
X14730581Y25024624D01*
X14730581Y25024624D01*
G37*
D11*
X14462500Y24500000D03*
D12*
X20750000Y30250000D03*
D13*
X15820000Y7360000D03*
D14*
X14800000Y9140000D03*
X13780000Y7360000D03*
X12770000Y9140000D03*
X11740000Y7360000D03*
X10720000Y9140000D03*
X9700000Y7360000D03*
X8680000Y9140000D03*
X5390000Y13960000D03*
X7680000Y13960000D03*
X16820000Y13960000D03*
X19110000Y13960000D03*
D15*
X4125000Y8250000D03*
X20375000Y8250000D03*
D16*
X5900000Y4820000D03*
X18600000Y4820000D03*
D17*
X17330000Y45820000D03*
X17330000Y43280000D03*
X14790000Y45820000D03*
X14790000Y43280000D03*
X12250000Y45820000D03*
X12250000Y43280000D03*
X9710000Y45820000D03*
X9710000Y43280000D03*
X7170000Y45820000D03*
D18*
X7170000Y43280000D03*
D19*
X8500000Y55250000D03*
X16000000Y55250000D03*
D12*
X3750000Y30000000D03*
D10*
G36*
X15481976Y5074498D02*
G01*
X15508217Y5070606D01*
X15533950Y5064160D01*
X15558927Y5055223D01*
X15582908Y5043881D01*
X15605662Y5030243D01*
X15626969Y5014440D01*
X15646625Y4996625D01*
X15664440Y4976969D01*
X15680243Y4955662D01*
X15693881Y4932908D01*
X15705223Y4908927D01*
X15714160Y4883950D01*
X15720606Y4858217D01*
X15724498Y4831976D01*
X15725800Y4805480D01*
X15725800Y3994520D01*
X15724498Y3968024D01*
X15720606Y3941783D01*
X15714160Y3916050D01*
X15705223Y3891073D01*
X15693881Y3867092D01*
X15680243Y3844338D01*
X15664440Y3823031D01*
X15646625Y3803375D01*
X15626969Y3785560D01*
X15605662Y3769757D01*
X15582908Y3756119D01*
X15558927Y3744777D01*
X15533950Y3735840D01*
X15508217Y3729394D01*
X15481976Y3725502D01*
X15455480Y3724200D01*
X13244520Y3724200D01*
X13218024Y3725502D01*
X13191783Y3729394D01*
X13166050Y3735840D01*
X13141073Y3744777D01*
X13117092Y3756119D01*
X13094338Y3769757D01*
X13073031Y3785560D01*
X13053375Y3803375D01*
X13035560Y3823031D01*
X13019757Y3844338D01*
X13006119Y3867092D01*
X12994777Y3891073D01*
X12985840Y3916050D01*
X12979394Y3941783D01*
X12975502Y3968024D01*
X12974200Y3994520D01*
X12974200Y4805480D01*
X12975502Y4831976D01*
X12979394Y4858217D01*
X12985840Y4883950D01*
X12994777Y4908927D01*
X13006119Y4932908D01*
X13019757Y4955662D01*
X13035560Y4976969D01*
X13053375Y4996625D01*
X13073031Y5014440D01*
X13094338Y5030243D01*
X13117092Y5043881D01*
X13141073Y5055223D01*
X13166050Y5064160D01*
X13191783Y5070606D01*
X13218024Y5074498D01*
X13244520Y5075800D01*
X15455480Y5075800D01*
X15481976Y5074498D01*
X15481976Y5074498D01*
G37*
D20*
X14350000Y4400000D03*
D10*
G36*
X15481976Y2274498D02*
G01*
X15508217Y2270606D01*
X15533950Y2264160D01*
X15558927Y2255223D01*
X15582908Y2243881D01*
X15605662Y2230243D01*
X15626969Y2214440D01*
X15646625Y2196625D01*
X15664440Y2176969D01*
X15680243Y2155662D01*
X15693881Y2132908D01*
X15705223Y2108927D01*
X15714160Y2083950D01*
X15720606Y2058217D01*
X15724498Y2031976D01*
X15725800Y2005480D01*
X15725800Y1194520D01*
X15724498Y1168024D01*
X15720606Y1141783D01*
X15714160Y1116050D01*
X15705223Y1091073D01*
X15693881Y1067092D01*
X15680243Y1044338D01*
X15664440Y1023031D01*
X15646625Y1003375D01*
X15626969Y985560D01*
X15605662Y969757D01*
X15582908Y956119D01*
X15558927Y944777D01*
X15533950Y935840D01*
X15508217Y929394D01*
X15481976Y925502D01*
X15455480Y924200D01*
X13244520Y924200D01*
X13218024Y925502D01*
X13191783Y929394D01*
X13166050Y935840D01*
X13141073Y944777D01*
X13117092Y956119D01*
X13094338Y969757D01*
X13073031Y985560D01*
X13053375Y1003375D01*
X13035560Y1023031D01*
X13019757Y1044338D01*
X13006119Y1067092D01*
X12994777Y1091073D01*
X12985840Y1116050D01*
X12979394Y1141783D01*
X12975502Y1168024D01*
X12974200Y1194520D01*
X12974200Y2005480D01*
X12975502Y2031976D01*
X12979394Y2058217D01*
X12985840Y2083950D01*
X12994777Y2108927D01*
X13006119Y2132908D01*
X13019757Y2155662D01*
X13035560Y2176969D01*
X13053375Y2196625D01*
X13073031Y2214440D01*
X13094338Y2230243D01*
X13117092Y2243881D01*
X13141073Y2255223D01*
X13166050Y2264160D01*
X13191783Y2270606D01*
X13218024Y2274498D01*
X13244520Y2275800D01*
X15455480Y2275800D01*
X15481976Y2274498D01*
X15481976Y2274498D01*
G37*
D20*
X14350000Y1600000D03*
D10*
G36*
X12305581Y3774624D02*
G01*
X12329281Y3771109D01*
X12352523Y3765287D01*
X12375082Y3757215D01*
X12396742Y3746971D01*
X12417292Y3734653D01*
X12436537Y3720381D01*
X12454290Y3704290D01*
X12470381Y3686537D01*
X12484653Y3667292D01*
X12496971Y3646742D01*
X12507215Y3625082D01*
X12515287Y3602523D01*
X12521109Y3579281D01*
X12524624Y3555581D01*
X12525800Y3531650D01*
X12525800Y3043350D01*
X12524624Y3019419D01*
X12521109Y2995719D01*
X12515287Y2972477D01*
X12507215Y2949918D01*
X12496971Y2928258D01*
X12484653Y2907708D01*
X12470381Y2888463D01*
X12454290Y2870710D01*
X12436537Y2854619D01*
X12417292Y2840347D01*
X12396742Y2828029D01*
X12375082Y2817785D01*
X12352523Y2809713D01*
X12329281Y2803891D01*
X12305581Y2800376D01*
X12281650Y2799200D01*
X11718350Y2799200D01*
X11694419Y2800376D01*
X11670719Y2803891D01*
X11647477Y2809713D01*
X11624918Y2817785D01*
X11603258Y2828029D01*
X11582708Y2840347D01*
X11563463Y2854619D01*
X11545710Y2870710D01*
X11529619Y2888463D01*
X11515347Y2907708D01*
X11503029Y2928258D01*
X11492785Y2949918D01*
X11484713Y2972477D01*
X11478891Y2995719D01*
X11475376Y3019419D01*
X11474200Y3043350D01*
X11474200Y3531650D01*
X11475376Y3555581D01*
X11478891Y3579281D01*
X11484713Y3602523D01*
X11492785Y3625082D01*
X11503029Y3646742D01*
X11515347Y3667292D01*
X11529619Y3686537D01*
X11545710Y3704290D01*
X11563463Y3720381D01*
X11582708Y3734653D01*
X11603258Y3746971D01*
X11624918Y3757215D01*
X11647477Y3765287D01*
X11670719Y3771109D01*
X11694419Y3774624D01*
X11718350Y3775800D01*
X12281650Y3775800D01*
X12305581Y3774624D01*
X12305581Y3774624D01*
G37*
D11*
X12000000Y3287500D03*
D10*
G36*
X12305581Y2199624D02*
G01*
X12329281Y2196109D01*
X12352523Y2190287D01*
X12375082Y2182215D01*
X12396742Y2171971D01*
X12417292Y2159653D01*
X12436537Y2145381D01*
X12454290Y2129290D01*
X12470381Y2111537D01*
X12484653Y2092292D01*
X12496971Y2071742D01*
X12507215Y2050082D01*
X12515287Y2027523D01*
X12521109Y2004281D01*
X12524624Y1980581D01*
X12525800Y1956650D01*
X12525800Y1468350D01*
X12524624Y1444419D01*
X12521109Y1420719D01*
X12515287Y1397477D01*
X12507215Y1374918D01*
X12496971Y1353258D01*
X12484653Y1332708D01*
X12470381Y1313463D01*
X12454290Y1295710D01*
X12436537Y1279619D01*
X12417292Y1265347D01*
X12396742Y1253029D01*
X12375082Y1242785D01*
X12352523Y1234713D01*
X12329281Y1228891D01*
X12305581Y1225376D01*
X12281650Y1224200D01*
X11718350Y1224200D01*
X11694419Y1225376D01*
X11670719Y1228891D01*
X11647477Y1234713D01*
X11624918Y1242785D01*
X11603258Y1253029D01*
X11582708Y1265347D01*
X11563463Y1279619D01*
X11545710Y1295710D01*
X11529619Y1313463D01*
X11515347Y1332708D01*
X11503029Y1353258D01*
X11492785Y1374918D01*
X11484713Y1397477D01*
X11478891Y1420719D01*
X11475376Y1444419D01*
X11474200Y1468350D01*
X11474200Y1956650D01*
X11475376Y1980581D01*
X11478891Y2004281D01*
X11484713Y2027523D01*
X11492785Y2050082D01*
X11503029Y2071742D01*
X11515347Y2092292D01*
X11529619Y2111537D01*
X11545710Y2129290D01*
X11563463Y2145381D01*
X11582708Y2159653D01*
X11603258Y2171971D01*
X11624918Y2182215D01*
X11647477Y2190287D01*
X11670719Y2196109D01*
X11694419Y2199624D01*
X11718350Y2200800D01*
X12281650Y2200800D01*
X12305581Y2199624D01*
X12305581Y2199624D01*
G37*
D11*
X12000000Y1712500D03*
D10*
G36*
X16980405Y32331399D02*
G01*
X16997189Y32328910D01*
X17013648Y32324787D01*
X17029624Y32319071D01*
X17044962Y32311816D01*
X17059516Y32303093D01*
X17073145Y32292986D01*
X17085717Y32281591D01*
X17097112Y32269019D01*
X17107219Y32255390D01*
X17115942Y32240836D01*
X17123197Y32225498D01*
X17128913Y32209522D01*
X17133036Y32193063D01*
X17135525Y32176279D01*
X17136358Y32159332D01*
X17136358Y31813532D01*
X17135525Y31796585D01*
X17133036Y31779801D01*
X17128913Y31763342D01*
X17123197Y31747366D01*
X17115942Y31732028D01*
X17107219Y31717474D01*
X17097112Y31703845D01*
X17085717Y31691273D01*
X17073145Y31679878D01*
X17059516Y31669771D01*
X17044962Y31661048D01*
X17029624Y31653793D01*
X17013648Y31648077D01*
X16997189Y31643954D01*
X16980405Y31641465D01*
X16963458Y31640632D01*
X16567658Y31640632D01*
X16550711Y31641465D01*
X16533927Y31643954D01*
X16517468Y31648077D01*
X16501492Y31653793D01*
X16486154Y31661048D01*
X16471600Y31669771D01*
X16457971Y31679878D01*
X16445399Y31691273D01*
X16434004Y31703845D01*
X16423897Y31717474D01*
X16415174Y31732028D01*
X16407919Y31747366D01*
X16402203Y31763342D01*
X16398080Y31779801D01*
X16395591Y31796585D01*
X16394758Y31813532D01*
X16394758Y32159332D01*
X16395591Y32176279D01*
X16398080Y32193063D01*
X16402203Y32209522D01*
X16407919Y32225498D01*
X16415174Y32240836D01*
X16423897Y32255390D01*
X16434004Y32269019D01*
X16445399Y32281591D01*
X16457971Y32292986D01*
X16471600Y32303093D01*
X16486154Y32311816D01*
X16501492Y32319071D01*
X16517468Y32324787D01*
X16533927Y32328910D01*
X16550711Y32331399D01*
X16567658Y32332232D01*
X16963458Y32332232D01*
X16980405Y32331399D01*
X16980405Y32331399D01*
G37*
D21*
X16765558Y31986432D03*
D10*
G36*
X16980405Y33301399D02*
G01*
X16997189Y33298910D01*
X17013648Y33294787D01*
X17029624Y33289071D01*
X17044962Y33281816D01*
X17059516Y33273093D01*
X17073145Y33262986D01*
X17085717Y33251591D01*
X17097112Y33239019D01*
X17107219Y33225390D01*
X17115942Y33210836D01*
X17123197Y33195498D01*
X17128913Y33179522D01*
X17133036Y33163063D01*
X17135525Y33146279D01*
X17136358Y33129332D01*
X17136358Y32783532D01*
X17135525Y32766585D01*
X17133036Y32749801D01*
X17128913Y32733342D01*
X17123197Y32717366D01*
X17115942Y32702028D01*
X17107219Y32687474D01*
X17097112Y32673845D01*
X17085717Y32661273D01*
X17073145Y32649878D01*
X17059516Y32639771D01*
X17044962Y32631048D01*
X17029624Y32623793D01*
X17013648Y32618077D01*
X16997189Y32613954D01*
X16980405Y32611465D01*
X16963458Y32610632D01*
X16567658Y32610632D01*
X16550711Y32611465D01*
X16533927Y32613954D01*
X16517468Y32618077D01*
X16501492Y32623793D01*
X16486154Y32631048D01*
X16471600Y32639771D01*
X16457971Y32649878D01*
X16445399Y32661273D01*
X16434004Y32673845D01*
X16423897Y32687474D01*
X16415174Y32702028D01*
X16407919Y32717366D01*
X16402203Y32733342D01*
X16398080Y32749801D01*
X16395591Y32766585D01*
X16394758Y32783532D01*
X16394758Y33129332D01*
X16395591Y33146279D01*
X16398080Y33163063D01*
X16402203Y33179522D01*
X16407919Y33195498D01*
X16415174Y33210836D01*
X16423897Y33225390D01*
X16434004Y33239019D01*
X16445399Y33251591D01*
X16457971Y33262986D01*
X16471600Y33273093D01*
X16486154Y33281816D01*
X16501492Y33289071D01*
X16517468Y33294787D01*
X16533927Y33298910D01*
X16550711Y33301399D01*
X16567658Y33302232D01*
X16963458Y33302232D01*
X16980405Y33301399D01*
X16980405Y33301399D01*
G37*
D21*
X16765558Y32956432D03*
D10*
G36*
X15980405Y33301399D02*
G01*
X15997189Y33298910D01*
X16013648Y33294787D01*
X16029624Y33289071D01*
X16044962Y33281816D01*
X16059516Y33273093D01*
X16073145Y33262986D01*
X16085717Y33251591D01*
X16097112Y33239019D01*
X16107219Y33225390D01*
X16115942Y33210836D01*
X16123197Y33195498D01*
X16128913Y33179522D01*
X16133036Y33163063D01*
X16135525Y33146279D01*
X16136358Y33129332D01*
X16136358Y32783532D01*
X16135525Y32766585D01*
X16133036Y32749801D01*
X16128913Y32733342D01*
X16123197Y32717366D01*
X16115942Y32702028D01*
X16107219Y32687474D01*
X16097112Y32673845D01*
X16085717Y32661273D01*
X16073145Y32649878D01*
X16059516Y32639771D01*
X16044962Y32631048D01*
X16029624Y32623793D01*
X16013648Y32618077D01*
X15997189Y32613954D01*
X15980405Y32611465D01*
X15963458Y32610632D01*
X15567658Y32610632D01*
X15550711Y32611465D01*
X15533927Y32613954D01*
X15517468Y32618077D01*
X15501492Y32623793D01*
X15486154Y32631048D01*
X15471600Y32639771D01*
X15457971Y32649878D01*
X15445399Y32661273D01*
X15434004Y32673845D01*
X15423897Y32687474D01*
X15415174Y32702028D01*
X15407919Y32717366D01*
X15402203Y32733342D01*
X15398080Y32749801D01*
X15395591Y32766585D01*
X15394758Y32783532D01*
X15394758Y33129332D01*
X15395591Y33146279D01*
X15398080Y33163063D01*
X15402203Y33179522D01*
X15407919Y33195498D01*
X15415174Y33210836D01*
X15423897Y33225390D01*
X15434004Y33239019D01*
X15445399Y33251591D01*
X15457971Y33262986D01*
X15471600Y33273093D01*
X15486154Y33281816D01*
X15501492Y33289071D01*
X15517468Y33294787D01*
X15533927Y33298910D01*
X15550711Y33301399D01*
X15567658Y33302232D01*
X15963458Y33302232D01*
X15980405Y33301399D01*
X15980405Y33301399D01*
G37*
D21*
X15765558Y32956432D03*
D10*
G36*
X15980405Y32331399D02*
G01*
X15997189Y32328910D01*
X16013648Y32324787D01*
X16029624Y32319071D01*
X16044962Y32311816D01*
X16059516Y32303093D01*
X16073145Y32292986D01*
X16085717Y32281591D01*
X16097112Y32269019D01*
X16107219Y32255390D01*
X16115942Y32240836D01*
X16123197Y32225498D01*
X16128913Y32209522D01*
X16133036Y32193063D01*
X16135525Y32176279D01*
X16136358Y32159332D01*
X16136358Y31813532D01*
X16135525Y31796585D01*
X16133036Y31779801D01*
X16128913Y31763342D01*
X16123197Y31747366D01*
X16115942Y31732028D01*
X16107219Y31717474D01*
X16097112Y31703845D01*
X16085717Y31691273D01*
X16073145Y31679878D01*
X16059516Y31669771D01*
X16044962Y31661048D01*
X16029624Y31653793D01*
X16013648Y31648077D01*
X15997189Y31643954D01*
X15980405Y31641465D01*
X15963458Y31640632D01*
X15567658Y31640632D01*
X15550711Y31641465D01*
X15533927Y31643954D01*
X15517468Y31648077D01*
X15501492Y31653793D01*
X15486154Y31661048D01*
X15471600Y31669771D01*
X15457971Y31679878D01*
X15445399Y31691273D01*
X15434004Y31703845D01*
X15423897Y31717474D01*
X15415174Y31732028D01*
X15407919Y31747366D01*
X15402203Y31763342D01*
X15398080Y31779801D01*
X15395591Y31796585D01*
X15394758Y31813532D01*
X15394758Y32159332D01*
X15395591Y32176279D01*
X15398080Y32193063D01*
X15402203Y32209522D01*
X15407919Y32225498D01*
X15415174Y32240836D01*
X15423897Y32255390D01*
X15434004Y32269019D01*
X15445399Y32281591D01*
X15457971Y32292986D01*
X15471600Y32303093D01*
X15486154Y32311816D01*
X15501492Y32319071D01*
X15517468Y32324787D01*
X15533927Y32328910D01*
X15550711Y32331399D01*
X15567658Y32332232D01*
X15963458Y32332232D01*
X15980405Y32331399D01*
X15980405Y32331399D01*
G37*
D21*
X15765558Y31986432D03*
D10*
G36*
X12555581Y50949624D02*
G01*
X12579281Y50946109D01*
X12602523Y50940287D01*
X12625082Y50932215D01*
X12646742Y50921971D01*
X12667292Y50909653D01*
X12686537Y50895381D01*
X12704290Y50879290D01*
X12720381Y50861537D01*
X12734653Y50842292D01*
X12746971Y50821742D01*
X12757215Y50800082D01*
X12765287Y50777523D01*
X12771109Y50754281D01*
X12774624Y50730581D01*
X12775800Y50706650D01*
X12775800Y50218350D01*
X12774624Y50194419D01*
X12771109Y50170719D01*
X12765287Y50147477D01*
X12757215Y50124918D01*
X12746971Y50103258D01*
X12734653Y50082708D01*
X12720381Y50063463D01*
X12704290Y50045710D01*
X12686537Y50029619D01*
X12667292Y50015347D01*
X12646742Y50003029D01*
X12625082Y49992785D01*
X12602523Y49984713D01*
X12579281Y49978891D01*
X12555581Y49975376D01*
X12531650Y49974200D01*
X11968350Y49974200D01*
X11944419Y49975376D01*
X11920719Y49978891D01*
X11897477Y49984713D01*
X11874918Y49992785D01*
X11853258Y50003029D01*
X11832708Y50015347D01*
X11813463Y50029619D01*
X11795710Y50045710D01*
X11779619Y50063463D01*
X11765347Y50082708D01*
X11753029Y50103258D01*
X11742785Y50124918D01*
X11734713Y50147477D01*
X11728891Y50170719D01*
X11725376Y50194419D01*
X11724200Y50218350D01*
X11724200Y50706650D01*
X11725376Y50730581D01*
X11728891Y50754281D01*
X11734713Y50777523D01*
X11742785Y50800082D01*
X11753029Y50821742D01*
X11765347Y50842292D01*
X11779619Y50861537D01*
X11795710Y50879290D01*
X11813463Y50895381D01*
X11832708Y50909653D01*
X11853258Y50921971D01*
X11874918Y50932215D01*
X11897477Y50940287D01*
X11920719Y50946109D01*
X11944419Y50949624D01*
X11968350Y50950800D01*
X12531650Y50950800D01*
X12555581Y50949624D01*
X12555581Y50949624D01*
G37*
D11*
X12250000Y50462500D03*
D10*
G36*
X12555581Y52524624D02*
G01*
X12579281Y52521109D01*
X12602523Y52515287D01*
X12625082Y52507215D01*
X12646742Y52496971D01*
X12667292Y52484653D01*
X12686537Y52470381D01*
X12704290Y52454290D01*
X12720381Y52436537D01*
X12734653Y52417292D01*
X12746971Y52396742D01*
X12757215Y52375082D01*
X12765287Y52352523D01*
X12771109Y52329281D01*
X12774624Y52305581D01*
X12775800Y52281650D01*
X12775800Y51793350D01*
X12774624Y51769419D01*
X12771109Y51745719D01*
X12765287Y51722477D01*
X12757215Y51699918D01*
X12746971Y51678258D01*
X12734653Y51657708D01*
X12720381Y51638463D01*
X12704290Y51620710D01*
X12686537Y51604619D01*
X12667292Y51590347D01*
X12646742Y51578029D01*
X12625082Y51567785D01*
X12602523Y51559713D01*
X12579281Y51553891D01*
X12555581Y51550376D01*
X12531650Y51549200D01*
X11968350Y51549200D01*
X11944419Y51550376D01*
X11920719Y51553891D01*
X11897477Y51559713D01*
X11874918Y51567785D01*
X11853258Y51578029D01*
X11832708Y51590347D01*
X11813463Y51604619D01*
X11795710Y51620710D01*
X11779619Y51638463D01*
X11765347Y51657708D01*
X11753029Y51678258D01*
X11742785Y51699918D01*
X11734713Y51722477D01*
X11728891Y51745719D01*
X11725376Y51769419D01*
X11724200Y51793350D01*
X11724200Y52281650D01*
X11725376Y52305581D01*
X11728891Y52329281D01*
X11734713Y52352523D01*
X11742785Y52375082D01*
X11753029Y52396742D01*
X11765347Y52417292D01*
X11779619Y52436537D01*
X11795710Y52454290D01*
X11813463Y52470381D01*
X11832708Y52484653D01*
X11853258Y52496971D01*
X11874918Y52507215D01*
X11897477Y52515287D01*
X11920719Y52521109D01*
X11944419Y52524624D01*
X11968350Y52525800D01*
X12531650Y52525800D01*
X12555581Y52524624D01*
X12555581Y52524624D01*
G37*
D11*
X12250000Y52037500D03*
D10*
G36*
X12555581Y55774624D02*
G01*
X12579281Y55771109D01*
X12602523Y55765287D01*
X12625082Y55757215D01*
X12646742Y55746971D01*
X12667292Y55734653D01*
X12686537Y55720381D01*
X12704290Y55704290D01*
X12720381Y55686537D01*
X12734653Y55667292D01*
X12746971Y55646742D01*
X12757215Y55625082D01*
X12765287Y55602523D01*
X12771109Y55579281D01*
X12774624Y55555581D01*
X12775800Y55531650D01*
X12775800Y55043350D01*
X12774624Y55019419D01*
X12771109Y54995719D01*
X12765287Y54972477D01*
X12757215Y54949918D01*
X12746971Y54928258D01*
X12734653Y54907708D01*
X12720381Y54888463D01*
X12704290Y54870710D01*
X12686537Y54854619D01*
X12667292Y54840347D01*
X12646742Y54828029D01*
X12625082Y54817785D01*
X12602523Y54809713D01*
X12579281Y54803891D01*
X12555581Y54800376D01*
X12531650Y54799200D01*
X11968350Y54799200D01*
X11944419Y54800376D01*
X11920719Y54803891D01*
X11897477Y54809713D01*
X11874918Y54817785D01*
X11853258Y54828029D01*
X11832708Y54840347D01*
X11813463Y54854619D01*
X11795710Y54870710D01*
X11779619Y54888463D01*
X11765347Y54907708D01*
X11753029Y54928258D01*
X11742785Y54949918D01*
X11734713Y54972477D01*
X11728891Y54995719D01*
X11725376Y55019419D01*
X11724200Y55043350D01*
X11724200Y55531650D01*
X11725376Y55555581D01*
X11728891Y55579281D01*
X11734713Y55602523D01*
X11742785Y55625082D01*
X11753029Y55646742D01*
X11765347Y55667292D01*
X11779619Y55686537D01*
X11795710Y55704290D01*
X11813463Y55720381D01*
X11832708Y55734653D01*
X11853258Y55746971D01*
X11874918Y55757215D01*
X11897477Y55765287D01*
X11920719Y55771109D01*
X11944419Y55774624D01*
X11968350Y55775800D01*
X12531650Y55775800D01*
X12555581Y55774624D01*
X12555581Y55774624D01*
G37*
D11*
X12250000Y55287500D03*
D10*
G36*
X12555581Y54199624D02*
G01*
X12579281Y54196109D01*
X12602523Y54190287D01*
X12625082Y54182215D01*
X12646742Y54171971D01*
X12667292Y54159653D01*
X12686537Y54145381D01*
X12704290Y54129290D01*
X12720381Y54111537D01*
X12734653Y54092292D01*
X12746971Y54071742D01*
X12757215Y54050082D01*
X12765287Y54027523D01*
X12771109Y54004281D01*
X12774624Y53980581D01*
X12775800Y53956650D01*
X12775800Y53468350D01*
X12774624Y53444419D01*
X12771109Y53420719D01*
X12765287Y53397477D01*
X12757215Y53374918D01*
X12746971Y53353258D01*
X12734653Y53332708D01*
X12720381Y53313463D01*
X12704290Y53295710D01*
X12686537Y53279619D01*
X12667292Y53265347D01*
X12646742Y53253029D01*
X12625082Y53242785D01*
X12602523Y53234713D01*
X12579281Y53228891D01*
X12555581Y53225376D01*
X12531650Y53224200D01*
X11968350Y53224200D01*
X11944419Y53225376D01*
X11920719Y53228891D01*
X11897477Y53234713D01*
X11874918Y53242785D01*
X11853258Y53253029D01*
X11832708Y53265347D01*
X11813463Y53279619D01*
X11795710Y53295710D01*
X11779619Y53313463D01*
X11765347Y53332708D01*
X11753029Y53353258D01*
X11742785Y53374918D01*
X11734713Y53397477D01*
X11728891Y53420719D01*
X11725376Y53444419D01*
X11724200Y53468350D01*
X11724200Y53956650D01*
X11725376Y53980581D01*
X11728891Y54004281D01*
X11734713Y54027523D01*
X11742785Y54050082D01*
X11753029Y54071742D01*
X11765347Y54092292D01*
X11779619Y54111537D01*
X11795710Y54129290D01*
X11813463Y54145381D01*
X11832708Y54159653D01*
X11853258Y54171971D01*
X11874918Y54182215D01*
X11897477Y54190287D01*
X11920719Y54196109D01*
X11944419Y54199624D01*
X11968350Y54200800D01*
X12531650Y54200800D01*
X12555581Y54199624D01*
X12555581Y54199624D01*
G37*
D11*
X12250000Y53712500D03*
D22*
X14525000Y27050000D03*
X13875000Y27050000D03*
X13225000Y27050000D03*
X12575000Y27050000D03*
X11925000Y27050000D03*
X11275000Y27050000D03*
X10625000Y27050000D03*
X9975000Y27050000D03*
X9975000Y32950000D03*
X10625000Y32950000D03*
X11275000Y32950000D03*
X11925000Y32950000D03*
X12575000Y32950000D03*
X13225000Y32950000D03*
X13875000Y32950000D03*
X14525000Y32950000D03*
M02*
