G04 #@! TF.GenerationSoftware,KiCad,Pcbnew,5.1.2*
G04 #@! TF.CreationDate,2019-05-01T14:56:27-06:00*
G04 #@! TF.ProjectId,microphone_array_adapter_board,6d696372-6f70-4686-9f6e-655f61727261,1*
G04 #@! TF.SameCoordinates,PX826a3b0PY7270e00*
G04 #@! TF.FileFunction,Copper,L1,Top*
G04 #@! TF.FilePolarity,Positive*
%FSLAX46Y46*%
G04 Gerber Fmt 4.6, Leading zero omitted, Abs format (unit mm)*
G04 Created by KiCad (PCBNEW 5.1.2) date 2019-05-01 14:56:27*
%MOMM*%
%LPD*%
G04 APERTURE LIST*
%ADD10R,1.200000X1.200000*%
%ADD11C,1.200000*%
%ADD12C,2.550000*%
%ADD13C,1.500000*%
%ADD14R,1.500000X1.500000*%
%ADD15C,0.600000*%
%ADD16C,0.800000*%
%ADD17C,1.016000*%
%ADD18C,0.177800*%
%ADD19C,0.254000*%
G04 APERTURE END LIST*
D10*
X15820000Y7360000D03*
D11*
X14800000Y9140000D03*
X13780000Y7360000D03*
X12770000Y9140000D03*
X11740000Y7360000D03*
X10720000Y9140000D03*
X9700000Y7360000D03*
X8680000Y9140000D03*
X5390000Y13960000D03*
X7680000Y13960000D03*
X16820000Y13960000D03*
X19110000Y13960000D03*
D12*
X4125000Y8250000D03*
X20375000Y8250000D03*
D13*
X17330000Y45820000D03*
X17330000Y43280000D03*
X14790000Y45820000D03*
X14790000Y43280000D03*
X12250000Y45820000D03*
X12250000Y43280000D03*
X9710000Y45820000D03*
X9710000Y43280000D03*
X7170000Y45820000D03*
D14*
X7170000Y43280000D03*
D15*
X10500000Y16750000D03*
X10500000Y11750000D03*
X10500000Y21750000D03*
X10500000Y29250000D03*
X13500000Y16750000D03*
X13500000Y11750000D03*
X13500000Y21750000D03*
X13500000Y19250000D03*
X13500000Y29250000D03*
X15500000Y29250000D03*
X15500000Y26750000D03*
D16*
X13750000Y23000000D03*
X16750000Y23000000D03*
X12250000Y49250000D03*
X16000000Y53750000D03*
X17000000Y1500000D03*
X10250000Y1500000D03*
D15*
X7000000Y31750000D03*
X7000000Y29250000D03*
X7000000Y26750000D03*
X7000000Y24250000D03*
X7000000Y21750000D03*
X7000000Y19250000D03*
X7000000Y16750000D03*
X7000000Y11750000D03*
X7000000Y9250000D03*
X17750000Y31750000D03*
X17750000Y29250000D03*
X17750000Y26750000D03*
X17750000Y24250000D03*
X17750000Y21750000D03*
X17750000Y19250000D03*
X17750000Y16750000D03*
X17750000Y11750000D03*
X17750000Y9250000D03*
D16*
X10750000Y55250000D03*
X14761100Y23000000D03*
X15738900Y23000000D03*
X10625000Y36625000D03*
D17*
X14800000Y9140000D02*
X17640000Y9140000D01*
X19485000Y9140000D02*
X20375000Y8250000D01*
X17640000Y9140000D02*
X19485000Y9140000D01*
D18*
X13017105Y9140000D02*
X12770000Y9140000D01*
X15072200Y11195095D02*
X13017105Y9140000D01*
X15047442Y19930671D02*
X15065931Y19877831D01*
X14978072Y20017658D02*
X15017657Y19978073D01*
X14930670Y20047443D02*
X14978072Y20017658D01*
X14822200Y20072200D02*
X14877830Y20065932D01*
X14425507Y20078469D02*
X14481138Y20072200D01*
X15072200Y19822200D02*
X15072200Y11195095D01*
X14372667Y20096958D02*
X14425507Y20078469D01*
X14255895Y20213730D02*
X14285680Y20166328D01*
X14231138Y20322200D02*
X14237406Y20266570D01*
X14255895Y20430671D02*
X14237406Y20377831D01*
X14325265Y20126743D02*
X14372667Y20096958D01*
X14285680Y20478073D02*
X14255895Y20430671D01*
X14425507Y20565932D02*
X14372667Y20547443D01*
X14877830Y20065932D02*
X14930670Y20047443D01*
X14237406Y20377831D02*
X14231138Y20322200D01*
X14481138Y20572200D02*
X14425507Y20565932D01*
X14877830Y20578469D02*
X14822200Y20572200D01*
X14372667Y21547443D02*
X14325265Y21517658D01*
X14255895Y21430671D02*
X14237406Y21377831D01*
X15017657Y20666328D02*
X14978072Y20626743D01*
X14822200Y21572200D02*
X14481138Y21572200D01*
X15047442Y20713730D02*
X15017657Y20666328D01*
X14877830Y21578469D02*
X14822200Y21572200D01*
X14285680Y21478073D02*
X14255895Y21430671D01*
X15065931Y21766570D02*
X15047442Y21713730D01*
X14930670Y21596958D02*
X14877830Y21578469D01*
X14822200Y21072200D02*
X14877830Y21065932D01*
X14761100Y23000000D02*
X15072200Y22688900D01*
X15072200Y21822200D02*
X15065931Y21766570D01*
X14325265Y21517658D02*
X14285680Y21478073D01*
X15017657Y21666328D02*
X14978072Y21626743D01*
X14425507Y21565932D02*
X14372667Y21547443D01*
X14372667Y21096958D02*
X14425507Y21078469D01*
X15072200Y22688900D02*
X15072200Y21822200D01*
X15065931Y19877831D02*
X15072200Y19822200D01*
X14822200Y20572200D02*
X14481138Y20572200D01*
X14237406Y21377831D02*
X14231138Y21322200D01*
X15017657Y19978073D02*
X15047442Y19930671D01*
X14325265Y20517658D02*
X14285680Y20478073D01*
X15047442Y21713730D02*
X15017657Y21666328D01*
X14231138Y21322200D02*
X14237406Y21266570D01*
X14285680Y20166328D02*
X14325265Y20126743D01*
X14930670Y20596958D02*
X14877830Y20578469D01*
X14481138Y21072200D02*
X14822200Y21072200D01*
X14481138Y20072200D02*
X14822200Y20072200D01*
X14237406Y21266570D02*
X14255895Y21213730D01*
X14285680Y21166328D02*
X14325265Y21126743D01*
X14481138Y21572200D02*
X14425507Y21565932D01*
X14978072Y21626743D02*
X14930670Y21596958D01*
X14425507Y21078469D02*
X14481138Y21072200D01*
X14237406Y20266570D02*
X14255895Y20213730D01*
X15017657Y20978073D02*
X15047442Y20930671D01*
X14325265Y21126743D02*
X14372667Y21096958D01*
X14877830Y21065932D02*
X14930670Y21047443D01*
X15047442Y20930671D02*
X15065931Y20877831D01*
X14372667Y20547443D02*
X14325265Y20517658D01*
X14930670Y21047443D02*
X14978072Y21017658D01*
X15072200Y20822200D02*
X15065931Y20766570D01*
X14255895Y21213730D02*
X14285680Y21166328D01*
X14978072Y21017658D02*
X15017657Y20978073D01*
X14978072Y20626743D02*
X14930670Y20596958D01*
X15065931Y20877831D02*
X15072200Y20822200D01*
X15065931Y20766570D02*
X15047442Y20713730D01*
X12678699Y8298699D02*
X11740000Y7360000D01*
X13611301Y8736175D02*
X13173825Y8298699D01*
X13611301Y9231301D02*
X13611301Y8736175D01*
X15427800Y22688900D02*
X15427800Y11047800D01*
X13173825Y8298699D02*
X12678699Y8298699D01*
X15427800Y11047800D02*
X13611301Y9231301D01*
X15738900Y23000000D02*
X15427800Y22688900D01*
D19*
X10625000Y41655000D02*
X12250000Y43280000D01*
X10625000Y36625000D02*
X10625000Y41655000D01*
G36*
X22794401Y59486822D02*
G01*
X23077586Y59401323D01*
X23338768Y59262450D01*
X23568006Y59075487D01*
X23756562Y58847563D01*
X23897258Y58587350D01*
X23984730Y58304775D01*
X24018001Y57988222D01*
X24018000Y2023578D01*
X23986822Y1705599D01*
X23901324Y1422417D01*
X23762449Y1161231D01*
X23575489Y931995D01*
X23347562Y743437D01*
X23087350Y602742D01*
X22804771Y515269D01*
X22488232Y482000D01*
X2023578Y482000D01*
X1705599Y513178D01*
X1422417Y598676D01*
X1161231Y737551D01*
X931995Y924511D01*
X743437Y1152438D01*
X602742Y1412650D01*
X515269Y1695229D01*
X482000Y2011768D01*
X482000Y5022597D01*
X3843000Y5022597D01*
X3843000Y4617403D01*
X3922049Y4219995D01*
X4077110Y3845645D01*
X4302224Y3508739D01*
X4588739Y3222224D01*
X4925645Y2997110D01*
X5299995Y2842049D01*
X5697403Y2763000D01*
X6102597Y2763000D01*
X6500005Y2842049D01*
X6874355Y2997110D01*
X7211261Y3222224D01*
X7497776Y3508739D01*
X7722890Y3845645D01*
X7877951Y4219995D01*
X7957000Y4617403D01*
X7957000Y5022597D01*
X16543000Y5022597D01*
X16543000Y4617403D01*
X16622049Y4219995D01*
X16777110Y3845645D01*
X17002224Y3508739D01*
X17288739Y3222224D01*
X17625645Y2997110D01*
X17999995Y2842049D01*
X18397403Y2763000D01*
X18802597Y2763000D01*
X19200005Y2842049D01*
X19574355Y2997110D01*
X19911261Y3222224D01*
X20197776Y3508739D01*
X20422890Y3845645D01*
X20577951Y4219995D01*
X20657000Y4617403D01*
X20657000Y5022597D01*
X20577951Y5420005D01*
X20422890Y5794355D01*
X20197776Y6131261D01*
X19911261Y6417776D01*
X19574355Y6642890D01*
X19200005Y6797951D01*
X18802597Y6877000D01*
X18397403Y6877000D01*
X17999995Y6797951D01*
X17625645Y6642890D01*
X17288739Y6417776D01*
X17002224Y6131261D01*
X16777110Y5794355D01*
X16622049Y5420005D01*
X16543000Y5022597D01*
X7957000Y5022597D01*
X7877951Y5420005D01*
X7722890Y5794355D01*
X7497776Y6131261D01*
X7211261Y6417776D01*
X6874355Y6642890D01*
X6500005Y6797951D01*
X6102597Y6877000D01*
X5697403Y6877000D01*
X5299995Y6797951D01*
X4925645Y6642890D01*
X4588739Y6417776D01*
X4302224Y6131261D01*
X4077110Y5794355D01*
X3922049Y5420005D01*
X3843000Y5022597D01*
X482000Y5022597D01*
X482000Y7054555D01*
X3109160Y7054555D01*
X3252515Y6833063D01*
X3545711Y6690075D01*
X3861168Y6607035D01*
X4186764Y6587133D01*
X4509986Y6631134D01*
X4818413Y6737347D01*
X4997485Y6833063D01*
X5140840Y7054555D01*
X4125000Y8070395D01*
X3109160Y7054555D01*
X482000Y7054555D01*
X482000Y8188236D01*
X2462133Y8188236D01*
X2506134Y7865014D01*
X2612347Y7556587D01*
X2708063Y7377515D01*
X2929555Y7234160D01*
X3945395Y8250000D01*
X4304605Y8250000D01*
X5320445Y7234160D01*
X5541937Y7377515D01*
X5684925Y7670711D01*
X5767965Y7986168D01*
X5787867Y8311764D01*
X5743866Y8634986D01*
X5637653Y8943413D01*
X5541937Y9122485D01*
X5357831Y9241643D01*
X7648000Y9241643D01*
X7648000Y9038357D01*
X7687660Y8838977D01*
X7765454Y8651165D01*
X7878394Y8482139D01*
X8022139Y8338394D01*
X8191165Y8225454D01*
X8378977Y8147660D01*
X8578357Y8108000D01*
X8781643Y8108000D01*
X8981023Y8147660D01*
X9086904Y8191517D01*
X9042139Y8161606D01*
X8898394Y8017861D01*
X8785454Y7848835D01*
X8707660Y7661023D01*
X8668000Y7461643D01*
X8668000Y7258357D01*
X8707660Y7058977D01*
X8785454Y6871165D01*
X8898394Y6702139D01*
X9042139Y6558394D01*
X9211165Y6445454D01*
X9398977Y6367660D01*
X9598357Y6328000D01*
X9801643Y6328000D01*
X10001023Y6367660D01*
X10188835Y6445454D01*
X10357861Y6558394D01*
X10501606Y6702139D01*
X10614546Y6871165D01*
X10692340Y7058977D01*
X10720000Y7198030D01*
X10747660Y7058977D01*
X10825454Y6871165D01*
X10938394Y6702139D01*
X11082139Y6558394D01*
X11251165Y6445454D01*
X11438977Y6367660D01*
X11638357Y6328000D01*
X11841643Y6328000D01*
X12041023Y6367660D01*
X12228835Y6445454D01*
X12397861Y6558394D01*
X12541606Y6702139D01*
X12654546Y6871165D01*
X12732340Y7058977D01*
X12760000Y7198030D01*
X12787660Y7058977D01*
X12865454Y6871165D01*
X12978394Y6702139D01*
X13122139Y6558394D01*
X13291165Y6445454D01*
X13478977Y6367660D01*
X13678357Y6328000D01*
X13881643Y6328000D01*
X14081023Y6367660D01*
X14268835Y6445454D01*
X14437861Y6558394D01*
X14581606Y6702139D01*
X14694546Y6871165D01*
X14772340Y7058977D01*
X14785910Y7127197D01*
X14785910Y6760000D01*
X14794251Y6675313D01*
X14818953Y6593881D01*
X14859067Y6518833D01*
X14913052Y6453052D01*
X14978833Y6399067D01*
X15053881Y6358953D01*
X15135313Y6334251D01*
X15220000Y6325910D01*
X16420000Y6325910D01*
X16504687Y6334251D01*
X16586119Y6358953D01*
X16661167Y6399067D01*
X16726948Y6453052D01*
X16780933Y6518833D01*
X16821047Y6593881D01*
X16845749Y6675313D01*
X16854090Y6760000D01*
X16854090Y7054555D01*
X19359160Y7054555D01*
X19502515Y6833063D01*
X19795711Y6690075D01*
X20111168Y6607035D01*
X20436764Y6587133D01*
X20759986Y6631134D01*
X21068413Y6737347D01*
X21247485Y6833063D01*
X21390840Y7054555D01*
X20375000Y8070395D01*
X19359160Y7054555D01*
X16854090Y7054555D01*
X16854090Y7960000D01*
X16845749Y8044687D01*
X16821047Y8126119D01*
X16787845Y8188236D01*
X18712133Y8188236D01*
X18756134Y7865014D01*
X18862347Y7556587D01*
X18958063Y7377515D01*
X19179555Y7234160D01*
X20195395Y8250000D01*
X20554605Y8250000D01*
X21570445Y7234160D01*
X21791937Y7377515D01*
X21934925Y7670711D01*
X22017965Y7986168D01*
X22037867Y8311764D01*
X21993866Y8634986D01*
X21887653Y8943413D01*
X21791937Y9122485D01*
X21570445Y9265840D01*
X20554605Y8250000D01*
X20195395Y8250000D01*
X19179555Y9265840D01*
X18958063Y9122485D01*
X18815075Y8829289D01*
X18732035Y8513832D01*
X18712133Y8188236D01*
X16787845Y8188236D01*
X16780933Y8201167D01*
X16726948Y8266948D01*
X16661167Y8320933D01*
X16586119Y8361047D01*
X16504687Y8385749D01*
X16420000Y8394090D01*
X15320155Y8394090D01*
X15333437Y8426958D01*
X14800000Y8960395D01*
X14266563Y8426958D01*
X14328166Y8274511D01*
X14506081Y8199091D01*
X14695291Y8159829D01*
X14836349Y8158665D01*
X14818953Y8126119D01*
X14794251Y8044687D01*
X14785910Y7960000D01*
X14785910Y7592803D01*
X14772340Y7661023D01*
X14694546Y7848835D01*
X14581606Y8017861D01*
X14437861Y8161606D01*
X14268835Y8274546D01*
X14081023Y8352340D01*
X13985713Y8371299D01*
X14046509Y8445378D01*
X14094878Y8535871D01*
X14124664Y8634061D01*
X14125779Y8645384D01*
X14620395Y9140000D01*
X14979605Y9140000D01*
X15513042Y8606563D01*
X15665489Y8668166D01*
X15740909Y8846081D01*
X15780171Y9035291D01*
X15781765Y9228525D01*
X15745630Y9418356D01*
X15734671Y9445445D01*
X19359160Y9445445D01*
X20375000Y8429605D01*
X21390840Y9445445D01*
X21247485Y9666937D01*
X20954289Y9809925D01*
X20638832Y9892965D01*
X20313236Y9912867D01*
X19990014Y9868866D01*
X19681587Y9762653D01*
X19502515Y9666937D01*
X19359160Y9445445D01*
X15734671Y9445445D01*
X15673155Y9597491D01*
X15665489Y9611834D01*
X15513042Y9673437D01*
X14979605Y9140000D01*
X14620395Y9140000D01*
X14606253Y9154142D01*
X14785858Y9333747D01*
X14800000Y9319605D01*
X15333437Y9853042D01*
X15271834Y10005489D01*
X15166714Y10050050D01*
X15778039Y10661375D01*
X15797914Y10677686D01*
X15863008Y10757003D01*
X15911377Y10847496D01*
X15941163Y10945686D01*
X15948700Y11022213D01*
X15951220Y11047800D01*
X15948700Y11073387D01*
X15948700Y13406443D01*
X16018394Y13302139D01*
X16162139Y13158394D01*
X16331165Y13045454D01*
X16518977Y12967660D01*
X16718357Y12928000D01*
X16921643Y12928000D01*
X17121023Y12967660D01*
X17308835Y13045454D01*
X17477861Y13158394D01*
X17621606Y13302139D01*
X17734546Y13471165D01*
X17812340Y13658977D01*
X17852000Y13858357D01*
X17852000Y14061643D01*
X18078000Y14061643D01*
X18078000Y13858357D01*
X18117660Y13658977D01*
X18195454Y13471165D01*
X18308394Y13302139D01*
X18452139Y13158394D01*
X18621165Y13045454D01*
X18808977Y12967660D01*
X19008357Y12928000D01*
X19211643Y12928000D01*
X19411023Y12967660D01*
X19598835Y13045454D01*
X19767861Y13158394D01*
X19911606Y13302139D01*
X20024546Y13471165D01*
X20102340Y13658977D01*
X20142000Y13858357D01*
X20142000Y14061643D01*
X20102340Y14261023D01*
X20024546Y14448835D01*
X19911606Y14617861D01*
X19767861Y14761606D01*
X19598835Y14874546D01*
X19411023Y14952340D01*
X19211643Y14992000D01*
X19008357Y14992000D01*
X18808977Y14952340D01*
X18621165Y14874546D01*
X18452139Y14761606D01*
X18308394Y14617861D01*
X18195454Y14448835D01*
X18117660Y14261023D01*
X18078000Y14061643D01*
X17852000Y14061643D01*
X17812340Y14261023D01*
X17734546Y14448835D01*
X17621606Y14617861D01*
X17477861Y14761606D01*
X17308835Y14874546D01*
X17121023Y14952340D01*
X16921643Y14992000D01*
X16718357Y14992000D01*
X16518977Y14952340D01*
X16331165Y14874546D01*
X16162139Y14761606D01*
X16018394Y14617861D01*
X15948700Y14513557D01*
X15948700Y22193432D01*
X15981586Y22199973D01*
X16133000Y22262691D01*
X16269269Y22353743D01*
X16385157Y22469631D01*
X16476209Y22605900D01*
X16538927Y22757314D01*
X16570900Y22918055D01*
X16570900Y23081945D01*
X16538927Y23242686D01*
X16476209Y23394100D01*
X16385157Y23530369D01*
X16269269Y23646257D01*
X16133000Y23737309D01*
X15981586Y23800027D01*
X15820845Y23832000D01*
X15656955Y23832000D01*
X15496214Y23800027D01*
X15344800Y23737309D01*
X15250000Y23673966D01*
X15155200Y23737309D01*
X15003786Y23800027D01*
X14843045Y23832000D01*
X14679155Y23832000D01*
X14518414Y23800027D01*
X14367000Y23737309D01*
X14230731Y23646257D01*
X14114843Y23530369D01*
X14023791Y23394100D01*
X13961073Y23242686D01*
X13929100Y23081945D01*
X13929100Y22918055D01*
X13961073Y22757314D01*
X14023791Y22605900D01*
X14114843Y22469631D01*
X14230731Y22353743D01*
X14367000Y22262691D01*
X14518414Y22199973D01*
X14551301Y22193432D01*
X14551301Y22093100D01*
X14528755Y22093100D01*
X14525132Y22093768D01*
X14477530Y22093100D01*
X14455551Y22093100D01*
X14451899Y22092740D01*
X14448242Y22092689D01*
X14426460Y22090235D01*
X14379024Y22085563D01*
X14378155Y22085299D01*
X14352342Y22084213D01*
X14309606Y22073826D01*
X14266558Y22064634D01*
X14236221Y22051566D01*
X14217869Y22045145D01*
X14186002Y22036446D01*
X14146633Y22016802D01*
X14106735Y21998273D01*
X14080065Y21978782D01*
X14063606Y21968440D01*
X14034469Y21952866D01*
X14000455Y21924951D01*
X13965676Y21898005D01*
X13944013Y21873069D01*
X13930268Y21859324D01*
X13905333Y21837662D01*
X13878388Y21802883D01*
X13850473Y21768869D01*
X13834904Y21739742D01*
X13824560Y21723280D01*
X13805064Y21696603D01*
X13786534Y21656700D01*
X13766892Y21617336D01*
X13758192Y21585464D01*
X13751774Y21567122D01*
X13738704Y21536780D01*
X13729510Y21493724D01*
X13719125Y21450995D01*
X13717736Y21417999D01*
X13715559Y21398676D01*
X13709570Y21366193D01*
X13710187Y21322200D01*
X13709570Y21278206D01*
X13715560Y21245717D01*
X13717736Y21226408D01*
X13719125Y21193406D01*
X13729517Y21150650D01*
X13738705Y21107620D01*
X13751773Y21077282D01*
X13758192Y21058937D01*
X13766892Y21027065D01*
X13786534Y20987701D01*
X13805064Y20947798D01*
X13824560Y20921121D01*
X13834904Y20904659D01*
X13850473Y20875532D01*
X13878388Y20841518D01*
X13893354Y20822200D01*
X13878388Y20802883D01*
X13850473Y20768869D01*
X13834904Y20739742D01*
X13824560Y20723280D01*
X13805064Y20696603D01*
X13786534Y20656700D01*
X13766892Y20617336D01*
X13758192Y20585464D01*
X13751774Y20567122D01*
X13738704Y20536780D01*
X13729510Y20493724D01*
X13719125Y20450995D01*
X13717736Y20417999D01*
X13715559Y20398676D01*
X13709570Y20366193D01*
X13710187Y20322200D01*
X13709570Y20278206D01*
X13715560Y20245717D01*
X13717736Y20226408D01*
X13719125Y20193406D01*
X13729517Y20150650D01*
X13738705Y20107620D01*
X13751773Y20077282D01*
X13758192Y20058937D01*
X13766892Y20027065D01*
X13786534Y19987701D01*
X13805064Y19947798D01*
X13824560Y19921121D01*
X13834904Y19904659D01*
X13850473Y19875532D01*
X13878388Y19841518D01*
X13905333Y19806739D01*
X13930268Y19785077D01*
X13944013Y19771332D01*
X13965676Y19746396D01*
X14000455Y19719450D01*
X14034469Y19691535D01*
X14063606Y19675961D01*
X14080065Y19665619D01*
X14106735Y19646128D01*
X14146633Y19627599D01*
X14186002Y19607955D01*
X14217869Y19599256D01*
X14236216Y19592837D01*
X14266549Y19579770D01*
X14309588Y19570579D01*
X14352342Y19560188D01*
X14378152Y19559102D01*
X14379024Y19558837D01*
X14426487Y19554162D01*
X14448233Y19551712D01*
X14451889Y19551661D01*
X14455551Y19551300D01*
X14477565Y19551300D01*
X14525123Y19550632D01*
X14528746Y19551300D01*
X14551300Y19551300D01*
X14551301Y11410860D01*
X13213688Y10073246D01*
X13071023Y10132340D01*
X12871643Y10172000D01*
X12668357Y10172000D01*
X12468977Y10132340D01*
X12281165Y10054546D01*
X12112139Y9941606D01*
X11968394Y9797861D01*
X11855454Y9628835D01*
X11777660Y9441023D01*
X11745000Y9276834D01*
X11712340Y9441023D01*
X11634546Y9628835D01*
X11521606Y9797861D01*
X11377861Y9941606D01*
X11208835Y10054546D01*
X11021023Y10132340D01*
X10821643Y10172000D01*
X10618357Y10172000D01*
X10418977Y10132340D01*
X10231165Y10054546D01*
X10062139Y9941606D01*
X9918394Y9797861D01*
X9805454Y9628835D01*
X9727660Y9441023D01*
X9700000Y9301970D01*
X9672340Y9441023D01*
X9594546Y9628835D01*
X9481606Y9797861D01*
X9337861Y9941606D01*
X9168835Y10054546D01*
X8981023Y10132340D01*
X8781643Y10172000D01*
X8578357Y10172000D01*
X8378977Y10132340D01*
X8191165Y10054546D01*
X8022139Y9941606D01*
X7878394Y9797861D01*
X7765454Y9628835D01*
X7687660Y9441023D01*
X7648000Y9241643D01*
X5357831Y9241643D01*
X5320445Y9265840D01*
X4304605Y8250000D01*
X3945395Y8250000D01*
X2929555Y9265840D01*
X2708063Y9122485D01*
X2565075Y8829289D01*
X2482035Y8513832D01*
X2462133Y8188236D01*
X482000Y8188236D01*
X482000Y9445445D01*
X3109160Y9445445D01*
X4125000Y8429605D01*
X5140840Y9445445D01*
X4997485Y9666937D01*
X4704289Y9809925D01*
X4388832Y9892965D01*
X4063236Y9912867D01*
X3740014Y9868866D01*
X3431587Y9762653D01*
X3252515Y9666937D01*
X3109160Y9445445D01*
X482000Y9445445D01*
X482000Y14061643D01*
X4358000Y14061643D01*
X4358000Y13858357D01*
X4397660Y13658977D01*
X4475454Y13471165D01*
X4588394Y13302139D01*
X4732139Y13158394D01*
X4901165Y13045454D01*
X5088977Y12967660D01*
X5288357Y12928000D01*
X5491643Y12928000D01*
X5691023Y12967660D01*
X5878835Y13045454D01*
X6047861Y13158394D01*
X6191606Y13302139D01*
X6304546Y13471165D01*
X6382340Y13658977D01*
X6422000Y13858357D01*
X6422000Y14061643D01*
X6648000Y14061643D01*
X6648000Y13858357D01*
X6687660Y13658977D01*
X6765454Y13471165D01*
X6878394Y13302139D01*
X7022139Y13158394D01*
X7191165Y13045454D01*
X7378977Y12967660D01*
X7578357Y12928000D01*
X7781643Y12928000D01*
X7981023Y12967660D01*
X8168835Y13045454D01*
X8337861Y13158394D01*
X8481606Y13302139D01*
X8594546Y13471165D01*
X8672340Y13658977D01*
X8712000Y13858357D01*
X8712000Y14061643D01*
X8672340Y14261023D01*
X8594546Y14448835D01*
X8481606Y14617861D01*
X8337861Y14761606D01*
X8168835Y14874546D01*
X7981023Y14952340D01*
X7781643Y14992000D01*
X7578357Y14992000D01*
X7378977Y14952340D01*
X7191165Y14874546D01*
X7022139Y14761606D01*
X6878394Y14617861D01*
X6765454Y14448835D01*
X6687660Y14261023D01*
X6648000Y14061643D01*
X6422000Y14061643D01*
X6382340Y14261023D01*
X6304546Y14448835D01*
X6191606Y14617861D01*
X6047861Y14761606D01*
X5878835Y14874546D01*
X5691023Y14952340D01*
X5491643Y14992000D01*
X5288357Y14992000D01*
X5088977Y14952340D01*
X4901165Y14874546D01*
X4732139Y14761606D01*
X4588394Y14617861D01*
X4475454Y14448835D01*
X4397660Y14261023D01*
X4358000Y14061643D01*
X482000Y14061643D01*
X482000Y30200135D01*
X1718000Y30200135D01*
X1718000Y29799865D01*
X1796089Y29407287D01*
X1949265Y29037487D01*
X2171643Y28704675D01*
X2454675Y28421643D01*
X2787487Y28199265D01*
X3157287Y28046089D01*
X3549865Y27968000D01*
X3950135Y27968000D01*
X4342713Y28046089D01*
X4712513Y28199265D01*
X5045325Y28421643D01*
X5328357Y28704675D01*
X5550735Y29037487D01*
X5703911Y29407287D01*
X5782000Y29799865D01*
X5782000Y30200135D01*
X5732272Y30450135D01*
X18718000Y30450135D01*
X18718000Y30049865D01*
X18796089Y29657287D01*
X18949265Y29287487D01*
X19171643Y28954675D01*
X19454675Y28671643D01*
X19787487Y28449265D01*
X20157287Y28296089D01*
X20549865Y28218000D01*
X20950135Y28218000D01*
X21342713Y28296089D01*
X21712513Y28449265D01*
X22045325Y28671643D01*
X22328357Y28954675D01*
X22550735Y29287487D01*
X22703911Y29657287D01*
X22782000Y30049865D01*
X22782000Y30450135D01*
X22703911Y30842713D01*
X22550735Y31212513D01*
X22328357Y31545325D01*
X22045325Y31828357D01*
X21712513Y32050735D01*
X21342713Y32203911D01*
X20950135Y32282000D01*
X20549865Y32282000D01*
X20157287Y32203911D01*
X19787487Y32050735D01*
X19454675Y31828357D01*
X19171643Y31545325D01*
X18949265Y31212513D01*
X18796089Y30842713D01*
X18718000Y30450135D01*
X5732272Y30450135D01*
X5703911Y30592713D01*
X5550735Y30962513D01*
X5328357Y31295325D01*
X5045325Y31578357D01*
X4712513Y31800735D01*
X4342713Y31953911D01*
X3950135Y32032000D01*
X3549865Y32032000D01*
X3157287Y31953911D01*
X2787487Y31800735D01*
X2454675Y31578357D01*
X2171643Y31295325D01*
X1949265Y30962513D01*
X1796089Y30592713D01*
X1718000Y30200135D01*
X482000Y30200135D01*
X482000Y36706945D01*
X9793000Y36706945D01*
X9793000Y36543055D01*
X9824973Y36382314D01*
X9887691Y36230900D01*
X9978743Y36094631D01*
X10094631Y35978743D01*
X10230900Y35887691D01*
X10382314Y35824973D01*
X10543055Y35793000D01*
X10706945Y35793000D01*
X10867686Y35824973D01*
X11019100Y35887691D01*
X11155369Y35978743D01*
X11271257Y36094631D01*
X11362309Y36230900D01*
X11425027Y36382314D01*
X11457000Y36543055D01*
X11457000Y36706945D01*
X11425027Y36867686D01*
X11362309Y37019100D01*
X11271257Y37155369D01*
X11184000Y37242626D01*
X11184000Y41423456D01*
X11904336Y42143791D01*
X11905223Y42143424D01*
X12133583Y42098000D01*
X12366417Y42098000D01*
X12594777Y42143424D01*
X12809887Y42232525D01*
X13003481Y42361881D01*
X13168119Y42526519D01*
X13297475Y42720113D01*
X13386576Y42935223D01*
X13432000Y43163583D01*
X13432000Y43396417D01*
X13608000Y43396417D01*
X13608000Y43163583D01*
X13653424Y42935223D01*
X13742525Y42720113D01*
X13871881Y42526519D01*
X14036519Y42361881D01*
X14230113Y42232525D01*
X14445223Y42143424D01*
X14673583Y42098000D01*
X14906417Y42098000D01*
X15134777Y42143424D01*
X15349887Y42232525D01*
X15543481Y42361881D01*
X15708119Y42526519D01*
X15837475Y42720113D01*
X15926576Y42935223D01*
X15972000Y43163583D01*
X15972000Y43396417D01*
X16148000Y43396417D01*
X16148000Y43163583D01*
X16193424Y42935223D01*
X16282525Y42720113D01*
X16411881Y42526519D01*
X16576519Y42361881D01*
X16770113Y42232525D01*
X16985223Y42143424D01*
X17213583Y42098000D01*
X17446417Y42098000D01*
X17674777Y42143424D01*
X17889887Y42232525D01*
X18083481Y42361881D01*
X18248119Y42526519D01*
X18377475Y42720113D01*
X18466576Y42935223D01*
X18512000Y43163583D01*
X18512000Y43396417D01*
X18466576Y43624777D01*
X18377475Y43839887D01*
X18248119Y44033481D01*
X18083481Y44198119D01*
X17889887Y44327475D01*
X17674777Y44416576D01*
X17446417Y44462000D01*
X17213583Y44462000D01*
X16985223Y44416576D01*
X16770113Y44327475D01*
X16576519Y44198119D01*
X16411881Y44033481D01*
X16282525Y43839887D01*
X16193424Y43624777D01*
X16148000Y43396417D01*
X15972000Y43396417D01*
X15926576Y43624777D01*
X15837475Y43839887D01*
X15708119Y44033481D01*
X15543481Y44198119D01*
X15349887Y44327475D01*
X15134777Y44416576D01*
X14906417Y44462000D01*
X14673583Y44462000D01*
X14445223Y44416576D01*
X14230113Y44327475D01*
X14036519Y44198119D01*
X13871881Y44033481D01*
X13742525Y43839887D01*
X13653424Y43624777D01*
X13608000Y43396417D01*
X13432000Y43396417D01*
X13386576Y43624777D01*
X13297475Y43839887D01*
X13168119Y44033481D01*
X13003481Y44198119D01*
X12809887Y44327475D01*
X12594777Y44416576D01*
X12366417Y44462000D01*
X12133583Y44462000D01*
X11905223Y44416576D01*
X11690113Y44327475D01*
X11496519Y44198119D01*
X11331881Y44033481D01*
X11202525Y43839887D01*
X11113424Y43624777D01*
X11068000Y43396417D01*
X11068000Y43163583D01*
X11113424Y42935223D01*
X11113791Y42934336D01*
X10249146Y42069690D01*
X10227816Y42052185D01*
X10157961Y41967066D01*
X10106053Y41869954D01*
X10074089Y41764583D01*
X10063296Y41655000D01*
X10066001Y41627536D01*
X10066000Y37242626D01*
X9978743Y37155369D01*
X9887691Y37019100D01*
X9824973Y36867686D01*
X9793000Y36706945D01*
X482000Y36706945D01*
X482000Y44030000D01*
X5985910Y44030000D01*
X5985910Y42530000D01*
X5994251Y42445313D01*
X6018953Y42363881D01*
X6059067Y42288833D01*
X6113052Y42223052D01*
X6178833Y42169067D01*
X6253881Y42128953D01*
X6335313Y42104251D01*
X6420000Y42095910D01*
X7920000Y42095910D01*
X8004687Y42104251D01*
X8086119Y42128953D01*
X8161167Y42169067D01*
X8226948Y42223052D01*
X8280933Y42288833D01*
X8321047Y42363881D01*
X8345749Y42445313D01*
X8354090Y42530000D01*
X8354090Y43396417D01*
X8528000Y43396417D01*
X8528000Y43163583D01*
X8573424Y42935223D01*
X8662525Y42720113D01*
X8791881Y42526519D01*
X8956519Y42361881D01*
X9150113Y42232525D01*
X9365223Y42143424D01*
X9593583Y42098000D01*
X9826417Y42098000D01*
X10054777Y42143424D01*
X10269887Y42232525D01*
X10463481Y42361881D01*
X10628119Y42526519D01*
X10757475Y42720113D01*
X10846576Y42935223D01*
X10892000Y43163583D01*
X10892000Y43396417D01*
X10846576Y43624777D01*
X10757475Y43839887D01*
X10628119Y44033481D01*
X10463481Y44198119D01*
X10269887Y44327475D01*
X10054777Y44416576D01*
X9826417Y44462000D01*
X9593583Y44462000D01*
X9365223Y44416576D01*
X9150113Y44327475D01*
X8956519Y44198119D01*
X8791881Y44033481D01*
X8662525Y43839887D01*
X8573424Y43624777D01*
X8528000Y43396417D01*
X8354090Y43396417D01*
X8354090Y44030000D01*
X8345749Y44114687D01*
X8321047Y44196119D01*
X8280933Y44271167D01*
X8226948Y44336948D01*
X8161167Y44390933D01*
X8086119Y44431047D01*
X8004687Y44455749D01*
X7920000Y44464090D01*
X6420000Y44464090D01*
X6335313Y44455749D01*
X6253881Y44431047D01*
X6178833Y44390933D01*
X6113052Y44336948D01*
X6059067Y44271167D01*
X6018953Y44196119D01*
X5994251Y44114687D01*
X5985910Y44030000D01*
X482000Y44030000D01*
X482000Y44999439D01*
X6529044Y44999439D01*
X6608927Y44831685D01*
X6812519Y44741215D01*
X7029848Y44692202D01*
X7252563Y44686530D01*
X7472106Y44724417D01*
X7680039Y44804407D01*
X7731073Y44831685D01*
X7810956Y44999439D01*
X9069044Y44999439D01*
X9148927Y44831685D01*
X9352519Y44741215D01*
X9569848Y44692202D01*
X9792563Y44686530D01*
X10012106Y44724417D01*
X10220039Y44804407D01*
X10271073Y44831685D01*
X10350956Y44999439D01*
X11609044Y44999439D01*
X11688927Y44831685D01*
X11892519Y44741215D01*
X12109848Y44692202D01*
X12332563Y44686530D01*
X12552106Y44724417D01*
X12760039Y44804407D01*
X12811073Y44831685D01*
X12890956Y44999439D01*
X14149044Y44999439D01*
X14228927Y44831685D01*
X14432519Y44741215D01*
X14649848Y44692202D01*
X14872563Y44686530D01*
X15092106Y44724417D01*
X15300039Y44804407D01*
X15351073Y44831685D01*
X15430956Y44999439D01*
X16689044Y44999439D01*
X16768927Y44831685D01*
X16972519Y44741215D01*
X17189848Y44692202D01*
X17412563Y44686530D01*
X17632106Y44724417D01*
X17840039Y44804407D01*
X17891073Y44831685D01*
X17970956Y44999439D01*
X17330000Y45640395D01*
X16689044Y44999439D01*
X15430956Y44999439D01*
X14790000Y45640395D01*
X14149044Y44999439D01*
X12890956Y44999439D01*
X12250000Y45640395D01*
X11609044Y44999439D01*
X10350956Y44999439D01*
X9710000Y45640395D01*
X9069044Y44999439D01*
X7810956Y44999439D01*
X7170000Y45640395D01*
X6529044Y44999439D01*
X482000Y44999439D01*
X482000Y45737437D01*
X6036530Y45737437D01*
X6074417Y45517894D01*
X6154407Y45309961D01*
X6181685Y45258927D01*
X6349439Y45179044D01*
X6990395Y45820000D01*
X7349605Y45820000D01*
X7990561Y45179044D01*
X8158315Y45258927D01*
X8248785Y45462519D01*
X8297798Y45679848D01*
X8299264Y45737437D01*
X8576530Y45737437D01*
X8614417Y45517894D01*
X8694407Y45309961D01*
X8721685Y45258927D01*
X8889439Y45179044D01*
X9530395Y45820000D01*
X9889605Y45820000D01*
X10530561Y45179044D01*
X10698315Y45258927D01*
X10788785Y45462519D01*
X10837798Y45679848D01*
X10839264Y45737437D01*
X11116530Y45737437D01*
X11154417Y45517894D01*
X11234407Y45309961D01*
X11261685Y45258927D01*
X11429439Y45179044D01*
X12070395Y45820000D01*
X12429605Y45820000D01*
X13070561Y45179044D01*
X13238315Y45258927D01*
X13328785Y45462519D01*
X13377798Y45679848D01*
X13379264Y45737437D01*
X13656530Y45737437D01*
X13694417Y45517894D01*
X13774407Y45309961D01*
X13801685Y45258927D01*
X13969439Y45179044D01*
X14610395Y45820000D01*
X14969605Y45820000D01*
X15610561Y45179044D01*
X15778315Y45258927D01*
X15868785Y45462519D01*
X15917798Y45679848D01*
X15919264Y45737437D01*
X16196530Y45737437D01*
X16234417Y45517894D01*
X16314407Y45309961D01*
X16341685Y45258927D01*
X16509439Y45179044D01*
X17150395Y45820000D01*
X17509605Y45820000D01*
X18150561Y45179044D01*
X18318315Y45258927D01*
X18408785Y45462519D01*
X18457798Y45679848D01*
X18463470Y45902563D01*
X18425583Y46122106D01*
X18345593Y46330039D01*
X18318315Y46381073D01*
X18150561Y46460956D01*
X17509605Y45820000D01*
X17150395Y45820000D01*
X16509439Y46460956D01*
X16341685Y46381073D01*
X16251215Y46177481D01*
X16202202Y45960152D01*
X16196530Y45737437D01*
X15919264Y45737437D01*
X15923470Y45902563D01*
X15885583Y46122106D01*
X15805593Y46330039D01*
X15778315Y46381073D01*
X15610561Y46460956D01*
X14969605Y45820000D01*
X14610395Y45820000D01*
X13969439Y46460956D01*
X13801685Y46381073D01*
X13711215Y46177481D01*
X13662202Y45960152D01*
X13656530Y45737437D01*
X13379264Y45737437D01*
X13383470Y45902563D01*
X13345583Y46122106D01*
X13265593Y46330039D01*
X13238315Y46381073D01*
X13070561Y46460956D01*
X12429605Y45820000D01*
X12070395Y45820000D01*
X11429439Y46460956D01*
X11261685Y46381073D01*
X11171215Y46177481D01*
X11122202Y45960152D01*
X11116530Y45737437D01*
X10839264Y45737437D01*
X10843470Y45902563D01*
X10805583Y46122106D01*
X10725593Y46330039D01*
X10698315Y46381073D01*
X10530561Y46460956D01*
X9889605Y45820000D01*
X9530395Y45820000D01*
X8889439Y46460956D01*
X8721685Y46381073D01*
X8631215Y46177481D01*
X8582202Y45960152D01*
X8576530Y45737437D01*
X8299264Y45737437D01*
X8303470Y45902563D01*
X8265583Y46122106D01*
X8185593Y46330039D01*
X8158315Y46381073D01*
X7990561Y46460956D01*
X7349605Y45820000D01*
X6990395Y45820000D01*
X6349439Y46460956D01*
X6181685Y46381073D01*
X6091215Y46177481D01*
X6042202Y45960152D01*
X6036530Y45737437D01*
X482000Y45737437D01*
X482000Y46640561D01*
X6529044Y46640561D01*
X7170000Y45999605D01*
X7810956Y46640561D01*
X9069044Y46640561D01*
X9710000Y45999605D01*
X10350956Y46640561D01*
X11609044Y46640561D01*
X12250000Y45999605D01*
X12890956Y46640561D01*
X14149044Y46640561D01*
X14790000Y45999605D01*
X15430956Y46640561D01*
X16689044Y46640561D01*
X17330000Y45999605D01*
X17970956Y46640561D01*
X17891073Y46808315D01*
X17687481Y46898785D01*
X17470152Y46947798D01*
X17247437Y46953470D01*
X17027894Y46915583D01*
X16819961Y46835593D01*
X16768927Y46808315D01*
X16689044Y46640561D01*
X15430956Y46640561D01*
X15351073Y46808315D01*
X15147481Y46898785D01*
X14930152Y46947798D01*
X14707437Y46953470D01*
X14487894Y46915583D01*
X14279961Y46835593D01*
X14228927Y46808315D01*
X14149044Y46640561D01*
X12890956Y46640561D01*
X12811073Y46808315D01*
X12607481Y46898785D01*
X12390152Y46947798D01*
X12167437Y46953470D01*
X11947894Y46915583D01*
X11739961Y46835593D01*
X11688927Y46808315D01*
X11609044Y46640561D01*
X10350956Y46640561D01*
X10271073Y46808315D01*
X10067481Y46898785D01*
X9850152Y46947798D01*
X9627437Y46953470D01*
X9407894Y46915583D01*
X9199961Y46835593D01*
X9148927Y46808315D01*
X9069044Y46640561D01*
X7810956Y46640561D01*
X7731073Y46808315D01*
X7527481Y46898785D01*
X7310152Y46947798D01*
X7087437Y46953470D01*
X6867894Y46915583D01*
X6659961Y46835593D01*
X6608927Y46808315D01*
X6529044Y46640561D01*
X482000Y46640561D01*
X482000Y55331945D01*
X9918000Y55331945D01*
X9918000Y55168055D01*
X9949973Y55007314D01*
X10012691Y54855900D01*
X10103743Y54719631D01*
X10219631Y54603743D01*
X10355900Y54512691D01*
X10507314Y54449973D01*
X10668055Y54418000D01*
X10831945Y54418000D01*
X10992686Y54449973D01*
X11144100Y54512691D01*
X11280369Y54603743D01*
X11396257Y54719631D01*
X11487309Y54855900D01*
X11550027Y55007314D01*
X11582000Y55168055D01*
X11582000Y55331945D01*
X11550027Y55492686D01*
X11487309Y55644100D01*
X11396257Y55780369D01*
X11280369Y55896257D01*
X11144100Y55987309D01*
X10992686Y56050027D01*
X10831945Y56082000D01*
X10668055Y56082000D01*
X10507314Y56050027D01*
X10355900Y55987309D01*
X10219631Y55896257D01*
X10103743Y55780369D01*
X10012691Y55644100D01*
X9949973Y55492686D01*
X9918000Y55331945D01*
X482000Y55331945D01*
X482000Y57976422D01*
X513178Y58294401D01*
X598677Y58577586D01*
X737550Y58838768D01*
X924513Y59068006D01*
X1152437Y59256562D01*
X1412650Y59397258D01*
X1695225Y59484730D01*
X2011768Y59518000D01*
X22476422Y59518000D01*
X22794401Y59486822D01*
X22794401Y59486822D01*
G37*
X22794401Y59486822D02*
X23077586Y59401323D01*
X23338768Y59262450D01*
X23568006Y59075487D01*
X23756562Y58847563D01*
X23897258Y58587350D01*
X23984730Y58304775D01*
X24018001Y57988222D01*
X24018000Y2023578D01*
X23986822Y1705599D01*
X23901324Y1422417D01*
X23762449Y1161231D01*
X23575489Y931995D01*
X23347562Y743437D01*
X23087350Y602742D01*
X22804771Y515269D01*
X22488232Y482000D01*
X2023578Y482000D01*
X1705599Y513178D01*
X1422417Y598676D01*
X1161231Y737551D01*
X931995Y924511D01*
X743437Y1152438D01*
X602742Y1412650D01*
X515269Y1695229D01*
X482000Y2011768D01*
X482000Y5022597D01*
X3843000Y5022597D01*
X3843000Y4617403D01*
X3922049Y4219995D01*
X4077110Y3845645D01*
X4302224Y3508739D01*
X4588739Y3222224D01*
X4925645Y2997110D01*
X5299995Y2842049D01*
X5697403Y2763000D01*
X6102597Y2763000D01*
X6500005Y2842049D01*
X6874355Y2997110D01*
X7211261Y3222224D01*
X7497776Y3508739D01*
X7722890Y3845645D01*
X7877951Y4219995D01*
X7957000Y4617403D01*
X7957000Y5022597D01*
X16543000Y5022597D01*
X16543000Y4617403D01*
X16622049Y4219995D01*
X16777110Y3845645D01*
X17002224Y3508739D01*
X17288739Y3222224D01*
X17625645Y2997110D01*
X17999995Y2842049D01*
X18397403Y2763000D01*
X18802597Y2763000D01*
X19200005Y2842049D01*
X19574355Y2997110D01*
X19911261Y3222224D01*
X20197776Y3508739D01*
X20422890Y3845645D01*
X20577951Y4219995D01*
X20657000Y4617403D01*
X20657000Y5022597D01*
X20577951Y5420005D01*
X20422890Y5794355D01*
X20197776Y6131261D01*
X19911261Y6417776D01*
X19574355Y6642890D01*
X19200005Y6797951D01*
X18802597Y6877000D01*
X18397403Y6877000D01*
X17999995Y6797951D01*
X17625645Y6642890D01*
X17288739Y6417776D01*
X17002224Y6131261D01*
X16777110Y5794355D01*
X16622049Y5420005D01*
X16543000Y5022597D01*
X7957000Y5022597D01*
X7877951Y5420005D01*
X7722890Y5794355D01*
X7497776Y6131261D01*
X7211261Y6417776D01*
X6874355Y6642890D01*
X6500005Y6797951D01*
X6102597Y6877000D01*
X5697403Y6877000D01*
X5299995Y6797951D01*
X4925645Y6642890D01*
X4588739Y6417776D01*
X4302224Y6131261D01*
X4077110Y5794355D01*
X3922049Y5420005D01*
X3843000Y5022597D01*
X482000Y5022597D01*
X482000Y7054555D01*
X3109160Y7054555D01*
X3252515Y6833063D01*
X3545711Y6690075D01*
X3861168Y6607035D01*
X4186764Y6587133D01*
X4509986Y6631134D01*
X4818413Y6737347D01*
X4997485Y6833063D01*
X5140840Y7054555D01*
X4125000Y8070395D01*
X3109160Y7054555D01*
X482000Y7054555D01*
X482000Y8188236D01*
X2462133Y8188236D01*
X2506134Y7865014D01*
X2612347Y7556587D01*
X2708063Y7377515D01*
X2929555Y7234160D01*
X3945395Y8250000D01*
X4304605Y8250000D01*
X5320445Y7234160D01*
X5541937Y7377515D01*
X5684925Y7670711D01*
X5767965Y7986168D01*
X5787867Y8311764D01*
X5743866Y8634986D01*
X5637653Y8943413D01*
X5541937Y9122485D01*
X5357831Y9241643D01*
X7648000Y9241643D01*
X7648000Y9038357D01*
X7687660Y8838977D01*
X7765454Y8651165D01*
X7878394Y8482139D01*
X8022139Y8338394D01*
X8191165Y8225454D01*
X8378977Y8147660D01*
X8578357Y8108000D01*
X8781643Y8108000D01*
X8981023Y8147660D01*
X9086904Y8191517D01*
X9042139Y8161606D01*
X8898394Y8017861D01*
X8785454Y7848835D01*
X8707660Y7661023D01*
X8668000Y7461643D01*
X8668000Y7258357D01*
X8707660Y7058977D01*
X8785454Y6871165D01*
X8898394Y6702139D01*
X9042139Y6558394D01*
X9211165Y6445454D01*
X9398977Y6367660D01*
X9598357Y6328000D01*
X9801643Y6328000D01*
X10001023Y6367660D01*
X10188835Y6445454D01*
X10357861Y6558394D01*
X10501606Y6702139D01*
X10614546Y6871165D01*
X10692340Y7058977D01*
X10720000Y7198030D01*
X10747660Y7058977D01*
X10825454Y6871165D01*
X10938394Y6702139D01*
X11082139Y6558394D01*
X11251165Y6445454D01*
X11438977Y6367660D01*
X11638357Y6328000D01*
X11841643Y6328000D01*
X12041023Y6367660D01*
X12228835Y6445454D01*
X12397861Y6558394D01*
X12541606Y6702139D01*
X12654546Y6871165D01*
X12732340Y7058977D01*
X12760000Y7198030D01*
X12787660Y7058977D01*
X12865454Y6871165D01*
X12978394Y6702139D01*
X13122139Y6558394D01*
X13291165Y6445454D01*
X13478977Y6367660D01*
X13678357Y6328000D01*
X13881643Y6328000D01*
X14081023Y6367660D01*
X14268835Y6445454D01*
X14437861Y6558394D01*
X14581606Y6702139D01*
X14694546Y6871165D01*
X14772340Y7058977D01*
X14785910Y7127197D01*
X14785910Y6760000D01*
X14794251Y6675313D01*
X14818953Y6593881D01*
X14859067Y6518833D01*
X14913052Y6453052D01*
X14978833Y6399067D01*
X15053881Y6358953D01*
X15135313Y6334251D01*
X15220000Y6325910D01*
X16420000Y6325910D01*
X16504687Y6334251D01*
X16586119Y6358953D01*
X16661167Y6399067D01*
X16726948Y6453052D01*
X16780933Y6518833D01*
X16821047Y6593881D01*
X16845749Y6675313D01*
X16854090Y6760000D01*
X16854090Y7054555D01*
X19359160Y7054555D01*
X19502515Y6833063D01*
X19795711Y6690075D01*
X20111168Y6607035D01*
X20436764Y6587133D01*
X20759986Y6631134D01*
X21068413Y6737347D01*
X21247485Y6833063D01*
X21390840Y7054555D01*
X20375000Y8070395D01*
X19359160Y7054555D01*
X16854090Y7054555D01*
X16854090Y7960000D01*
X16845749Y8044687D01*
X16821047Y8126119D01*
X16787845Y8188236D01*
X18712133Y8188236D01*
X18756134Y7865014D01*
X18862347Y7556587D01*
X18958063Y7377515D01*
X19179555Y7234160D01*
X20195395Y8250000D01*
X20554605Y8250000D01*
X21570445Y7234160D01*
X21791937Y7377515D01*
X21934925Y7670711D01*
X22017965Y7986168D01*
X22037867Y8311764D01*
X21993866Y8634986D01*
X21887653Y8943413D01*
X21791937Y9122485D01*
X21570445Y9265840D01*
X20554605Y8250000D01*
X20195395Y8250000D01*
X19179555Y9265840D01*
X18958063Y9122485D01*
X18815075Y8829289D01*
X18732035Y8513832D01*
X18712133Y8188236D01*
X16787845Y8188236D01*
X16780933Y8201167D01*
X16726948Y8266948D01*
X16661167Y8320933D01*
X16586119Y8361047D01*
X16504687Y8385749D01*
X16420000Y8394090D01*
X15320155Y8394090D01*
X15333437Y8426958D01*
X14800000Y8960395D01*
X14266563Y8426958D01*
X14328166Y8274511D01*
X14506081Y8199091D01*
X14695291Y8159829D01*
X14836349Y8158665D01*
X14818953Y8126119D01*
X14794251Y8044687D01*
X14785910Y7960000D01*
X14785910Y7592803D01*
X14772340Y7661023D01*
X14694546Y7848835D01*
X14581606Y8017861D01*
X14437861Y8161606D01*
X14268835Y8274546D01*
X14081023Y8352340D01*
X13985713Y8371299D01*
X14046509Y8445378D01*
X14094878Y8535871D01*
X14124664Y8634061D01*
X14125779Y8645384D01*
X14620395Y9140000D01*
X14979605Y9140000D01*
X15513042Y8606563D01*
X15665489Y8668166D01*
X15740909Y8846081D01*
X15780171Y9035291D01*
X15781765Y9228525D01*
X15745630Y9418356D01*
X15734671Y9445445D01*
X19359160Y9445445D01*
X20375000Y8429605D01*
X21390840Y9445445D01*
X21247485Y9666937D01*
X20954289Y9809925D01*
X20638832Y9892965D01*
X20313236Y9912867D01*
X19990014Y9868866D01*
X19681587Y9762653D01*
X19502515Y9666937D01*
X19359160Y9445445D01*
X15734671Y9445445D01*
X15673155Y9597491D01*
X15665489Y9611834D01*
X15513042Y9673437D01*
X14979605Y9140000D01*
X14620395Y9140000D01*
X14606253Y9154142D01*
X14785858Y9333747D01*
X14800000Y9319605D01*
X15333437Y9853042D01*
X15271834Y10005489D01*
X15166714Y10050050D01*
X15778039Y10661375D01*
X15797914Y10677686D01*
X15863008Y10757003D01*
X15911377Y10847496D01*
X15941163Y10945686D01*
X15948700Y11022213D01*
X15951220Y11047800D01*
X15948700Y11073387D01*
X15948700Y13406443D01*
X16018394Y13302139D01*
X16162139Y13158394D01*
X16331165Y13045454D01*
X16518977Y12967660D01*
X16718357Y12928000D01*
X16921643Y12928000D01*
X17121023Y12967660D01*
X17308835Y13045454D01*
X17477861Y13158394D01*
X17621606Y13302139D01*
X17734546Y13471165D01*
X17812340Y13658977D01*
X17852000Y13858357D01*
X17852000Y14061643D01*
X18078000Y14061643D01*
X18078000Y13858357D01*
X18117660Y13658977D01*
X18195454Y13471165D01*
X18308394Y13302139D01*
X18452139Y13158394D01*
X18621165Y13045454D01*
X18808977Y12967660D01*
X19008357Y12928000D01*
X19211643Y12928000D01*
X19411023Y12967660D01*
X19598835Y13045454D01*
X19767861Y13158394D01*
X19911606Y13302139D01*
X20024546Y13471165D01*
X20102340Y13658977D01*
X20142000Y13858357D01*
X20142000Y14061643D01*
X20102340Y14261023D01*
X20024546Y14448835D01*
X19911606Y14617861D01*
X19767861Y14761606D01*
X19598835Y14874546D01*
X19411023Y14952340D01*
X19211643Y14992000D01*
X19008357Y14992000D01*
X18808977Y14952340D01*
X18621165Y14874546D01*
X18452139Y14761606D01*
X18308394Y14617861D01*
X18195454Y14448835D01*
X18117660Y14261023D01*
X18078000Y14061643D01*
X17852000Y14061643D01*
X17812340Y14261023D01*
X17734546Y14448835D01*
X17621606Y14617861D01*
X17477861Y14761606D01*
X17308835Y14874546D01*
X17121023Y14952340D01*
X16921643Y14992000D01*
X16718357Y14992000D01*
X16518977Y14952340D01*
X16331165Y14874546D01*
X16162139Y14761606D01*
X16018394Y14617861D01*
X15948700Y14513557D01*
X15948700Y22193432D01*
X15981586Y22199973D01*
X16133000Y22262691D01*
X16269269Y22353743D01*
X16385157Y22469631D01*
X16476209Y22605900D01*
X16538927Y22757314D01*
X16570900Y22918055D01*
X16570900Y23081945D01*
X16538927Y23242686D01*
X16476209Y23394100D01*
X16385157Y23530369D01*
X16269269Y23646257D01*
X16133000Y23737309D01*
X15981586Y23800027D01*
X15820845Y23832000D01*
X15656955Y23832000D01*
X15496214Y23800027D01*
X15344800Y23737309D01*
X15250000Y23673966D01*
X15155200Y23737309D01*
X15003786Y23800027D01*
X14843045Y23832000D01*
X14679155Y23832000D01*
X14518414Y23800027D01*
X14367000Y23737309D01*
X14230731Y23646257D01*
X14114843Y23530369D01*
X14023791Y23394100D01*
X13961073Y23242686D01*
X13929100Y23081945D01*
X13929100Y22918055D01*
X13961073Y22757314D01*
X14023791Y22605900D01*
X14114843Y22469631D01*
X14230731Y22353743D01*
X14367000Y22262691D01*
X14518414Y22199973D01*
X14551301Y22193432D01*
X14551301Y22093100D01*
X14528755Y22093100D01*
X14525132Y22093768D01*
X14477530Y22093100D01*
X14455551Y22093100D01*
X14451899Y22092740D01*
X14448242Y22092689D01*
X14426460Y22090235D01*
X14379024Y22085563D01*
X14378155Y22085299D01*
X14352342Y22084213D01*
X14309606Y22073826D01*
X14266558Y22064634D01*
X14236221Y22051566D01*
X14217869Y22045145D01*
X14186002Y22036446D01*
X14146633Y22016802D01*
X14106735Y21998273D01*
X14080065Y21978782D01*
X14063606Y21968440D01*
X14034469Y21952866D01*
X14000455Y21924951D01*
X13965676Y21898005D01*
X13944013Y21873069D01*
X13930268Y21859324D01*
X13905333Y21837662D01*
X13878388Y21802883D01*
X13850473Y21768869D01*
X13834904Y21739742D01*
X13824560Y21723280D01*
X13805064Y21696603D01*
X13786534Y21656700D01*
X13766892Y21617336D01*
X13758192Y21585464D01*
X13751774Y21567122D01*
X13738704Y21536780D01*
X13729510Y21493724D01*
X13719125Y21450995D01*
X13717736Y21417999D01*
X13715559Y21398676D01*
X13709570Y21366193D01*
X13710187Y21322200D01*
X13709570Y21278206D01*
X13715560Y21245717D01*
X13717736Y21226408D01*
X13719125Y21193406D01*
X13729517Y21150650D01*
X13738705Y21107620D01*
X13751773Y21077282D01*
X13758192Y21058937D01*
X13766892Y21027065D01*
X13786534Y20987701D01*
X13805064Y20947798D01*
X13824560Y20921121D01*
X13834904Y20904659D01*
X13850473Y20875532D01*
X13878388Y20841518D01*
X13893354Y20822200D01*
X13878388Y20802883D01*
X13850473Y20768869D01*
X13834904Y20739742D01*
X13824560Y20723280D01*
X13805064Y20696603D01*
X13786534Y20656700D01*
X13766892Y20617336D01*
X13758192Y20585464D01*
X13751774Y20567122D01*
X13738704Y20536780D01*
X13729510Y20493724D01*
X13719125Y20450995D01*
X13717736Y20417999D01*
X13715559Y20398676D01*
X13709570Y20366193D01*
X13710187Y20322200D01*
X13709570Y20278206D01*
X13715560Y20245717D01*
X13717736Y20226408D01*
X13719125Y20193406D01*
X13729517Y20150650D01*
X13738705Y20107620D01*
X13751773Y20077282D01*
X13758192Y20058937D01*
X13766892Y20027065D01*
X13786534Y19987701D01*
X13805064Y19947798D01*
X13824560Y19921121D01*
X13834904Y19904659D01*
X13850473Y19875532D01*
X13878388Y19841518D01*
X13905333Y19806739D01*
X13930268Y19785077D01*
X13944013Y19771332D01*
X13965676Y19746396D01*
X14000455Y19719450D01*
X14034469Y19691535D01*
X14063606Y19675961D01*
X14080065Y19665619D01*
X14106735Y19646128D01*
X14146633Y19627599D01*
X14186002Y19607955D01*
X14217869Y19599256D01*
X14236216Y19592837D01*
X14266549Y19579770D01*
X14309588Y19570579D01*
X14352342Y19560188D01*
X14378152Y19559102D01*
X14379024Y19558837D01*
X14426487Y19554162D01*
X14448233Y19551712D01*
X14451889Y19551661D01*
X14455551Y19551300D01*
X14477565Y19551300D01*
X14525123Y19550632D01*
X14528746Y19551300D01*
X14551300Y19551300D01*
X14551301Y11410860D01*
X13213688Y10073246D01*
X13071023Y10132340D01*
X12871643Y10172000D01*
X12668357Y10172000D01*
X12468977Y10132340D01*
X12281165Y10054546D01*
X12112139Y9941606D01*
X11968394Y9797861D01*
X11855454Y9628835D01*
X11777660Y9441023D01*
X11745000Y9276834D01*
X11712340Y9441023D01*
X11634546Y9628835D01*
X11521606Y9797861D01*
X11377861Y9941606D01*
X11208835Y10054546D01*
X11021023Y10132340D01*
X10821643Y10172000D01*
X10618357Y10172000D01*
X10418977Y10132340D01*
X10231165Y10054546D01*
X10062139Y9941606D01*
X9918394Y9797861D01*
X9805454Y9628835D01*
X9727660Y9441023D01*
X9700000Y9301970D01*
X9672340Y9441023D01*
X9594546Y9628835D01*
X9481606Y9797861D01*
X9337861Y9941606D01*
X9168835Y10054546D01*
X8981023Y10132340D01*
X8781643Y10172000D01*
X8578357Y10172000D01*
X8378977Y10132340D01*
X8191165Y10054546D01*
X8022139Y9941606D01*
X7878394Y9797861D01*
X7765454Y9628835D01*
X7687660Y9441023D01*
X7648000Y9241643D01*
X5357831Y9241643D01*
X5320445Y9265840D01*
X4304605Y8250000D01*
X3945395Y8250000D01*
X2929555Y9265840D01*
X2708063Y9122485D01*
X2565075Y8829289D01*
X2482035Y8513832D01*
X2462133Y8188236D01*
X482000Y8188236D01*
X482000Y9445445D01*
X3109160Y9445445D01*
X4125000Y8429605D01*
X5140840Y9445445D01*
X4997485Y9666937D01*
X4704289Y9809925D01*
X4388832Y9892965D01*
X4063236Y9912867D01*
X3740014Y9868866D01*
X3431587Y9762653D01*
X3252515Y9666937D01*
X3109160Y9445445D01*
X482000Y9445445D01*
X482000Y14061643D01*
X4358000Y14061643D01*
X4358000Y13858357D01*
X4397660Y13658977D01*
X4475454Y13471165D01*
X4588394Y13302139D01*
X4732139Y13158394D01*
X4901165Y13045454D01*
X5088977Y12967660D01*
X5288357Y12928000D01*
X5491643Y12928000D01*
X5691023Y12967660D01*
X5878835Y13045454D01*
X6047861Y13158394D01*
X6191606Y13302139D01*
X6304546Y13471165D01*
X6382340Y13658977D01*
X6422000Y13858357D01*
X6422000Y14061643D01*
X6648000Y14061643D01*
X6648000Y13858357D01*
X6687660Y13658977D01*
X6765454Y13471165D01*
X6878394Y13302139D01*
X7022139Y13158394D01*
X7191165Y13045454D01*
X7378977Y12967660D01*
X7578357Y12928000D01*
X7781643Y12928000D01*
X7981023Y12967660D01*
X8168835Y13045454D01*
X8337861Y13158394D01*
X8481606Y13302139D01*
X8594546Y13471165D01*
X8672340Y13658977D01*
X8712000Y13858357D01*
X8712000Y14061643D01*
X8672340Y14261023D01*
X8594546Y14448835D01*
X8481606Y14617861D01*
X8337861Y14761606D01*
X8168835Y14874546D01*
X7981023Y14952340D01*
X7781643Y14992000D01*
X7578357Y14992000D01*
X7378977Y14952340D01*
X7191165Y14874546D01*
X7022139Y14761606D01*
X6878394Y14617861D01*
X6765454Y14448835D01*
X6687660Y14261023D01*
X6648000Y14061643D01*
X6422000Y14061643D01*
X6382340Y14261023D01*
X6304546Y14448835D01*
X6191606Y14617861D01*
X6047861Y14761606D01*
X5878835Y14874546D01*
X5691023Y14952340D01*
X5491643Y14992000D01*
X5288357Y14992000D01*
X5088977Y14952340D01*
X4901165Y14874546D01*
X4732139Y14761606D01*
X4588394Y14617861D01*
X4475454Y14448835D01*
X4397660Y14261023D01*
X4358000Y14061643D01*
X482000Y14061643D01*
X482000Y30200135D01*
X1718000Y30200135D01*
X1718000Y29799865D01*
X1796089Y29407287D01*
X1949265Y29037487D01*
X2171643Y28704675D01*
X2454675Y28421643D01*
X2787487Y28199265D01*
X3157287Y28046089D01*
X3549865Y27968000D01*
X3950135Y27968000D01*
X4342713Y28046089D01*
X4712513Y28199265D01*
X5045325Y28421643D01*
X5328357Y28704675D01*
X5550735Y29037487D01*
X5703911Y29407287D01*
X5782000Y29799865D01*
X5782000Y30200135D01*
X5732272Y30450135D01*
X18718000Y30450135D01*
X18718000Y30049865D01*
X18796089Y29657287D01*
X18949265Y29287487D01*
X19171643Y28954675D01*
X19454675Y28671643D01*
X19787487Y28449265D01*
X20157287Y28296089D01*
X20549865Y28218000D01*
X20950135Y28218000D01*
X21342713Y28296089D01*
X21712513Y28449265D01*
X22045325Y28671643D01*
X22328357Y28954675D01*
X22550735Y29287487D01*
X22703911Y29657287D01*
X22782000Y30049865D01*
X22782000Y30450135D01*
X22703911Y30842713D01*
X22550735Y31212513D01*
X22328357Y31545325D01*
X22045325Y31828357D01*
X21712513Y32050735D01*
X21342713Y32203911D01*
X20950135Y32282000D01*
X20549865Y32282000D01*
X20157287Y32203911D01*
X19787487Y32050735D01*
X19454675Y31828357D01*
X19171643Y31545325D01*
X18949265Y31212513D01*
X18796089Y30842713D01*
X18718000Y30450135D01*
X5732272Y30450135D01*
X5703911Y30592713D01*
X5550735Y30962513D01*
X5328357Y31295325D01*
X5045325Y31578357D01*
X4712513Y31800735D01*
X4342713Y31953911D01*
X3950135Y32032000D01*
X3549865Y32032000D01*
X3157287Y31953911D01*
X2787487Y31800735D01*
X2454675Y31578357D01*
X2171643Y31295325D01*
X1949265Y30962513D01*
X1796089Y30592713D01*
X1718000Y30200135D01*
X482000Y30200135D01*
X482000Y36706945D01*
X9793000Y36706945D01*
X9793000Y36543055D01*
X9824973Y36382314D01*
X9887691Y36230900D01*
X9978743Y36094631D01*
X10094631Y35978743D01*
X10230900Y35887691D01*
X10382314Y35824973D01*
X10543055Y35793000D01*
X10706945Y35793000D01*
X10867686Y35824973D01*
X11019100Y35887691D01*
X11155369Y35978743D01*
X11271257Y36094631D01*
X11362309Y36230900D01*
X11425027Y36382314D01*
X11457000Y36543055D01*
X11457000Y36706945D01*
X11425027Y36867686D01*
X11362309Y37019100D01*
X11271257Y37155369D01*
X11184000Y37242626D01*
X11184000Y41423456D01*
X11904336Y42143791D01*
X11905223Y42143424D01*
X12133583Y42098000D01*
X12366417Y42098000D01*
X12594777Y42143424D01*
X12809887Y42232525D01*
X13003481Y42361881D01*
X13168119Y42526519D01*
X13297475Y42720113D01*
X13386576Y42935223D01*
X13432000Y43163583D01*
X13432000Y43396417D01*
X13608000Y43396417D01*
X13608000Y43163583D01*
X13653424Y42935223D01*
X13742525Y42720113D01*
X13871881Y42526519D01*
X14036519Y42361881D01*
X14230113Y42232525D01*
X14445223Y42143424D01*
X14673583Y42098000D01*
X14906417Y42098000D01*
X15134777Y42143424D01*
X15349887Y42232525D01*
X15543481Y42361881D01*
X15708119Y42526519D01*
X15837475Y42720113D01*
X15926576Y42935223D01*
X15972000Y43163583D01*
X15972000Y43396417D01*
X16148000Y43396417D01*
X16148000Y43163583D01*
X16193424Y42935223D01*
X16282525Y42720113D01*
X16411881Y42526519D01*
X16576519Y42361881D01*
X16770113Y42232525D01*
X16985223Y42143424D01*
X17213583Y42098000D01*
X17446417Y42098000D01*
X17674777Y42143424D01*
X17889887Y42232525D01*
X18083481Y42361881D01*
X18248119Y42526519D01*
X18377475Y42720113D01*
X18466576Y42935223D01*
X18512000Y43163583D01*
X18512000Y43396417D01*
X18466576Y43624777D01*
X18377475Y43839887D01*
X18248119Y44033481D01*
X18083481Y44198119D01*
X17889887Y44327475D01*
X17674777Y44416576D01*
X17446417Y44462000D01*
X17213583Y44462000D01*
X16985223Y44416576D01*
X16770113Y44327475D01*
X16576519Y44198119D01*
X16411881Y44033481D01*
X16282525Y43839887D01*
X16193424Y43624777D01*
X16148000Y43396417D01*
X15972000Y43396417D01*
X15926576Y43624777D01*
X15837475Y43839887D01*
X15708119Y44033481D01*
X15543481Y44198119D01*
X15349887Y44327475D01*
X15134777Y44416576D01*
X14906417Y44462000D01*
X14673583Y44462000D01*
X14445223Y44416576D01*
X14230113Y44327475D01*
X14036519Y44198119D01*
X13871881Y44033481D01*
X13742525Y43839887D01*
X13653424Y43624777D01*
X13608000Y43396417D01*
X13432000Y43396417D01*
X13386576Y43624777D01*
X13297475Y43839887D01*
X13168119Y44033481D01*
X13003481Y44198119D01*
X12809887Y44327475D01*
X12594777Y44416576D01*
X12366417Y44462000D01*
X12133583Y44462000D01*
X11905223Y44416576D01*
X11690113Y44327475D01*
X11496519Y44198119D01*
X11331881Y44033481D01*
X11202525Y43839887D01*
X11113424Y43624777D01*
X11068000Y43396417D01*
X11068000Y43163583D01*
X11113424Y42935223D01*
X11113791Y42934336D01*
X10249146Y42069690D01*
X10227816Y42052185D01*
X10157961Y41967066D01*
X10106053Y41869954D01*
X10074089Y41764583D01*
X10063296Y41655000D01*
X10066001Y41627536D01*
X10066000Y37242626D01*
X9978743Y37155369D01*
X9887691Y37019100D01*
X9824973Y36867686D01*
X9793000Y36706945D01*
X482000Y36706945D01*
X482000Y44030000D01*
X5985910Y44030000D01*
X5985910Y42530000D01*
X5994251Y42445313D01*
X6018953Y42363881D01*
X6059067Y42288833D01*
X6113052Y42223052D01*
X6178833Y42169067D01*
X6253881Y42128953D01*
X6335313Y42104251D01*
X6420000Y42095910D01*
X7920000Y42095910D01*
X8004687Y42104251D01*
X8086119Y42128953D01*
X8161167Y42169067D01*
X8226948Y42223052D01*
X8280933Y42288833D01*
X8321047Y42363881D01*
X8345749Y42445313D01*
X8354090Y42530000D01*
X8354090Y43396417D01*
X8528000Y43396417D01*
X8528000Y43163583D01*
X8573424Y42935223D01*
X8662525Y42720113D01*
X8791881Y42526519D01*
X8956519Y42361881D01*
X9150113Y42232525D01*
X9365223Y42143424D01*
X9593583Y42098000D01*
X9826417Y42098000D01*
X10054777Y42143424D01*
X10269887Y42232525D01*
X10463481Y42361881D01*
X10628119Y42526519D01*
X10757475Y42720113D01*
X10846576Y42935223D01*
X10892000Y43163583D01*
X10892000Y43396417D01*
X10846576Y43624777D01*
X10757475Y43839887D01*
X10628119Y44033481D01*
X10463481Y44198119D01*
X10269887Y44327475D01*
X10054777Y44416576D01*
X9826417Y44462000D01*
X9593583Y44462000D01*
X9365223Y44416576D01*
X9150113Y44327475D01*
X8956519Y44198119D01*
X8791881Y44033481D01*
X8662525Y43839887D01*
X8573424Y43624777D01*
X8528000Y43396417D01*
X8354090Y43396417D01*
X8354090Y44030000D01*
X8345749Y44114687D01*
X8321047Y44196119D01*
X8280933Y44271167D01*
X8226948Y44336948D01*
X8161167Y44390933D01*
X8086119Y44431047D01*
X8004687Y44455749D01*
X7920000Y44464090D01*
X6420000Y44464090D01*
X6335313Y44455749D01*
X6253881Y44431047D01*
X6178833Y44390933D01*
X6113052Y44336948D01*
X6059067Y44271167D01*
X6018953Y44196119D01*
X5994251Y44114687D01*
X5985910Y44030000D01*
X482000Y44030000D01*
X482000Y44999439D01*
X6529044Y44999439D01*
X6608927Y44831685D01*
X6812519Y44741215D01*
X7029848Y44692202D01*
X7252563Y44686530D01*
X7472106Y44724417D01*
X7680039Y44804407D01*
X7731073Y44831685D01*
X7810956Y44999439D01*
X9069044Y44999439D01*
X9148927Y44831685D01*
X9352519Y44741215D01*
X9569848Y44692202D01*
X9792563Y44686530D01*
X10012106Y44724417D01*
X10220039Y44804407D01*
X10271073Y44831685D01*
X10350956Y44999439D01*
X11609044Y44999439D01*
X11688927Y44831685D01*
X11892519Y44741215D01*
X12109848Y44692202D01*
X12332563Y44686530D01*
X12552106Y44724417D01*
X12760039Y44804407D01*
X12811073Y44831685D01*
X12890956Y44999439D01*
X14149044Y44999439D01*
X14228927Y44831685D01*
X14432519Y44741215D01*
X14649848Y44692202D01*
X14872563Y44686530D01*
X15092106Y44724417D01*
X15300039Y44804407D01*
X15351073Y44831685D01*
X15430956Y44999439D01*
X16689044Y44999439D01*
X16768927Y44831685D01*
X16972519Y44741215D01*
X17189848Y44692202D01*
X17412563Y44686530D01*
X17632106Y44724417D01*
X17840039Y44804407D01*
X17891073Y44831685D01*
X17970956Y44999439D01*
X17330000Y45640395D01*
X16689044Y44999439D01*
X15430956Y44999439D01*
X14790000Y45640395D01*
X14149044Y44999439D01*
X12890956Y44999439D01*
X12250000Y45640395D01*
X11609044Y44999439D01*
X10350956Y44999439D01*
X9710000Y45640395D01*
X9069044Y44999439D01*
X7810956Y44999439D01*
X7170000Y45640395D01*
X6529044Y44999439D01*
X482000Y44999439D01*
X482000Y45737437D01*
X6036530Y45737437D01*
X6074417Y45517894D01*
X6154407Y45309961D01*
X6181685Y45258927D01*
X6349439Y45179044D01*
X6990395Y45820000D01*
X7349605Y45820000D01*
X7990561Y45179044D01*
X8158315Y45258927D01*
X8248785Y45462519D01*
X8297798Y45679848D01*
X8299264Y45737437D01*
X8576530Y45737437D01*
X8614417Y45517894D01*
X8694407Y45309961D01*
X8721685Y45258927D01*
X8889439Y45179044D01*
X9530395Y45820000D01*
X9889605Y45820000D01*
X10530561Y45179044D01*
X10698315Y45258927D01*
X10788785Y45462519D01*
X10837798Y45679848D01*
X10839264Y45737437D01*
X11116530Y45737437D01*
X11154417Y45517894D01*
X11234407Y45309961D01*
X11261685Y45258927D01*
X11429439Y45179044D01*
X12070395Y45820000D01*
X12429605Y45820000D01*
X13070561Y45179044D01*
X13238315Y45258927D01*
X13328785Y45462519D01*
X13377798Y45679848D01*
X13379264Y45737437D01*
X13656530Y45737437D01*
X13694417Y45517894D01*
X13774407Y45309961D01*
X13801685Y45258927D01*
X13969439Y45179044D01*
X14610395Y45820000D01*
X14969605Y45820000D01*
X15610561Y45179044D01*
X15778315Y45258927D01*
X15868785Y45462519D01*
X15917798Y45679848D01*
X15919264Y45737437D01*
X16196530Y45737437D01*
X16234417Y45517894D01*
X16314407Y45309961D01*
X16341685Y45258927D01*
X16509439Y45179044D01*
X17150395Y45820000D01*
X17509605Y45820000D01*
X18150561Y45179044D01*
X18318315Y45258927D01*
X18408785Y45462519D01*
X18457798Y45679848D01*
X18463470Y45902563D01*
X18425583Y46122106D01*
X18345593Y46330039D01*
X18318315Y46381073D01*
X18150561Y46460956D01*
X17509605Y45820000D01*
X17150395Y45820000D01*
X16509439Y46460956D01*
X16341685Y46381073D01*
X16251215Y46177481D01*
X16202202Y45960152D01*
X16196530Y45737437D01*
X15919264Y45737437D01*
X15923470Y45902563D01*
X15885583Y46122106D01*
X15805593Y46330039D01*
X15778315Y46381073D01*
X15610561Y46460956D01*
X14969605Y45820000D01*
X14610395Y45820000D01*
X13969439Y46460956D01*
X13801685Y46381073D01*
X13711215Y46177481D01*
X13662202Y45960152D01*
X13656530Y45737437D01*
X13379264Y45737437D01*
X13383470Y45902563D01*
X13345583Y46122106D01*
X13265593Y46330039D01*
X13238315Y46381073D01*
X13070561Y46460956D01*
X12429605Y45820000D01*
X12070395Y45820000D01*
X11429439Y46460956D01*
X11261685Y46381073D01*
X11171215Y46177481D01*
X11122202Y45960152D01*
X11116530Y45737437D01*
X10839264Y45737437D01*
X10843470Y45902563D01*
X10805583Y46122106D01*
X10725593Y46330039D01*
X10698315Y46381073D01*
X10530561Y46460956D01*
X9889605Y45820000D01*
X9530395Y45820000D01*
X8889439Y46460956D01*
X8721685Y46381073D01*
X8631215Y46177481D01*
X8582202Y45960152D01*
X8576530Y45737437D01*
X8299264Y45737437D01*
X8303470Y45902563D01*
X8265583Y46122106D01*
X8185593Y46330039D01*
X8158315Y46381073D01*
X7990561Y46460956D01*
X7349605Y45820000D01*
X6990395Y45820000D01*
X6349439Y46460956D01*
X6181685Y46381073D01*
X6091215Y46177481D01*
X6042202Y45960152D01*
X6036530Y45737437D01*
X482000Y45737437D01*
X482000Y46640561D01*
X6529044Y46640561D01*
X7170000Y45999605D01*
X7810956Y46640561D01*
X9069044Y46640561D01*
X9710000Y45999605D01*
X10350956Y46640561D01*
X11609044Y46640561D01*
X12250000Y45999605D01*
X12890956Y46640561D01*
X14149044Y46640561D01*
X14790000Y45999605D01*
X15430956Y46640561D01*
X16689044Y46640561D01*
X17330000Y45999605D01*
X17970956Y46640561D01*
X17891073Y46808315D01*
X17687481Y46898785D01*
X17470152Y46947798D01*
X17247437Y46953470D01*
X17027894Y46915583D01*
X16819961Y46835593D01*
X16768927Y46808315D01*
X16689044Y46640561D01*
X15430956Y46640561D01*
X15351073Y46808315D01*
X15147481Y46898785D01*
X14930152Y46947798D01*
X14707437Y46953470D01*
X14487894Y46915583D01*
X14279961Y46835593D01*
X14228927Y46808315D01*
X14149044Y46640561D01*
X12890956Y46640561D01*
X12811073Y46808315D01*
X12607481Y46898785D01*
X12390152Y46947798D01*
X12167437Y46953470D01*
X11947894Y46915583D01*
X11739961Y46835593D01*
X11688927Y46808315D01*
X11609044Y46640561D01*
X10350956Y46640561D01*
X10271073Y46808315D01*
X10067481Y46898785D01*
X9850152Y46947798D01*
X9627437Y46953470D01*
X9407894Y46915583D01*
X9199961Y46835593D01*
X9148927Y46808315D01*
X9069044Y46640561D01*
X7810956Y46640561D01*
X7731073Y46808315D01*
X7527481Y46898785D01*
X7310152Y46947798D01*
X7087437Y46953470D01*
X6867894Y46915583D01*
X6659961Y46835593D01*
X6608927Y46808315D01*
X6529044Y46640561D01*
X482000Y46640561D01*
X482000Y55331945D01*
X9918000Y55331945D01*
X9918000Y55168055D01*
X9949973Y55007314D01*
X10012691Y54855900D01*
X10103743Y54719631D01*
X10219631Y54603743D01*
X10355900Y54512691D01*
X10507314Y54449973D01*
X10668055Y54418000D01*
X10831945Y54418000D01*
X10992686Y54449973D01*
X11144100Y54512691D01*
X11280369Y54603743D01*
X11396257Y54719631D01*
X11487309Y54855900D01*
X11550027Y55007314D01*
X11582000Y55168055D01*
X11582000Y55331945D01*
X11550027Y55492686D01*
X11487309Y55644100D01*
X11396257Y55780369D01*
X11280369Y55896257D01*
X11144100Y55987309D01*
X10992686Y56050027D01*
X10831945Y56082000D01*
X10668055Y56082000D01*
X10507314Y56050027D01*
X10355900Y55987309D01*
X10219631Y55896257D01*
X10103743Y55780369D01*
X10012691Y55644100D01*
X9949973Y55492686D01*
X9918000Y55331945D01*
X482000Y55331945D01*
X482000Y57976422D01*
X513178Y58294401D01*
X598677Y58577586D01*
X737550Y58838768D01*
X924513Y59068006D01*
X1152437Y59256562D01*
X1412650Y59397258D01*
X1695225Y59484730D01*
X2011768Y59518000D01*
X22476422Y59518000D01*
X22794401Y59486822D01*
M02*
