G04 #@! TF.GenerationSoftware,KiCad,Pcbnew,(5.0.0-rc2-dev-86-gcd2224b94)*
G04 #@! TF.CreationDate,2018-04-27T13:43:40-06:00*
G04 #@! TF.ProjectId,audio_beamforming_daughter_board,617564696F5F6265616D666F726D696E,1*
G04 #@! TF.SameCoordinates,PX175d720PY88601c0*
G04 #@! TF.FileFunction,Soldermask,Bot*
G04 #@! TF.FilePolarity,Negative*
%FSLAX46Y46*%
G04 Gerber Fmt 4.6, Leading zero omitted, Abs format (unit mm)*
G04 Created by KiCad (PCBNEW (5.0.0-rc2-dev-86-gcd2224b94)) date Fri Apr 27 13:43:40 2018*
%MOMM*%
%LPD*%
G01*
G04 APERTURE LIST*
%ADD10C,1.011200*%
%ADD11R,3.004800X3.004800*%
%ADD12R,0.990000X0.420000*%
%ADD13R,0.420000X0.990000*%
%ADD14C,0.911200*%
%ADD15C,3.554800*%
%ADD16C,2.854800*%
%ADD17C,1.534800*%
%ADD18R,1.534800X1.534800*%
%ADD19R,2.004800X2.004800*%
%ADD20O,2.004800X2.004800*%
%ADD21C,4.804800*%
%ADD22R,3.104800X3.104800*%
%ADD23R,3.104800X2.504800*%
%ADD24C,2.004800*%
%ADD25C,1.104800*%
%ADD26C,1.574800*%
%ADD27C,0.944800*%
%ADD28R,1.104800X1.054800*%
%ADD29R,1.054800X1.104800*%
%ADD30R,1.104800X1.204800*%
%ADD31R,1.204800X0.804800*%
%ADD32R,0.804800X1.204800*%
%ADD33R,0.754800X1.804800*%
%ADD34C,5.804800*%
%ADD35R,1.204800X1.104800*%
%ADD36C,0.914400*%
%ADD37C,1.368800*%
%ADD38C,1.304800*%
%ADD39C,1.804800*%
G04 APERTURE END LIST*
D10*
X183850000Y93400000D03*
X184750000Y93400000D03*
X185650000Y93400000D03*
X183850000Y92500000D03*
X184750000Y92500000D03*
X185650000Y92500000D03*
X183850000Y91600000D03*
X184750000Y91600000D03*
X185650000Y91600000D03*
D11*
X184750000Y92500000D03*
D12*
X186725000Y91500000D03*
X186725000Y92000000D03*
X186725000Y92500000D03*
X186725000Y93000000D03*
X186725000Y93500000D03*
D13*
X185750000Y94475000D03*
X185250000Y94475000D03*
X184750000Y94475000D03*
X184250000Y94475000D03*
X183750000Y94475000D03*
D12*
X182775000Y93500000D03*
X182775000Y93000000D03*
X182775000Y92500000D03*
X182775000Y92000000D03*
X182775000Y91500000D03*
D13*
X183750000Y90525000D03*
X184250000Y90525000D03*
X184750000Y90525000D03*
X185250000Y90525000D03*
X185750000Y90525000D03*
D14*
X26900000Y81850000D03*
X26900000Y80650000D03*
X28100000Y81850000D03*
X28100000Y80650000D03*
X27500000Y81250000D03*
D15*
X39350000Y4570000D03*
X26650000Y4570000D03*
D16*
X41125000Y8000000D03*
X24875000Y8000000D03*
D17*
X39860000Y13710000D03*
X37570000Y13710000D03*
X28430000Y13710000D03*
X26140000Y13710000D03*
X29430000Y8890000D03*
X30450000Y7110000D03*
X31470000Y8890000D03*
X32490000Y7110000D03*
X33520000Y8890000D03*
X34530000Y7110000D03*
X35550000Y8890000D03*
D18*
X36570000Y7110000D03*
D15*
X62350000Y4570000D03*
X49650000Y4570000D03*
D16*
X64125000Y8000000D03*
X47875000Y8000000D03*
D17*
X62860000Y13710000D03*
X60570000Y13710000D03*
X51430000Y13710000D03*
X49140000Y13710000D03*
X52430000Y8890000D03*
X53450000Y7110000D03*
X54470000Y8890000D03*
X55490000Y7110000D03*
X56520000Y8890000D03*
X57530000Y7110000D03*
X58550000Y8890000D03*
D18*
X59570000Y7110000D03*
D15*
X85350000Y4570000D03*
X72650000Y4570000D03*
D16*
X87125000Y8000000D03*
X70875000Y8000000D03*
D17*
X85860000Y13710000D03*
X83570000Y13710000D03*
X74430000Y13710000D03*
X72140000Y13710000D03*
X75430000Y8890000D03*
X76450000Y7110000D03*
X77470000Y8890000D03*
X78490000Y7110000D03*
X79520000Y8890000D03*
X80530000Y7110000D03*
X81550000Y8890000D03*
D18*
X82570000Y7110000D03*
D15*
X108350000Y4570000D03*
X95650000Y4570000D03*
D16*
X110125000Y8000000D03*
X93875000Y8000000D03*
D17*
X108860000Y13710000D03*
X106570000Y13710000D03*
X97430000Y13710000D03*
X95140000Y13710000D03*
X98430000Y8890000D03*
X99450000Y7110000D03*
X100470000Y8890000D03*
X101490000Y7110000D03*
X102520000Y8890000D03*
X103530000Y7110000D03*
X104550000Y8890000D03*
D18*
X105570000Y7110000D03*
D15*
X131350000Y4570000D03*
X118650000Y4570000D03*
D16*
X133125000Y8000000D03*
X116875000Y8000000D03*
D17*
X131860000Y13710000D03*
X129570000Y13710000D03*
X120430000Y13710000D03*
X118140000Y13710000D03*
X121430000Y8890000D03*
X122450000Y7110000D03*
X123470000Y8890000D03*
X124490000Y7110000D03*
X125520000Y8890000D03*
X126530000Y7110000D03*
X127550000Y8890000D03*
D18*
X128570000Y7110000D03*
D15*
X154350000Y4570000D03*
X141650000Y4570000D03*
D16*
X156125000Y8000000D03*
X139875000Y8000000D03*
D17*
X154860000Y13710000D03*
X152570000Y13710000D03*
X143430000Y13710000D03*
X141140000Y13710000D03*
X144430000Y8890000D03*
X145450000Y7110000D03*
X146470000Y8890000D03*
X147490000Y7110000D03*
X148520000Y8890000D03*
X149530000Y7110000D03*
X150550000Y8890000D03*
D18*
X151570000Y7110000D03*
D15*
X177350000Y4570000D03*
X164650000Y4570000D03*
D16*
X179125000Y8000000D03*
X162875000Y8000000D03*
D17*
X177860000Y13710000D03*
X175570000Y13710000D03*
X166430000Y13710000D03*
X164140000Y13710000D03*
X167430000Y8890000D03*
X168450000Y7110000D03*
X169470000Y8890000D03*
X170490000Y7110000D03*
X171520000Y8890000D03*
X172530000Y7110000D03*
X173550000Y8890000D03*
D18*
X174570000Y7110000D03*
D15*
X200350000Y4570000D03*
X187650000Y4570000D03*
D16*
X202125000Y8000000D03*
X185875000Y8000000D03*
D17*
X200860000Y13710000D03*
X198570000Y13710000D03*
X189430000Y13710000D03*
X187140000Y13710000D03*
X190430000Y8890000D03*
X191450000Y7110000D03*
X192470000Y8890000D03*
X193490000Y7110000D03*
X194520000Y8890000D03*
X195530000Y7110000D03*
X196550000Y8890000D03*
D18*
X197570000Y7110000D03*
D19*
X207500000Y38000000D03*
D20*
X210040000Y38000000D03*
X207500000Y40540000D03*
X210040000Y40540000D03*
X207500000Y43080000D03*
X210040000Y43080000D03*
X207500000Y45620000D03*
X210040000Y45620000D03*
X207500000Y48160000D03*
X210040000Y48160000D03*
X207500000Y50700000D03*
X210040000Y50700000D03*
X207500000Y53240000D03*
X210040000Y53240000D03*
X207500000Y55780000D03*
X210040000Y55780000D03*
X207500000Y58320000D03*
X210040000Y58320000D03*
X207500000Y60860000D03*
X210040000Y60860000D03*
X207500000Y63400000D03*
X210040000Y63400000D03*
X207500000Y65940000D03*
X210040000Y65940000D03*
X207500000Y68480000D03*
X210040000Y68480000D03*
X207500000Y71020000D03*
X210040000Y71020000D03*
X207500000Y73560000D03*
X210040000Y73560000D03*
X207500000Y76100000D03*
X210040000Y76100000D03*
X207500000Y78640000D03*
X210040000Y78640000D03*
X207500000Y81180000D03*
X210040000Y81180000D03*
X207500000Y83720000D03*
X210040000Y83720000D03*
X207500000Y86260000D03*
X210040000Y86260000D03*
D21*
X10760000Y91000000D03*
D22*
X183100000Y102600000D03*
D23*
X188200000Y115900000D03*
X180800000Y113900000D03*
D22*
X188200000Y106500000D03*
D24*
X184500000Y107800000D03*
X184500000Y114800000D03*
D22*
X132600000Y102600000D03*
D23*
X137700000Y115900000D03*
X130300000Y113900000D03*
D22*
X137700000Y106500000D03*
D24*
X134000000Y107800000D03*
X134000000Y114800000D03*
D25*
X55750000Y38250000D03*
D26*
X8780000Y32310000D03*
X11830000Y86690000D03*
D27*
X14495000Y84265000D03*
X14495000Y82995000D03*
X14495000Y81725000D03*
X14495000Y80455000D03*
X14495000Y79185000D03*
X14495000Y77915000D03*
X14495000Y76645000D03*
X14495000Y75375000D03*
X14495000Y74105000D03*
X14495000Y72835000D03*
X14495000Y71565000D03*
X14495000Y70295000D03*
X14495000Y69025000D03*
X14495000Y67755000D03*
X14495000Y66485000D03*
X14495000Y65215000D03*
X14495000Y63945000D03*
X14495000Y62675000D03*
X14495000Y61405000D03*
X14495000Y60135000D03*
X14495000Y58865000D03*
X14495000Y57595000D03*
X14495000Y56325000D03*
X14495000Y55055000D03*
X14495000Y53785000D03*
X14495000Y52515000D03*
X14495000Y51245000D03*
X14495000Y49975000D03*
X14495000Y48705000D03*
X14495000Y47435000D03*
X14495000Y46165000D03*
X14495000Y44895000D03*
X14495000Y43625000D03*
X14495000Y42355000D03*
X14495000Y41085000D03*
X14495000Y39815000D03*
X14495000Y38545000D03*
X14495000Y37275000D03*
X14495000Y36005000D03*
X14495000Y34735000D03*
X13225000Y84265000D03*
X13225000Y82995000D03*
X13225000Y81725000D03*
X13225000Y80455000D03*
X13225000Y79185000D03*
X13225000Y77915000D03*
X13225000Y76645000D03*
X13225000Y75375000D03*
X13225000Y74105000D03*
X13225000Y72835000D03*
X13225000Y71565000D03*
X13225000Y70295000D03*
X13225000Y69025000D03*
X13225000Y67755000D03*
X13225000Y66485000D03*
X13225000Y65215000D03*
X13225000Y63945000D03*
X13225000Y62675000D03*
X13225000Y61405000D03*
X13225000Y60135000D03*
X13225000Y58865000D03*
X13225000Y57595000D03*
X13225000Y56325000D03*
X13225000Y55055000D03*
X13225000Y53785000D03*
X13225000Y52515000D03*
X13225000Y51245000D03*
X13225000Y49975000D03*
X13225000Y48705000D03*
X13225000Y47435000D03*
X13225000Y46165000D03*
X13225000Y44895000D03*
X13225000Y43625000D03*
X13225000Y42355000D03*
X13225000Y41085000D03*
X13225000Y39815000D03*
X13225000Y38545000D03*
X13225000Y37275000D03*
X13225000Y36005000D03*
X13225000Y34735000D03*
X11955000Y84265000D03*
X11955000Y82995000D03*
X11955000Y81725000D03*
X11955000Y80455000D03*
X11955000Y79185000D03*
X11955000Y77915000D03*
X11955000Y76645000D03*
X11955000Y75375000D03*
X11955000Y74105000D03*
X11955000Y72835000D03*
X11955000Y71565000D03*
X11955000Y70295000D03*
X11955000Y69025000D03*
X11955000Y67755000D03*
X11955000Y66485000D03*
X11955000Y65215000D03*
X11955000Y63945000D03*
X11955000Y62675000D03*
X11955000Y61405000D03*
X11955000Y60135000D03*
X11955000Y58865000D03*
X11955000Y57595000D03*
X11955000Y56325000D03*
X11955000Y55055000D03*
X11955000Y53785000D03*
X11955000Y52515000D03*
X11955000Y51245000D03*
X11955000Y49975000D03*
X11955000Y48705000D03*
X11955000Y47435000D03*
X11955000Y46165000D03*
X11955000Y44895000D03*
X11955000Y43625000D03*
X11955000Y42355000D03*
X11955000Y41085000D03*
X11955000Y39815000D03*
X11955000Y38545000D03*
X11955000Y37275000D03*
X11955000Y36005000D03*
X11955000Y34735000D03*
X10685000Y84265000D03*
X10685000Y82995000D03*
X10685000Y81725000D03*
X10685000Y80455000D03*
X10685000Y79185000D03*
X10685000Y77915000D03*
X10685000Y76645000D03*
X10685000Y75375000D03*
X10685000Y74105000D03*
X10685000Y72835000D03*
X10685000Y71565000D03*
X10685000Y70295000D03*
X10685000Y69025000D03*
X10685000Y67755000D03*
X10685000Y66485000D03*
X10685000Y65215000D03*
X10685000Y63945000D03*
X10685000Y62675000D03*
X10685000Y61405000D03*
X10685000Y60135000D03*
X10685000Y58865000D03*
X10685000Y57595000D03*
X10685000Y56325000D03*
X10685000Y55055000D03*
X10685000Y53785000D03*
X10685000Y52515000D03*
X10685000Y51245000D03*
X10685000Y49975000D03*
X10685000Y48705000D03*
X10685000Y47435000D03*
X10685000Y46165000D03*
X10685000Y44895000D03*
X10685000Y43625000D03*
X10685000Y42355000D03*
X10685000Y41085000D03*
X10685000Y39815000D03*
X10685000Y38545000D03*
X10685000Y37275000D03*
X10685000Y36005000D03*
X10685000Y34735000D03*
X9415000Y84265000D03*
X9415000Y82995000D03*
X9415000Y81725000D03*
X9415000Y80455000D03*
X9415000Y79185000D03*
X9415000Y77915000D03*
X9415000Y76645000D03*
X9415000Y75375000D03*
X9415000Y74105000D03*
X9415000Y72835000D03*
X9415000Y71565000D03*
X9415000Y70295000D03*
X9415000Y69025000D03*
X9415000Y67755000D03*
X9415000Y66485000D03*
X9415000Y65215000D03*
X9415000Y63945000D03*
X9415000Y62675000D03*
X9415000Y61405000D03*
X9415000Y60135000D03*
X9415000Y58865000D03*
X9415000Y57595000D03*
X9415000Y56325000D03*
X9415000Y55055000D03*
X9415000Y53785000D03*
X9415000Y52515000D03*
X9415000Y51245000D03*
X9415000Y49975000D03*
X9415000Y48705000D03*
X9415000Y47435000D03*
X9415000Y46165000D03*
X9415000Y44895000D03*
X9415000Y43625000D03*
X9415000Y42355000D03*
X9415000Y41085000D03*
X9415000Y39815000D03*
X9415000Y38545000D03*
X9415000Y37275000D03*
X9415000Y36005000D03*
X9415000Y34735000D03*
X8145000Y84265000D03*
X8145000Y82995000D03*
X8145000Y81725000D03*
X8145000Y80455000D03*
X8145000Y79185000D03*
X8145000Y77915000D03*
X8145000Y76645000D03*
X8145000Y75375000D03*
X8145000Y74105000D03*
X8145000Y72835000D03*
X8145000Y71565000D03*
X8145000Y70295000D03*
X8145000Y69025000D03*
X8145000Y67755000D03*
X8145000Y66485000D03*
X8145000Y65215000D03*
X8145000Y63945000D03*
X8145000Y62675000D03*
X8145000Y61405000D03*
X8145000Y60135000D03*
X8145000Y58865000D03*
X8145000Y57595000D03*
X8145000Y56325000D03*
X8145000Y55055000D03*
X8145000Y53785000D03*
X8145000Y52515000D03*
X8145000Y51245000D03*
X8145000Y49975000D03*
X8145000Y48705000D03*
X8145000Y47435000D03*
X8145000Y46165000D03*
X8145000Y44895000D03*
X8145000Y43625000D03*
X8145000Y42355000D03*
X8145000Y41085000D03*
X8145000Y39815000D03*
X8145000Y38545000D03*
X8145000Y37275000D03*
X8145000Y36005000D03*
X8145000Y34735000D03*
X6875000Y84265000D03*
X6875000Y82995000D03*
X6875000Y81725000D03*
X6875000Y80455000D03*
X6875000Y79185000D03*
X6875000Y77915000D03*
X6875000Y76645000D03*
X6875000Y75375000D03*
X6875000Y74105000D03*
X6875000Y72835000D03*
X6875000Y71565000D03*
X6875000Y70295000D03*
X6875000Y69025000D03*
X6875000Y67755000D03*
X6875000Y66485000D03*
X6875000Y65215000D03*
X6875000Y63945000D03*
X6875000Y62675000D03*
X6875000Y61405000D03*
X6875000Y60135000D03*
X6875000Y58865000D03*
X6875000Y57595000D03*
X6875000Y56325000D03*
X6875000Y55055000D03*
X6875000Y53785000D03*
X6875000Y52515000D03*
X6875000Y51245000D03*
X6875000Y49975000D03*
X6875000Y48705000D03*
X6875000Y47435000D03*
X6875000Y46165000D03*
X6875000Y44895000D03*
X6875000Y43625000D03*
X6875000Y42355000D03*
X6875000Y41085000D03*
X6875000Y39815000D03*
X6875000Y38545000D03*
X6875000Y37275000D03*
X6875000Y36005000D03*
X6875000Y34735000D03*
X5605000Y84265000D03*
X5605000Y82995000D03*
X5605000Y81725000D03*
X5605000Y80455000D03*
X5605000Y79185000D03*
X5605000Y77915000D03*
X5605000Y76645000D03*
X5605000Y75375000D03*
X5605000Y74105000D03*
X5605000Y72835000D03*
X5605000Y71565000D03*
X5605000Y70295000D03*
X5605000Y69025000D03*
X5605000Y67755000D03*
X5605000Y66485000D03*
X5605000Y65215000D03*
X5605000Y63945000D03*
X5605000Y62675000D03*
X5605000Y61405000D03*
X5605000Y60135000D03*
X5605000Y58865000D03*
X5605000Y57595000D03*
X5605000Y56325000D03*
X5605000Y55055000D03*
X5605000Y53785000D03*
X5605000Y52515000D03*
X5605000Y51245000D03*
X5605000Y49975000D03*
X5605000Y48705000D03*
X5605000Y47435000D03*
X5605000Y46165000D03*
X5605000Y44895000D03*
X5605000Y43625000D03*
X5605000Y42355000D03*
X5605000Y41085000D03*
X5605000Y39815000D03*
X5605000Y38545000D03*
X5605000Y37275000D03*
X5605000Y36005000D03*
X5605000Y34735000D03*
X4335000Y84265000D03*
X4335000Y82995000D03*
X4335000Y81725000D03*
X4335000Y80455000D03*
X4335000Y79185000D03*
X4335000Y77915000D03*
X4335000Y76645000D03*
X4335000Y75375000D03*
X4335000Y74105000D03*
X4335000Y72835000D03*
X4335000Y71565000D03*
X4335000Y70295000D03*
X4335000Y69025000D03*
X4335000Y67755000D03*
X4335000Y66485000D03*
X4335000Y65215000D03*
X4335000Y63945000D03*
X4335000Y62675000D03*
X4335000Y61405000D03*
X4335000Y60135000D03*
X4335000Y58865000D03*
X4335000Y57595000D03*
X4335000Y56325000D03*
X4335000Y55055000D03*
X4335000Y53785000D03*
X4335000Y52515000D03*
X4335000Y51245000D03*
X4335000Y49975000D03*
X4335000Y48705000D03*
X4335000Y47435000D03*
X4335000Y46165000D03*
X4335000Y44895000D03*
X4335000Y43625000D03*
X4335000Y42355000D03*
X4335000Y41085000D03*
X4335000Y39815000D03*
X4335000Y38545000D03*
X4335000Y37275000D03*
X4335000Y36005000D03*
X4335000Y34735000D03*
X3065000Y84265000D03*
X3065000Y82995000D03*
X3065000Y81725000D03*
X3065000Y80455000D03*
X3065000Y79185000D03*
X3065000Y77915000D03*
X3065000Y76645000D03*
X3065000Y75375000D03*
X3065000Y74105000D03*
X3065000Y72835000D03*
X3065000Y71565000D03*
X3065000Y70295000D03*
X3065000Y69025000D03*
X3065000Y67755000D03*
X3065000Y66485000D03*
X3065000Y65215000D03*
X3065000Y63945000D03*
X3065000Y62675000D03*
X3065000Y61405000D03*
X3065000Y60135000D03*
X3065000Y58865000D03*
X3065000Y57595000D03*
X3065000Y56325000D03*
X3065000Y55055000D03*
X3065000Y53785000D03*
X3065000Y52515000D03*
X3065000Y51245000D03*
X3065000Y49975000D03*
X3065000Y48705000D03*
X3065000Y47435000D03*
X3065000Y46165000D03*
X3065000Y44895000D03*
X3065000Y43625000D03*
X3065000Y42355000D03*
X3065000Y41085000D03*
X3065000Y39815000D03*
X3065000Y38545000D03*
X3065000Y37275000D03*
X3065000Y36005000D03*
X3065000Y34735000D03*
D28*
X188500000Y91000000D03*
X190000000Y91000000D03*
D29*
X188750000Y94250000D03*
X188750000Y92750000D03*
X187400000Y97500000D03*
X187400000Y96000000D03*
X184250000Y96250000D03*
X184250000Y97750000D03*
D28*
X35500000Y37750000D03*
X34000000Y37750000D03*
X35000000Y48250000D03*
X36500000Y48250000D03*
X58500000Y37750000D03*
X57000000Y37750000D03*
X58000000Y48250000D03*
X59500000Y48250000D03*
X80000000Y37750000D03*
X81500000Y37750000D03*
X82500000Y48250000D03*
X81000000Y48250000D03*
X104500000Y37750000D03*
X103000000Y37750000D03*
X104000000Y48250000D03*
X105500000Y48250000D03*
X126000000Y37750000D03*
X127500000Y37750000D03*
X128500000Y48250000D03*
X127000000Y48250000D03*
X150500000Y37750000D03*
X149000000Y37750000D03*
X150000000Y48250000D03*
X151500000Y48250000D03*
X173500000Y37750000D03*
X172000000Y37750000D03*
X173000000Y48250000D03*
X174500000Y48250000D03*
X195000000Y37750000D03*
X196500000Y37750000D03*
X197500000Y48250000D03*
X196000000Y48250000D03*
D19*
X135250000Y94250000D03*
D20*
X137790000Y94250000D03*
X140330000Y94250000D03*
D30*
X28500000Y18000000D03*
X29450000Y20000000D03*
X27550000Y20000000D03*
X40250000Y18000000D03*
X41200000Y20000000D03*
X39300000Y20000000D03*
X50550000Y20000000D03*
X52450000Y20000000D03*
X51500000Y18000000D03*
X62300000Y20000000D03*
X64200000Y20000000D03*
X63250000Y18000000D03*
X73550000Y20000000D03*
X75450000Y20000000D03*
X74500000Y18000000D03*
X86250000Y18000000D03*
X87200000Y20000000D03*
X85300000Y20000000D03*
X97500000Y18000000D03*
X98450000Y20000000D03*
X96550000Y20000000D03*
X108300000Y20000000D03*
X110200000Y20000000D03*
X109250000Y18000000D03*
X119550000Y20000000D03*
X121450000Y20000000D03*
X120500000Y18000000D03*
X131300000Y20000000D03*
X133200000Y20000000D03*
X132250000Y18000000D03*
X143500000Y18000000D03*
X144450000Y20000000D03*
X142550000Y20000000D03*
X155250000Y18000000D03*
X156200000Y20000000D03*
X154300000Y20000000D03*
X165550000Y20000000D03*
X167450000Y20000000D03*
X166500000Y18000000D03*
X178250000Y18000000D03*
X179200000Y20000000D03*
X177300000Y20000000D03*
X189500000Y18000000D03*
X190450000Y20000000D03*
X188550000Y20000000D03*
X200300000Y20000000D03*
X202200000Y20000000D03*
X201250000Y18000000D03*
D31*
X151750000Y72500000D03*
X151750000Y74000000D03*
X149750000Y75000000D03*
X149750000Y73500000D03*
D32*
X29250000Y22500000D03*
X27750000Y22500000D03*
X39500000Y22500000D03*
X41000000Y22500000D03*
X36000000Y18250000D03*
X37500000Y18250000D03*
X25750000Y18250000D03*
X24250000Y18250000D03*
X50750000Y22500000D03*
X52250000Y22500000D03*
X64000000Y22500000D03*
X62500000Y22500000D03*
X59000000Y18250000D03*
X60500000Y18250000D03*
X48750000Y18250000D03*
X47250000Y18250000D03*
X73750000Y22500000D03*
X75250000Y22500000D03*
X87000000Y22500000D03*
X85500000Y22500000D03*
X82000000Y18250000D03*
X83500000Y18250000D03*
X70250000Y18250000D03*
X71750000Y18250000D03*
X96750000Y22500000D03*
X98250000Y22500000D03*
X108500000Y22500000D03*
X110000000Y22500000D03*
X106500000Y18250000D03*
X105000000Y18250000D03*
X93250000Y18250000D03*
X94750000Y18250000D03*
X119750000Y22500000D03*
X121250000Y22500000D03*
X133000000Y22500000D03*
X131500000Y22500000D03*
X129500000Y18250000D03*
X128000000Y18250000D03*
X117750000Y18250000D03*
X116250000Y18250000D03*
X144250000Y22500000D03*
X142750000Y22500000D03*
X156000000Y22500000D03*
X154500000Y22500000D03*
X151000000Y18250000D03*
X152500000Y18250000D03*
X140750000Y18250000D03*
X139250000Y18250000D03*
X167250000Y22500000D03*
X165750000Y22500000D03*
X179000000Y22500000D03*
X177500000Y22500000D03*
X175500000Y18250000D03*
X174000000Y18250000D03*
X162250000Y18250000D03*
X163750000Y18250000D03*
X190250000Y22500000D03*
X188750000Y22500000D03*
X200500000Y22500000D03*
X202000000Y22500000D03*
X197000000Y18250000D03*
X198500000Y18250000D03*
X186750000Y18250000D03*
X185250000Y18250000D03*
D33*
X35275000Y45950000D03*
X34625000Y45950000D03*
X33975000Y45950000D03*
X33325000Y45950000D03*
X32675000Y45950000D03*
X32025000Y45950000D03*
X31375000Y45950000D03*
X30725000Y45950000D03*
X30725000Y40050000D03*
X31375000Y40050000D03*
X32025000Y40050000D03*
X32675000Y40050000D03*
X33325000Y40050000D03*
X33975000Y40050000D03*
X34625000Y40050000D03*
X35275000Y40050000D03*
X58275000Y40050000D03*
X57625000Y40050000D03*
X56975000Y40050000D03*
X56325000Y40050000D03*
X55675000Y40050000D03*
X55025000Y40050000D03*
X54375000Y40050000D03*
X53725000Y40050000D03*
X53725000Y45950000D03*
X54375000Y45950000D03*
X55025000Y45950000D03*
X55675000Y45950000D03*
X56325000Y45950000D03*
X56975000Y45950000D03*
X57625000Y45950000D03*
X58275000Y45950000D03*
X81275000Y40050000D03*
X80625000Y40050000D03*
X79975000Y40050000D03*
X79325000Y40050000D03*
X78675000Y40050000D03*
X78025000Y40050000D03*
X77375000Y40050000D03*
X76725000Y40050000D03*
X76725000Y45950000D03*
X77375000Y45950000D03*
X78025000Y45950000D03*
X78675000Y45950000D03*
X79325000Y45950000D03*
X79975000Y45950000D03*
X80625000Y45950000D03*
X81275000Y45950000D03*
X104275000Y40050000D03*
X103625000Y40050000D03*
X102975000Y40050000D03*
X102325000Y40050000D03*
X101675000Y40050000D03*
X101025000Y40050000D03*
X100375000Y40050000D03*
X99725000Y40050000D03*
X99725000Y45950000D03*
X100375000Y45950000D03*
X101025000Y45950000D03*
X101675000Y45950000D03*
X102325000Y45950000D03*
X102975000Y45950000D03*
X103625000Y45950000D03*
X104275000Y45950000D03*
X127275000Y45950000D03*
X126625000Y45950000D03*
X125975000Y45950000D03*
X125325000Y45950000D03*
X124675000Y45950000D03*
X124025000Y45950000D03*
X123375000Y45950000D03*
X122725000Y45950000D03*
X122725000Y40050000D03*
X123375000Y40050000D03*
X124025000Y40050000D03*
X124675000Y40050000D03*
X125325000Y40050000D03*
X125975000Y40050000D03*
X126625000Y40050000D03*
X127275000Y40050000D03*
X150275000Y40050000D03*
X149625000Y40050000D03*
X148975000Y40050000D03*
X148325000Y40050000D03*
X147675000Y40050000D03*
X147025000Y40050000D03*
X146375000Y40050000D03*
X145725000Y40050000D03*
X145725000Y45950000D03*
X146375000Y45950000D03*
X147025000Y45950000D03*
X147675000Y45950000D03*
X148325000Y45950000D03*
X148975000Y45950000D03*
X149625000Y45950000D03*
X150275000Y45950000D03*
X173275000Y40050000D03*
X172625000Y40050000D03*
X171975000Y40050000D03*
X171325000Y40050000D03*
X170675000Y40050000D03*
X170025000Y40050000D03*
X169375000Y40050000D03*
X168725000Y40050000D03*
X168725000Y45950000D03*
X169375000Y45950000D03*
X170025000Y45950000D03*
X170675000Y45950000D03*
X171325000Y45950000D03*
X171975000Y45950000D03*
X172625000Y45950000D03*
X173275000Y45950000D03*
X196275000Y45950000D03*
X195625000Y45950000D03*
X194975000Y45950000D03*
X194325000Y45950000D03*
X193675000Y45950000D03*
X193025000Y45950000D03*
X192375000Y45950000D03*
X191725000Y45950000D03*
X191725000Y40050000D03*
X192375000Y40050000D03*
X193025000Y40050000D03*
X193675000Y40050000D03*
X194325000Y40050000D03*
X194975000Y40050000D03*
X195625000Y40050000D03*
X196275000Y40050000D03*
D25*
X63500000Y104250000D03*
X74000000Y104250000D03*
X63500000Y103000000D03*
X74000000Y103000000D03*
X63500000Y101750000D03*
X74000000Y101750000D03*
X63500000Y97250000D03*
X74000000Y97250000D03*
X63500000Y96000000D03*
X74000000Y96000000D03*
X63500000Y94750000D03*
X74000000Y94750000D03*
X63500000Y110750000D03*
X74000000Y110750000D03*
X63500000Y89750000D03*
X74000000Y89750000D03*
X63500000Y93500000D03*
X74000000Y93500000D03*
X63500000Y88500000D03*
X74000000Y88500000D03*
X63500000Y87250000D03*
X74000000Y87250000D03*
X62750000Y71250000D03*
X180500000Y90750000D03*
X180500000Y92000000D03*
X180500000Y93250000D03*
X177000000Y113750000D03*
X192000000Y106500000D03*
X126750000Y113750000D03*
X141250000Y106500000D03*
X32750000Y38250000D03*
X34000000Y34500000D03*
X35250000Y34500000D03*
X33250000Y48250000D03*
X30750000Y48250000D03*
X32000000Y48250000D03*
X57000000Y34500000D03*
X58250000Y34500000D03*
X56250000Y48250000D03*
X53750000Y48250000D03*
X55000000Y48250000D03*
X78750000Y38250000D03*
X80000000Y34500000D03*
X81250000Y34500000D03*
X79250000Y48250000D03*
X76750000Y48250000D03*
X78000000Y48250000D03*
X101750000Y38250000D03*
X103000000Y34500000D03*
X104250000Y34500000D03*
X102250000Y48250000D03*
X99750000Y48250000D03*
X101000000Y48250000D03*
X124750000Y38250000D03*
X126000000Y34500000D03*
X127250000Y34500000D03*
X125250000Y48250000D03*
X122750000Y48250000D03*
X124000000Y48250000D03*
X147750000Y38250000D03*
X149000000Y34500000D03*
X150250000Y34500000D03*
X148250000Y48250000D03*
X145750000Y48250000D03*
X147000000Y48250000D03*
X170750000Y38250000D03*
X172000000Y34500000D03*
X173250000Y34500000D03*
X171250000Y48250000D03*
X168750000Y48250000D03*
X170000000Y48250000D03*
X193750000Y38250000D03*
X195000000Y34500000D03*
X196250000Y34500000D03*
X194250000Y48250000D03*
X191750000Y48250000D03*
X193000000Y48250000D03*
X63500000Y109500000D03*
D34*
X208750000Y115250000D03*
X208750000Y3750000D03*
D21*
X10760000Y28000000D03*
D35*
X70250000Y70500000D03*
X68250000Y71450000D03*
X68250000Y69550000D03*
D31*
X66000000Y69750000D03*
X66000000Y71250000D03*
X72500000Y70500000D03*
X72500000Y69000000D03*
D36*
X11278164Y83724328D03*
D37*
X18253946Y81265304D03*
D36*
X3700000Y51900000D03*
X5000000Y51900000D03*
D37*
X34750000Y74586810D03*
X31750000Y74586810D03*
X33750000Y74586810D03*
X30750000Y74586810D03*
X32750000Y74586810D03*
D25*
X199011100Y10250000D03*
X199988900Y10250000D03*
D36*
X14686045Y26186057D03*
X6172593Y45474007D03*
X15500000Y26750000D03*
X7391803Y45509087D03*
X16500000Y28000000D03*
X6150075Y46845879D03*
X17250000Y28500000D03*
X7397840Y44286040D03*
X16500000Y30249994D03*
X7482453Y41767547D03*
X19250000Y30500000D03*
X19000000Y31750000D03*
X7383569Y48081352D03*
X17250000Y33500000D03*
X17750000Y34250000D03*
X8750000Y49250000D03*
X19500000Y34249986D03*
X163000000Y22500000D03*
X8700016Y36700000D03*
X25250000Y28500000D03*
X176000000Y22500000D03*
X8850809Y38000000D03*
X186000000Y22500000D03*
X10000000Y39108048D03*
X26250000Y31250000D03*
X199500000Y22500000D03*
X5282611Y71030022D03*
X12500000Y82250028D03*
X8924108Y77280018D03*
X17000000Y78859610D03*
X15500000Y77250000D03*
X11287095Y59395723D03*
X12600000Y40400000D03*
X11200000Y40381083D03*
X13800000Y40390390D03*
X10000000Y37818544D03*
X8760730Y40460769D03*
X7390398Y40430253D03*
X7389562Y43009036D03*
X8749191Y44200000D03*
X7390390Y37929741D03*
X4949191Y40392160D03*
X10025097Y35548147D03*
X12600000Y37850809D03*
X11219211Y38000000D03*
X13782453Y35382453D03*
X15510176Y37276254D03*
X8900000Y48200000D03*
X11132696Y51800000D03*
X8799995Y50499995D03*
X11250000Y74750000D03*
X11387443Y70862557D03*
X5000000Y76050809D03*
X12614243Y60884268D03*
X10231390Y59367388D03*
D37*
X45250000Y86717991D03*
X27750000Y88000000D03*
X26727950Y87022050D03*
X26750000Y88000000D03*
X36250000Y87481380D03*
D36*
X10017440Y83734663D03*
X13750022Y85000000D03*
X3617547Y42982453D03*
X3749191Y35400000D03*
X5800000Y34050809D03*
X12500000Y44300809D03*
X15500000Y45000000D03*
X15500000Y60000000D03*
X15250000Y64000000D03*
X15250020Y71600589D03*
X15250000Y52500000D03*
X15267547Y67755548D03*
X12500000Y70898391D03*
X19000000Y73750000D03*
X21000000Y73000000D03*
X12545252Y72272626D03*
X48750000Y67640390D03*
X40250000Y67640390D03*
X34500020Y67250000D03*
X12500000Y68550809D03*
X35749980Y64750000D03*
X30999990Y66250000D03*
X18250000Y49250000D03*
X19250000Y48750000D03*
X19750000Y47750000D03*
X20250002Y46750000D03*
X19249996Y44750000D03*
X11300000Y44300000D03*
X12668170Y42933042D03*
X21999980Y43750000D03*
X12600000Y41800000D03*
X25000002Y43500000D03*
X15100000Y40400000D03*
X24750000Y42250000D03*
X11300000Y41700016D03*
X9912006Y41715224D03*
X19500000Y38299998D03*
X15200000Y38000000D03*
X10100000Y40399988D03*
X18750136Y37250000D03*
X27250000Y35695199D03*
X11300000Y45600000D03*
D25*
X195500000Y47250000D03*
X191750000Y44500000D03*
X195750000Y44500000D03*
X195000000Y41500000D03*
X191750000Y41500000D03*
X193750000Y28500000D03*
X196250000Y28500000D03*
X202000000Y21250000D03*
X190250000Y21250000D03*
X201000000Y10250000D03*
X191750000Y28500000D03*
X197000000Y17000000D03*
X196250000Y41500000D03*
X196500000Y38750000D03*
D38*
X197500000Y47000000D03*
D25*
X195025490Y38747168D03*
X193272581Y31277360D03*
X194250000Y31250000D03*
X198000000Y10250000D03*
X176011100Y10250000D03*
X176988900Y10250000D03*
X172500000Y47250000D03*
X168750000Y44500000D03*
X172750000Y44500000D03*
X172000000Y41500000D03*
X168750000Y41500000D03*
X170750000Y28500000D03*
X173250000Y28500000D03*
X179000000Y21250000D03*
X167250000Y21250000D03*
X178000000Y10250000D03*
X168750000Y28500000D03*
X174000000Y17000000D03*
X173250000Y41500000D03*
X173500000Y38750000D03*
D38*
X174500000Y47000000D03*
D25*
X172025490Y38747168D03*
X170272581Y31277360D03*
X171250000Y31250000D03*
X175000000Y10250000D03*
X153011100Y10250000D03*
X153988900Y10250000D03*
X149500000Y47250000D03*
X145750000Y44500000D03*
X149750000Y44500000D03*
X149000000Y41500000D03*
X145750000Y41500000D03*
X147750000Y28500000D03*
X150250000Y28500000D03*
X156000000Y21250000D03*
X144250000Y21250000D03*
X155000000Y10250000D03*
X145750000Y28500000D03*
X151000000Y17000000D03*
X150250000Y41500000D03*
X150500000Y38750000D03*
D38*
X151500000Y47000000D03*
D25*
X149025490Y38747168D03*
X147272581Y31277360D03*
X148250000Y31250000D03*
X152000000Y10250000D03*
X130011100Y10250000D03*
X130988900Y10250000D03*
X126500000Y47250000D03*
X122750000Y44500000D03*
X126750000Y44500000D03*
X126000000Y41500000D03*
X122750000Y41500000D03*
X124750000Y28500000D03*
X127250000Y28500000D03*
X133000000Y21250000D03*
X121250000Y21250000D03*
X132000000Y10250000D03*
X122750000Y28500000D03*
X128000000Y17000000D03*
X127250000Y41500000D03*
X127500000Y38750000D03*
D38*
X128500000Y47000000D03*
D25*
X126025490Y38747168D03*
X124272581Y31277360D03*
X125250000Y31250000D03*
X129000000Y10250000D03*
X107011100Y10250000D03*
X107988900Y10250000D03*
X103500000Y47250000D03*
X99750000Y44500000D03*
X103750000Y44500000D03*
X103000000Y41500000D03*
X99750000Y41500000D03*
X101750000Y28500000D03*
X104250000Y28500000D03*
X110000000Y21250000D03*
X98250000Y21250000D03*
X109000000Y10250000D03*
X99750000Y28500000D03*
X105000000Y17000000D03*
X104250000Y41500000D03*
X104500000Y38750000D03*
D38*
X105500000Y47000000D03*
D25*
X103025490Y38747168D03*
X101272581Y31277360D03*
X102250000Y31250000D03*
X106000000Y10250000D03*
X84011100Y10250000D03*
X84988900Y10250000D03*
X80500000Y47250000D03*
X76750000Y44500000D03*
X80750000Y44500000D03*
X80000000Y41500000D03*
X76750000Y41500000D03*
X78750000Y28500000D03*
X81250000Y28500000D03*
X87000000Y21250000D03*
X75250000Y21250000D03*
X86000000Y10250000D03*
X76750000Y28500000D03*
X82000000Y17000000D03*
X81250000Y41500000D03*
X81500000Y38750000D03*
D38*
X82500000Y47000000D03*
D25*
X80025490Y38747168D03*
X78272581Y31277360D03*
X79250000Y31250000D03*
X83000000Y10250000D03*
X61011100Y10250000D03*
X61988900Y10250000D03*
X57500000Y47250000D03*
X53750000Y44500000D03*
X57750000Y44500000D03*
X57000000Y41500000D03*
X53750000Y41500000D03*
X55750000Y28500000D03*
X58250000Y28500000D03*
X64000000Y21250000D03*
X52250000Y21250000D03*
X63000000Y10250000D03*
X53750000Y28500000D03*
X59000000Y17000000D03*
X58250000Y41500000D03*
X58500000Y38750000D03*
D38*
X59500000Y47000000D03*
D25*
X57025490Y38747168D03*
X55272581Y31277360D03*
X56250000Y31250000D03*
X60000000Y10250000D03*
X37000000Y10250000D03*
D39*
X182750000Y47750000D03*
D25*
X67000000Y69500000D03*
X149750000Y75750000D03*
X152250000Y74750000D03*
X71500000Y69000000D03*
X185250000Y17000000D03*
X162250000Y17000000D03*
X139250000Y17000000D03*
X116250000Y17000000D03*
X93250000Y17000000D03*
X70250000Y17000000D03*
X47250000Y17000000D03*
D36*
X17000000Y32540961D03*
X16577026Y75500000D03*
D25*
X159000000Y31500000D03*
X159000000Y113750000D03*
D36*
X23750000Y70941200D03*
X47500000Y67250000D03*
X11250000Y68250000D03*
X32000000Y62750000D03*
X28000000Y64250000D03*
X26750000Y46000000D03*
X10000000Y43000000D03*
X29250000Y40750000D03*
X10000000Y47000000D03*
X10000000Y45500000D03*
X12500000Y83750000D03*
X14000000Y83750000D03*
D25*
X67270287Y98783812D03*
D37*
X19000000Y80750000D03*
X19000000Y81750000D03*
X22000000Y82750000D03*
X22000000Y83750000D03*
X21250000Y84250000D03*
X20500000Y83750000D03*
D25*
X2000000Y56750000D03*
X2000000Y57500000D03*
X1250000Y58250000D03*
X1250000Y57500000D03*
X1250000Y56000000D03*
X2000000Y54500000D03*
X1250000Y54500000D03*
X2000000Y53750000D03*
X1250000Y53750000D03*
X2000000Y53000000D03*
X1250000Y53000000D03*
X1250000Y52250000D03*
X2000000Y52250000D03*
X2000000Y48500000D03*
X1250000Y48500000D03*
X1250000Y49250000D03*
X2000000Y49250000D03*
X2000000Y50000000D03*
X1250000Y50000000D03*
X1250000Y50750000D03*
X2000000Y50750000D03*
X2000000Y51500000D03*
X1250000Y51500000D03*
X1250000Y55250000D03*
X2000000Y58250000D03*
X1250000Y56750000D03*
X34750000Y115000000D03*
D37*
X47150000Y78750000D03*
X47150000Y82750000D03*
X47150000Y80750000D03*
X47150000Y83750000D03*
X47150000Y79750000D03*
X47150000Y81750000D03*
X47900000Y82250000D03*
X47900000Y84250000D03*
X47900000Y83250000D03*
X47900000Y81250000D03*
X47900000Y80250000D03*
X47900000Y79250000D03*
X47900000Y78250000D03*
X48650000Y81750000D03*
X48650000Y83750000D03*
X48650000Y82750000D03*
X48650000Y80750000D03*
X48650000Y79750000D03*
X48650000Y78750000D03*
X49400000Y84250000D03*
X49400000Y83250000D03*
X49400000Y82250000D03*
D25*
X51250000Y110750000D03*
D37*
X39000000Y117500000D03*
X39000000Y116500000D03*
X39000000Y115500000D03*
X39000000Y114500000D03*
X39000000Y113500000D03*
X39000000Y112500000D03*
X39000000Y111500000D03*
X39000000Y110500000D03*
X39000000Y109500000D03*
X39750000Y110000000D03*
X39750000Y111000000D03*
X39750000Y112000000D03*
X39750000Y113000000D03*
X39750000Y114000000D03*
X39750000Y115000000D03*
X39750000Y116000000D03*
X39750000Y117000000D03*
X40500000Y117500000D03*
X40500000Y116500000D03*
X40500000Y115500000D03*
X40500000Y114500000D03*
X40500000Y113500000D03*
X40500000Y112500000D03*
X40500000Y111500000D03*
X40500000Y110500000D03*
X40500000Y109500000D03*
D36*
X17000000Y85500000D03*
X9400000Y85100000D03*
D37*
X61500000Y75250000D03*
X55500000Y75250000D03*
X65500000Y75250000D03*
X66500000Y75250000D03*
X58500000Y75250000D03*
X67500000Y75250000D03*
X60500000Y75250000D03*
X57500000Y75250000D03*
X64500000Y75250000D03*
X59500000Y75250000D03*
X56500000Y75250000D03*
X62500000Y75250000D03*
X63500000Y75250000D03*
X57000000Y76000000D03*
X56000000Y76000000D03*
X58000000Y76000000D03*
X60000000Y76000000D03*
X61000000Y76000000D03*
X59000000Y76000000D03*
X63000000Y76000000D03*
X62000000Y76000000D03*
X64000000Y76000000D03*
X65000000Y76000000D03*
X66000000Y76000000D03*
X67000000Y76000000D03*
X67500000Y76750000D03*
X66500000Y76750000D03*
X65500000Y76750000D03*
X64500000Y76750000D03*
X63500000Y76750000D03*
X62500000Y76750000D03*
X61500000Y76750000D03*
X60500000Y76750000D03*
X59500000Y76750000D03*
X58500000Y76750000D03*
X57500000Y76750000D03*
X56500000Y76750000D03*
X55500000Y76750000D03*
D36*
X5000000Y57000000D03*
X6250000Y55750000D03*
D37*
X72250000Y75250000D03*
X86250000Y75250000D03*
X82250000Y75250000D03*
X81250000Y75250000D03*
X79250000Y75250000D03*
X73250000Y75250000D03*
X84250000Y75250000D03*
X83250000Y75250000D03*
X75250000Y75250000D03*
X85250000Y75250000D03*
X80250000Y75250000D03*
X78250000Y75250000D03*
X76250000Y75250000D03*
X87250000Y75250000D03*
X74250000Y75250000D03*
X71250000Y75250000D03*
X70250000Y75250000D03*
X77250000Y75250000D03*
X74750000Y76000000D03*
X72750000Y76000000D03*
X70750000Y76000000D03*
X73750000Y76000000D03*
X71750000Y76000000D03*
X78750000Y76000000D03*
X79750000Y76000000D03*
X80750000Y76000000D03*
X77750000Y76000000D03*
X76750000Y76000000D03*
X75750000Y76000000D03*
X85750000Y76000000D03*
X81750000Y76000000D03*
X83750000Y76000000D03*
X82750000Y76000000D03*
X84750000Y76000000D03*
X86750000Y76000000D03*
X87250000Y76750000D03*
X86250000Y76750000D03*
X85250000Y76750000D03*
X84250000Y76750000D03*
X83250000Y76750000D03*
X82250000Y76750000D03*
X80250000Y76750000D03*
X81250000Y76750000D03*
X79250000Y76750000D03*
X78250000Y76750000D03*
X77250000Y76750000D03*
X76250000Y76750000D03*
X75250000Y76750000D03*
X74250000Y76750000D03*
X73250000Y76750000D03*
X72250000Y76750000D03*
X71250000Y76750000D03*
X70250000Y76750000D03*
X21250000Y82250000D03*
X21250000Y83250000D03*
X19750000Y83250000D03*
X19750000Y82250000D03*
X19750000Y81250000D03*
X38750000Y95500000D03*
X37750000Y95500000D03*
X36750000Y95500000D03*
X38250000Y96250000D03*
X37250000Y96250000D03*
X36750000Y97000000D03*
X37750000Y97000000D03*
X38750000Y97000000D03*
X28250000Y98250000D03*
X27250000Y98250000D03*
X26250000Y98250000D03*
X25250000Y98250000D03*
X25750000Y97500000D03*
X26750000Y97500000D03*
X27750000Y97500000D03*
X28250000Y96750000D03*
X27250000Y96750000D03*
X26250000Y96750000D03*
X25250000Y96750000D03*
X33250000Y92000000D03*
X33250000Y91000000D03*
X32500000Y91500000D03*
X31750000Y92000000D03*
X31750000Y91000000D03*
X31000000Y91500000D03*
X30250000Y92000000D03*
X30250000Y91000000D03*
X29500000Y91500000D03*
X28750000Y92000000D03*
X28750000Y91000000D03*
X35250000Y75250000D03*
X34250000Y75250000D03*
X33250000Y75250000D03*
X32250000Y75250000D03*
X31250000Y75250000D03*
X30250000Y75250000D03*
X53350000Y104000000D03*
X51100000Y107500000D03*
X51100000Y104500000D03*
X53350000Y107000000D03*
X51100000Y106500000D03*
X53350000Y106000000D03*
X53350000Y105000000D03*
X51100000Y105500000D03*
X49600000Y105500000D03*
X50350000Y105000000D03*
X49600000Y104500000D03*
X49600000Y106500000D03*
X51850000Y106000000D03*
X51850000Y104000000D03*
X51850000Y105000000D03*
X51850000Y107000000D03*
X49600000Y107500000D03*
X50350000Y106000000D03*
X50350000Y104000000D03*
D36*
X21461172Y76250000D03*
D25*
X26800000Y44400000D03*
X45100000Y116400000D03*
X24000000Y101250000D03*
X35000000Y108000000D03*
X38500000Y105500000D03*
X38500000Y103500000D03*
X38000000Y101250000D03*
X40500000Y95750000D03*
D37*
X43750000Y89500000D03*
X27250000Y88750000D03*
X27000000Y76750000D03*
X26000000Y76750000D03*
D25*
X91000000Y110500000D03*
D36*
X6323014Y74684592D03*
D25*
X33250000Y31250000D03*
X67250000Y105000000D03*
X85750000Y86000000D03*
X27003053Y78986566D03*
X96500000Y101939799D03*
X96420302Y95759505D03*
X184239336Y95360238D03*
D37*
X52600000Y107500000D03*
X50350000Y107000000D03*
X52600000Y106500000D03*
D25*
X151000000Y80500000D03*
X127500000Y80500000D03*
X145500000Y86000000D03*
X122000000Y86000000D03*
X186500000Y90500000D03*
X187000000Y89000000D03*
X183750000Y89500000D03*
X182000000Y89500000D03*
X125250000Y82500000D03*
D36*
X5000000Y46750000D03*
X7500000Y49250000D03*
X6250000Y73500000D03*
X11250000Y81000000D03*
X17000000Y83750000D03*
X17000000Y81750000D03*
X16795000Y80455000D03*
X17500000Y38750000D03*
X13750000Y81000000D03*
X12500000Y80000000D03*
X17500000Y76904000D03*
X16741999Y53008001D03*
X11250000Y53000000D03*
X17750000Y57000000D03*
X11250000Y57000000D03*
X19000000Y60750000D03*
X20000000Y65000000D03*
X11250000Y64500000D03*
X17500000Y40250000D03*
D25*
X32272581Y31277360D03*
D36*
X15500000Y75500000D03*
X15250000Y56308800D03*
D25*
X34025490Y38747168D03*
D36*
X3600000Y38000000D03*
X3600000Y40400000D03*
X6200000Y38000000D03*
X5000000Y43000000D03*
X5000000Y45400000D03*
X3600000Y45400000D03*
X5000000Y48000000D03*
X3600000Y48200000D03*
X8800000Y58200000D03*
X12600000Y58200000D03*
X6200000Y64600000D03*
X10000000Y50600000D03*
X12600000Y50600000D03*
X12600000Y54400000D03*
X11200000Y55600000D03*
X8800000Y55600000D03*
X10000000Y57000000D03*
X5000000Y50600000D03*
X3600000Y50600000D03*
X2200000Y55800000D03*
X5000000Y58200000D03*
X6200000Y58200000D03*
X3800000Y60800000D03*
X5000000Y60600000D03*
X6200000Y60800000D03*
X12600000Y62000000D03*
X8800000Y64600000D03*
X5000000Y68400000D03*
X3600000Y65800000D03*
X5000000Y65800000D03*
X8800000Y67200000D03*
X10000000Y67200000D03*
X8800000Y71000000D03*
X12600000Y78600000D03*
X10000000Y77200000D03*
X12600000Y74800000D03*
X10000000Y74800000D03*
X2600000Y69600000D03*
X5000000Y78600000D03*
X2143224Y79456776D03*
X2400000Y80400000D03*
X3600000Y83600000D03*
X5000000Y83600000D03*
X11400000Y82400000D03*
X15200000Y83000000D03*
D25*
X24000000Y36400000D03*
D36*
X13800000Y48000000D03*
X11200000Y48000000D03*
X6250000Y69750000D03*
X11250000Y67000000D03*
X12500000Y67250000D03*
X13750000Y78500000D03*
D25*
X147750000Y87250000D03*
X146250000Y79250000D03*
X124250000Y87250000D03*
X122750000Y79250000D03*
X137250000Y86500000D03*
X137250000Y80000000D03*
X113750000Y86500000D03*
X113750000Y80000000D03*
X154500000Y80500000D03*
D36*
X11250000Y72250000D03*
D25*
X148750000Y82500000D03*
X146250000Y82500000D03*
X122750000Y82500000D03*
X143000000Y85000000D03*
X131000000Y80500000D03*
X119500000Y85000000D03*
X190750000Y116000000D03*
X140250000Y116000000D03*
D37*
X25000000Y76750000D03*
X24000000Y76750000D03*
X25000000Y114500000D03*
D25*
X26500000Y104500000D03*
X95750000Y89000000D03*
X95750000Y91000000D03*
X88750000Y106750000D03*
X92000000Y103500000D03*
X93250000Y103500000D03*
X97000000Y105250000D03*
X101250000Y92750000D03*
X98750000Y94250000D03*
X97250000Y92750000D03*
X91500000Y94500000D03*
X93250000Y94500000D03*
X92500000Y94500000D03*
X90250000Y90000000D03*
X187400000Y98550000D03*
X67250000Y91250000D03*
X67250000Y112750000D03*
X64500000Y112750000D03*
X64500000Y105750000D03*
X64500000Y98750000D03*
X64500000Y91750000D03*
D36*
X8780000Y63384477D03*
D37*
X36500000Y47000000D03*
D36*
X8700000Y82400000D03*
X8800000Y81100000D03*
X6200000Y77300000D03*
X6250000Y79750000D03*
D25*
X73000000Y112750000D03*
X73000000Y105750000D03*
X73000000Y98750000D03*
X73000000Y91750000D03*
X84750000Y107500000D03*
X83500000Y94250000D03*
X83000000Y104000000D03*
D36*
X8769157Y54482427D03*
X6200000Y83600000D03*
X6200000Y82400000D03*
X6200000Y78500000D03*
X8800000Y72200000D03*
D25*
X184250000Y98750000D03*
X191000000Y91000000D03*
X137750000Y96750000D03*
D37*
X20500000Y80750000D03*
X20500000Y82750000D03*
X20500000Y81750000D03*
D25*
X35500000Y38750000D03*
X35250000Y41500000D03*
X24250000Y17000000D03*
X36000000Y17000000D03*
X30750000Y28500000D03*
X30250000Y84500000D03*
D37*
X30250000Y114500000D03*
D25*
X91250000Y105750000D03*
X103500000Y102750000D03*
X91750000Y92000000D03*
D37*
X52600000Y104500000D03*
X52600000Y105500000D03*
D25*
X187500000Y91000000D03*
X149000000Y93750000D03*
X125500000Y93750000D03*
D37*
X49400000Y78250000D03*
X49400000Y79250000D03*
X49400000Y80250000D03*
X49400000Y81250000D03*
D25*
X87000000Y108750000D03*
D36*
X81750000Y96404000D03*
D37*
X25000000Y95000000D03*
D25*
X67250000Y111500000D03*
X67250000Y108250000D03*
X70250000Y108250000D03*
X70250000Y111750000D03*
X70250000Y104750000D03*
X70250000Y101250000D03*
X67250000Y101250000D03*
X67250000Y97750000D03*
X70250000Y97750000D03*
X70250000Y94250000D03*
X67250000Y94250000D03*
X67250000Y87250000D03*
X70250000Y87250000D03*
X70250000Y90750000D03*
X76250000Y91750000D03*
X76250000Y98750000D03*
X76250000Y105750000D03*
X76250000Y112750000D03*
X61250000Y112750000D03*
X61250000Y105750000D03*
X61250000Y98750000D03*
X61250000Y91750000D03*
X78250000Y95750000D03*
X81000000Y102500000D03*
X88750000Y113750000D03*
X93500000Y117750000D03*
X95750000Y114500000D03*
X86000000Y94500000D03*
X82250000Y91750000D03*
X85250000Y99250000D03*
X85250000Y102000000D03*
X86000000Y103500000D03*
D36*
X6250000Y48000000D03*
D25*
X40000000Y10250000D03*
X29250000Y21250000D03*
X41000000Y21250000D03*
X35250000Y28500000D03*
X32750000Y28500000D03*
X30750000Y41500000D03*
X34000000Y41500000D03*
X34750000Y44500000D03*
X30750000Y44500000D03*
X34500000Y47250000D03*
X38988900Y10250000D03*
X38011100Y10250000D03*
M02*
