M48
;DRILL file {KiCad (5.0.0-rc2-dev-86-gcd2224b94)} date Fri Apr 27 13:43:15 2018
;FORMAT={-:-/ absolute / inch / decimal}
FMAT,2
INCH,TZ
T1C0.0079
T2C0.0080
T3C0.0118
T4C0.0155
T5C0.0157
T6C0.0236
T7C0.0315
T8C0.0394
T9C0.0669
T10C0.1063
T11C0.1260
T12C0.0500
T13C0.0669
T14C0.1280
%
G90
G05
M72
T1
X1.0591Y3.2224
X1.0591Y3.1752
X1.0827Y3.1988
X1.1063Y3.2224
X1.1063Y3.1752
T2
X0.0844Y3.1282
X0.0866Y2.1969
X0.0945Y3.1654
X0.1024Y2.7402
X0.1417Y3.2913
X0.1417Y2.5906
X0.1417Y1.9921
X0.1417Y1.8976
X0.1417Y1.7874
X0.1417Y1.5906
X0.1417Y1.4961
X0.1424Y1.6922
X0.1457Y2.0433
X0.1476Y1.3937
X0.1496Y2.3937
X0.1949Y1.5902
X0.1969Y3.2913
X0.1969Y3.0945
X0.1969Y2.9941
X0.1969Y2.6929
X0.1969Y2.5906
X0.1969Y2.3858
X0.1969Y2.2913
X0.1969Y2.2441
X0.1969Y2.0433
X0.1969Y1.9921
X0.1969Y1.8898
X0.1969Y1.8406
X0.1969Y1.7874
X0.1969Y1.6929
X0.208Y2.7965
X0.2283Y1.3406
X0.2421Y1.8443
X0.243Y1.7903
X0.2441Y3.2913
X0.2441Y3.2441
X0.2441Y3.0906
X0.2441Y3.0433
X0.2441Y2.5433
X0.2441Y2.3937
X0.2441Y2.2913
X0.2441Y1.4961
X0.2461Y3.1398
X0.2461Y2.8937
X0.2461Y2.7461
X0.2461Y2.1949
X0.2461Y1.8898
X0.2489Y2.9403
X0.2907Y1.893
X0.2909Y1.6933
X0.291Y1.4933
X0.291Y1.5917
X0.291Y1.7917
X0.2913Y1.7435
X0.2946Y1.6444
X0.2953Y1.939
X0.3425Y3.2441
X0.3425Y1.4449
X0.3445Y1.7402
X0.3445Y1.939
X0.3449Y1.5929
X0.3452Y2.145
X0.3457Y2.4955
X0.3465Y1.9882
X0.3465Y3.1929
X0.3465Y2.8425
X0.3465Y2.7953
X0.3465Y2.6457
X0.3465Y2.5433
X0.3465Y2.2913
X0.3465Y2.189
X0.3485Y1.4961
X0.3504Y1.8976
X0.3513Y3.0425
X0.3701Y3.3504
X0.3902Y1.6423
X0.3937Y3.0394
X0.3937Y2.9449
X0.3937Y2.6457
X0.3937Y2.2441
X0.3937Y1.9921
X0.3937Y1.8504
X0.3937Y1.7913
X0.3937Y1.6929
X0.3937Y1.5397
X0.3937Y1.4889
X0.3944Y3.2966
X0.3947Y1.3995
X0.3976Y1.5906
X0.4028Y2.3373
X0.4383Y2.0394
X0.4409Y2.189
X0.4409Y1.8898
X0.4409Y1.5898
X0.4417Y1.4961
X0.4429Y3.189
X0.4429Y2.9429
X0.4429Y2.8445
X0.4429Y2.687
X0.4429Y2.6378
X0.4429Y2.5394
X0.4429Y2.2441
X0.4429Y2.0866
X0.444Y3.2962
X0.4444Y2.3384
X0.4449Y1.7953
X0.4449Y1.7441
X0.4449Y1.6417
X0.4483Y2.7899
X0.4488Y3.2441
X0.4921Y3.2972
X0.4921Y3.2382
X0.4921Y3.1496
X0.4921Y2.7913
X0.4921Y2.6989
X0.4921Y2.6476
X0.4921Y1.7441
X0.4939Y2.8454
X0.4961Y3.0945
X0.4961Y2.9449
X0.4961Y2.4409
X0.4961Y2.2913
X0.4961Y2.1417
X0.4961Y1.9921
X0.4961Y1.6457
X0.4961Y1.5906
X0.4961Y1.4902
X0.4966Y2.397
X0.4987Y1.6903
X0.5413Y3.189
X0.5413Y3.0906
X0.5413Y3.3465
X0.5426Y1.393
X0.5433Y1.8898
X0.5433Y1.5902
X0.5512Y3.2972
X0.5782Y1.0309
X0.5945Y1.5906
X0.5984Y3.2677
X0.5984Y1.4961
X0.6004Y2.5197
X0.6004Y2.2169
X0.6004Y2.0669
X0.6004Y2.8189
X0.6011Y2.6675
X0.6102Y3.0413
X0.6102Y2.9724
X0.6102Y2.3622
X0.6102Y1.7717
X0.6102Y1.0531
X0.6106Y1.4676
X0.6496Y1.1909
X0.6496Y1.1024
X0.6526Y2.9724
X0.6591Y2.0869
X0.6612Y3.1675
X0.6693Y3.3661
X0.6693Y3.2972
X0.6693Y3.2185
X0.6693Y3.1047
X0.6693Y1.2811
X0.6791Y1.3189
X0.6791Y1.122
X0.689Y3.0277
X0.689Y1.5846
X0.689Y1.5256
X0.6988Y2.2441
X0.6988Y1.3484
X0.7185Y1.939
X0.7382Y1.4665
X0.748Y2.9035
X0.748Y2.3917
X0.748Y1.25
X0.7579Y1.7618
X0.7579Y1.9193
X0.7579Y1.2008
X0.7677Y1.5079
X0.7677Y1.3484
X0.7776Y1.8799
X0.7874Y2.5591
X0.7972Y1.8406
X0.8268Y2.874
X0.8449Y3.002
X0.8661Y1.7224
X0.935Y2.793
X0.9744Y1.6634
X0.9843Y1.7126
X0.9941Y1.122
X1.0335Y1.2303
X1.0531Y1.811
X1.0728Y1.4053
X1.1024Y2.5295
X1.1516Y1.6043
X1.2205Y2.6083
X1.2598Y2.4705
X1.3583Y2.6476
X1.4075Y2.5492
X1.5846Y2.663
X1.8701Y2.6476
X1.9193Y2.663
X3.2185Y3.7954
X6.4173Y0.8858
X6.9291Y0.8858
X7.3228Y0.8858
X7.8543Y0.8858
T3
X7.2382Y3.6772
X7.2382Y3.6417
X7.2382Y3.6063
X7.2736Y3.6772
X7.2736Y3.6417
X7.2736Y3.6063
X7.3091Y3.6772
X7.3091Y3.6417
X7.3091Y3.6063
T4
X0.0492Y2.2933
X0.0492Y2.2638
X0.0492Y2.2343
X0.0492Y2.2047
X0.0492Y2.1752
X0.0492Y2.1457
X0.0492Y2.1161
X0.0492Y2.0866
X0.0492Y2.0571
X0.0492Y2.0276
X0.0492Y1.998
X0.0492Y1.9685
X0.0492Y1.939
X0.0492Y1.9094
X0.0787Y2.2933
X0.0787Y2.2638
X0.0787Y2.2343
X0.0787Y2.1457
X0.0787Y2.1161
X0.0787Y2.0866
X0.0787Y2.0571
X0.0787Y2.0276
X0.0787Y1.998
X0.0787Y1.9685
X0.0787Y1.939
X0.0787Y1.9094
X0.9449Y3.9862
X0.9449Y1.4331
X0.9547Y0.6693
X1.0433Y4.1142
X1.0551Y1.748
X1.0631Y3.1097
X1.1516Y0.8366
X1.1909Y3.3268
X1.2106Y1.752
X1.2106Y1.6339
X1.2106Y1.122
X1.2706Y1.2314
X1.2894Y1.122
X1.3091Y1.2303
X1.3386Y1.6339
X1.3396Y1.5255
X1.3583Y1.8602
X1.3681Y4.5276
X1.3681Y1.752
X1.378Y4.252
X1.3878Y1.6339
X1.3878Y1.122
X1.3976Y1.5256
X1.4173Y0.6693
X1.4567Y0.4035
X1.4961Y3.9862
X1.4965Y0.4035
X1.5157Y4.1535
X1.5157Y4.0748
X1.535Y0.4035
X1.5748Y0.4035
X1.5945Y3.7697
X1.6142Y0.8366
X1.7756Y4.5827
X1.8602Y0.6693
X2.0177Y4.3602
X2.0571Y0.8366
X2.1161Y1.752
X2.1161Y1.6339
X2.1161Y1.122
X2.1761Y1.2314
X2.1949Y1.122
X2.2146Y1.2303
X2.2441Y1.6339
X2.2451Y1.5255
X2.2638Y1.8602
X2.2736Y1.752
X2.2933Y1.6339
X2.2933Y1.122
X2.3031Y1.5256
X2.3228Y0.6693
X2.3425Y1.8504
X2.3622Y0.4035
X2.402Y0.4035
X2.4114Y4.439
X2.4114Y4.1634
X2.4114Y3.8878
X2.4114Y3.6122
X2.4405Y0.4035
X2.4803Y0.4035
X2.5197Y0.8366
X2.5394Y4.439
X2.5394Y4.1634
X2.5394Y3.8878
X2.5394Y3.6122
X2.6378Y2.7362
X2.6476Y4.439
X2.6476Y4.3898
X2.6476Y4.2618
X2.6476Y4.1339
X2.6476Y3.9862
X2.6476Y3.8484
X2.6476Y3.7106
X2.6476Y3.5925
X2.6476Y3.435
X2.6484Y3.8891
X2.7657Y4.3996
X2.7657Y4.2618
X2.7657Y4.124
X2.7657Y3.9862
X2.7657Y3.8484
X2.7657Y3.7106
X2.7657Y3.5728
X2.7657Y3.435
X2.7657Y0.6693
X2.815Y2.7165
X2.874Y4.439
X2.874Y4.1634
X2.874Y3.8878
X2.874Y3.6122
X2.9626Y0.8366
X3.002Y4.439
X3.002Y4.1634
X3.002Y3.8878
X3.002Y3.6122
X3.0217Y1.752
X3.0217Y1.6339
X3.0217Y1.122
X3.0807Y3.7697
X3.0816Y1.2314
X3.1004Y1.122
X3.1201Y1.2303
X3.1496Y1.6339
X3.1506Y1.5255
X3.1693Y1.8602
X3.1791Y1.752
X3.189Y4.0354
X3.1988Y1.6339
X3.1988Y1.122
X3.2087Y1.5256
X3.2283Y0.6693
X3.2382Y3.6122
X3.248Y1.8504
X3.2677Y4.0945
X3.2677Y0.4035
X3.2874Y3.7106
X3.3075Y0.4035
X3.3366Y4.2323
X3.346Y0.4035
X3.3563Y4.0157
X3.3563Y3.9075
X3.376Y3.3858
X3.3858Y4.0748
X3.3858Y3.7205
X3.3858Y0.4035
X3.4252Y4.2815
X3.4252Y0.8366
X3.4941Y4.4783
X3.4941Y4.2028
X3.5531Y3.5433
X3.5827Y4.3504
X3.5925Y4.1634
X3.6024Y3.7205
X3.6122Y3.622
X3.622Y4.0748
X3.6417Y3.7205
X3.6713Y4.0748
X3.6713Y3.7205
X3.6713Y0.6693
X3.6811Y4.6358
X3.7697Y4.5079
X3.7697Y3.5827
X3.7697Y3.5039
X3.7961Y3.7701
X3.7992Y4.0134
X3.8189Y4.1437
X3.8287Y3.6516
X3.8681Y0.8366
X3.8878Y3.7106
X3.9272Y1.752
X3.9272Y1.6339
X3.9272Y1.122
X3.9862Y3.6516
X3.9871Y1.2314
X4.0059Y1.122
X4.0256Y1.2303
X4.0551Y1.6339
X4.0561Y1.5255
X4.0748Y4.0453
X4.0748Y1.8602
X4.0846Y1.752
X4.1043Y1.6339
X4.1043Y1.122
X4.1142Y1.5256
X4.1339Y0.6693
X4.1535Y1.8504
X4.1732Y0.4035
X4.213Y0.4035
X4.2515Y0.4035
X4.2913Y0.4035
X4.3307Y0.8366
X4.4783Y3.4055
X4.4783Y3.1496
X4.5768Y0.6693
X4.7047Y3.3465
X4.7736Y0.8366
X4.8031Y3.3858
X4.8327Y3.248
X4.8327Y3.1201
X4.8327Y1.752
X4.8327Y1.6339
X4.8327Y1.122
X4.8917Y3.435
X4.8926Y1.2314
X4.9114Y1.122
X4.9311Y3.248
X4.9311Y1.2303
X4.9409Y3.6909
X4.9606Y1.6339
X4.9616Y1.5255
X4.9803Y1.8602
X4.9902Y1.752
X5.0098Y1.6339
X5.0098Y1.122
X5.0197Y3.1693
X5.0197Y1.5256
X5.0394Y0.6693
X5.0591Y1.8504
X5.0787Y0.4035
X5.1185Y0.4035
X5.157Y0.4035
X5.1575Y3.1693
X5.1969Y0.4035
X5.2362Y0.8366
X5.4035Y3.4055
X5.4035Y3.1496
X5.4232Y3.8091
X5.4823Y0.6693
X5.5217Y4.5669
X5.6299Y3.3465
X5.6791Y0.8366
X5.7283Y3.3858
X5.7382Y1.752
X5.7382Y1.6339
X5.7382Y1.122
X5.7579Y3.248
X5.7579Y3.1201
X5.7981Y1.2314
X5.8169Y3.435
X5.8169Y1.122
X5.8366Y1.2303
X5.8563Y3.248
X5.8661Y3.6909
X5.8661Y1.6339
X5.8671Y1.5255
X5.8858Y1.8602
X5.8957Y2.9823
X5.8957Y1.752
X5.9154Y1.6339
X5.9154Y1.122
X5.9252Y1.5256
X5.9449Y3.1693
X5.9449Y0.6693
X5.9646Y1.8504
X5.9843Y0.4035
X5.9941Y2.9429
X6.0241Y0.4035
X6.0626Y0.4035
X6.0827Y3.1693
X6.1024Y0.4035
X6.1417Y0.8366
X6.2598Y4.4783
X6.2598Y1.2402
X6.3878Y0.6693
X6.5846Y0.8366
X6.6437Y1.752
X6.6437Y1.6339
X6.6437Y1.122
X6.7036Y1.2314
X6.7224Y1.122
X6.7421Y1.2303
X6.7717Y1.6339
X6.7727Y1.5255
X6.7913Y1.8602
X6.8012Y1.752
X6.8209Y1.6339
X6.8209Y1.122
X6.8307Y1.5256
X6.8504Y0.6693
X6.8701Y1.8504
X6.8898Y0.4035
X6.9296Y0.4035
X6.9681Y0.4035
X7.0079Y0.4035
X7.0472Y0.8366
X7.1654Y3.5236
X7.2343Y3.5236
X7.2535Y3.7543
X7.2539Y3.8878
X7.2933Y0.6693
X7.3425Y3.563
X7.3622Y3.5039
X7.378Y3.8799
X7.3819Y3.5827
X7.4902Y0.8366
X7.5098Y4.5669
X7.5197Y3.5827
X7.5492Y1.752
X7.5492Y1.6339
X7.5492Y1.122
X7.6092Y1.2314
X7.628Y1.122
X7.6476Y1.2303
X7.6772Y1.6339
X7.6782Y1.5255
X7.6969Y1.8602
X7.7067Y1.752
X7.7264Y1.6339
X7.7264Y1.122
X7.7362Y1.5256
X7.7559Y0.6693
X7.7756Y1.8504
X7.7953Y0.4035
X7.8351Y0.4035
X7.8736Y0.4035
X7.9134Y0.4035
X7.9528Y0.8366
T5
X4.0059Y1.5059
X3.9764Y1.8996
X6.8701Y3.1378
X5.8661Y1.3583
X7.1063Y3.6713
X5.3937Y0.6772
X2.5Y4.311
X2.9134Y3.435
X3.9272Y1.8996
X1.2598Y1.8996
X5.3937Y0.185
X1.752Y1.0236
X2.4213Y1.0433
X2.1654Y1.8996
X2.9331Y4.6142
X2.4409Y2.7264
X2.4705Y2.8051
X7.628Y1.5059
X2.9134Y3.7303
X4.9114Y1.5059
X7.8543Y0.6772
X4.8819Y1.8996
X7.6772Y1.3583
X5.1181Y1.1693
X6.7421Y1.8996
X2.5Y3.7303
X5.4035Y2.9626
X3.9173Y3.6299
X2.6575Y1.8701
X4.9311Y1.8996
X8.2677Y3.6319
X3.1201Y1.8996
X1.9488Y3.6299
X8.2185Y1.1693
X4.9902Y4.4783
X6.6929Y1.8996
X4.9606Y1.3583
X4.5571Y1.1693
X5.9154Y1.3583
X1.3386Y1.3583
X2.2441Y1.3583
X7.185Y0.689
X7.0472Y1.8701
X2.1949Y1.5059
X4.1043Y1.3583
X2.9134Y3.7795
X7.2047Y2.7264
X2.9134Y3.8287
X4.4587Y1.8701
X5.0098Y1.3583
X3.4252Y2.7264
X3.1496Y1.3583
X4.9016Y4.6142
X6.7224Y1.5059
X5.8366Y1.8996
X4.8327Y1.8996
X4.4094Y4.6142
X7.5591Y4.1929
X7.2933Y1.1713
X3.9173Y4.6142
X1.2106Y1.8996
X6.3976Y1.1693
X2.2146Y1.8996
X3.563Y1.8701
X2.5Y4.3602
X4.4094Y0.185
X2.1161Y1.8996
X3.563Y0.6772
X1.3878Y1.3583
X6.378Y4.6142
X2.7854Y1.0827
X5.8858Y4.6142
X3.6909Y1.1122
X3.9173Y3.1378
X6.8701Y4.122
X2.9134Y4.1043
X7.5984Y1.8996
X6.7717Y1.3583
X2.5Y3.6811
X6.378Y4.122
X3.1004Y1.5059
X8.2677Y4.124
X2.5Y3.8287
X7.5492Y1.8996
X5.3937Y1.1693
X2.5Y3.4843
X7.7264Y1.3583
X1.4567Y4.122
X8.2185Y0.6772
X7.1063Y3.622
X3.4252Y4.6142
X2.9134Y3.6811
X6.378Y0.185
X3.1988Y1.3583
X7.1063Y3.5728
X6.6437Y1.8996
X0.9646Y4.6142
X1.6535Y1.8701
X1.2894Y1.5059
X2.5Y4.0059
X3.0217Y1.8996
X6.8209Y1.3583
X6.0236Y1.1713
X7.8543Y1.1693
X2.9134Y4.3602
X2.9134Y3.4843
X6.378Y2.9626
X5.4035Y1.8701
X0.8661Y0.6772
X4.4094Y0.6772
X2.5Y3.7795
X4.2224Y1.1693
X2.4409Y0.6772
X7.6476Y1.8996
X3.9173Y0.185
X5.7382Y1.8996
X2.9134Y4.0551
X2.2933Y1.3583
X6.378Y3.6299
X4.4094Y4.122
X2.9331Y2.7264
X2.4409Y4.6142
X4.0551Y1.3583
X4.9016Y0.185
X1.9488Y4.6142
X7.2047Y2.8051
X2.5Y3.5335
X2.5Y3.435
X1.3091Y1.8996
X4.4094Y3.1378
X2.9331Y3.1378
X6.9685Y4.4783
X0.8661Y0.9055
X1.4567Y4.6142
X2.4409Y3.1378
X1.4567Y3.189
X5.8858Y4.122
X4.9016Y4.122
X6.3091Y1.8701
X3.9173Y4.122
X3.4252Y3.1378
X5.7874Y1.8996
X2.5Y4.0551
X6.8701Y4.6142
X5.8169Y1.5059
X0.9646Y4.122
X4.0256Y1.8996
X2.9134Y4.0059
X1.752Y0.6772
X7.8543Y4.6142
X2.5Y4.1043
X3.0709Y1.8996
X5.561Y4.1929
X2.9134Y3.5335
X1.4567Y2.6457
T6
X0.7187Y3.1994
X0.748Y3.2185
X0.748Y3.1791
X0.7776Y3.2776
X0.7776Y3.2382
X0.7776Y3.1988
X0.8071Y3.2972
X0.8071Y3.2579
X0.8071Y3.2185
X0.8071Y3.1791
X0.8366Y3.3169
X0.8366Y3.2776
X0.8366Y3.2382
X0.8661Y3.2972
X0.8661Y3.2579
X0.9449Y3.0217
X0.9843Y4.5079
X0.9843Y3.7402
X0.9843Y3.0217
X0.9941Y3.8681
X0.9941Y3.8091
X1.0138Y3.8386
X1.0236Y3.0217
X1.0335Y3.8681
X1.0335Y3.8091
X1.0523Y3.4261
X1.0531Y3.8386
X1.0531Y3.4646
X1.063Y3.0217
X1.0728Y3.8681
X1.0728Y3.8091
X1.0728Y3.4941
X1.0925Y3.8386
X1.0925Y3.4646
X1.1122Y3.8681
X1.1122Y3.8091
X1.1319Y3.622
X1.1319Y3.5827
X1.1614Y3.6024
X1.1909Y4.5079
X1.1909Y3.622
X1.1909Y3.5827
X1.1909Y2.9626
X1.2106Y2.9365
X1.2205Y3.6024
X1.2303Y2.9626
X1.25Y3.622
X1.25Y3.5827
X1.25Y2.9365
X1.2697Y2.9626
X1.2795Y3.6024
X1.2894Y2.9365
X1.3091Y3.622
X1.3091Y3.5827
X1.3091Y2.9626
X1.3287Y2.9365
X1.3484Y2.9626
X1.3681Y2.9365
X1.3878Y2.9626
X1.4272Y3.4441
X1.437Y1.8504
X1.4469Y3.8189
X1.4469Y3.7598
X1.4665Y3.7894
X1.4862Y3.8189
X1.4862Y3.7598
X1.5059Y3.7894
X1.5256Y3.8189
X1.5256Y3.7598
X1.5354Y4.626
X1.5354Y4.5866
X1.5354Y4.5472
X1.5354Y4.5079
X1.5354Y4.4685
X1.5354Y4.4291
X1.5354Y4.3898
X1.5354Y4.3504
X1.5354Y4.311
X1.565Y4.6063
X1.565Y4.5669
X1.565Y4.5276
X1.565Y4.4882
X1.565Y4.4488
X1.565Y4.4094
X1.565Y4.3701
X1.565Y4.3307
X1.5945Y4.626
X1.5945Y4.5866
X1.5945Y4.5472
X1.5945Y4.5079
X1.5945Y4.4685
X1.5945Y4.4291
X1.5945Y4.3898
X1.5945Y4.3504
X1.5945Y4.311
X1.7224Y3.5236
X1.7815Y3.4141
X1.8563Y3.2972
X1.8563Y3.2579
X1.8563Y3.2185
X1.8563Y3.1791
X1.8563Y3.1398
X1.8563Y3.1004
X1.8858Y3.3169
X1.8858Y3.2776
X1.8858Y3.2382
X1.8858Y3.1988
X1.8858Y3.1594
X1.8858Y3.1201
X1.8858Y3.0807
X1.9154Y3.2972
X1.9154Y3.2579
X1.9154Y3.2185
X1.9154Y3.1791
X1.9154Y3.1398
X1.9154Y3.1004
X1.9449Y3.3169
X1.9449Y3.2776
X1.9449Y3.2382
X1.9449Y3.1988
X1.9449Y3.1594
X1.9449Y3.1201
X1.9449Y3.0807
X1.9528Y4.2323
X1.9528Y4.1929
X1.9528Y4.1535
X1.9528Y4.1142
X1.9823Y4.2126
X1.9823Y4.1732
X1.9823Y4.1339
X1.9823Y4.0945
X2.0118Y4.2323
X2.0118Y4.1929
X2.0118Y4.1535
X2.0118Y4.1142
X2.0413Y4.2126
X2.0413Y4.1732
X2.0413Y4.1339
X2.0413Y4.0945
X2.0709Y4.2323
X2.0709Y4.1929
X2.0709Y4.1535
X2.0709Y4.1142
X2.1004Y4.2126
X2.1004Y4.1732
X2.1004Y4.1339
X2.1004Y4.0945
X2.185Y3.0217
X2.185Y2.9626
X2.2047Y2.9921
X2.2244Y3.0217
X2.2244Y2.9626
X2.2441Y2.9921
X2.2638Y3.0217
X2.2638Y2.9626
X2.2835Y2.9921
X2.3031Y3.0217
X2.3031Y2.9626
X2.3228Y2.9921
X2.3425Y3.0217
X2.3425Y2.9626
X2.3622Y2.9921
X2.3819Y3.0217
X2.3819Y2.9626
X2.4016Y2.9921
X2.4213Y3.0217
X2.4213Y2.9626
X2.4409Y2.9921
X2.4606Y3.0217
X2.4606Y2.9626
X2.4803Y2.9921
X2.5Y3.0217
X2.5Y2.9626
X2.5197Y2.9921
X2.5394Y3.0217
X2.5394Y2.9626
X2.5591Y2.9921
X2.5787Y3.0217
X2.5787Y2.9626
X2.5984Y2.9921
X2.6181Y3.0217
X2.6181Y2.9626
X2.6378Y2.9921
X2.6575Y3.0217
X2.6575Y2.9626
X2.7657Y3.0217
X2.7657Y2.9626
X2.7854Y2.9921
X2.8051Y3.0217
X2.8051Y2.9626
X2.8248Y2.9921
X2.8445Y3.0217
X2.8445Y2.9626
X2.8642Y2.9921
X2.8839Y3.0217
X2.8839Y2.9626
X2.9035Y2.9921
X2.9232Y3.0217
X2.9232Y2.9626
X2.9429Y2.9921
X2.9626Y3.0217
X2.9626Y2.9626
X2.9823Y2.9921
X3.002Y3.0217
X3.002Y2.9626
X3.0217Y2.9921
X3.0413Y3.0217
X3.0413Y2.9626
X3.061Y2.9921
X3.0807Y3.0217
X3.0807Y2.9626
X3.1004Y2.9921
X3.1201Y3.0217
X3.1201Y2.9626
X3.1398Y2.9921
X3.1594Y3.0217
X3.1594Y2.9626
X3.1791Y2.9921
X3.1988Y3.0217
X3.1988Y2.9626
X3.2185Y2.9921
X3.2382Y3.0217
X3.2382Y2.9626
X3.2579Y2.9921
X3.2776Y3.0217
X3.2776Y2.9626
X3.2972Y2.9921
X3.3169Y3.0217
X3.3169Y2.9626
X3.3366Y2.9921
X3.3563Y3.0217
X3.3563Y2.9626
X3.376Y2.9921
X3.3957Y3.0217
X3.3957Y2.9626
X3.4154Y2.9921
X3.435Y3.0217
X3.435Y2.9626
T7
X6.4622Y0.5398
X6.5524Y0.5398
X6.5917Y0.35
X6.6319Y0.2799
X6.672Y0.35
X6.7122Y0.2799
X6.7528Y0.35
X6.7925Y0.2799
X6.8327Y0.35
X6.8728Y0.2799
X6.9122Y0.5398
X7.0024Y0.5398
X1.9346Y0.5398
X2.0248Y0.5398
X2.0642Y0.35
X2.1043Y0.2799
X2.1445Y0.35
X2.1846Y0.2799
X2.2252Y0.35
X2.265Y0.2799
X2.3051Y0.35
X2.3453Y0.2799
X2.3846Y0.5398
X2.4748Y0.5398
X2.8402Y0.5398
X2.9303Y0.5398
X2.9697Y0.35
X3.0098Y0.2799
X3.05Y0.35
X3.0902Y0.2799
X3.1307Y0.35
X3.1705Y0.2799
X3.2106Y0.35
X3.2508Y0.2799
X3.2902Y0.5398
X3.3803Y0.5398
X5.5567Y0.5398
X5.6469Y0.5398
X5.6862Y0.35
X5.7264Y0.2799
X5.7665Y0.35
X5.8067Y0.2799
X5.8472Y0.35
X5.887Y0.2799
X5.9272Y0.35
X5.9673Y0.2799
X6.0067Y0.5398
X6.0969Y0.5398
X3.7457Y0.5398
X3.8358Y0.5398
X3.8752Y0.35
X3.9154Y0.2799
X3.9555Y0.35
X3.9957Y0.2799
X4.0362Y0.35
X4.076Y0.2799
X4.1161Y0.35
X4.1563Y0.2799
X4.1957Y0.5398
X4.2858Y0.5398
X7.3677Y0.5398
X7.4579Y0.5398
X7.4972Y0.35
X7.5374Y0.2799
X7.5776Y0.35
X7.6177Y0.2799
X7.6583Y0.35
X7.698Y0.2799
X7.7382Y0.35
X7.7783Y0.2799
X7.8177Y0.5398
X7.9079Y0.5398
X4.6512Y0.5398
X4.7413Y0.5398
X4.7807Y0.35
X4.8209Y0.2799
X4.861Y0.35
X4.9012Y0.2799
X4.9417Y0.35
X4.9815Y0.2799
X5.0217Y0.35
X5.0618Y0.2799
X5.1012Y0.5398
X5.1913Y0.5398
X1.0291Y0.5398
X1.1193Y0.5398
X1.1587Y0.35
X1.1988Y0.2799
X1.239Y0.35
X1.2791Y0.2799
X1.3197Y0.35
X1.3594Y0.2799
X1.3996Y0.35
X1.4398Y0.2799
X1.4791Y0.5398
X1.5693Y0.5398
T8
X7.1949Y1.8799
X8.1693Y3.3961
X8.1693Y3.2961
X8.1693Y3.1961
X8.1693Y3.0961
X8.1693Y2.9961
X8.1693Y2.8961
X8.1693Y2.7961
X8.1693Y2.6961
X8.1693Y2.5961
X8.1693Y2.4961
X8.1693Y2.3961
X8.1693Y2.2961
X8.1693Y2.1961
X8.1693Y2.0961
X8.1693Y1.9961
X8.1693Y1.8961
X8.1693Y1.7961
X8.1693Y1.6961
X8.1693Y1.5961
X8.1693Y1.4961
X8.2693Y3.3961
X8.2693Y3.2961
X8.2693Y3.1961
X8.2693Y3.0961
X8.2693Y2.9961
X8.2693Y2.8961
X8.2693Y2.7961
X8.2693Y2.6961
X8.2693Y2.5961
X8.2693Y2.4961
X8.2693Y2.3961
X8.2693Y2.2961
X8.2693Y2.1961
X8.2693Y2.0961
X8.2693Y1.9961
X8.2693Y1.8961
X8.2693Y1.7961
X8.2693Y1.6961
X8.2693Y1.5961
X8.2693Y1.4961
X5.3248Y3.7106
X5.4248Y3.7106
X5.5248Y3.7106
T9
X7.3179Y0.315
X7.9577Y0.315
X4.6014Y0.315
X5.2411Y0.315
X0.9793Y0.315
X1.6191Y0.315
X6.4124Y0.315
X7.0522Y0.315
X1.8848Y0.315
X2.5246Y0.315
X2.7904Y0.315
X3.4301Y0.315
X5.5069Y0.315
X6.1467Y0.315
X3.6959Y0.315
X4.3356Y0.315
T10
X0.4236Y1.1024
X0.4236Y3.5827
T11
X8.2185Y0.1476
X8.2185Y4.5374
T12
X0.3457Y1.272
X0.4657Y3.413
T13
X5.2756Y4.5197
X5.2756Y4.2441
X7.2638Y4.5197
X7.2638Y4.2441
T14
X6.4823Y0.1799
X6.9823Y0.1799
X1.9547Y0.1799
X2.4547Y0.1799
X2.8602Y0.1799
X3.3602Y0.1799
X5.5768Y0.1799
X6.0768Y0.1799
X3.7657Y0.1799
X4.2657Y0.1799
X7.3878Y0.1799
X7.8878Y0.1799
X4.6713Y0.1799
X5.1713Y0.1799
X1.0492Y0.1799
X1.5492Y0.1799
T0
M30
