G04 #@! TF.GenerationSoftware,KiCad,Pcbnew,(5.0.0-rc2-dev-86-gcd2224b94)*
G04 #@! TF.CreationDate,2018-04-27T13:43:40-06:00*
G04 #@! TF.ProjectId,audio_beamforming_daughter_board,617564696F5F6265616D666F726D696E,1*
G04 #@! TF.SameCoordinates,PX175d720PY88601c0*
G04 #@! TF.FileFunction,Other,Comment*
%FSLAX46Y46*%
G04 Gerber Fmt 4.6, Leading zero omitted, Abs format (unit mm)*
G04 Created by KiCad (PCBNEW (5.0.0-rc2-dev-86-gcd2224b94)) date Fri Apr 27 13:43:40 2018*
%MOMM*%
%LPD*%
G01*
G04 APERTURE LIST*
%ADD10C,0.300000*%
%ADD11C,0.150000*%
G04 APERTURE END LIST*
D10*
X-4983572Y-2628571D02*
X-5126429Y-2557142D01*
X-5197858Y-2414285D01*
X-5197858Y-1128571D01*
X-3769286Y-2628571D02*
X-3769286Y-1842857D01*
X-3840715Y-1700000D01*
X-3983572Y-1628571D01*
X-4269286Y-1628571D01*
X-4412143Y-1700000D01*
X-3769286Y-2557142D02*
X-3912143Y-2628571D01*
X-4269286Y-2628571D01*
X-4412143Y-2557142D01*
X-4483572Y-2414285D01*
X-4483572Y-2271428D01*
X-4412143Y-2128571D01*
X-4269286Y-2057142D01*
X-3912143Y-2057142D01*
X-3769286Y-1985714D01*
X-3197858Y-1628571D02*
X-2840715Y-2628571D01*
X-2483572Y-1628571D02*
X-2840715Y-2628571D01*
X-2983572Y-2985714D01*
X-3055000Y-3057142D01*
X-3197858Y-3128571D01*
X-1340715Y-2557142D02*
X-1483572Y-2628571D01*
X-1769286Y-2628571D01*
X-1912143Y-2557142D01*
X-1983572Y-2414285D01*
X-1983572Y-1842857D01*
X-1912143Y-1700000D01*
X-1769286Y-1628571D01*
X-1483572Y-1628571D01*
X-1340715Y-1700000D01*
X-1269286Y-1842857D01*
X-1269286Y-1985714D01*
X-1983572Y-2128571D01*
X-626429Y-2628571D02*
X-626429Y-1628571D01*
X-626429Y-1914285D02*
X-555000Y-1771428D01*
X-483572Y-1700000D01*
X-340715Y-1628571D01*
X-197858Y-1628571D01*
X10587857Y-2628571D02*
X10587857Y-1628571D01*
X10587857Y-1771428D02*
X10659285Y-1700000D01*
X10802142Y-1628571D01*
X11016428Y-1628571D01*
X11159285Y-1700000D01*
X11230714Y-1842857D01*
X11230714Y-2628571D01*
X11230714Y-1842857D02*
X11302142Y-1700000D01*
X11444999Y-1628571D01*
X11659285Y-1628571D01*
X11802142Y-1700000D01*
X11873571Y-1842857D01*
X11873571Y-2628571D01*
X13230714Y-2628571D02*
X13230714Y-1842857D01*
X13159285Y-1700000D01*
X13016428Y-1628571D01*
X12730714Y-1628571D01*
X12587857Y-1700000D01*
X13230714Y-2557142D02*
X13087857Y-2628571D01*
X12730714Y-2628571D01*
X12587857Y-2557142D01*
X12516428Y-2414285D01*
X12516428Y-2271428D01*
X12587857Y-2128571D01*
X12730714Y-2057142D01*
X13087857Y-2057142D01*
X13230714Y-1985714D01*
X13730714Y-1628571D02*
X14302142Y-1628571D01*
X13945000Y-1128571D02*
X13945000Y-2414285D01*
X14016428Y-2557142D01*
X14159285Y-2628571D01*
X14302142Y-2628571D01*
X15373571Y-2557142D02*
X15230714Y-2628571D01*
X14945000Y-2628571D01*
X14802142Y-2557142D01*
X14730714Y-2414285D01*
X14730714Y-1842857D01*
X14802142Y-1700000D01*
X14945000Y-1628571D01*
X15230714Y-1628571D01*
X15373571Y-1700000D01*
X15445000Y-1842857D01*
X15445000Y-1985714D01*
X14730714Y-2128571D01*
X16087857Y-2628571D02*
X16087857Y-1628571D01*
X16087857Y-1914285D02*
X16159285Y-1771428D01*
X16230714Y-1700000D01*
X16373571Y-1628571D01*
X16516428Y-1628571D01*
X17016428Y-2628571D02*
X17016428Y-1628571D01*
X17016428Y-1128571D02*
X16945000Y-1200000D01*
X17016428Y-1271428D01*
X17087857Y-1200000D01*
X17016428Y-1128571D01*
X17016428Y-1271428D01*
X18373571Y-2628571D02*
X18373571Y-1842857D01*
X18302142Y-1700000D01*
X18159285Y-1628571D01*
X17873571Y-1628571D01*
X17730714Y-1700000D01*
X18373571Y-2557142D02*
X18230714Y-2628571D01*
X17873571Y-2628571D01*
X17730714Y-2557142D01*
X17659285Y-2414285D01*
X17659285Y-2271428D01*
X17730714Y-2128571D01*
X17873571Y-2057142D01*
X18230714Y-2057142D01*
X18373571Y-1985714D01*
X19302142Y-2628571D02*
X19159285Y-2557142D01*
X19087857Y-2414285D01*
X19087857Y-1128571D01*
X32230714Y-1628571D02*
X32802142Y-1628571D01*
X32444999Y-1128571D02*
X32444999Y-2414285D01*
X32516428Y-2557142D01*
X32659285Y-2628571D01*
X32802142Y-2628571D01*
X33302142Y-2628571D02*
X33302142Y-1128571D01*
X33944999Y-2628571D02*
X33944999Y-1842857D01*
X33873571Y-1700000D01*
X33730714Y-1628571D01*
X33516428Y-1628571D01*
X33373571Y-1700000D01*
X33302142Y-1771428D01*
X34659285Y-2628571D02*
X34659285Y-1628571D01*
X34659285Y-1128571D02*
X34587857Y-1200000D01*
X34659285Y-1271428D01*
X34730714Y-1200000D01*
X34659285Y-1128571D01*
X34659285Y-1271428D01*
X36016428Y-2557142D02*
X35873571Y-2628571D01*
X35587857Y-2628571D01*
X35444999Y-2557142D01*
X35373571Y-2485714D01*
X35302142Y-2342857D01*
X35302142Y-1914285D01*
X35373571Y-1771428D01*
X35444999Y-1700000D01*
X35587857Y-1628571D01*
X35873571Y-1628571D01*
X36016428Y-1700000D01*
X36659285Y-2628571D02*
X36659285Y-1128571D01*
X36802142Y-2057142D02*
X37230714Y-2628571D01*
X37230714Y-1628571D02*
X36659285Y-2200000D01*
X37873571Y-1628571D02*
X37873571Y-2628571D01*
X37873571Y-1771428D02*
X37944999Y-1700000D01*
X38087857Y-1628571D01*
X38302142Y-1628571D01*
X38444999Y-1700000D01*
X38516428Y-1842857D01*
X38516428Y-2628571D01*
X39802142Y-2557142D02*
X39659285Y-2628571D01*
X39373571Y-2628571D01*
X39230714Y-2557142D01*
X39159285Y-2414285D01*
X39159285Y-1842857D01*
X39230714Y-1700000D01*
X39373571Y-1628571D01*
X39659285Y-1628571D01*
X39802142Y-1700000D01*
X39873571Y-1842857D01*
X39873571Y-1985714D01*
X39159285Y-2128571D01*
X40444999Y-2557142D02*
X40587857Y-2628571D01*
X40873571Y-2628571D01*
X41016428Y-2557142D01*
X41087857Y-2414285D01*
X41087857Y-2342857D01*
X41016428Y-2200000D01*
X40873571Y-2128571D01*
X40659285Y-2128571D01*
X40516428Y-2057142D01*
X40444999Y-1914285D01*
X40444999Y-1842857D01*
X40516428Y-1700000D01*
X40659285Y-1628571D01*
X40873571Y-1628571D01*
X41016428Y-1700000D01*
X41659285Y-2557142D02*
X41802142Y-2628571D01*
X42087857Y-2628571D01*
X42230714Y-2557142D01*
X42302142Y-2414285D01*
X42302142Y-2342857D01*
X42230714Y-2200000D01*
X42087857Y-2128571D01*
X41873571Y-2128571D01*
X41730714Y-2057142D01*
X41659285Y-1914285D01*
X41659285Y-1842857D01*
X41730714Y-1700000D01*
X41873571Y-1628571D01*
X42087857Y-1628571D01*
X42230714Y-1700000D01*
X-5197858Y-4607142D02*
X-4055000Y-4607142D01*
X-3340715Y-4607142D02*
X-2197858Y-4607142D01*
X-1483572Y-4607142D02*
X-340715Y-4607142D01*
X373571Y-4607142D02*
X1516428Y-4607142D01*
X2230714Y-4607142D02*
X3373571Y-4607142D01*
X4087857Y-4607142D02*
X5230714Y-4607142D01*
X5945000Y-4607142D02*
X7087857Y-4607142D01*
X7802142Y-4607142D02*
X8945000Y-4607142D01*
X9659285Y-4607142D02*
X10802142Y-4607142D01*
X11516428Y-4607142D02*
X12659285Y-4607142D01*
X13373571Y-4607142D02*
X14516428Y-4607142D01*
X15230714Y-4607142D02*
X16373571Y-4607142D01*
X17087857Y-4607142D02*
X18230714Y-4607142D01*
X18945000Y-4607142D02*
X20087857Y-4607142D01*
X20802142Y-4607142D02*
X21945000Y-4607142D01*
X22659285Y-4607142D02*
X23802142Y-4607142D01*
X24516428Y-4607142D02*
X25659285Y-4607142D01*
X26373571Y-4607142D02*
X27516428Y-4607142D01*
X28230714Y-4607142D02*
X29373571Y-4607142D01*
X30087857Y-4607142D02*
X31230714Y-4607142D01*
X31945000Y-4607142D02*
X33087857Y-4607142D01*
X33802142Y-4607142D02*
X34945000Y-4607142D01*
X35659285Y-4607142D02*
X36802142Y-4607142D01*
X37516428Y-4607142D02*
X38659285Y-4607142D01*
X39373571Y-4607142D02*
X40516428Y-4607142D01*
X41230714Y-4607142D02*
X42373571Y-4607142D01*
X43087857Y-4607142D02*
X44230714Y-4607142D01*
X44945000Y-4607142D02*
X46087857Y-4607142D01*
X46802142Y-4607142D02*
X47945000Y-4607142D01*
X48659285Y-4607142D02*
X49802142Y-4607142D01*
X50516428Y-4607142D02*
X51659285Y-4607142D01*
X52373571Y-4607142D02*
X53516428Y-4607142D01*
X-4983572Y-7728571D02*
X-5126429Y-7657142D01*
X-5197858Y-7514285D01*
X-5197858Y-6228571D01*
X-3769286Y-7728571D02*
X-3769286Y-6942857D01*
X-3840715Y-6800000D01*
X-3983572Y-6728571D01*
X-4269286Y-6728571D01*
X-4412143Y-6800000D01*
X-3769286Y-7657142D02*
X-3912143Y-7728571D01*
X-4269286Y-7728571D01*
X-4412143Y-7657142D01*
X-4483572Y-7514285D01*
X-4483572Y-7371428D01*
X-4412143Y-7228571D01*
X-4269286Y-7157142D01*
X-3912143Y-7157142D01*
X-3769286Y-7085714D01*
X-3197858Y-6728571D02*
X-2840715Y-7728571D01*
X-2483572Y-6728571D02*
X-2840715Y-7728571D01*
X-2983572Y-8085714D01*
X-3055000Y-8157142D01*
X-3197858Y-8228571D01*
X-1340715Y-7657142D02*
X-1483572Y-7728571D01*
X-1769286Y-7728571D01*
X-1912143Y-7657142D01*
X-1983572Y-7514285D01*
X-1983572Y-6942857D01*
X-1912143Y-6800000D01*
X-1769286Y-6728571D01*
X-1483572Y-6728571D01*
X-1340715Y-6800000D01*
X-1269286Y-6942857D01*
X-1269286Y-7085714D01*
X-1983572Y-7228571D01*
X-626429Y-7728571D02*
X-626429Y-6728571D01*
X-626429Y-7014285D02*
X-555000Y-6871428D01*
X-483572Y-6800000D01*
X-340715Y-6728571D01*
X-197858Y-6728571D01*
X2230714Y-7728571D02*
X1373571Y-7728571D01*
X1802142Y-7728571D02*
X1802142Y-6228571D01*
X1659285Y-6442857D01*
X1516428Y-6585714D01*
X1373571Y-6657142D01*
X10373571Y-7657142D02*
X10230714Y-7728571D01*
X9944999Y-7728571D01*
X9802142Y-7657142D01*
X9730714Y-7585714D01*
X9659285Y-7442857D01*
X9659285Y-7014285D01*
X9730714Y-6871428D01*
X9802142Y-6800000D01*
X9944999Y-6728571D01*
X10230714Y-6728571D01*
X10373571Y-6800000D01*
X11230714Y-7728571D02*
X11087857Y-7657142D01*
X11016428Y-7585714D01*
X10944999Y-7442857D01*
X10944999Y-7014285D01*
X11016428Y-6871428D01*
X11087857Y-6800000D01*
X11230714Y-6728571D01*
X11444999Y-6728571D01*
X11587857Y-6800000D01*
X11659285Y-6871428D01*
X11730714Y-7014285D01*
X11730714Y-7442857D01*
X11659285Y-7585714D01*
X11587857Y-7657142D01*
X11444999Y-7728571D01*
X11230714Y-7728571D01*
X12373571Y-6728571D02*
X12373571Y-8228571D01*
X12373571Y-6800000D02*
X12516428Y-6728571D01*
X12802142Y-6728571D01*
X12944999Y-6800000D01*
X13016428Y-6871428D01*
X13087857Y-7014285D01*
X13087857Y-7442857D01*
X13016428Y-7585714D01*
X12944999Y-7657142D01*
X12802142Y-7728571D01*
X12516428Y-7728571D01*
X12373571Y-7657142D01*
X13730714Y-6728571D02*
X13730714Y-8228571D01*
X13730714Y-6800000D02*
X13873571Y-6728571D01*
X14159285Y-6728571D01*
X14302142Y-6800000D01*
X14373571Y-6871428D01*
X14444999Y-7014285D01*
X14444999Y-7442857D01*
X14373571Y-7585714D01*
X14302142Y-7657142D01*
X14159285Y-7728571D01*
X13873571Y-7728571D01*
X13730714Y-7657142D01*
X15659285Y-7657142D02*
X15516428Y-7728571D01*
X15230714Y-7728571D01*
X15087857Y-7657142D01*
X15016428Y-7514285D01*
X15016428Y-6942857D01*
X15087857Y-6800000D01*
X15230714Y-6728571D01*
X15516428Y-6728571D01*
X15659285Y-6800000D01*
X15730714Y-6942857D01*
X15730714Y-7085714D01*
X15016428Y-7228571D01*
X16373571Y-7728571D02*
X16373571Y-6728571D01*
X16373571Y-7014285D02*
X16445000Y-6871428D01*
X16516428Y-6800000D01*
X16659285Y-6728571D01*
X16802142Y-6728571D01*
X32944999Y-7728571D02*
X32087857Y-7728571D01*
X32516428Y-7728571D02*
X32516428Y-6228571D01*
X32373571Y-6442857D01*
X32230714Y-6585714D01*
X32087857Y-6657142D01*
X33587857Y-7585714D02*
X33659285Y-7657142D01*
X33587857Y-7728571D01*
X33516428Y-7657142D01*
X33587857Y-7585714D01*
X33587857Y-7728571D01*
X34159285Y-6228571D02*
X35087857Y-6228571D01*
X34587857Y-6800000D01*
X34802142Y-6800000D01*
X34944999Y-6871428D01*
X35016428Y-6942857D01*
X35087857Y-7085714D01*
X35087857Y-7442857D01*
X35016428Y-7585714D01*
X34944999Y-7657142D01*
X34802142Y-7728571D01*
X34373571Y-7728571D01*
X34230714Y-7657142D01*
X34159285Y-7585714D01*
X36444999Y-6228571D02*
X35730714Y-6228571D01*
X35659285Y-6942857D01*
X35730714Y-6871428D01*
X35873571Y-6800000D01*
X36230714Y-6800000D01*
X36373571Y-6871428D01*
X36444999Y-6942857D01*
X36516428Y-7085714D01*
X36516428Y-7442857D01*
X36444999Y-7585714D01*
X36373571Y-7657142D01*
X36230714Y-7728571D01*
X35873571Y-7728571D01*
X35730714Y-7657142D01*
X35659285Y-7585714D01*
X38302142Y-7728571D02*
X38302142Y-6728571D01*
X38302142Y-6871428D02*
X38373571Y-6800000D01*
X38516428Y-6728571D01*
X38730714Y-6728571D01*
X38873571Y-6800000D01*
X38944999Y-6942857D01*
X38944999Y-7728571D01*
X38944999Y-6942857D02*
X39016428Y-6800000D01*
X39159285Y-6728571D01*
X39373571Y-6728571D01*
X39516428Y-6800000D01*
X39587857Y-6942857D01*
X39587857Y-7728571D01*
X40302142Y-7728571D02*
X40302142Y-6728571D01*
X40302142Y-6228571D02*
X40230714Y-6300000D01*
X40302142Y-6371428D01*
X40373571Y-6300000D01*
X40302142Y-6228571D01*
X40302142Y-6371428D01*
X41230714Y-7728571D02*
X41087857Y-7657142D01*
X41016428Y-7514285D01*
X41016428Y-6228571D01*
X-5197858Y-9707142D02*
X-4055000Y-9707142D01*
X-3340715Y-9707142D02*
X-2197858Y-9707142D01*
X-1483572Y-9707142D02*
X-340715Y-9707142D01*
X373571Y-9707142D02*
X1516428Y-9707142D01*
X2230714Y-9707142D02*
X3373571Y-9707142D01*
X4087857Y-9707142D02*
X5230714Y-9707142D01*
X5945000Y-9707142D02*
X7087857Y-9707142D01*
X7802142Y-9707142D02*
X8945000Y-9707142D01*
X9659285Y-9707142D02*
X10802142Y-9707142D01*
X11516428Y-9707142D02*
X12659285Y-9707142D01*
X13373571Y-9707142D02*
X14516428Y-9707142D01*
X15230714Y-9707142D02*
X16373571Y-9707142D01*
X17087857Y-9707142D02*
X18230714Y-9707142D01*
X18945000Y-9707142D02*
X20087857Y-9707142D01*
X20802142Y-9707142D02*
X21945000Y-9707142D01*
X22659285Y-9707142D02*
X23802142Y-9707142D01*
X24516428Y-9707142D02*
X25659285Y-9707142D01*
X26373571Y-9707142D02*
X27516428Y-9707142D01*
X28230714Y-9707142D02*
X29373571Y-9707142D01*
X30087857Y-9707142D02*
X31230714Y-9707142D01*
X31945000Y-9707142D02*
X33087857Y-9707142D01*
X33802142Y-9707142D02*
X34945000Y-9707142D01*
X35659285Y-9707142D02*
X36802142Y-9707142D01*
X37516428Y-9707142D02*
X38659285Y-9707142D01*
X39373571Y-9707142D02*
X40516428Y-9707142D01*
X41230714Y-9707142D02*
X42373571Y-9707142D01*
X43087857Y-9707142D02*
X44230714Y-9707142D01*
X44945000Y-9707142D02*
X46087857Y-9707142D01*
X46802142Y-9707142D02*
X47945000Y-9707142D01*
X48659285Y-9707142D02*
X49802142Y-9707142D01*
X50516428Y-9707142D02*
X51659285Y-9707142D01*
X52373571Y-9707142D02*
X53516428Y-9707142D01*
X-5197858Y-11828571D02*
X-5197858Y-13328571D01*
X-5197858Y-11900000D02*
X-5055000Y-11828571D01*
X-4769286Y-11828571D01*
X-4626429Y-11900000D01*
X-4555000Y-11971428D01*
X-4483572Y-12114285D01*
X-4483572Y-12542857D01*
X-4555000Y-12685714D01*
X-4626429Y-12757142D01*
X-4769286Y-12828571D01*
X-5055000Y-12828571D01*
X-5197858Y-12757142D01*
X-3840715Y-12828571D02*
X-3840715Y-11828571D01*
X-3840715Y-12114285D02*
X-3769286Y-11971428D01*
X-3697858Y-11900000D01*
X-3555000Y-11828571D01*
X-3412143Y-11828571D01*
X-2340715Y-12757142D02*
X-2483572Y-12828571D01*
X-2769286Y-12828571D01*
X-2912143Y-12757142D01*
X-2983572Y-12614285D01*
X-2983572Y-12042857D01*
X-2912143Y-11900000D01*
X-2769286Y-11828571D01*
X-2483572Y-11828571D01*
X-2340715Y-11900000D01*
X-2269286Y-12042857D01*
X-2269286Y-12185714D01*
X-2983572Y-12328571D01*
X-1626429Y-11828571D02*
X-1626429Y-13328571D01*
X-1626429Y-11900000D02*
X-1483572Y-11828571D01*
X-1197858Y-11828571D01*
X-1055000Y-11900000D01*
X-983572Y-11971428D01*
X-912143Y-12114285D01*
X-912143Y-12542857D01*
X-983572Y-12685714D01*
X-1055000Y-12757142D01*
X-1197858Y-12828571D01*
X-1483572Y-12828571D01*
X-1626429Y-12757142D01*
X-269286Y-12828571D02*
X-269286Y-11828571D01*
X-269286Y-12114285D02*
X-197858Y-11971428D01*
X-126429Y-11900000D01*
X16428Y-11828571D01*
X159285Y-11828571D01*
X1230714Y-12757142D02*
X1087857Y-12828571D01*
X802142Y-12828571D01*
X659285Y-12757142D01*
X587857Y-12614285D01*
X587857Y-12042857D01*
X659285Y-11900000D01*
X802142Y-11828571D01*
X1087857Y-11828571D01*
X1230714Y-11900000D01*
X1302142Y-12042857D01*
X1302142Y-12185714D01*
X587857Y-12328571D01*
X2587857Y-11828571D02*
X2587857Y-13042857D01*
X2516428Y-13185714D01*
X2445000Y-13257142D01*
X2302142Y-13328571D01*
X2087857Y-13328571D01*
X1945000Y-13257142D01*
X2587857Y-12757142D02*
X2445000Y-12828571D01*
X2159285Y-12828571D01*
X2016428Y-12757142D01*
X1945000Y-12685714D01*
X1873571Y-12542857D01*
X1873571Y-12114285D01*
X1945000Y-11971428D01*
X2016428Y-11900000D01*
X2159285Y-11828571D01*
X2445000Y-11828571D01*
X2587857Y-11900000D01*
X9516428Y-12042857D02*
X9016428Y-12042857D01*
X9016428Y-12828571D02*
X9016428Y-11328571D01*
X9730714Y-11328571D01*
X11159285Y-12828571D02*
X10659285Y-12114285D01*
X10302142Y-12828571D02*
X10302142Y-11328571D01*
X10873571Y-11328571D01*
X11016428Y-11400000D01*
X11087857Y-11471428D01*
X11159285Y-11614285D01*
X11159285Y-11828571D01*
X11087857Y-11971428D01*
X11016428Y-12042857D01*
X10873571Y-12114285D01*
X10302142Y-12114285D01*
X12444999Y-11828571D02*
X12444999Y-12828571D01*
X12087857Y-11257142D02*
X11730714Y-12328571D01*
X12659285Y-12328571D01*
X33302142Y-11828571D02*
X33302142Y-12828571D01*
X32944999Y-11257142D02*
X32587857Y-12328571D01*
X33516428Y-12328571D01*
X34087857Y-12685714D02*
X34159285Y-12757142D01*
X34087857Y-12828571D01*
X34016428Y-12757142D01*
X34087857Y-12685714D01*
X34087857Y-12828571D01*
X34873571Y-12828571D02*
X35159285Y-12828571D01*
X35302142Y-12757142D01*
X35373571Y-12685714D01*
X35516428Y-12471428D01*
X35587857Y-12185714D01*
X35587857Y-11614285D01*
X35516428Y-11471428D01*
X35444999Y-11400000D01*
X35302142Y-11328571D01*
X35016428Y-11328571D01*
X34873571Y-11400000D01*
X34802142Y-11471428D01*
X34730714Y-11614285D01*
X34730714Y-11971428D01*
X34802142Y-12114285D01*
X34873571Y-12185714D01*
X35016428Y-12257142D01*
X35302142Y-12257142D01*
X35444999Y-12185714D01*
X35516428Y-12114285D01*
X35587857Y-11971428D01*
X37373571Y-12828571D02*
X37373571Y-11828571D01*
X37373571Y-11971428D02*
X37444999Y-11900000D01*
X37587857Y-11828571D01*
X37802142Y-11828571D01*
X37944999Y-11900000D01*
X38016428Y-12042857D01*
X38016428Y-12828571D01*
X38016428Y-12042857D02*
X38087857Y-11900000D01*
X38230714Y-11828571D01*
X38444999Y-11828571D01*
X38587857Y-11900000D01*
X38659285Y-12042857D01*
X38659285Y-12828571D01*
X39373571Y-12828571D02*
X39373571Y-11828571D01*
X39373571Y-11328571D02*
X39302142Y-11400000D01*
X39373571Y-11471428D01*
X39444999Y-11400000D01*
X39373571Y-11328571D01*
X39373571Y-11471428D01*
X40302142Y-12828571D02*
X40159285Y-12757142D01*
X40087857Y-12614285D01*
X40087857Y-11328571D01*
X-5197858Y-14807142D02*
X-4055000Y-14807142D01*
X-3340715Y-14807142D02*
X-2197858Y-14807142D01*
X-1483572Y-14807142D02*
X-340715Y-14807142D01*
X373571Y-14807142D02*
X1516428Y-14807142D01*
X2230714Y-14807142D02*
X3373571Y-14807142D01*
X4087857Y-14807142D02*
X5230714Y-14807142D01*
X5945000Y-14807142D02*
X7087857Y-14807142D01*
X7802142Y-14807142D02*
X8945000Y-14807142D01*
X9659285Y-14807142D02*
X10802142Y-14807142D01*
X11516428Y-14807142D02*
X12659285Y-14807142D01*
X13373571Y-14807142D02*
X14516428Y-14807142D01*
X15230714Y-14807142D02*
X16373571Y-14807142D01*
X17087857Y-14807142D02*
X18230714Y-14807142D01*
X18945000Y-14807142D02*
X20087857Y-14807142D01*
X20802142Y-14807142D02*
X21945000Y-14807142D01*
X22659285Y-14807142D02*
X23802142Y-14807142D01*
X24516428Y-14807142D02*
X25659285Y-14807142D01*
X26373571Y-14807142D02*
X27516428Y-14807142D01*
X28230714Y-14807142D02*
X29373571Y-14807142D01*
X30087857Y-14807142D02*
X31230714Y-14807142D01*
X31945000Y-14807142D02*
X33087857Y-14807142D01*
X33802142Y-14807142D02*
X34945000Y-14807142D01*
X35659285Y-14807142D02*
X36802142Y-14807142D01*
X37516428Y-14807142D02*
X38659285Y-14807142D01*
X39373571Y-14807142D02*
X40516428Y-14807142D01*
X41230714Y-14807142D02*
X42373571Y-14807142D01*
X43087857Y-14807142D02*
X44230714Y-14807142D01*
X44945000Y-14807142D02*
X46087857Y-14807142D01*
X46802142Y-14807142D02*
X47945000Y-14807142D01*
X48659285Y-14807142D02*
X49802142Y-14807142D01*
X50516428Y-14807142D02*
X51659285Y-14807142D01*
X52373571Y-14807142D02*
X53516428Y-14807142D01*
X-4983572Y-17928571D02*
X-5126429Y-17857142D01*
X-5197858Y-17714285D01*
X-5197858Y-16428571D01*
X-3769286Y-17928571D02*
X-3769286Y-17142857D01*
X-3840715Y-17000000D01*
X-3983572Y-16928571D01*
X-4269286Y-16928571D01*
X-4412143Y-17000000D01*
X-3769286Y-17857142D02*
X-3912143Y-17928571D01*
X-4269286Y-17928571D01*
X-4412143Y-17857142D01*
X-4483572Y-17714285D01*
X-4483572Y-17571428D01*
X-4412143Y-17428571D01*
X-4269286Y-17357142D01*
X-3912143Y-17357142D01*
X-3769286Y-17285714D01*
X-3197858Y-16928571D02*
X-2840715Y-17928571D01*
X-2483572Y-16928571D02*
X-2840715Y-17928571D01*
X-2983572Y-18285714D01*
X-3055000Y-18357142D01*
X-3197858Y-18428571D01*
X-1340715Y-17857142D02*
X-1483572Y-17928571D01*
X-1769286Y-17928571D01*
X-1912143Y-17857142D01*
X-1983572Y-17714285D01*
X-1983572Y-17142857D01*
X-1912143Y-17000000D01*
X-1769286Y-16928571D01*
X-1483572Y-16928571D01*
X-1340715Y-17000000D01*
X-1269286Y-17142857D01*
X-1269286Y-17285714D01*
X-1983572Y-17428571D01*
X-626429Y-17928571D02*
X-626429Y-16928571D01*
X-626429Y-17214285D02*
X-555000Y-17071428D01*
X-483572Y-17000000D01*
X-340715Y-16928571D01*
X-197858Y-16928571D01*
X1373571Y-16571428D02*
X1445000Y-16500000D01*
X1587857Y-16428571D01*
X1945000Y-16428571D01*
X2087857Y-16500000D01*
X2159285Y-16571428D01*
X2230714Y-16714285D01*
X2230714Y-16857142D01*
X2159285Y-17071428D01*
X1302142Y-17928571D01*
X2230714Y-17928571D01*
X10373571Y-17857142D02*
X10230714Y-17928571D01*
X9944999Y-17928571D01*
X9802142Y-17857142D01*
X9730714Y-17785714D01*
X9659285Y-17642857D01*
X9659285Y-17214285D01*
X9730714Y-17071428D01*
X9802142Y-17000000D01*
X9944999Y-16928571D01*
X10230714Y-16928571D01*
X10373571Y-17000000D01*
X11230714Y-17928571D02*
X11087857Y-17857142D01*
X11016428Y-17785714D01*
X10944999Y-17642857D01*
X10944999Y-17214285D01*
X11016428Y-17071428D01*
X11087857Y-17000000D01*
X11230714Y-16928571D01*
X11444999Y-16928571D01*
X11587857Y-17000000D01*
X11659285Y-17071428D01*
X11730714Y-17214285D01*
X11730714Y-17642857D01*
X11659285Y-17785714D01*
X11587857Y-17857142D01*
X11444999Y-17928571D01*
X11230714Y-17928571D01*
X12373571Y-16928571D02*
X12373571Y-18428571D01*
X12373571Y-17000000D02*
X12516428Y-16928571D01*
X12802142Y-16928571D01*
X12944999Y-17000000D01*
X13016428Y-17071428D01*
X13087857Y-17214285D01*
X13087857Y-17642857D01*
X13016428Y-17785714D01*
X12944999Y-17857142D01*
X12802142Y-17928571D01*
X12516428Y-17928571D01*
X12373571Y-17857142D01*
X13730714Y-16928571D02*
X13730714Y-18428571D01*
X13730714Y-17000000D02*
X13873571Y-16928571D01*
X14159285Y-16928571D01*
X14302142Y-17000000D01*
X14373571Y-17071428D01*
X14444999Y-17214285D01*
X14444999Y-17642857D01*
X14373571Y-17785714D01*
X14302142Y-17857142D01*
X14159285Y-17928571D01*
X13873571Y-17928571D01*
X13730714Y-17857142D01*
X15659285Y-17857142D02*
X15516428Y-17928571D01*
X15230714Y-17928571D01*
X15087857Y-17857142D01*
X15016428Y-17714285D01*
X15016428Y-17142857D01*
X15087857Y-17000000D01*
X15230714Y-16928571D01*
X15516428Y-16928571D01*
X15659285Y-17000000D01*
X15730714Y-17142857D01*
X15730714Y-17285714D01*
X15016428Y-17428571D01*
X16373571Y-17928571D02*
X16373571Y-16928571D01*
X16373571Y-17214285D02*
X16445000Y-17071428D01*
X16516428Y-17000000D01*
X16659285Y-16928571D01*
X16802142Y-16928571D01*
X32944999Y-17928571D02*
X32087857Y-17928571D01*
X32516428Y-17928571D02*
X32516428Y-16428571D01*
X32373571Y-16642857D01*
X32230714Y-16785714D01*
X32087857Y-16857142D01*
X33587857Y-17785714D02*
X33659285Y-17857142D01*
X33587857Y-17928571D01*
X33516428Y-17857142D01*
X33587857Y-17785714D01*
X33587857Y-17928571D01*
X34159285Y-16428571D02*
X35087857Y-16428571D01*
X34587857Y-17000000D01*
X34802142Y-17000000D01*
X34944999Y-17071428D01*
X35016428Y-17142857D01*
X35087857Y-17285714D01*
X35087857Y-17642857D01*
X35016428Y-17785714D01*
X34944999Y-17857142D01*
X34802142Y-17928571D01*
X34373571Y-17928571D01*
X34230714Y-17857142D01*
X34159285Y-17785714D01*
X36444999Y-16428571D02*
X35730714Y-16428571D01*
X35659285Y-17142857D01*
X35730714Y-17071428D01*
X35873571Y-17000000D01*
X36230714Y-17000000D01*
X36373571Y-17071428D01*
X36444999Y-17142857D01*
X36516428Y-17285714D01*
X36516428Y-17642857D01*
X36444999Y-17785714D01*
X36373571Y-17857142D01*
X36230714Y-17928571D01*
X35873571Y-17928571D01*
X35730714Y-17857142D01*
X35659285Y-17785714D01*
X38302142Y-17928571D02*
X38302142Y-16928571D01*
X38302142Y-17071428D02*
X38373571Y-17000000D01*
X38516428Y-16928571D01*
X38730714Y-16928571D01*
X38873571Y-17000000D01*
X38944999Y-17142857D01*
X38944999Y-17928571D01*
X38944999Y-17142857D02*
X39016428Y-17000000D01*
X39159285Y-16928571D01*
X39373571Y-16928571D01*
X39516428Y-17000000D01*
X39587857Y-17142857D01*
X39587857Y-17928571D01*
X40302142Y-17928571D02*
X40302142Y-16928571D01*
X40302142Y-16428571D02*
X40230714Y-16500000D01*
X40302142Y-16571428D01*
X40373571Y-16500000D01*
X40302142Y-16428571D01*
X40302142Y-16571428D01*
X41230714Y-17928571D02*
X41087857Y-17857142D01*
X41016428Y-17714285D01*
X41016428Y-16428571D01*
X-5197858Y-19907142D02*
X-4055000Y-19907142D01*
X-3340715Y-19907142D02*
X-2197858Y-19907142D01*
X-1483572Y-19907142D02*
X-340715Y-19907142D01*
X373571Y-19907142D02*
X1516428Y-19907142D01*
X2230714Y-19907142D02*
X3373571Y-19907142D01*
X4087857Y-19907142D02*
X5230714Y-19907142D01*
X5945000Y-19907142D02*
X7087857Y-19907142D01*
X7802142Y-19907142D02*
X8945000Y-19907142D01*
X9659285Y-19907142D02*
X10802142Y-19907142D01*
X11516428Y-19907142D02*
X12659285Y-19907142D01*
X13373571Y-19907142D02*
X14516428Y-19907142D01*
X15230714Y-19907142D02*
X16373571Y-19907142D01*
X17087857Y-19907142D02*
X18230714Y-19907142D01*
X18945000Y-19907142D02*
X20087857Y-19907142D01*
X20802142Y-19907142D02*
X21945000Y-19907142D01*
X22659285Y-19907142D02*
X23802142Y-19907142D01*
X24516428Y-19907142D02*
X25659285Y-19907142D01*
X26373571Y-19907142D02*
X27516428Y-19907142D01*
X28230714Y-19907142D02*
X29373571Y-19907142D01*
X30087857Y-19907142D02*
X31230714Y-19907142D01*
X31945000Y-19907142D02*
X33087857Y-19907142D01*
X33802142Y-19907142D02*
X34945000Y-19907142D01*
X35659285Y-19907142D02*
X36802142Y-19907142D01*
X37516428Y-19907142D02*
X38659285Y-19907142D01*
X39373571Y-19907142D02*
X40516428Y-19907142D01*
X41230714Y-19907142D02*
X42373571Y-19907142D01*
X43087857Y-19907142D02*
X44230714Y-19907142D01*
X44945000Y-19907142D02*
X46087857Y-19907142D01*
X46802142Y-19907142D02*
X47945000Y-19907142D01*
X48659285Y-19907142D02*
X49802142Y-19907142D01*
X50516428Y-19907142D02*
X51659285Y-19907142D01*
X52373571Y-19907142D02*
X53516428Y-19907142D01*
X-4555000Y-22957142D02*
X-4697858Y-23028571D01*
X-4983572Y-23028571D01*
X-5126429Y-22957142D01*
X-5197858Y-22885714D01*
X-5269286Y-22742857D01*
X-5269286Y-22314285D01*
X-5197858Y-22171428D01*
X-5126429Y-22100000D01*
X-4983572Y-22028571D01*
X-4697858Y-22028571D01*
X-4555000Y-22100000D01*
X-3697858Y-23028571D02*
X-3840715Y-22957142D01*
X-3912143Y-22885714D01*
X-3983572Y-22742857D01*
X-3983572Y-22314285D01*
X-3912143Y-22171428D01*
X-3840715Y-22100000D01*
X-3697858Y-22028571D01*
X-3483572Y-22028571D01*
X-3340715Y-22100000D01*
X-3269286Y-22171428D01*
X-3197858Y-22314285D01*
X-3197858Y-22742857D01*
X-3269286Y-22885714D01*
X-3340715Y-22957142D01*
X-3483572Y-23028571D01*
X-3697858Y-23028571D01*
X-2555000Y-23028571D02*
X-2555000Y-22028571D01*
X-2555000Y-22314285D02*
X-2483572Y-22171428D01*
X-2412143Y-22100000D01*
X-2269286Y-22028571D01*
X-2126429Y-22028571D01*
X-1055000Y-22957142D02*
X-1197858Y-23028571D01*
X-1483572Y-23028571D01*
X-1626429Y-22957142D01*
X-1697858Y-22814285D01*
X-1697858Y-22242857D01*
X-1626429Y-22100000D01*
X-1483572Y-22028571D01*
X-1197858Y-22028571D01*
X-1055000Y-22100000D01*
X-983572Y-22242857D01*
X-983572Y-22385714D01*
X-1697858Y-22528571D01*
X10444999Y-22242857D02*
X9944999Y-22242857D01*
X9944999Y-23028571D02*
X9944999Y-21528571D01*
X10659285Y-21528571D01*
X12087857Y-23028571D02*
X11587857Y-22314285D01*
X11230714Y-23028571D02*
X11230714Y-21528571D01*
X11802142Y-21528571D01*
X11945000Y-21600000D01*
X12016428Y-21671428D01*
X12087857Y-21814285D01*
X12087857Y-22028571D01*
X12016428Y-22171428D01*
X11945000Y-22242857D01*
X11802142Y-22314285D01*
X11230714Y-22314285D01*
X13373571Y-22028571D02*
X13373571Y-23028571D01*
X13016428Y-21457142D02*
X12659285Y-22528571D01*
X13587857Y-22528571D01*
X32016428Y-21528571D02*
X31302142Y-21528571D01*
X31230714Y-22242857D01*
X31302142Y-22171428D01*
X31444999Y-22100000D01*
X31802142Y-22100000D01*
X31944999Y-22171428D01*
X32016428Y-22242857D01*
X32087857Y-22385714D01*
X32087857Y-22742857D01*
X32016428Y-22885714D01*
X31944999Y-22957142D01*
X31802142Y-23028571D01*
X31444999Y-23028571D01*
X31302142Y-22957142D01*
X31230714Y-22885714D01*
X32730714Y-22885714D02*
X32802142Y-22957142D01*
X32730714Y-23028571D01*
X32659285Y-22957142D01*
X32730714Y-22885714D01*
X32730714Y-23028571D01*
X33730714Y-21528571D02*
X33873571Y-21528571D01*
X34016428Y-21600000D01*
X34087857Y-21671428D01*
X34159285Y-21814285D01*
X34230714Y-22100000D01*
X34230714Y-22457142D01*
X34159285Y-22742857D01*
X34087857Y-22885714D01*
X34016428Y-22957142D01*
X33873571Y-23028571D01*
X33730714Y-23028571D01*
X33587857Y-22957142D01*
X33516428Y-22885714D01*
X33444999Y-22742857D01*
X33373571Y-22457142D01*
X33373571Y-22100000D01*
X33444999Y-21814285D01*
X33516428Y-21671428D01*
X33587857Y-21600000D01*
X33730714Y-21528571D01*
X36016428Y-23028571D02*
X36016428Y-22028571D01*
X36016428Y-22171428D02*
X36087857Y-22100000D01*
X36230714Y-22028571D01*
X36444999Y-22028571D01*
X36587857Y-22100000D01*
X36659285Y-22242857D01*
X36659285Y-23028571D01*
X36659285Y-22242857D02*
X36730714Y-22100000D01*
X36873571Y-22028571D01*
X37087857Y-22028571D01*
X37230714Y-22100000D01*
X37302142Y-22242857D01*
X37302142Y-23028571D01*
X38016428Y-23028571D02*
X38016428Y-22028571D01*
X38016428Y-21528571D02*
X37944999Y-21600000D01*
X38016428Y-21671428D01*
X38087857Y-21600000D01*
X38016428Y-21528571D01*
X38016428Y-21671428D01*
X38944999Y-23028571D02*
X38802142Y-22957142D01*
X38730714Y-22814285D01*
X38730714Y-21528571D01*
X-5197858Y-25007142D02*
X-4055000Y-25007142D01*
X-3340715Y-25007142D02*
X-2197858Y-25007142D01*
X-1483572Y-25007142D02*
X-340715Y-25007142D01*
X373571Y-25007142D02*
X1516428Y-25007142D01*
X2230714Y-25007142D02*
X3373571Y-25007142D01*
X4087857Y-25007142D02*
X5230714Y-25007142D01*
X5945000Y-25007142D02*
X7087857Y-25007142D01*
X7802142Y-25007142D02*
X8945000Y-25007142D01*
X9659285Y-25007142D02*
X10802142Y-25007142D01*
X11516428Y-25007142D02*
X12659285Y-25007142D01*
X13373571Y-25007142D02*
X14516428Y-25007142D01*
X15230714Y-25007142D02*
X16373571Y-25007142D01*
X17087857Y-25007142D02*
X18230714Y-25007142D01*
X18945000Y-25007142D02*
X20087857Y-25007142D01*
X20802142Y-25007142D02*
X21945000Y-25007142D01*
X22659285Y-25007142D02*
X23802142Y-25007142D01*
X24516428Y-25007142D02*
X25659285Y-25007142D01*
X26373571Y-25007142D02*
X27516428Y-25007142D01*
X28230714Y-25007142D02*
X29373571Y-25007142D01*
X30087857Y-25007142D02*
X31230714Y-25007142D01*
X31945000Y-25007142D02*
X33087857Y-25007142D01*
X33802142Y-25007142D02*
X34945000Y-25007142D01*
X35659285Y-25007142D02*
X36802142Y-25007142D01*
X37516428Y-25007142D02*
X38659285Y-25007142D01*
X39373571Y-25007142D02*
X40516428Y-25007142D01*
X41230714Y-25007142D02*
X42373571Y-25007142D01*
X43087857Y-25007142D02*
X44230714Y-25007142D01*
X44945000Y-25007142D02*
X46087857Y-25007142D01*
X46802142Y-25007142D02*
X47945000Y-25007142D01*
X48659285Y-25007142D02*
X49802142Y-25007142D01*
X50516428Y-25007142D02*
X51659285Y-25007142D01*
X52373571Y-25007142D02*
X53516428Y-25007142D01*
X-4983572Y-28128571D02*
X-5126429Y-28057142D01*
X-5197858Y-27914285D01*
X-5197858Y-26628571D01*
X-3769286Y-28128571D02*
X-3769286Y-27342857D01*
X-3840715Y-27200000D01*
X-3983572Y-27128571D01*
X-4269286Y-27128571D01*
X-4412143Y-27200000D01*
X-3769286Y-28057142D02*
X-3912143Y-28128571D01*
X-4269286Y-28128571D01*
X-4412143Y-28057142D01*
X-4483572Y-27914285D01*
X-4483572Y-27771428D01*
X-4412143Y-27628571D01*
X-4269286Y-27557142D01*
X-3912143Y-27557142D01*
X-3769286Y-27485714D01*
X-3197858Y-27128571D02*
X-2840715Y-28128571D01*
X-2483572Y-27128571D02*
X-2840715Y-28128571D01*
X-2983572Y-28485714D01*
X-3055000Y-28557142D01*
X-3197858Y-28628571D01*
X-1340715Y-28057142D02*
X-1483572Y-28128571D01*
X-1769286Y-28128571D01*
X-1912143Y-28057142D01*
X-1983572Y-27914285D01*
X-1983572Y-27342857D01*
X-1912143Y-27200000D01*
X-1769286Y-27128571D01*
X-1483572Y-27128571D01*
X-1340715Y-27200000D01*
X-1269286Y-27342857D01*
X-1269286Y-27485714D01*
X-1983572Y-27628571D01*
X-626429Y-28128571D02*
X-626429Y-27128571D01*
X-626429Y-27414285D02*
X-555000Y-27271428D01*
X-483572Y-27200000D01*
X-340715Y-27128571D01*
X-197858Y-27128571D01*
X1302142Y-26628571D02*
X2230714Y-26628571D01*
X1730714Y-27200000D01*
X1945000Y-27200000D01*
X2087857Y-27271428D01*
X2159285Y-27342857D01*
X2230714Y-27485714D01*
X2230714Y-27842857D01*
X2159285Y-27985714D01*
X2087857Y-28057142D01*
X1945000Y-28128571D01*
X1516428Y-28128571D01*
X1373571Y-28057142D01*
X1302142Y-27985714D01*
X10373571Y-28057142D02*
X10230714Y-28128571D01*
X9944999Y-28128571D01*
X9802142Y-28057142D01*
X9730714Y-27985714D01*
X9659285Y-27842857D01*
X9659285Y-27414285D01*
X9730714Y-27271428D01*
X9802142Y-27200000D01*
X9944999Y-27128571D01*
X10230714Y-27128571D01*
X10373571Y-27200000D01*
X11230714Y-28128571D02*
X11087857Y-28057142D01*
X11016428Y-27985714D01*
X10944999Y-27842857D01*
X10944999Y-27414285D01*
X11016428Y-27271428D01*
X11087857Y-27200000D01*
X11230714Y-27128571D01*
X11444999Y-27128571D01*
X11587857Y-27200000D01*
X11659285Y-27271428D01*
X11730714Y-27414285D01*
X11730714Y-27842857D01*
X11659285Y-27985714D01*
X11587857Y-28057142D01*
X11444999Y-28128571D01*
X11230714Y-28128571D01*
X12373571Y-27128571D02*
X12373571Y-28628571D01*
X12373571Y-27200000D02*
X12516428Y-27128571D01*
X12802142Y-27128571D01*
X12944999Y-27200000D01*
X13016428Y-27271428D01*
X13087857Y-27414285D01*
X13087857Y-27842857D01*
X13016428Y-27985714D01*
X12944999Y-28057142D01*
X12802142Y-28128571D01*
X12516428Y-28128571D01*
X12373571Y-28057142D01*
X13730714Y-27128571D02*
X13730714Y-28628571D01*
X13730714Y-27200000D02*
X13873571Y-27128571D01*
X14159285Y-27128571D01*
X14302142Y-27200000D01*
X14373571Y-27271428D01*
X14444999Y-27414285D01*
X14444999Y-27842857D01*
X14373571Y-27985714D01*
X14302142Y-28057142D01*
X14159285Y-28128571D01*
X13873571Y-28128571D01*
X13730714Y-28057142D01*
X15659285Y-28057142D02*
X15516428Y-28128571D01*
X15230714Y-28128571D01*
X15087857Y-28057142D01*
X15016428Y-27914285D01*
X15016428Y-27342857D01*
X15087857Y-27200000D01*
X15230714Y-27128571D01*
X15516428Y-27128571D01*
X15659285Y-27200000D01*
X15730714Y-27342857D01*
X15730714Y-27485714D01*
X15016428Y-27628571D01*
X16373571Y-28128571D02*
X16373571Y-27128571D01*
X16373571Y-27414285D02*
X16445000Y-27271428D01*
X16516428Y-27200000D01*
X16659285Y-27128571D01*
X16802142Y-27128571D01*
X32944999Y-28128571D02*
X32087857Y-28128571D01*
X32516428Y-28128571D02*
X32516428Y-26628571D01*
X32373571Y-26842857D01*
X32230714Y-26985714D01*
X32087857Y-27057142D01*
X33587857Y-27985714D02*
X33659285Y-28057142D01*
X33587857Y-28128571D01*
X33516428Y-28057142D01*
X33587857Y-27985714D01*
X33587857Y-28128571D01*
X34159285Y-26628571D02*
X35087857Y-26628571D01*
X34587857Y-27200000D01*
X34802142Y-27200000D01*
X34944999Y-27271428D01*
X35016428Y-27342857D01*
X35087857Y-27485714D01*
X35087857Y-27842857D01*
X35016428Y-27985714D01*
X34944999Y-28057142D01*
X34802142Y-28128571D01*
X34373571Y-28128571D01*
X34230714Y-28057142D01*
X34159285Y-27985714D01*
X36444999Y-26628571D02*
X35730714Y-26628571D01*
X35659285Y-27342857D01*
X35730714Y-27271428D01*
X35873571Y-27200000D01*
X36230714Y-27200000D01*
X36373571Y-27271428D01*
X36444999Y-27342857D01*
X36516428Y-27485714D01*
X36516428Y-27842857D01*
X36444999Y-27985714D01*
X36373571Y-28057142D01*
X36230714Y-28128571D01*
X35873571Y-28128571D01*
X35730714Y-28057142D01*
X35659285Y-27985714D01*
X38302142Y-28128571D02*
X38302142Y-27128571D01*
X38302142Y-27271428D02*
X38373571Y-27200000D01*
X38516428Y-27128571D01*
X38730714Y-27128571D01*
X38873571Y-27200000D01*
X38944999Y-27342857D01*
X38944999Y-28128571D01*
X38944999Y-27342857D02*
X39016428Y-27200000D01*
X39159285Y-27128571D01*
X39373571Y-27128571D01*
X39516428Y-27200000D01*
X39587857Y-27342857D01*
X39587857Y-28128571D01*
X40302142Y-28128571D02*
X40302142Y-27128571D01*
X40302142Y-26628571D02*
X40230714Y-26700000D01*
X40302142Y-26771428D01*
X40373571Y-26700000D01*
X40302142Y-26628571D01*
X40302142Y-26771428D01*
X41230714Y-28128571D02*
X41087857Y-28057142D01*
X41016428Y-27914285D01*
X41016428Y-26628571D01*
X-5197858Y-30107142D02*
X-4055000Y-30107142D01*
X-3340715Y-30107142D02*
X-2197858Y-30107142D01*
X-1483572Y-30107142D02*
X-340715Y-30107142D01*
X373571Y-30107142D02*
X1516428Y-30107142D01*
X2230714Y-30107142D02*
X3373571Y-30107142D01*
X4087857Y-30107142D02*
X5230714Y-30107142D01*
X5945000Y-30107142D02*
X7087857Y-30107142D01*
X7802142Y-30107142D02*
X8945000Y-30107142D01*
X9659285Y-30107142D02*
X10802142Y-30107142D01*
X11516428Y-30107142D02*
X12659285Y-30107142D01*
X13373571Y-30107142D02*
X14516428Y-30107142D01*
X15230714Y-30107142D02*
X16373571Y-30107142D01*
X17087857Y-30107142D02*
X18230714Y-30107142D01*
X18945000Y-30107142D02*
X20087857Y-30107142D01*
X20802142Y-30107142D02*
X21945000Y-30107142D01*
X22659285Y-30107142D02*
X23802142Y-30107142D01*
X24516428Y-30107142D02*
X25659285Y-30107142D01*
X26373571Y-30107142D02*
X27516428Y-30107142D01*
X28230714Y-30107142D02*
X29373571Y-30107142D01*
X30087857Y-30107142D02*
X31230714Y-30107142D01*
X31945000Y-30107142D02*
X33087857Y-30107142D01*
X33802142Y-30107142D02*
X34945000Y-30107142D01*
X35659285Y-30107142D02*
X36802142Y-30107142D01*
X37516428Y-30107142D02*
X38659285Y-30107142D01*
X39373571Y-30107142D02*
X40516428Y-30107142D01*
X41230714Y-30107142D02*
X42373571Y-30107142D01*
X43087857Y-30107142D02*
X44230714Y-30107142D01*
X44945000Y-30107142D02*
X46087857Y-30107142D01*
X46802142Y-30107142D02*
X47945000Y-30107142D01*
X48659285Y-30107142D02*
X49802142Y-30107142D01*
X50516428Y-30107142D02*
X51659285Y-30107142D01*
X52373571Y-30107142D02*
X53516428Y-30107142D01*
X-5197858Y-32228571D02*
X-5197858Y-33728571D01*
X-5197858Y-32300000D02*
X-5055000Y-32228571D01*
X-4769286Y-32228571D01*
X-4626429Y-32300000D01*
X-4555000Y-32371428D01*
X-4483572Y-32514285D01*
X-4483572Y-32942857D01*
X-4555000Y-33085714D01*
X-4626429Y-33157142D01*
X-4769286Y-33228571D01*
X-5055000Y-33228571D01*
X-5197858Y-33157142D01*
X-3840715Y-33228571D02*
X-3840715Y-32228571D01*
X-3840715Y-32514285D02*
X-3769286Y-32371428D01*
X-3697858Y-32300000D01*
X-3555000Y-32228571D01*
X-3412143Y-32228571D01*
X-2340715Y-33157142D02*
X-2483572Y-33228571D01*
X-2769286Y-33228571D01*
X-2912143Y-33157142D01*
X-2983572Y-33014285D01*
X-2983572Y-32442857D01*
X-2912143Y-32300000D01*
X-2769286Y-32228571D01*
X-2483572Y-32228571D01*
X-2340715Y-32300000D01*
X-2269286Y-32442857D01*
X-2269286Y-32585714D01*
X-2983572Y-32728571D01*
X-1626429Y-32228571D02*
X-1626429Y-33728571D01*
X-1626429Y-32300000D02*
X-1483572Y-32228571D01*
X-1197858Y-32228571D01*
X-1055000Y-32300000D01*
X-983572Y-32371428D01*
X-912143Y-32514285D01*
X-912143Y-32942857D01*
X-983572Y-33085714D01*
X-1055000Y-33157142D01*
X-1197858Y-33228571D01*
X-1483572Y-33228571D01*
X-1626429Y-33157142D01*
X-269286Y-33228571D02*
X-269286Y-32228571D01*
X-269286Y-32514285D02*
X-197858Y-32371428D01*
X-126429Y-32300000D01*
X16428Y-32228571D01*
X159285Y-32228571D01*
X1230714Y-33157142D02*
X1087857Y-33228571D01*
X802142Y-33228571D01*
X659285Y-33157142D01*
X587857Y-33014285D01*
X587857Y-32442857D01*
X659285Y-32300000D01*
X802142Y-32228571D01*
X1087857Y-32228571D01*
X1230714Y-32300000D01*
X1302142Y-32442857D01*
X1302142Y-32585714D01*
X587857Y-32728571D01*
X2587857Y-32228571D02*
X2587857Y-33442857D01*
X2516428Y-33585714D01*
X2445000Y-33657142D01*
X2302142Y-33728571D01*
X2087857Y-33728571D01*
X1945000Y-33657142D01*
X2587857Y-33157142D02*
X2445000Y-33228571D01*
X2159285Y-33228571D01*
X2016428Y-33157142D01*
X1945000Y-33085714D01*
X1873571Y-32942857D01*
X1873571Y-32514285D01*
X1945000Y-32371428D01*
X2016428Y-32300000D01*
X2159285Y-32228571D01*
X2445000Y-32228571D01*
X2587857Y-32300000D01*
X10659285Y-32442857D02*
X10159285Y-32442857D01*
X10159285Y-33228571D02*
X10159285Y-31728571D01*
X10873571Y-31728571D01*
X12302142Y-33228571D02*
X11802142Y-32514285D01*
X11444999Y-33228571D02*
X11444999Y-31728571D01*
X12016428Y-31728571D01*
X12159285Y-31800000D01*
X12230714Y-31871428D01*
X12302142Y-32014285D01*
X12302142Y-32228571D01*
X12230714Y-32371428D01*
X12159285Y-32442857D01*
X12016428Y-32514285D01*
X11444999Y-32514285D01*
X13587857Y-32228571D02*
X13587857Y-33228571D01*
X13230714Y-31657142D02*
X12873571Y-32728571D01*
X13802142Y-32728571D01*
X32159285Y-32228571D02*
X32159285Y-33228571D01*
X31802142Y-31657142D02*
X31444999Y-32728571D01*
X32373571Y-32728571D01*
X32944999Y-33085714D02*
X33016428Y-33157142D01*
X32944999Y-33228571D01*
X32873571Y-33157142D01*
X32944999Y-33085714D01*
X32944999Y-33228571D01*
X34444999Y-33228571D02*
X33587857Y-33228571D01*
X34016428Y-33228571D02*
X34016428Y-31728571D01*
X33873571Y-31942857D01*
X33730714Y-32085714D01*
X33587857Y-32157142D01*
X36230714Y-33228571D02*
X36230714Y-32228571D01*
X36230714Y-32371428D02*
X36302142Y-32300000D01*
X36444999Y-32228571D01*
X36659285Y-32228571D01*
X36802142Y-32300000D01*
X36873571Y-32442857D01*
X36873571Y-33228571D01*
X36873571Y-32442857D02*
X36944999Y-32300000D01*
X37087857Y-32228571D01*
X37302142Y-32228571D01*
X37444999Y-32300000D01*
X37516428Y-32442857D01*
X37516428Y-33228571D01*
X38230714Y-33228571D02*
X38230714Y-32228571D01*
X38230714Y-31728571D02*
X38159285Y-31800000D01*
X38230714Y-31871428D01*
X38302142Y-31800000D01*
X38230714Y-31728571D01*
X38230714Y-31871428D01*
X39159285Y-33228571D02*
X39016428Y-33157142D01*
X38944999Y-33014285D01*
X38944999Y-31728571D01*
X-5197858Y-35207142D02*
X-4055000Y-35207142D01*
X-3340715Y-35207142D02*
X-2197858Y-35207142D01*
X-1483572Y-35207142D02*
X-340715Y-35207142D01*
X373571Y-35207142D02*
X1516428Y-35207142D01*
X2230714Y-35207142D02*
X3373571Y-35207142D01*
X4087857Y-35207142D02*
X5230714Y-35207142D01*
X5945000Y-35207142D02*
X7087857Y-35207142D01*
X7802142Y-35207142D02*
X8945000Y-35207142D01*
X9659285Y-35207142D02*
X10802142Y-35207142D01*
X11516428Y-35207142D02*
X12659285Y-35207142D01*
X13373571Y-35207142D02*
X14516428Y-35207142D01*
X15230714Y-35207142D02*
X16373571Y-35207142D01*
X17087857Y-35207142D02*
X18230714Y-35207142D01*
X18945000Y-35207142D02*
X20087857Y-35207142D01*
X20802142Y-35207142D02*
X21945000Y-35207142D01*
X22659285Y-35207142D02*
X23802142Y-35207142D01*
X24516428Y-35207142D02*
X25659285Y-35207142D01*
X26373571Y-35207142D02*
X27516428Y-35207142D01*
X28230714Y-35207142D02*
X29373571Y-35207142D01*
X30087857Y-35207142D02*
X31230714Y-35207142D01*
X31945000Y-35207142D02*
X33087857Y-35207142D01*
X33802142Y-35207142D02*
X34945000Y-35207142D01*
X35659285Y-35207142D02*
X36802142Y-35207142D01*
X37516428Y-35207142D02*
X38659285Y-35207142D01*
X39373571Y-35207142D02*
X40516428Y-35207142D01*
X41230714Y-35207142D02*
X42373571Y-35207142D01*
X43087857Y-35207142D02*
X44230714Y-35207142D01*
X44945000Y-35207142D02*
X46087857Y-35207142D01*
X46802142Y-35207142D02*
X47945000Y-35207142D01*
X48659285Y-35207142D02*
X49802142Y-35207142D01*
X50516428Y-35207142D02*
X51659285Y-35207142D01*
X52373571Y-35207142D02*
X53516428Y-35207142D01*
X-4983572Y-38328571D02*
X-5126429Y-38257142D01*
X-5197858Y-38114285D01*
X-5197858Y-36828571D01*
X-3769286Y-38328571D02*
X-3769286Y-37542857D01*
X-3840715Y-37400000D01*
X-3983572Y-37328571D01*
X-4269286Y-37328571D01*
X-4412143Y-37400000D01*
X-3769286Y-38257142D02*
X-3912143Y-38328571D01*
X-4269286Y-38328571D01*
X-4412143Y-38257142D01*
X-4483572Y-38114285D01*
X-4483572Y-37971428D01*
X-4412143Y-37828571D01*
X-4269286Y-37757142D01*
X-3912143Y-37757142D01*
X-3769286Y-37685714D01*
X-3197858Y-37328571D02*
X-2840715Y-38328571D01*
X-2483572Y-37328571D02*
X-2840715Y-38328571D01*
X-2983572Y-38685714D01*
X-3055000Y-38757142D01*
X-3197858Y-38828571D01*
X-1340715Y-38257142D02*
X-1483572Y-38328571D01*
X-1769286Y-38328571D01*
X-1912143Y-38257142D01*
X-1983572Y-38114285D01*
X-1983572Y-37542857D01*
X-1912143Y-37400000D01*
X-1769286Y-37328571D01*
X-1483572Y-37328571D01*
X-1340715Y-37400000D01*
X-1269286Y-37542857D01*
X-1269286Y-37685714D01*
X-1983572Y-37828571D01*
X-626429Y-38328571D02*
X-626429Y-37328571D01*
X-626429Y-37614285D02*
X-555000Y-37471428D01*
X-483572Y-37400000D01*
X-340715Y-37328571D01*
X-197858Y-37328571D01*
X2087857Y-37328571D02*
X2087857Y-38328571D01*
X1730714Y-36757142D02*
X1373571Y-37828571D01*
X2302142Y-37828571D01*
X11516428Y-38257142D02*
X11373571Y-38328571D01*
X11087857Y-38328571D01*
X10944999Y-38257142D01*
X10873571Y-38185714D01*
X10802142Y-38042857D01*
X10802142Y-37614285D01*
X10873571Y-37471428D01*
X10944999Y-37400000D01*
X11087857Y-37328571D01*
X11373571Y-37328571D01*
X11516428Y-37400000D01*
X12373571Y-38328571D02*
X12230714Y-38257142D01*
X12159285Y-38185714D01*
X12087857Y-38042857D01*
X12087857Y-37614285D01*
X12159285Y-37471428D01*
X12230714Y-37400000D01*
X12373571Y-37328571D01*
X12587857Y-37328571D01*
X12730714Y-37400000D01*
X12802142Y-37471428D01*
X12873571Y-37614285D01*
X12873571Y-38042857D01*
X12802142Y-38185714D01*
X12730714Y-38257142D01*
X12587857Y-38328571D01*
X12373571Y-38328571D01*
X13516428Y-37328571D02*
X13516428Y-38828571D01*
X13516428Y-37400000D02*
X13659285Y-37328571D01*
X13945000Y-37328571D01*
X14087857Y-37400000D01*
X14159285Y-37471428D01*
X14230714Y-37614285D01*
X14230714Y-38042857D01*
X14159285Y-38185714D01*
X14087857Y-38257142D01*
X13945000Y-38328571D01*
X13659285Y-38328571D01*
X13516428Y-38257142D01*
X14873571Y-37328571D02*
X14873571Y-38828571D01*
X14873571Y-37400000D02*
X15016428Y-37328571D01*
X15302142Y-37328571D01*
X15445000Y-37400000D01*
X15516428Y-37471428D01*
X15587857Y-37614285D01*
X15587857Y-38042857D01*
X15516428Y-38185714D01*
X15445000Y-38257142D01*
X15302142Y-38328571D01*
X15016428Y-38328571D01*
X14873571Y-38257142D01*
X16802142Y-38257142D02*
X16659285Y-38328571D01*
X16373571Y-38328571D01*
X16230714Y-38257142D01*
X16159285Y-38114285D01*
X16159285Y-37542857D01*
X16230714Y-37400000D01*
X16373571Y-37328571D01*
X16659285Y-37328571D01*
X16802142Y-37400000D01*
X16873571Y-37542857D01*
X16873571Y-37685714D01*
X16159285Y-37828571D01*
X17516428Y-38328571D02*
X17516428Y-37328571D01*
X17516428Y-37614285D02*
X17587857Y-37471428D01*
X17659285Y-37400000D01*
X17802142Y-37328571D01*
X17945000Y-37328571D01*
X32944999Y-38328571D02*
X32087857Y-38328571D01*
X32516428Y-38328571D02*
X32516428Y-36828571D01*
X32373571Y-37042857D01*
X32230714Y-37185714D01*
X32087857Y-37257142D01*
X33587857Y-38185714D02*
X33659285Y-38257142D01*
X33587857Y-38328571D01*
X33516428Y-38257142D01*
X33587857Y-38185714D01*
X33587857Y-38328571D01*
X34159285Y-36828571D02*
X35087857Y-36828571D01*
X34587857Y-37400000D01*
X34802142Y-37400000D01*
X34944999Y-37471428D01*
X35016428Y-37542857D01*
X35087857Y-37685714D01*
X35087857Y-38042857D01*
X35016428Y-38185714D01*
X34944999Y-38257142D01*
X34802142Y-38328571D01*
X34373571Y-38328571D01*
X34230714Y-38257142D01*
X34159285Y-38185714D01*
X36444999Y-36828571D02*
X35730714Y-36828571D01*
X35659285Y-37542857D01*
X35730714Y-37471428D01*
X35873571Y-37400000D01*
X36230714Y-37400000D01*
X36373571Y-37471428D01*
X36444999Y-37542857D01*
X36516428Y-37685714D01*
X36516428Y-38042857D01*
X36444999Y-38185714D01*
X36373571Y-38257142D01*
X36230714Y-38328571D01*
X35873571Y-38328571D01*
X35730714Y-38257142D01*
X35659285Y-38185714D01*
X38302142Y-38328571D02*
X38302142Y-37328571D01*
X38302142Y-37471428D02*
X38373571Y-37400000D01*
X38516428Y-37328571D01*
X38730714Y-37328571D01*
X38873571Y-37400000D01*
X38944999Y-37542857D01*
X38944999Y-38328571D01*
X38944999Y-37542857D02*
X39016428Y-37400000D01*
X39159285Y-37328571D01*
X39373571Y-37328571D01*
X39516428Y-37400000D01*
X39587857Y-37542857D01*
X39587857Y-38328571D01*
X40302142Y-38328571D02*
X40302142Y-37328571D01*
X40302142Y-36828571D02*
X40230714Y-36900000D01*
X40302142Y-36971428D01*
X40373571Y-36900000D01*
X40302142Y-36828571D01*
X40302142Y-36971428D01*
X41230714Y-38328571D02*
X41087857Y-38257142D01*
X41016428Y-38114285D01*
X41016428Y-36828571D01*
X-5197858Y-40307142D02*
X-4055000Y-40307142D01*
X-3340715Y-40307142D02*
X-2197858Y-40307142D01*
X-1483572Y-40307142D02*
X-340715Y-40307142D01*
X373571Y-40307142D02*
X1516428Y-40307142D01*
X2230714Y-40307142D02*
X3373571Y-40307142D01*
X4087857Y-40307142D02*
X5230714Y-40307142D01*
X5945000Y-40307142D02*
X7087857Y-40307142D01*
X7802142Y-40307142D02*
X8945000Y-40307142D01*
X9659285Y-40307142D02*
X10802142Y-40307142D01*
X11516428Y-40307142D02*
X12659285Y-40307142D01*
X13373571Y-40307142D02*
X14516428Y-40307142D01*
X15230714Y-40307142D02*
X16373571Y-40307142D01*
X17087857Y-40307142D02*
X18230714Y-40307142D01*
X18945000Y-40307142D02*
X20087857Y-40307142D01*
X20802142Y-40307142D02*
X21945000Y-40307142D01*
X22659285Y-40307142D02*
X23802142Y-40307142D01*
X24516428Y-40307142D02*
X25659285Y-40307142D01*
X26373571Y-40307142D02*
X27516428Y-40307142D01*
X28230714Y-40307142D02*
X29373571Y-40307142D01*
X30087857Y-40307142D02*
X31230714Y-40307142D01*
X31945000Y-40307142D02*
X33087857Y-40307142D01*
X33802142Y-40307142D02*
X34945000Y-40307142D01*
X35659285Y-40307142D02*
X36802142Y-40307142D01*
X37516428Y-40307142D02*
X38659285Y-40307142D01*
X39373571Y-40307142D02*
X40516428Y-40307142D01*
X41230714Y-40307142D02*
X42373571Y-40307142D01*
X43087857Y-40307142D02*
X44230714Y-40307142D01*
X44945000Y-40307142D02*
X46087857Y-40307142D01*
X46802142Y-40307142D02*
X47945000Y-40307142D01*
X48659285Y-40307142D02*
X49802142Y-40307142D01*
X50516428Y-40307142D02*
X51659285Y-40307142D01*
X52373571Y-40307142D02*
X53516428Y-40307142D01*
X-4555000Y-43357142D02*
X-4697858Y-43428571D01*
X-4983572Y-43428571D01*
X-5126429Y-43357142D01*
X-5197858Y-43285714D01*
X-5269286Y-43142857D01*
X-5269286Y-42714285D01*
X-5197858Y-42571428D01*
X-5126429Y-42500000D01*
X-4983572Y-42428571D01*
X-4697858Y-42428571D01*
X-4555000Y-42500000D01*
X-3697858Y-43428571D02*
X-3840715Y-43357142D01*
X-3912143Y-43285714D01*
X-3983572Y-43142857D01*
X-3983572Y-42714285D01*
X-3912143Y-42571428D01*
X-3840715Y-42500000D01*
X-3697858Y-42428571D01*
X-3483572Y-42428571D01*
X-3340715Y-42500000D01*
X-3269286Y-42571428D01*
X-3197858Y-42714285D01*
X-3197858Y-43142857D01*
X-3269286Y-43285714D01*
X-3340715Y-43357142D01*
X-3483572Y-43428571D01*
X-3697858Y-43428571D01*
X-2555000Y-43428571D02*
X-2555000Y-42428571D01*
X-2555000Y-42714285D02*
X-2483572Y-42571428D01*
X-2412143Y-42500000D01*
X-2269286Y-42428571D01*
X-2126429Y-42428571D01*
X-1055000Y-43357142D02*
X-1197858Y-43428571D01*
X-1483572Y-43428571D01*
X-1626429Y-43357142D01*
X-1697858Y-43214285D01*
X-1697858Y-42642857D01*
X-1626429Y-42500000D01*
X-1483572Y-42428571D01*
X-1197858Y-42428571D01*
X-1055000Y-42500000D01*
X-983572Y-42642857D01*
X-983572Y-42785714D01*
X-1697858Y-42928571D01*
X10444999Y-42642857D02*
X9944999Y-42642857D01*
X9944999Y-43428571D02*
X9944999Y-41928571D01*
X10659285Y-41928571D01*
X12087857Y-43428571D02*
X11587857Y-42714285D01*
X11230714Y-43428571D02*
X11230714Y-41928571D01*
X11802142Y-41928571D01*
X11945000Y-42000000D01*
X12016428Y-42071428D01*
X12087857Y-42214285D01*
X12087857Y-42428571D01*
X12016428Y-42571428D01*
X11945000Y-42642857D01*
X11802142Y-42714285D01*
X11230714Y-42714285D01*
X13373571Y-42428571D02*
X13373571Y-43428571D01*
X13016428Y-41857142D02*
X12659285Y-42928571D01*
X13587857Y-42928571D01*
X34302142Y-41928571D02*
X33587857Y-41928571D01*
X33516428Y-42642857D01*
X33587857Y-42571428D01*
X33730714Y-42500000D01*
X34087857Y-42500000D01*
X34230714Y-42571428D01*
X34302142Y-42642857D01*
X34373571Y-42785714D01*
X34373571Y-43142857D01*
X34302142Y-43285714D01*
X34230714Y-43357142D01*
X34087857Y-43428571D01*
X33730714Y-43428571D01*
X33587857Y-43357142D01*
X33516428Y-43285714D01*
X35016428Y-43285714D02*
X35087857Y-43357142D01*
X35016428Y-43428571D01*
X34944999Y-43357142D01*
X35016428Y-43285714D01*
X35016428Y-43428571D01*
X36016428Y-41928571D02*
X36159285Y-41928571D01*
X36302142Y-42000000D01*
X36373571Y-42071428D01*
X36444999Y-42214285D01*
X36516428Y-42500000D01*
X36516428Y-42857142D01*
X36444999Y-43142857D01*
X36373571Y-43285714D01*
X36302142Y-43357142D01*
X36159285Y-43428571D01*
X36016428Y-43428571D01*
X35873571Y-43357142D01*
X35802142Y-43285714D01*
X35730714Y-43142857D01*
X35659285Y-42857142D01*
X35659285Y-42500000D01*
X35730714Y-42214285D01*
X35802142Y-42071428D01*
X35873571Y-42000000D01*
X36016428Y-41928571D01*
X38302142Y-43428571D02*
X38302142Y-42428571D01*
X38302142Y-42571428D02*
X38373571Y-42500000D01*
X38516428Y-42428571D01*
X38730714Y-42428571D01*
X38873571Y-42500000D01*
X38944999Y-42642857D01*
X38944999Y-43428571D01*
X38944999Y-42642857D02*
X39016428Y-42500000D01*
X39159285Y-42428571D01*
X39373571Y-42428571D01*
X39516428Y-42500000D01*
X39587857Y-42642857D01*
X39587857Y-43428571D01*
X40302142Y-43428571D02*
X40302142Y-42428571D01*
X40302142Y-41928571D02*
X40230714Y-42000000D01*
X40302142Y-42071428D01*
X40373571Y-42000000D01*
X40302142Y-41928571D01*
X40302142Y-42071428D01*
X41230714Y-43428571D02*
X41087857Y-43357142D01*
X41016428Y-43214285D01*
X41016428Y-41928571D01*
X-5197858Y-45407142D02*
X-4055000Y-45407142D01*
X-3340715Y-45407142D02*
X-2197858Y-45407142D01*
X-1483572Y-45407142D02*
X-340715Y-45407142D01*
X373571Y-45407142D02*
X1516428Y-45407142D01*
X2230714Y-45407142D02*
X3373571Y-45407142D01*
X4087857Y-45407142D02*
X5230714Y-45407142D01*
X5945000Y-45407142D02*
X7087857Y-45407142D01*
X7802142Y-45407142D02*
X8945000Y-45407142D01*
X9659285Y-45407142D02*
X10802142Y-45407142D01*
X11516428Y-45407142D02*
X12659285Y-45407142D01*
X13373571Y-45407142D02*
X14516428Y-45407142D01*
X15230714Y-45407142D02*
X16373571Y-45407142D01*
X17087857Y-45407142D02*
X18230714Y-45407142D01*
X18945000Y-45407142D02*
X20087857Y-45407142D01*
X20802142Y-45407142D02*
X21945000Y-45407142D01*
X22659285Y-45407142D02*
X23802142Y-45407142D01*
X24516428Y-45407142D02*
X25659285Y-45407142D01*
X26373571Y-45407142D02*
X27516428Y-45407142D01*
X28230714Y-45407142D02*
X29373571Y-45407142D01*
X30087857Y-45407142D02*
X31230714Y-45407142D01*
X31945000Y-45407142D02*
X33087857Y-45407142D01*
X33802142Y-45407142D02*
X34945000Y-45407142D01*
X35659285Y-45407142D02*
X36802142Y-45407142D01*
X37516428Y-45407142D02*
X38659285Y-45407142D01*
X39373571Y-45407142D02*
X40516428Y-45407142D01*
X41230714Y-45407142D02*
X42373571Y-45407142D01*
X43087857Y-45407142D02*
X44230714Y-45407142D01*
X44945000Y-45407142D02*
X46087857Y-45407142D01*
X46802142Y-45407142D02*
X47945000Y-45407142D01*
X48659285Y-45407142D02*
X49802142Y-45407142D01*
X50516428Y-45407142D02*
X51659285Y-45407142D01*
X52373571Y-45407142D02*
X53516428Y-45407142D01*
X-4983572Y-48528571D02*
X-5126429Y-48457142D01*
X-5197858Y-48314285D01*
X-5197858Y-47028571D01*
X-3769286Y-48528571D02*
X-3769286Y-47742857D01*
X-3840715Y-47600000D01*
X-3983572Y-47528571D01*
X-4269286Y-47528571D01*
X-4412143Y-47600000D01*
X-3769286Y-48457142D02*
X-3912143Y-48528571D01*
X-4269286Y-48528571D01*
X-4412143Y-48457142D01*
X-4483572Y-48314285D01*
X-4483572Y-48171428D01*
X-4412143Y-48028571D01*
X-4269286Y-47957142D01*
X-3912143Y-47957142D01*
X-3769286Y-47885714D01*
X-3197858Y-47528571D02*
X-2840715Y-48528571D01*
X-2483572Y-47528571D02*
X-2840715Y-48528571D01*
X-2983572Y-48885714D01*
X-3055000Y-48957142D01*
X-3197858Y-49028571D01*
X-1340715Y-48457142D02*
X-1483572Y-48528571D01*
X-1769286Y-48528571D01*
X-1912143Y-48457142D01*
X-1983572Y-48314285D01*
X-1983572Y-47742857D01*
X-1912143Y-47600000D01*
X-1769286Y-47528571D01*
X-1483572Y-47528571D01*
X-1340715Y-47600000D01*
X-1269286Y-47742857D01*
X-1269286Y-47885714D01*
X-1983572Y-48028571D01*
X-626429Y-48528571D02*
X-626429Y-47528571D01*
X-626429Y-47814285D02*
X-555000Y-47671428D01*
X-483572Y-47600000D01*
X-340715Y-47528571D01*
X-197858Y-47528571D01*
X2159285Y-47028571D02*
X1445000Y-47028571D01*
X1373571Y-47742857D01*
X1445000Y-47671428D01*
X1587857Y-47600000D01*
X1945000Y-47600000D01*
X2087857Y-47671428D01*
X2159285Y-47742857D01*
X2230714Y-47885714D01*
X2230714Y-48242857D01*
X2159285Y-48385714D01*
X2087857Y-48457142D01*
X1945000Y-48528571D01*
X1587857Y-48528571D01*
X1445000Y-48457142D01*
X1373571Y-48385714D01*
X11516428Y-48457142D02*
X11373571Y-48528571D01*
X11087857Y-48528571D01*
X10944999Y-48457142D01*
X10873571Y-48385714D01*
X10802142Y-48242857D01*
X10802142Y-47814285D01*
X10873571Y-47671428D01*
X10944999Y-47600000D01*
X11087857Y-47528571D01*
X11373571Y-47528571D01*
X11516428Y-47600000D01*
X12373571Y-48528571D02*
X12230714Y-48457142D01*
X12159285Y-48385714D01*
X12087857Y-48242857D01*
X12087857Y-47814285D01*
X12159285Y-47671428D01*
X12230714Y-47600000D01*
X12373571Y-47528571D01*
X12587857Y-47528571D01*
X12730714Y-47600000D01*
X12802142Y-47671428D01*
X12873571Y-47814285D01*
X12873571Y-48242857D01*
X12802142Y-48385714D01*
X12730714Y-48457142D01*
X12587857Y-48528571D01*
X12373571Y-48528571D01*
X13516428Y-47528571D02*
X13516428Y-49028571D01*
X13516428Y-47600000D02*
X13659285Y-47528571D01*
X13945000Y-47528571D01*
X14087857Y-47600000D01*
X14159285Y-47671428D01*
X14230714Y-47814285D01*
X14230714Y-48242857D01*
X14159285Y-48385714D01*
X14087857Y-48457142D01*
X13945000Y-48528571D01*
X13659285Y-48528571D01*
X13516428Y-48457142D01*
X14873571Y-47528571D02*
X14873571Y-49028571D01*
X14873571Y-47600000D02*
X15016428Y-47528571D01*
X15302142Y-47528571D01*
X15445000Y-47600000D01*
X15516428Y-47671428D01*
X15587857Y-47814285D01*
X15587857Y-48242857D01*
X15516428Y-48385714D01*
X15445000Y-48457142D01*
X15302142Y-48528571D01*
X15016428Y-48528571D01*
X14873571Y-48457142D01*
X16802142Y-48457142D02*
X16659285Y-48528571D01*
X16373571Y-48528571D01*
X16230714Y-48457142D01*
X16159285Y-48314285D01*
X16159285Y-47742857D01*
X16230714Y-47600000D01*
X16373571Y-47528571D01*
X16659285Y-47528571D01*
X16802142Y-47600000D01*
X16873571Y-47742857D01*
X16873571Y-47885714D01*
X16159285Y-48028571D01*
X17516428Y-48528571D02*
X17516428Y-47528571D01*
X17516428Y-47814285D02*
X17587857Y-47671428D01*
X17659285Y-47600000D01*
X17802142Y-47528571D01*
X17945000Y-47528571D01*
X34087857Y-48528571D02*
X33230714Y-48528571D01*
X33659285Y-48528571D02*
X33659285Y-47028571D01*
X33516428Y-47242857D01*
X33373571Y-47385714D01*
X33230714Y-47457142D01*
X34730714Y-48385714D02*
X34802142Y-48457142D01*
X34730714Y-48528571D01*
X34659285Y-48457142D01*
X34730714Y-48385714D01*
X34730714Y-48528571D01*
X35302142Y-47028571D02*
X36230714Y-47028571D01*
X35730714Y-47600000D01*
X35944999Y-47600000D01*
X36087857Y-47671428D01*
X36159285Y-47742857D01*
X36230714Y-47885714D01*
X36230714Y-48242857D01*
X36159285Y-48385714D01*
X36087857Y-48457142D01*
X35944999Y-48528571D01*
X35516428Y-48528571D01*
X35373571Y-48457142D01*
X35302142Y-48385714D01*
X37587857Y-47028571D02*
X36873571Y-47028571D01*
X36802142Y-47742857D01*
X36873571Y-47671428D01*
X37016428Y-47600000D01*
X37373571Y-47600000D01*
X37516428Y-47671428D01*
X37587857Y-47742857D01*
X37659285Y-47885714D01*
X37659285Y-48242857D01*
X37587857Y-48385714D01*
X37516428Y-48457142D01*
X37373571Y-48528571D01*
X37016428Y-48528571D01*
X36873571Y-48457142D01*
X36802142Y-48385714D01*
X39444999Y-48528571D02*
X39444999Y-47528571D01*
X39444999Y-47671428D02*
X39516428Y-47600000D01*
X39659285Y-47528571D01*
X39873571Y-47528571D01*
X40016428Y-47600000D01*
X40087857Y-47742857D01*
X40087857Y-48528571D01*
X40087857Y-47742857D02*
X40159285Y-47600000D01*
X40302142Y-47528571D01*
X40516428Y-47528571D01*
X40659285Y-47600000D01*
X40730714Y-47742857D01*
X40730714Y-48528571D01*
X41444999Y-48528571D02*
X41444999Y-47528571D01*
X41444999Y-47028571D02*
X41373571Y-47100000D01*
X41444999Y-47171428D01*
X41516428Y-47100000D01*
X41444999Y-47028571D01*
X41444999Y-47171428D01*
X42373571Y-48528571D02*
X42230714Y-48457142D01*
X42159285Y-48314285D01*
X42159285Y-47028571D01*
X-5197858Y-50507142D02*
X-4055000Y-50507142D01*
X-3340715Y-50507142D02*
X-2197858Y-50507142D01*
X-1483572Y-50507142D02*
X-340715Y-50507142D01*
X373571Y-50507142D02*
X1516428Y-50507142D01*
X2230714Y-50507142D02*
X3373571Y-50507142D01*
X4087857Y-50507142D02*
X5230714Y-50507142D01*
X5945000Y-50507142D02*
X7087857Y-50507142D01*
X7802142Y-50507142D02*
X8945000Y-50507142D01*
X9659285Y-50507142D02*
X10802142Y-50507142D01*
X11516428Y-50507142D02*
X12659285Y-50507142D01*
X13373571Y-50507142D02*
X14516428Y-50507142D01*
X15230714Y-50507142D02*
X16373571Y-50507142D01*
X17087857Y-50507142D02*
X18230714Y-50507142D01*
X18945000Y-50507142D02*
X20087857Y-50507142D01*
X20802142Y-50507142D02*
X21945000Y-50507142D01*
X22659285Y-50507142D02*
X23802142Y-50507142D01*
X24516428Y-50507142D02*
X25659285Y-50507142D01*
X26373571Y-50507142D02*
X27516428Y-50507142D01*
X28230714Y-50507142D02*
X29373571Y-50507142D01*
X30087857Y-50507142D02*
X31230714Y-50507142D01*
X31945000Y-50507142D02*
X33087857Y-50507142D01*
X33802142Y-50507142D02*
X34945000Y-50507142D01*
X35659285Y-50507142D02*
X36802142Y-50507142D01*
X37516428Y-50507142D02*
X38659285Y-50507142D01*
X39373571Y-50507142D02*
X40516428Y-50507142D01*
X41230714Y-50507142D02*
X42373571Y-50507142D01*
X43087857Y-50507142D02*
X44230714Y-50507142D01*
X44945000Y-50507142D02*
X46087857Y-50507142D01*
X46802142Y-50507142D02*
X47945000Y-50507142D01*
X48659285Y-50507142D02*
X49802142Y-50507142D01*
X50516428Y-50507142D02*
X51659285Y-50507142D01*
X52373571Y-50507142D02*
X53516428Y-50507142D01*
X-5197858Y-52628571D02*
X-5197858Y-54128571D01*
X-5197858Y-52700000D02*
X-5055000Y-52628571D01*
X-4769286Y-52628571D01*
X-4626429Y-52700000D01*
X-4555000Y-52771428D01*
X-4483572Y-52914285D01*
X-4483572Y-53342857D01*
X-4555000Y-53485714D01*
X-4626429Y-53557142D01*
X-4769286Y-53628571D01*
X-5055000Y-53628571D01*
X-5197858Y-53557142D01*
X-3840715Y-53628571D02*
X-3840715Y-52628571D01*
X-3840715Y-52914285D02*
X-3769286Y-52771428D01*
X-3697858Y-52700000D01*
X-3555000Y-52628571D01*
X-3412143Y-52628571D01*
X-2340715Y-53557142D02*
X-2483572Y-53628571D01*
X-2769286Y-53628571D01*
X-2912143Y-53557142D01*
X-2983572Y-53414285D01*
X-2983572Y-52842857D01*
X-2912143Y-52700000D01*
X-2769286Y-52628571D01*
X-2483572Y-52628571D01*
X-2340715Y-52700000D01*
X-2269286Y-52842857D01*
X-2269286Y-52985714D01*
X-2983572Y-53128571D01*
X-1626429Y-52628571D02*
X-1626429Y-54128571D01*
X-1626429Y-52700000D02*
X-1483572Y-52628571D01*
X-1197858Y-52628571D01*
X-1055000Y-52700000D01*
X-983572Y-52771428D01*
X-912143Y-52914285D01*
X-912143Y-53342857D01*
X-983572Y-53485714D01*
X-1055000Y-53557142D01*
X-1197858Y-53628571D01*
X-1483572Y-53628571D01*
X-1626429Y-53557142D01*
X-269286Y-53628571D02*
X-269286Y-52628571D01*
X-269286Y-52914285D02*
X-197858Y-52771428D01*
X-126429Y-52700000D01*
X16428Y-52628571D01*
X159285Y-52628571D01*
X1230714Y-53557142D02*
X1087857Y-53628571D01*
X802142Y-53628571D01*
X659285Y-53557142D01*
X587857Y-53414285D01*
X587857Y-52842857D01*
X659285Y-52700000D01*
X802142Y-52628571D01*
X1087857Y-52628571D01*
X1230714Y-52700000D01*
X1302142Y-52842857D01*
X1302142Y-52985714D01*
X587857Y-53128571D01*
X2587857Y-52628571D02*
X2587857Y-53842857D01*
X2516428Y-53985714D01*
X2445000Y-54057142D01*
X2302142Y-54128571D01*
X2087857Y-54128571D01*
X1945000Y-54057142D01*
X2587857Y-53557142D02*
X2445000Y-53628571D01*
X2159285Y-53628571D01*
X2016428Y-53557142D01*
X1945000Y-53485714D01*
X1873571Y-53342857D01*
X1873571Y-52914285D01*
X1945000Y-52771428D01*
X2016428Y-52700000D01*
X2159285Y-52628571D01*
X2445000Y-52628571D01*
X2587857Y-52700000D01*
X11802142Y-52842857D02*
X11302142Y-52842857D01*
X11302142Y-53628571D02*
X11302142Y-52128571D01*
X12016428Y-52128571D01*
X13444999Y-53628571D02*
X12944999Y-52914285D01*
X12587857Y-53628571D02*
X12587857Y-52128571D01*
X13159285Y-52128571D01*
X13302142Y-52200000D01*
X13373571Y-52271428D01*
X13444999Y-52414285D01*
X13444999Y-52628571D01*
X13373571Y-52771428D01*
X13302142Y-52842857D01*
X13159285Y-52914285D01*
X12587857Y-52914285D01*
X14730714Y-52628571D02*
X14730714Y-53628571D01*
X14373571Y-52057142D02*
X14016428Y-53128571D01*
X14944999Y-53128571D01*
X33373571Y-52128571D02*
X32659285Y-52128571D01*
X32587857Y-52842857D01*
X32659285Y-52771428D01*
X32802142Y-52700000D01*
X33159285Y-52700000D01*
X33302142Y-52771428D01*
X33373571Y-52842857D01*
X33444999Y-52985714D01*
X33444999Y-53342857D01*
X33373571Y-53485714D01*
X33302142Y-53557142D01*
X33159285Y-53628571D01*
X32802142Y-53628571D01*
X32659285Y-53557142D01*
X32587857Y-53485714D01*
X34087857Y-53485714D02*
X34159285Y-53557142D01*
X34087857Y-53628571D01*
X34016428Y-53557142D01*
X34087857Y-53485714D01*
X34087857Y-53628571D01*
X35087857Y-52128571D02*
X35230714Y-52128571D01*
X35373571Y-52200000D01*
X35444999Y-52271428D01*
X35516428Y-52414285D01*
X35587857Y-52700000D01*
X35587857Y-53057142D01*
X35516428Y-53342857D01*
X35444999Y-53485714D01*
X35373571Y-53557142D01*
X35230714Y-53628571D01*
X35087857Y-53628571D01*
X34944999Y-53557142D01*
X34873571Y-53485714D01*
X34802142Y-53342857D01*
X34730714Y-53057142D01*
X34730714Y-52700000D01*
X34802142Y-52414285D01*
X34873571Y-52271428D01*
X34944999Y-52200000D01*
X35087857Y-52128571D01*
X37373571Y-53628571D02*
X37373571Y-52628571D01*
X37373571Y-52771428D02*
X37444999Y-52700000D01*
X37587857Y-52628571D01*
X37802142Y-52628571D01*
X37944999Y-52700000D01*
X38016428Y-52842857D01*
X38016428Y-53628571D01*
X38016428Y-52842857D02*
X38087857Y-52700000D01*
X38230714Y-52628571D01*
X38444999Y-52628571D01*
X38587857Y-52700000D01*
X38659285Y-52842857D01*
X38659285Y-53628571D01*
X39373571Y-53628571D02*
X39373571Y-52628571D01*
X39373571Y-52128571D02*
X39302142Y-52200000D01*
X39373571Y-52271428D01*
X39444999Y-52200000D01*
X39373571Y-52128571D01*
X39373571Y-52271428D01*
X40302142Y-53628571D02*
X40159285Y-53557142D01*
X40087857Y-53414285D01*
X40087857Y-52128571D01*
X-5197858Y-55607142D02*
X-4055000Y-55607142D01*
X-3340715Y-55607142D02*
X-2197858Y-55607142D01*
X-1483572Y-55607142D02*
X-340715Y-55607142D01*
X373571Y-55607142D02*
X1516428Y-55607142D01*
X2230714Y-55607142D02*
X3373571Y-55607142D01*
X4087857Y-55607142D02*
X5230714Y-55607142D01*
X5945000Y-55607142D02*
X7087857Y-55607142D01*
X7802142Y-55607142D02*
X8945000Y-55607142D01*
X9659285Y-55607142D02*
X10802142Y-55607142D01*
X11516428Y-55607142D02*
X12659285Y-55607142D01*
X13373571Y-55607142D02*
X14516428Y-55607142D01*
X15230714Y-55607142D02*
X16373571Y-55607142D01*
X17087857Y-55607142D02*
X18230714Y-55607142D01*
X18945000Y-55607142D02*
X20087857Y-55607142D01*
X20802142Y-55607142D02*
X21945000Y-55607142D01*
X22659285Y-55607142D02*
X23802142Y-55607142D01*
X24516428Y-55607142D02*
X25659285Y-55607142D01*
X26373571Y-55607142D02*
X27516428Y-55607142D01*
X28230714Y-55607142D02*
X29373571Y-55607142D01*
X30087857Y-55607142D02*
X31230714Y-55607142D01*
X31945000Y-55607142D02*
X33087857Y-55607142D01*
X33802142Y-55607142D02*
X34945000Y-55607142D01*
X35659285Y-55607142D02*
X36802142Y-55607142D01*
X37516428Y-55607142D02*
X38659285Y-55607142D01*
X39373571Y-55607142D02*
X40516428Y-55607142D01*
X41230714Y-55607142D02*
X42373571Y-55607142D01*
X43087857Y-55607142D02*
X44230714Y-55607142D01*
X44945000Y-55607142D02*
X46087857Y-55607142D01*
X46802142Y-55607142D02*
X47945000Y-55607142D01*
X48659285Y-55607142D02*
X49802142Y-55607142D01*
X50516428Y-55607142D02*
X51659285Y-55607142D01*
X52373571Y-55607142D02*
X53516428Y-55607142D01*
X-4983572Y-58728571D02*
X-5126429Y-58657142D01*
X-5197858Y-58514285D01*
X-5197858Y-57228571D01*
X-3769286Y-58728571D02*
X-3769286Y-57942857D01*
X-3840715Y-57800000D01*
X-3983572Y-57728571D01*
X-4269286Y-57728571D01*
X-4412143Y-57800000D01*
X-3769286Y-58657142D02*
X-3912143Y-58728571D01*
X-4269286Y-58728571D01*
X-4412143Y-58657142D01*
X-4483572Y-58514285D01*
X-4483572Y-58371428D01*
X-4412143Y-58228571D01*
X-4269286Y-58157142D01*
X-3912143Y-58157142D01*
X-3769286Y-58085714D01*
X-3197858Y-57728571D02*
X-2840715Y-58728571D01*
X-2483572Y-57728571D02*
X-2840715Y-58728571D01*
X-2983572Y-59085714D01*
X-3055000Y-59157142D01*
X-3197858Y-59228571D01*
X-1340715Y-58657142D02*
X-1483572Y-58728571D01*
X-1769286Y-58728571D01*
X-1912143Y-58657142D01*
X-1983572Y-58514285D01*
X-1983572Y-57942857D01*
X-1912143Y-57800000D01*
X-1769286Y-57728571D01*
X-1483572Y-57728571D01*
X-1340715Y-57800000D01*
X-1269286Y-57942857D01*
X-1269286Y-58085714D01*
X-1983572Y-58228571D01*
X-626429Y-58728571D02*
X-626429Y-57728571D01*
X-626429Y-58014285D02*
X-555000Y-57871428D01*
X-483572Y-57800000D01*
X-340715Y-57728571D01*
X-197858Y-57728571D01*
X2087857Y-57228571D02*
X1802142Y-57228571D01*
X1659285Y-57300000D01*
X1587857Y-57371428D01*
X1445000Y-57585714D01*
X1373571Y-57871428D01*
X1373571Y-58442857D01*
X1445000Y-58585714D01*
X1516428Y-58657142D01*
X1659285Y-58728571D01*
X1945000Y-58728571D01*
X2087857Y-58657142D01*
X2159285Y-58585714D01*
X2230714Y-58442857D01*
X2230714Y-58085714D01*
X2159285Y-57942857D01*
X2087857Y-57871428D01*
X1945000Y-57800000D01*
X1659285Y-57800000D01*
X1516428Y-57871428D01*
X1445000Y-57942857D01*
X1373571Y-58085714D01*
X11516428Y-58657142D02*
X11373571Y-58728571D01*
X11087857Y-58728571D01*
X10944999Y-58657142D01*
X10873571Y-58585714D01*
X10802142Y-58442857D01*
X10802142Y-58014285D01*
X10873571Y-57871428D01*
X10944999Y-57800000D01*
X11087857Y-57728571D01*
X11373571Y-57728571D01*
X11516428Y-57800000D01*
X12373571Y-58728571D02*
X12230714Y-58657142D01*
X12159285Y-58585714D01*
X12087857Y-58442857D01*
X12087857Y-58014285D01*
X12159285Y-57871428D01*
X12230714Y-57800000D01*
X12373571Y-57728571D01*
X12587857Y-57728571D01*
X12730714Y-57800000D01*
X12802142Y-57871428D01*
X12873571Y-58014285D01*
X12873571Y-58442857D01*
X12802142Y-58585714D01*
X12730714Y-58657142D01*
X12587857Y-58728571D01*
X12373571Y-58728571D01*
X13516428Y-57728571D02*
X13516428Y-59228571D01*
X13516428Y-57800000D02*
X13659285Y-57728571D01*
X13945000Y-57728571D01*
X14087857Y-57800000D01*
X14159285Y-57871428D01*
X14230714Y-58014285D01*
X14230714Y-58442857D01*
X14159285Y-58585714D01*
X14087857Y-58657142D01*
X13945000Y-58728571D01*
X13659285Y-58728571D01*
X13516428Y-58657142D01*
X14873571Y-57728571D02*
X14873571Y-59228571D01*
X14873571Y-57800000D02*
X15016428Y-57728571D01*
X15302142Y-57728571D01*
X15445000Y-57800000D01*
X15516428Y-57871428D01*
X15587857Y-58014285D01*
X15587857Y-58442857D01*
X15516428Y-58585714D01*
X15445000Y-58657142D01*
X15302142Y-58728571D01*
X15016428Y-58728571D01*
X14873571Y-58657142D01*
X16802142Y-58657142D02*
X16659285Y-58728571D01*
X16373571Y-58728571D01*
X16230714Y-58657142D01*
X16159285Y-58514285D01*
X16159285Y-57942857D01*
X16230714Y-57800000D01*
X16373571Y-57728571D01*
X16659285Y-57728571D01*
X16802142Y-57800000D01*
X16873571Y-57942857D01*
X16873571Y-58085714D01*
X16159285Y-58228571D01*
X17516428Y-58728571D02*
X17516428Y-57728571D01*
X17516428Y-58014285D02*
X17587857Y-57871428D01*
X17659285Y-57800000D01*
X17802142Y-57728571D01*
X17945000Y-57728571D01*
X34087857Y-58728571D02*
X33230714Y-58728571D01*
X33659285Y-58728571D02*
X33659285Y-57228571D01*
X33516428Y-57442857D01*
X33373571Y-57585714D01*
X33230714Y-57657142D01*
X34730714Y-58585714D02*
X34802142Y-58657142D01*
X34730714Y-58728571D01*
X34659285Y-58657142D01*
X34730714Y-58585714D01*
X34730714Y-58728571D01*
X35302142Y-57228571D02*
X36230714Y-57228571D01*
X35730714Y-57800000D01*
X35944999Y-57800000D01*
X36087857Y-57871428D01*
X36159285Y-57942857D01*
X36230714Y-58085714D01*
X36230714Y-58442857D01*
X36159285Y-58585714D01*
X36087857Y-58657142D01*
X35944999Y-58728571D01*
X35516428Y-58728571D01*
X35373571Y-58657142D01*
X35302142Y-58585714D01*
X37587857Y-57228571D02*
X36873571Y-57228571D01*
X36802142Y-57942857D01*
X36873571Y-57871428D01*
X37016428Y-57800000D01*
X37373571Y-57800000D01*
X37516428Y-57871428D01*
X37587857Y-57942857D01*
X37659285Y-58085714D01*
X37659285Y-58442857D01*
X37587857Y-58585714D01*
X37516428Y-58657142D01*
X37373571Y-58728571D01*
X37016428Y-58728571D01*
X36873571Y-58657142D01*
X36802142Y-58585714D01*
X39444999Y-58728571D02*
X39444999Y-57728571D01*
X39444999Y-57871428D02*
X39516428Y-57800000D01*
X39659285Y-57728571D01*
X39873571Y-57728571D01*
X40016428Y-57800000D01*
X40087857Y-57942857D01*
X40087857Y-58728571D01*
X40087857Y-57942857D02*
X40159285Y-57800000D01*
X40302142Y-57728571D01*
X40516428Y-57728571D01*
X40659285Y-57800000D01*
X40730714Y-57942857D01*
X40730714Y-58728571D01*
X41444999Y-58728571D02*
X41444999Y-57728571D01*
X41444999Y-57228571D02*
X41373571Y-57300000D01*
X41444999Y-57371428D01*
X41516428Y-57300000D01*
X41444999Y-57228571D01*
X41444999Y-57371428D01*
X42373571Y-58728571D02*
X42230714Y-58657142D01*
X42159285Y-58514285D01*
X42159285Y-57228571D01*
D11*
X13460000Y91000000D02*
G75*
G03X13460000Y91000000I-2700000J0D01*
G01*
X211950000Y115250000D02*
G75*
G03X211950000Y115250000I-3200000J0D01*
G01*
X211950000Y3750000D02*
G75*
G03X211950000Y3750000I-3200000J0D01*
G01*
X13460000Y28000000D02*
G75*
G03X13460000Y28000000I-2700000J0D01*
G01*
M02*
