G04 #@! TF.GenerationSoftware,KiCad,Pcbnew,(5.0.0-rc2-dev-86-gcd2224b94)*
G04 #@! TF.CreationDate,2018-04-27T13:43:40-06:00*
G04 #@! TF.ProjectId,audio_beamforming_daughter_board,617564696F5F6265616D666F726D696E,1*
G04 #@! TF.SameCoordinates,PX175d720PY88601c0*
G04 #@! TF.FileFunction,Soldermask,Top*
G04 #@! TF.FilePolarity,Negative*
%FSLAX46Y46*%
G04 Gerber Fmt 4.6, Leading zero omitted, Abs format (unit mm)*
G04 Created by KiCad (PCBNEW (5.0.0-rc2-dev-86-gcd2224b94)) date Fri Apr 27 13:43:40 2018*
%MOMM*%
%LPD*%
G01*
G04 APERTURE LIST*
%ADD10C,1.011200*%
%ADD11C,0.911200*%
%ADD12R,2.004800X2.004800*%
%ADD13R,0.390000X0.740000*%
%ADD14R,0.740000X0.390000*%
%ADD15C,3.554800*%
%ADD16C,2.854800*%
%ADD17C,1.534800*%
%ADD18R,1.534800X1.534800*%
%ADD19O,2.004800X2.004800*%
%ADD20R,0.904800X1.854800*%
%ADD21R,1.504800X2.104800*%
%ADD22C,4.804800*%
%ADD23R,1.204800X0.804800*%
%ADD24R,1.104800X1.054800*%
%ADD25R,0.804800X1.204800*%
%ADD26R,1.054800X1.104800*%
%ADD27R,1.304800X2.804800*%
%ADD28R,2.804800X1.304800*%
%ADD29C,2.004800*%
%ADD30C,1.104800*%
%ADD31C,1.574800*%
%ADD32R,1.304800X1.554800*%
%ADD33R,0.904800X0.804800*%
%ADD34R,3.804800X1.904800*%
%ADD35R,1.804800X2.254800*%
%ADD36R,0.804800X0.904800*%
%ADD37R,1.304800X1.904800*%
%ADD38R,1.104800X1.104800*%
%ADD39R,3.704800X1.284800*%
%ADD40R,1.904800X3.504800*%
%ADD41R,0.954800X1.524800*%
%ADD42R,1.804800X0.754800*%
%ADD43R,0.554800X1.304800*%
%ADD44R,1.304800X0.554800*%
%ADD45R,0.754800X1.804800*%
%ADD46C,5.804800*%
%ADD47C,0.914400*%
%ADD48C,1.368800*%
%ADD49C,1.304800*%
%ADD50C,1.804800*%
G04 APERTURE END LIST*
D10*
X183850000Y93400000D03*
X184750000Y93400000D03*
X185650000Y93400000D03*
X183850000Y92500000D03*
X184750000Y92500000D03*
X185650000Y92500000D03*
X183850000Y91600000D03*
X184750000Y91600000D03*
X185650000Y91600000D03*
D11*
X26900000Y81850000D03*
X26900000Y80650000D03*
X28100000Y81850000D03*
X28100000Y80650000D03*
X27500000Y81250000D03*
D12*
X27500000Y81250000D03*
D13*
X28250000Y79850000D03*
X27750000Y79850000D03*
X27250000Y79850000D03*
X26750000Y79850000D03*
D14*
X26100000Y80500000D03*
X26100000Y81000000D03*
X26100000Y81500000D03*
X26100000Y82000000D03*
D13*
X26750000Y82650000D03*
X27250000Y82650000D03*
X27750000Y82650000D03*
X28250000Y82650000D03*
D14*
X28900000Y82000000D03*
X28900000Y81500000D03*
X28900000Y81000000D03*
X28900000Y80500000D03*
D15*
X39350000Y4570000D03*
X26650000Y4570000D03*
D16*
X41125000Y8000000D03*
X24875000Y8000000D03*
D17*
X39860000Y13710000D03*
X37570000Y13710000D03*
X28430000Y13710000D03*
X26140000Y13710000D03*
X29430000Y8890000D03*
X30450000Y7110000D03*
X31470000Y8890000D03*
X32490000Y7110000D03*
X33520000Y8890000D03*
X34530000Y7110000D03*
X35550000Y8890000D03*
D18*
X36570000Y7110000D03*
D15*
X62350000Y4570000D03*
X49650000Y4570000D03*
D16*
X64125000Y8000000D03*
X47875000Y8000000D03*
D17*
X62860000Y13710000D03*
X60570000Y13710000D03*
X51430000Y13710000D03*
X49140000Y13710000D03*
X52430000Y8890000D03*
X53450000Y7110000D03*
X54470000Y8890000D03*
X55490000Y7110000D03*
X56520000Y8890000D03*
X57530000Y7110000D03*
X58550000Y8890000D03*
D18*
X59570000Y7110000D03*
D15*
X85350000Y4570000D03*
X72650000Y4570000D03*
D16*
X87125000Y8000000D03*
X70875000Y8000000D03*
D17*
X85860000Y13710000D03*
X83570000Y13710000D03*
X74430000Y13710000D03*
X72140000Y13710000D03*
X75430000Y8890000D03*
X76450000Y7110000D03*
X77470000Y8890000D03*
X78490000Y7110000D03*
X79520000Y8890000D03*
X80530000Y7110000D03*
X81550000Y8890000D03*
D18*
X82570000Y7110000D03*
D15*
X108350000Y4570000D03*
X95650000Y4570000D03*
D16*
X110125000Y8000000D03*
X93875000Y8000000D03*
D17*
X108860000Y13710000D03*
X106570000Y13710000D03*
X97430000Y13710000D03*
X95140000Y13710000D03*
X98430000Y8890000D03*
X99450000Y7110000D03*
X100470000Y8890000D03*
X101490000Y7110000D03*
X102520000Y8890000D03*
X103530000Y7110000D03*
X104550000Y8890000D03*
D18*
X105570000Y7110000D03*
D15*
X131350000Y4570000D03*
X118650000Y4570000D03*
D16*
X133125000Y8000000D03*
X116875000Y8000000D03*
D17*
X131860000Y13710000D03*
X129570000Y13710000D03*
X120430000Y13710000D03*
X118140000Y13710000D03*
X121430000Y8890000D03*
X122450000Y7110000D03*
X123470000Y8890000D03*
X124490000Y7110000D03*
X125520000Y8890000D03*
X126530000Y7110000D03*
X127550000Y8890000D03*
D18*
X128570000Y7110000D03*
D15*
X154350000Y4570000D03*
X141650000Y4570000D03*
D16*
X156125000Y8000000D03*
X139875000Y8000000D03*
D17*
X154860000Y13710000D03*
X152570000Y13710000D03*
X143430000Y13710000D03*
X141140000Y13710000D03*
X144430000Y8890000D03*
X145450000Y7110000D03*
X146470000Y8890000D03*
X147490000Y7110000D03*
X148520000Y8890000D03*
X149530000Y7110000D03*
X150550000Y8890000D03*
D18*
X151570000Y7110000D03*
D15*
X177350000Y4570000D03*
X164650000Y4570000D03*
D16*
X179125000Y8000000D03*
X162875000Y8000000D03*
D17*
X177860000Y13710000D03*
X175570000Y13710000D03*
X166430000Y13710000D03*
X164140000Y13710000D03*
X167430000Y8890000D03*
X168450000Y7110000D03*
X169470000Y8890000D03*
X170490000Y7110000D03*
X171520000Y8890000D03*
X172530000Y7110000D03*
X173550000Y8890000D03*
D18*
X174570000Y7110000D03*
D15*
X200350000Y4570000D03*
X187650000Y4570000D03*
D16*
X202125000Y8000000D03*
X185875000Y8000000D03*
D17*
X200860000Y13710000D03*
X198570000Y13710000D03*
X189430000Y13710000D03*
X187140000Y13710000D03*
X190430000Y8890000D03*
X191450000Y7110000D03*
X192470000Y8890000D03*
X193490000Y7110000D03*
X194520000Y8890000D03*
X195530000Y7110000D03*
X196550000Y8890000D03*
D18*
X197570000Y7110000D03*
D12*
X207500000Y38000000D03*
D19*
X210040000Y38000000D03*
X207500000Y40540000D03*
X210040000Y40540000D03*
X207500000Y43080000D03*
X210040000Y43080000D03*
X207500000Y45620000D03*
X210040000Y45620000D03*
X207500000Y48160000D03*
X210040000Y48160000D03*
X207500000Y50700000D03*
X210040000Y50700000D03*
X207500000Y53240000D03*
X210040000Y53240000D03*
X207500000Y55780000D03*
X210040000Y55780000D03*
X207500000Y58320000D03*
X210040000Y58320000D03*
X207500000Y60860000D03*
X210040000Y60860000D03*
X207500000Y63400000D03*
X210040000Y63400000D03*
X207500000Y65940000D03*
X210040000Y65940000D03*
X207500000Y68480000D03*
X210040000Y68480000D03*
X207500000Y71020000D03*
X210040000Y71020000D03*
X207500000Y73560000D03*
X210040000Y73560000D03*
X207500000Y76100000D03*
X210040000Y76100000D03*
X207500000Y78640000D03*
X210040000Y78640000D03*
X207500000Y81180000D03*
X210040000Y81180000D03*
X207500000Y83720000D03*
X210040000Y83720000D03*
X207500000Y86260000D03*
X210040000Y86260000D03*
D20*
X30197500Y105867381D03*
X28927500Y105867381D03*
X27657500Y105867381D03*
X26387500Y105867381D03*
X26387500Y100467381D03*
X27657500Y100467381D03*
X28927500Y100467381D03*
X30197500Y100467381D03*
D21*
X93457500Y112120238D03*
X93457500Y116120238D03*
X91057500Y116120238D03*
X91057500Y112120238D03*
D22*
X10760000Y91000000D03*
D20*
X150155000Y80550000D03*
X148885000Y80550000D03*
X147615000Y80550000D03*
X146345000Y80550000D03*
X146345000Y85950000D03*
X147615000Y85950000D03*
X148885000Y85950000D03*
X150155000Y85950000D03*
D23*
X141250000Y82500000D03*
X141250000Y81000000D03*
D24*
X144500000Y86000000D03*
X143000000Y86000000D03*
D25*
X150250000Y88500000D03*
X148750000Y88500000D03*
X149000000Y78250000D03*
X147500000Y78250000D03*
D23*
X153250000Y85000000D03*
X153250000Y86500000D03*
X141250000Y84000000D03*
X141250000Y85500000D03*
D26*
X139250000Y84000000D03*
X139250000Y82500000D03*
X137250000Y82500000D03*
X137250000Y81000000D03*
D27*
X144250000Y89500000D03*
X141250000Y89500000D03*
D24*
X146000000Y76250000D03*
X147500000Y76250000D03*
D26*
X137250000Y84000000D03*
X137250000Y85500000D03*
D24*
X152000000Y80500000D03*
X153500000Y80500000D03*
D23*
X143750000Y84000000D03*
X143750000Y82500000D03*
D28*
X141250000Y76250000D03*
X141250000Y79250000D03*
D20*
X126655000Y85950000D03*
X125385000Y85950000D03*
X124115000Y85950000D03*
X122845000Y85950000D03*
X122845000Y80550000D03*
X124115000Y80550000D03*
X125385000Y80550000D03*
X126655000Y80550000D03*
D23*
X147750000Y92250000D03*
X147750000Y93750000D03*
D26*
X150250000Y92250000D03*
X150250000Y93750000D03*
X145250000Y93750000D03*
X145250000Y92250000D03*
D28*
X153250000Y92250000D03*
X153250000Y89250000D03*
D29*
X184500000Y107800000D03*
X184500000Y114800000D03*
X134000000Y107800000D03*
X134000000Y114800000D03*
D30*
X55750000Y38250000D03*
D31*
X8780000Y32310000D03*
X11830000Y86690000D03*
D24*
X7250000Y65750000D03*
X8750000Y65750000D03*
D27*
X7250000Y63000000D03*
X10250000Y63000000D03*
D26*
X24000000Y79000000D03*
X24000000Y80500000D03*
D24*
X25000000Y84750000D03*
X26500000Y84750000D03*
X7250000Y57000000D03*
X8750000Y57000000D03*
D27*
X7250000Y54250000D03*
X10250000Y54250000D03*
D24*
X7250000Y75000000D03*
X8750000Y75000000D03*
D27*
X7250000Y72250000D03*
X10250000Y72250000D03*
D32*
X30250000Y77250000D03*
X28250000Y77250000D03*
D24*
X7250000Y83750000D03*
X8750000Y83750000D03*
D27*
X7250000Y81000000D03*
X10250000Y81000000D03*
D33*
X32950000Y108000000D03*
X34050000Y108000000D03*
D34*
X30250000Y113000000D03*
X24850000Y113000000D03*
D35*
X36750000Y91875000D03*
X36750000Y89125000D03*
D36*
X32750000Y103450000D03*
X32750000Y104550000D03*
D26*
X43500000Y92500000D03*
X43500000Y94000000D03*
D32*
X39000000Y101250000D03*
X41000000Y101250000D03*
D33*
X23950000Y100500000D03*
X25050000Y100500000D03*
D37*
X39500000Y89250000D03*
X42500000Y89250000D03*
D24*
X41000000Y103500000D03*
X39500000Y103500000D03*
D34*
X24850000Y93500000D03*
X30250000Y93500000D03*
D24*
X42500000Y86500000D03*
X44000000Y86500000D03*
X41000000Y105500000D03*
X39500000Y105500000D03*
X73750000Y98750000D03*
X75250000Y98750000D03*
X73750000Y105750000D03*
X75250000Y105750000D03*
X73750000Y91750000D03*
X75250000Y91750000D03*
X73750000Y112750000D03*
X75250000Y112750000D03*
X62250000Y98750000D03*
X63750000Y98750000D03*
X62250000Y105750000D03*
X63750000Y105750000D03*
X62250000Y91750000D03*
X63750000Y91750000D03*
X62250000Y112750000D03*
X63750000Y112750000D03*
D26*
X95750000Y113500000D03*
X95750000Y112000000D03*
X88750000Y114750000D03*
X88750000Y116250000D03*
D24*
X91250000Y106750000D03*
X89750000Y106750000D03*
D26*
X97000000Y102750000D03*
X97000000Y104250000D03*
D24*
X103500000Y104000000D03*
X102000000Y104000000D03*
D26*
X82000000Y102500000D03*
X82000000Y104000000D03*
D24*
X98750000Y101750000D03*
X100250000Y101750000D03*
D26*
X98750000Y95250000D03*
X98750000Y96750000D03*
D28*
X101250000Y96750000D03*
X101250000Y93750000D03*
D26*
X97250000Y95250000D03*
X97250000Y93750000D03*
X82250000Y94250000D03*
X82250000Y92750000D03*
D24*
X93250000Y91000000D03*
X94750000Y91000000D03*
X94750000Y89000000D03*
X93250000Y89000000D03*
X91750000Y91000000D03*
X90250000Y91000000D03*
D26*
X185500000Y88000000D03*
X185500000Y86500000D03*
X187250000Y86500000D03*
X187250000Y88000000D03*
X183750000Y88000000D03*
X183750000Y86500000D03*
X182000000Y86500000D03*
X182000000Y88000000D03*
X137750000Y99250000D03*
X137750000Y97750000D03*
D24*
X121750000Y99250000D03*
X123250000Y99250000D03*
X143750000Y99250000D03*
X145250000Y99250000D03*
X138250000Y90500000D03*
X136750000Y90500000D03*
D26*
X121750000Y92250000D03*
X121750000Y93750000D03*
X126750000Y93750000D03*
X126750000Y92250000D03*
D28*
X129750000Y89250000D03*
X129750000Y92250000D03*
D24*
X124000000Y76250000D03*
X122500000Y76250000D03*
X128500000Y80500000D03*
X130000000Y80500000D03*
X119500000Y86000000D03*
X121000000Y86000000D03*
D27*
X117750000Y89500000D03*
X120750000Y89500000D03*
D28*
X117750000Y79250000D03*
X117750000Y76250000D03*
D26*
X113750000Y85500000D03*
X113750000Y84000000D03*
X115750000Y82500000D03*
X115750000Y84000000D03*
X113750000Y81000000D03*
X113750000Y82500000D03*
D33*
X33300000Y33250000D03*
X32200000Y33250000D03*
X32200000Y32000000D03*
X33300000Y32000000D03*
X56300000Y33250000D03*
X55200000Y33250000D03*
X55200000Y32000000D03*
X56300000Y32000000D03*
X78200000Y33250000D03*
X79300000Y33250000D03*
X79300000Y32000000D03*
X78200000Y32000000D03*
X102300000Y33250000D03*
X101200000Y33250000D03*
X102300000Y32000000D03*
X101200000Y32000000D03*
X125300000Y33250000D03*
X124200000Y33250000D03*
X124200000Y32000000D03*
X125300000Y32000000D03*
X147200000Y33250000D03*
X148300000Y33250000D03*
X148300000Y32000000D03*
X147200000Y32000000D03*
X171300000Y33250000D03*
X170200000Y33250000D03*
X170200000Y32000000D03*
X171300000Y32000000D03*
X193200000Y33250000D03*
X194300000Y33250000D03*
X194300000Y32000000D03*
X193200000Y32000000D03*
D38*
X10250000Y60250000D03*
X11850000Y60250000D03*
X11850000Y51500000D03*
X10250000Y51500000D03*
X10250000Y69500000D03*
X11850000Y69500000D03*
X11850000Y78250000D03*
X10250000Y78250000D03*
D12*
X135250000Y94250000D03*
D19*
X137790000Y94250000D03*
X140330000Y94250000D03*
D39*
X33750000Y78250000D03*
X33750000Y80620000D03*
D25*
X39500000Y98500000D03*
X41000000Y98500000D03*
X7250000Y60250000D03*
X8750000Y60250000D03*
X8750000Y51500000D03*
X7250000Y51500000D03*
X8750000Y69500000D03*
X7250000Y69500000D03*
X31750000Y83000000D03*
X30250000Y83000000D03*
X7250000Y78250000D03*
X8750000Y78250000D03*
X41000000Y86500000D03*
X39500000Y86500000D03*
D23*
X92750000Y107750000D03*
X92750000Y109250000D03*
D25*
X87000000Y107500000D03*
X85500000Y107500000D03*
X102000000Y101750000D03*
X103500000Y101750000D03*
X80750000Y95750000D03*
X79250000Y95750000D03*
D23*
X85750000Y87000000D03*
X85750000Y88500000D03*
D25*
X123250000Y96085000D03*
X121750000Y96085000D03*
X143750000Y96085000D03*
X145250000Y96085000D03*
D23*
X124250000Y93750000D03*
X124250000Y92250000D03*
X129750000Y86500000D03*
X129750000Y85000000D03*
D25*
X124000000Y78250000D03*
X125500000Y78250000D03*
D23*
X120250000Y82500000D03*
X120250000Y84000000D03*
D25*
X125250000Y88500000D03*
X126750000Y88500000D03*
D23*
X117750000Y85500000D03*
X117750000Y84000000D03*
X117750000Y81000000D03*
X117750000Y82500000D03*
D25*
X31500000Y22000000D03*
X30000000Y22000000D03*
X54500000Y22000000D03*
X53000000Y22000000D03*
X76000000Y22000000D03*
X77500000Y22000000D03*
X100500000Y22000000D03*
X99000000Y22000000D03*
X122000000Y22000000D03*
X123500000Y22000000D03*
X146500000Y22000000D03*
X145000000Y22000000D03*
X168000000Y22000000D03*
X169500000Y22000000D03*
X192500000Y22000000D03*
X191000000Y22000000D03*
D40*
X45100000Y114200000D03*
X24000000Y38600000D03*
X4000000Y63000000D03*
X41000000Y81000000D03*
X44500000Y103500000D03*
X4000000Y72250000D03*
X34750000Y113000000D03*
X4000000Y54250000D03*
D41*
X39550000Y91940000D03*
X40500000Y91940000D03*
X41450000Y91940000D03*
X41450000Y94560000D03*
X40500000Y94560000D03*
X39550000Y94560000D03*
D42*
X65800000Y91775000D03*
X65800000Y91125000D03*
X65800000Y90475000D03*
X65800000Y89825000D03*
X65800000Y89175000D03*
X65800000Y88525000D03*
X65800000Y87875000D03*
X65800000Y87225000D03*
X71700000Y87225000D03*
X71700000Y87875000D03*
X71700000Y88525000D03*
X71700000Y89175000D03*
X71700000Y89825000D03*
X71700000Y90475000D03*
X71700000Y91125000D03*
X71700000Y91775000D03*
X71700000Y112775000D03*
X71700000Y112125000D03*
X71700000Y111475000D03*
X71700000Y110825000D03*
X71700000Y110175000D03*
X71700000Y109525000D03*
X71700000Y108875000D03*
X71700000Y108225000D03*
X65800000Y108225000D03*
X65800000Y108875000D03*
X65800000Y109525000D03*
X65800000Y110175000D03*
X65800000Y110825000D03*
X65800000Y111475000D03*
X65800000Y112125000D03*
X65800000Y112775000D03*
X65800000Y98775000D03*
X65800000Y98125000D03*
X65800000Y97475000D03*
X65800000Y96825000D03*
X65800000Y96175000D03*
X65800000Y95525000D03*
X65800000Y94875000D03*
X65800000Y94225000D03*
X71700000Y94225000D03*
X71700000Y94875000D03*
X71700000Y95525000D03*
X71700000Y96175000D03*
X71700000Y96825000D03*
X71700000Y97475000D03*
X71700000Y98125000D03*
X71700000Y98775000D03*
X71700000Y105775000D03*
X71700000Y105125000D03*
X71700000Y104475000D03*
X71700000Y103825000D03*
X71700000Y103175000D03*
X71700000Y102525000D03*
X71700000Y101875000D03*
X71700000Y101225000D03*
X65800000Y101225000D03*
X65800000Y101875000D03*
X65800000Y102525000D03*
X65800000Y103175000D03*
X65800000Y103825000D03*
X65800000Y104475000D03*
X65800000Y105125000D03*
X65800000Y105775000D03*
D43*
X93392500Y104684999D03*
X92892500Y104684999D03*
X92392500Y104684999D03*
X91892500Y104684999D03*
X91392500Y104684999D03*
X90892500Y104684999D03*
X90392500Y104684999D03*
X89892500Y104684999D03*
X89392500Y104684999D03*
X88892500Y104684999D03*
X88392500Y104684999D03*
X87892500Y104684999D03*
X87392500Y104684999D03*
X86892500Y104684999D03*
X86392500Y104684999D03*
X85892500Y104684999D03*
D44*
X83942500Y102734999D03*
X83942500Y102234999D03*
X83942500Y101734999D03*
X83942500Y101234999D03*
X83942500Y100734999D03*
X83942500Y100234999D03*
X83942500Y99734999D03*
X83942500Y99234999D03*
X83942500Y98734999D03*
X83942500Y98234999D03*
X83942500Y97734999D03*
X83942500Y97234999D03*
X83942500Y96734999D03*
X83942500Y96234999D03*
X83942500Y95734999D03*
X83942500Y95234999D03*
D43*
X85892500Y93284999D03*
X86392500Y93284999D03*
X86892500Y93284999D03*
X87392500Y93284999D03*
X87892500Y93284999D03*
X88392500Y93284999D03*
X88892500Y93284999D03*
X89392500Y93284999D03*
X89892500Y93284999D03*
X90392500Y93284999D03*
X90892500Y93284999D03*
X91392500Y93284999D03*
X91892500Y93284999D03*
X92392500Y93284999D03*
X92892500Y93284999D03*
X93392500Y93284999D03*
D44*
X95342500Y95234999D03*
X95342500Y95734999D03*
X95342500Y96234999D03*
X95342500Y96734999D03*
X95342500Y97234999D03*
X95342500Y97734999D03*
X95342500Y98234999D03*
X95342500Y98734999D03*
X95342500Y99234999D03*
X95342500Y99734999D03*
X95342500Y100234999D03*
X95342500Y100734999D03*
X95342500Y101234999D03*
X95342500Y101734999D03*
X95342500Y102234999D03*
X95342500Y102734999D03*
D45*
X30725000Y29950000D03*
X31375000Y29950000D03*
X32025000Y29950000D03*
X32675000Y29950000D03*
X33325000Y29950000D03*
X33975000Y29950000D03*
X34625000Y29950000D03*
X35275000Y29950000D03*
X35275000Y24050000D03*
X34625000Y24050000D03*
X33975000Y24050000D03*
X33325000Y24050000D03*
X32675000Y24050000D03*
X32025000Y24050000D03*
X31375000Y24050000D03*
X30725000Y24050000D03*
X53725000Y29950000D03*
X54375000Y29950000D03*
X55025000Y29950000D03*
X55675000Y29950000D03*
X56325000Y29950000D03*
X56975000Y29950000D03*
X57625000Y29950000D03*
X58275000Y29950000D03*
X58275000Y24050000D03*
X57625000Y24050000D03*
X56975000Y24050000D03*
X56325000Y24050000D03*
X55675000Y24050000D03*
X55025000Y24050000D03*
X54375000Y24050000D03*
X53725000Y24050000D03*
X76725000Y29950000D03*
X77375000Y29950000D03*
X78025000Y29950000D03*
X78675000Y29950000D03*
X79325000Y29950000D03*
X79975000Y29950000D03*
X80625000Y29950000D03*
X81275000Y29950000D03*
X81275000Y24050000D03*
X80625000Y24050000D03*
X79975000Y24050000D03*
X79325000Y24050000D03*
X78675000Y24050000D03*
X78025000Y24050000D03*
X77375000Y24050000D03*
X76725000Y24050000D03*
X99725000Y29950000D03*
X100375000Y29950000D03*
X101025000Y29950000D03*
X101675000Y29950000D03*
X102325000Y29950000D03*
X102975000Y29950000D03*
X103625000Y29950000D03*
X104275000Y29950000D03*
X104275000Y24050000D03*
X103625000Y24050000D03*
X102975000Y24050000D03*
X102325000Y24050000D03*
X101675000Y24050000D03*
X101025000Y24050000D03*
X100375000Y24050000D03*
X99725000Y24050000D03*
X122725000Y24050000D03*
X123375000Y24050000D03*
X124025000Y24050000D03*
X124675000Y24050000D03*
X125325000Y24050000D03*
X125975000Y24050000D03*
X126625000Y24050000D03*
X127275000Y24050000D03*
X127275000Y29950000D03*
X126625000Y29950000D03*
X125975000Y29950000D03*
X125325000Y29950000D03*
X124675000Y29950000D03*
X124025000Y29950000D03*
X123375000Y29950000D03*
X122725000Y29950000D03*
X145725000Y24050000D03*
X146375000Y24050000D03*
X147025000Y24050000D03*
X147675000Y24050000D03*
X148325000Y24050000D03*
X148975000Y24050000D03*
X149625000Y24050000D03*
X150275000Y24050000D03*
X150275000Y29950000D03*
X149625000Y29950000D03*
X148975000Y29950000D03*
X148325000Y29950000D03*
X147675000Y29950000D03*
X147025000Y29950000D03*
X146375000Y29950000D03*
X145725000Y29950000D03*
X168725000Y29950000D03*
X169375000Y29950000D03*
X170025000Y29950000D03*
X170675000Y29950000D03*
X171325000Y29950000D03*
X171975000Y29950000D03*
X172625000Y29950000D03*
X173275000Y29950000D03*
X173275000Y24050000D03*
X172625000Y24050000D03*
X171975000Y24050000D03*
X171325000Y24050000D03*
X170675000Y24050000D03*
X170025000Y24050000D03*
X169375000Y24050000D03*
X168725000Y24050000D03*
X191725000Y24050000D03*
X192375000Y24050000D03*
X193025000Y24050000D03*
X193675000Y24050000D03*
X194325000Y24050000D03*
X194975000Y24050000D03*
X195625000Y24050000D03*
X196275000Y24050000D03*
X196275000Y29950000D03*
X195625000Y29950000D03*
X194975000Y29950000D03*
X194325000Y29950000D03*
X193675000Y29950000D03*
X193025000Y29950000D03*
X192375000Y29950000D03*
X191725000Y29950000D03*
D30*
X63500000Y104250000D03*
X74000000Y104250000D03*
X63500000Y103000000D03*
X74000000Y103000000D03*
X63500000Y101750000D03*
X74000000Y101750000D03*
X63500000Y97250000D03*
X74000000Y97250000D03*
X63500000Y96000000D03*
X74000000Y96000000D03*
X63500000Y94750000D03*
X74000000Y94750000D03*
X63500000Y110750000D03*
X74000000Y110750000D03*
X63500000Y89750000D03*
X74000000Y89750000D03*
X63500000Y93500000D03*
X74000000Y93500000D03*
X63500000Y88500000D03*
X74000000Y88500000D03*
X63500000Y87250000D03*
X74000000Y87250000D03*
X62750000Y71250000D03*
X180500000Y90750000D03*
X180500000Y92000000D03*
X180500000Y93250000D03*
X177000000Y113750000D03*
X192000000Y106500000D03*
X126750000Y113750000D03*
X141250000Y106500000D03*
X32750000Y38250000D03*
X34000000Y34500000D03*
X35250000Y34500000D03*
X33250000Y48250000D03*
X30750000Y48250000D03*
X32000000Y48250000D03*
X57000000Y34500000D03*
X58250000Y34500000D03*
X56250000Y48250000D03*
X53750000Y48250000D03*
X55000000Y48250000D03*
X78750000Y38250000D03*
X80000000Y34500000D03*
X81250000Y34500000D03*
X79250000Y48250000D03*
X76750000Y48250000D03*
X78000000Y48250000D03*
X101750000Y38250000D03*
X103000000Y34500000D03*
X104250000Y34500000D03*
X102250000Y48250000D03*
X99750000Y48250000D03*
X101000000Y48250000D03*
X124750000Y38250000D03*
X126000000Y34500000D03*
X127250000Y34500000D03*
X125250000Y48250000D03*
X122750000Y48250000D03*
X124000000Y48250000D03*
X147750000Y38250000D03*
X149000000Y34500000D03*
X150250000Y34500000D03*
X148250000Y48250000D03*
X145750000Y48250000D03*
X147000000Y48250000D03*
X170750000Y38250000D03*
X172000000Y34500000D03*
X173250000Y34500000D03*
X171250000Y48250000D03*
X168750000Y48250000D03*
X170000000Y48250000D03*
X193750000Y38250000D03*
X195000000Y34500000D03*
X196250000Y34500000D03*
X194250000Y48250000D03*
X191750000Y48250000D03*
X193000000Y48250000D03*
D40*
X4000000Y81000000D03*
D30*
X63500000Y109500000D03*
D46*
X208750000Y115250000D03*
X208750000Y3750000D03*
D22*
X10760000Y28000000D03*
D40*
X159000000Y111500000D03*
X159000000Y29250000D03*
D47*
X11278164Y83724328D03*
D48*
X18253946Y81265304D03*
D47*
X3700000Y51900000D03*
X5000000Y51900000D03*
D48*
X34750000Y74586810D03*
X31750000Y74586810D03*
X33750000Y74586810D03*
X30750000Y74586810D03*
X32750000Y74586810D03*
D30*
X199011100Y10250000D03*
X199988900Y10250000D03*
D47*
X14686045Y26186057D03*
X6172593Y45474007D03*
X15500000Y26750000D03*
X7391803Y45509087D03*
X16500000Y28000000D03*
X6150075Y46845879D03*
X17250000Y28500000D03*
X7397840Y44286040D03*
X16500000Y30249994D03*
X7482453Y41767547D03*
X19250000Y30500000D03*
X19000000Y31750000D03*
X7383569Y48081352D03*
X17250000Y33500000D03*
X17750000Y34250000D03*
X8750000Y49250000D03*
X19500000Y34249986D03*
X163000000Y22500000D03*
X8700016Y36700000D03*
X25250000Y28500000D03*
X176000000Y22500000D03*
X8850809Y38000000D03*
X186000000Y22500000D03*
X10000000Y39108048D03*
X26250000Y31250000D03*
X199500000Y22500000D03*
X5282611Y71030022D03*
X12500000Y82250028D03*
X8924108Y77280018D03*
X17000000Y78859610D03*
X15500000Y77250000D03*
X11287095Y59395723D03*
X12600000Y40400000D03*
X11200000Y40381083D03*
X13800000Y40390390D03*
X10000000Y37818544D03*
X8760730Y40460769D03*
X7390398Y40430253D03*
X7389562Y43009036D03*
X8749191Y44200000D03*
X7390390Y37929741D03*
X4949191Y40392160D03*
X10025097Y35548147D03*
X12600000Y37850809D03*
X11219211Y38000000D03*
X13782453Y35382453D03*
X15510176Y37276254D03*
X8900000Y48200000D03*
X11132696Y51800000D03*
X8799995Y50499995D03*
X11250000Y74750000D03*
X11387443Y70862557D03*
X5000000Y76050809D03*
X12614243Y60884268D03*
X10231390Y59367388D03*
D48*
X45250000Y86717991D03*
X27750000Y88000000D03*
X26727950Y87022050D03*
X26750000Y88000000D03*
X36250000Y87481380D03*
D47*
X10017440Y83734663D03*
X13750022Y85000000D03*
X3617547Y42982453D03*
X3749191Y35400000D03*
X5800000Y34050809D03*
X12500000Y44300809D03*
X15500000Y45000000D03*
X15500000Y60000000D03*
X15250000Y64000000D03*
X15250020Y71600589D03*
X15250000Y52500000D03*
X15267547Y67755548D03*
X12500000Y70898391D03*
X19000000Y73750000D03*
X21000000Y73000000D03*
X12545252Y72272626D03*
X48750000Y67640390D03*
X40250000Y67640390D03*
X34500020Y67250000D03*
X12500000Y68550809D03*
X35749980Y64750000D03*
X30999990Y66250000D03*
X18250000Y49250000D03*
X19250000Y48750000D03*
X19750000Y47750000D03*
X20250002Y46750000D03*
X19249996Y44750000D03*
X11300000Y44300000D03*
X12668170Y42933042D03*
X21999980Y43750000D03*
X12600000Y41800000D03*
X25000002Y43500000D03*
X15100000Y40400000D03*
X24750000Y42250000D03*
X11300000Y41700016D03*
X9912006Y41715224D03*
X19500000Y38299998D03*
X15200000Y38000000D03*
X10100000Y40399988D03*
X18750136Y37250000D03*
X27250000Y35695199D03*
X11300000Y45600000D03*
D30*
X195500000Y47250000D03*
X191750000Y44500000D03*
X195750000Y44500000D03*
X195000000Y41500000D03*
X191750000Y41500000D03*
X193750000Y28500000D03*
X196250000Y28500000D03*
X202000000Y21250000D03*
X190250000Y21250000D03*
X201000000Y10250000D03*
X191750000Y28500000D03*
X197000000Y17000000D03*
X196250000Y41500000D03*
X196500000Y38750000D03*
D49*
X197500000Y47000000D03*
D30*
X195025490Y38747168D03*
X193272581Y31277360D03*
X194250000Y31250000D03*
X198000000Y10250000D03*
X176011100Y10250000D03*
X176988900Y10250000D03*
X172500000Y47250000D03*
X168750000Y44500000D03*
X172750000Y44500000D03*
X172000000Y41500000D03*
X168750000Y41500000D03*
X170750000Y28500000D03*
X173250000Y28500000D03*
X179000000Y21250000D03*
X167250000Y21250000D03*
X178000000Y10250000D03*
X168750000Y28500000D03*
X174000000Y17000000D03*
X173250000Y41500000D03*
X173500000Y38750000D03*
D49*
X174500000Y47000000D03*
D30*
X172025490Y38747168D03*
X170272581Y31277360D03*
X171250000Y31250000D03*
X175000000Y10250000D03*
X153011100Y10250000D03*
X153988900Y10250000D03*
X149500000Y47250000D03*
X145750000Y44500000D03*
X149750000Y44500000D03*
X149000000Y41500000D03*
X145750000Y41500000D03*
X147750000Y28500000D03*
X150250000Y28500000D03*
X156000000Y21250000D03*
X144250000Y21250000D03*
X155000000Y10250000D03*
X145750000Y28500000D03*
X151000000Y17000000D03*
X150250000Y41500000D03*
X150500000Y38750000D03*
D49*
X151500000Y47000000D03*
D30*
X149025490Y38747168D03*
X147272581Y31277360D03*
X148250000Y31250000D03*
X152000000Y10250000D03*
X130011100Y10250000D03*
X130988900Y10250000D03*
X126500000Y47250000D03*
X122750000Y44500000D03*
X126750000Y44500000D03*
X126000000Y41500000D03*
X122750000Y41500000D03*
X124750000Y28500000D03*
X127250000Y28500000D03*
X133000000Y21250000D03*
X121250000Y21250000D03*
X132000000Y10250000D03*
X122750000Y28500000D03*
X128000000Y17000000D03*
X127250000Y41500000D03*
X127500000Y38750000D03*
D49*
X128500000Y47000000D03*
D30*
X126025490Y38747168D03*
X124272581Y31277360D03*
X125250000Y31250000D03*
X129000000Y10250000D03*
X107011100Y10250000D03*
X107988900Y10250000D03*
X103500000Y47250000D03*
X99750000Y44500000D03*
X103750000Y44500000D03*
X103000000Y41500000D03*
X99750000Y41500000D03*
X101750000Y28500000D03*
X104250000Y28500000D03*
X110000000Y21250000D03*
X98250000Y21250000D03*
X109000000Y10250000D03*
X99750000Y28500000D03*
X105000000Y17000000D03*
X104250000Y41500000D03*
X104500000Y38750000D03*
D49*
X105500000Y47000000D03*
D30*
X103025490Y38747168D03*
X101272581Y31277360D03*
X102250000Y31250000D03*
X106000000Y10250000D03*
X84011100Y10250000D03*
X84988900Y10250000D03*
X80500000Y47250000D03*
X76750000Y44500000D03*
X80750000Y44500000D03*
X80000000Y41500000D03*
X76750000Y41500000D03*
X78750000Y28500000D03*
X81250000Y28500000D03*
X87000000Y21250000D03*
X75250000Y21250000D03*
X86000000Y10250000D03*
X76750000Y28500000D03*
X82000000Y17000000D03*
X81250000Y41500000D03*
X81500000Y38750000D03*
D49*
X82500000Y47000000D03*
D30*
X80025490Y38747168D03*
X78272581Y31277360D03*
X79250000Y31250000D03*
X83000000Y10250000D03*
X61011100Y10250000D03*
X61988900Y10250000D03*
X57500000Y47250000D03*
X53750000Y44500000D03*
X57750000Y44500000D03*
X57000000Y41500000D03*
X53750000Y41500000D03*
X55750000Y28500000D03*
X58250000Y28500000D03*
X64000000Y21250000D03*
X52250000Y21250000D03*
X63000000Y10250000D03*
X53750000Y28500000D03*
X59000000Y17000000D03*
X58250000Y41500000D03*
X58500000Y38750000D03*
D49*
X59500000Y47000000D03*
D30*
X57025490Y38747168D03*
X55272581Y31277360D03*
X56250000Y31250000D03*
X60000000Y10250000D03*
X37000000Y10250000D03*
D50*
X182750000Y47750000D03*
D30*
X67000000Y69500000D03*
X149750000Y75750000D03*
X152250000Y74750000D03*
X71500000Y69000000D03*
X185250000Y17000000D03*
X162250000Y17000000D03*
X139250000Y17000000D03*
X116250000Y17000000D03*
X93250000Y17000000D03*
X70250000Y17000000D03*
X47250000Y17000000D03*
D47*
X17000000Y32540961D03*
X16577026Y75500000D03*
D30*
X159000000Y31500000D03*
X159000000Y113750000D03*
D47*
X23750000Y70941200D03*
X47500000Y67250000D03*
X11250000Y68250000D03*
X32000000Y62750000D03*
X28000000Y64250000D03*
X26750000Y46000000D03*
X10000000Y43000000D03*
X29250000Y40750000D03*
X10000000Y47000000D03*
X10000000Y45500000D03*
X12500000Y83750000D03*
X14000000Y83750000D03*
D30*
X67270287Y98783812D03*
D48*
X19000000Y80750000D03*
X19000000Y81750000D03*
X22000000Y82750000D03*
X22000000Y83750000D03*
X21250000Y84250000D03*
X20500000Y83750000D03*
D30*
X2000000Y56750000D03*
X2000000Y57500000D03*
X1250000Y58250000D03*
X1250000Y57500000D03*
X1250000Y56000000D03*
X2000000Y54500000D03*
X1250000Y54500000D03*
X2000000Y53750000D03*
X1250000Y53750000D03*
X2000000Y53000000D03*
X1250000Y53000000D03*
X1250000Y52250000D03*
X2000000Y52250000D03*
X2000000Y48500000D03*
X1250000Y48500000D03*
X1250000Y49250000D03*
X2000000Y49250000D03*
X2000000Y50000000D03*
X1250000Y50000000D03*
X1250000Y50750000D03*
X2000000Y50750000D03*
X2000000Y51500000D03*
X1250000Y51500000D03*
X1250000Y55250000D03*
X2000000Y58250000D03*
X1250000Y56750000D03*
X34750000Y115000000D03*
D48*
X47150000Y78750000D03*
X47150000Y82750000D03*
X47150000Y80750000D03*
X47150000Y83750000D03*
X47150000Y79750000D03*
X47150000Y81750000D03*
X47900000Y82250000D03*
X47900000Y84250000D03*
X47900000Y83250000D03*
X47900000Y81250000D03*
X47900000Y80250000D03*
X47900000Y79250000D03*
X47900000Y78250000D03*
X48650000Y81750000D03*
X48650000Y83750000D03*
X48650000Y82750000D03*
X48650000Y80750000D03*
X48650000Y79750000D03*
X48650000Y78750000D03*
X49400000Y84250000D03*
X49400000Y83250000D03*
X49400000Y82250000D03*
D30*
X51250000Y110750000D03*
D48*
X39000000Y117500000D03*
X39000000Y116500000D03*
X39000000Y115500000D03*
X39000000Y114500000D03*
X39000000Y113500000D03*
X39000000Y112500000D03*
X39000000Y111500000D03*
X39000000Y110500000D03*
X39000000Y109500000D03*
X39750000Y110000000D03*
X39750000Y111000000D03*
X39750000Y112000000D03*
X39750000Y113000000D03*
X39750000Y114000000D03*
X39750000Y115000000D03*
X39750000Y116000000D03*
X39750000Y117000000D03*
X40500000Y117500000D03*
X40500000Y116500000D03*
X40500000Y115500000D03*
X40500000Y114500000D03*
X40500000Y113500000D03*
X40500000Y112500000D03*
X40500000Y111500000D03*
X40500000Y110500000D03*
X40500000Y109500000D03*
D47*
X17000000Y85500000D03*
X9400000Y85100000D03*
D48*
X61500000Y75250000D03*
X55500000Y75250000D03*
X65500000Y75250000D03*
X66500000Y75250000D03*
X58500000Y75250000D03*
X67500000Y75250000D03*
X60500000Y75250000D03*
X57500000Y75250000D03*
X64500000Y75250000D03*
X59500000Y75250000D03*
X56500000Y75250000D03*
X62500000Y75250000D03*
X63500000Y75250000D03*
X57000000Y76000000D03*
X56000000Y76000000D03*
X58000000Y76000000D03*
X60000000Y76000000D03*
X61000000Y76000000D03*
X59000000Y76000000D03*
X63000000Y76000000D03*
X62000000Y76000000D03*
X64000000Y76000000D03*
X65000000Y76000000D03*
X66000000Y76000000D03*
X67000000Y76000000D03*
X67500000Y76750000D03*
X66500000Y76750000D03*
X65500000Y76750000D03*
X64500000Y76750000D03*
X63500000Y76750000D03*
X62500000Y76750000D03*
X61500000Y76750000D03*
X60500000Y76750000D03*
X59500000Y76750000D03*
X58500000Y76750000D03*
X57500000Y76750000D03*
X56500000Y76750000D03*
X55500000Y76750000D03*
D47*
X5000000Y57000000D03*
X6250000Y55750000D03*
D48*
X72250000Y75250000D03*
X86250000Y75250000D03*
X82250000Y75250000D03*
X81250000Y75250000D03*
X79250000Y75250000D03*
X73250000Y75250000D03*
X84250000Y75250000D03*
X83250000Y75250000D03*
X75250000Y75250000D03*
X85250000Y75250000D03*
X80250000Y75250000D03*
X78250000Y75250000D03*
X76250000Y75250000D03*
X87250000Y75250000D03*
X74250000Y75250000D03*
X71250000Y75250000D03*
X70250000Y75250000D03*
X77250000Y75250000D03*
X74750000Y76000000D03*
X72750000Y76000000D03*
X70750000Y76000000D03*
X73750000Y76000000D03*
X71750000Y76000000D03*
X78750000Y76000000D03*
X79750000Y76000000D03*
X80750000Y76000000D03*
X77750000Y76000000D03*
X76750000Y76000000D03*
X75750000Y76000000D03*
X85750000Y76000000D03*
X81750000Y76000000D03*
X83750000Y76000000D03*
X82750000Y76000000D03*
X84750000Y76000000D03*
X86750000Y76000000D03*
X87250000Y76750000D03*
X86250000Y76750000D03*
X85250000Y76750000D03*
X84250000Y76750000D03*
X83250000Y76750000D03*
X82250000Y76750000D03*
X80250000Y76750000D03*
X81250000Y76750000D03*
X79250000Y76750000D03*
X78250000Y76750000D03*
X77250000Y76750000D03*
X76250000Y76750000D03*
X75250000Y76750000D03*
X74250000Y76750000D03*
X73250000Y76750000D03*
X72250000Y76750000D03*
X71250000Y76750000D03*
X70250000Y76750000D03*
X21250000Y82250000D03*
X21250000Y83250000D03*
X19750000Y83250000D03*
X19750000Y82250000D03*
X19750000Y81250000D03*
X38750000Y95500000D03*
X37750000Y95500000D03*
X36750000Y95500000D03*
X38250000Y96250000D03*
X37250000Y96250000D03*
X36750000Y97000000D03*
X37750000Y97000000D03*
X38750000Y97000000D03*
X28250000Y98250000D03*
X27250000Y98250000D03*
X26250000Y98250000D03*
X25250000Y98250000D03*
X25750000Y97500000D03*
X26750000Y97500000D03*
X27750000Y97500000D03*
X28250000Y96750000D03*
X27250000Y96750000D03*
X26250000Y96750000D03*
X25250000Y96750000D03*
X33250000Y92000000D03*
X33250000Y91000000D03*
X32500000Y91500000D03*
X31750000Y92000000D03*
X31750000Y91000000D03*
X31000000Y91500000D03*
X30250000Y92000000D03*
X30250000Y91000000D03*
X29500000Y91500000D03*
X28750000Y92000000D03*
X28750000Y91000000D03*
X35250000Y75250000D03*
X34250000Y75250000D03*
X33250000Y75250000D03*
X32250000Y75250000D03*
X31250000Y75250000D03*
X30250000Y75250000D03*
X53350000Y104000000D03*
X51100000Y107500000D03*
X51100000Y104500000D03*
X53350000Y107000000D03*
X51100000Y106500000D03*
X53350000Y106000000D03*
X53350000Y105000000D03*
X51100000Y105500000D03*
X49600000Y105500000D03*
X50350000Y105000000D03*
X49600000Y104500000D03*
X49600000Y106500000D03*
X51850000Y106000000D03*
X51850000Y104000000D03*
X51850000Y105000000D03*
X51850000Y107000000D03*
X49600000Y107500000D03*
X50350000Y106000000D03*
X50350000Y104000000D03*
D47*
X21461172Y76250000D03*
D30*
X26800000Y44400000D03*
X45100000Y116400000D03*
X24000000Y101250000D03*
X35000000Y108000000D03*
X38500000Y105500000D03*
X38500000Y103500000D03*
X38000000Y101250000D03*
X40500000Y95750000D03*
D48*
X43750000Y89500000D03*
X27250000Y88750000D03*
X27000000Y76750000D03*
X26000000Y76750000D03*
D30*
X91000000Y110500000D03*
D47*
X6323014Y74684592D03*
D30*
X33250000Y31250000D03*
X67250000Y105000000D03*
X85750000Y86000000D03*
X27003053Y78986566D03*
X96500000Y101939799D03*
X96420302Y95759505D03*
X184239336Y95360238D03*
D48*
X52600000Y107500000D03*
X50350000Y107000000D03*
X52600000Y106500000D03*
D30*
X151000000Y80500000D03*
X127500000Y80500000D03*
X145500000Y86000000D03*
X122000000Y86000000D03*
X186500000Y90500000D03*
X187000000Y89000000D03*
X183750000Y89500000D03*
X182000000Y89500000D03*
X125250000Y82500000D03*
D47*
X5000000Y46750000D03*
X7500000Y49250000D03*
X6250000Y73500000D03*
X11250000Y81000000D03*
X17000000Y83750000D03*
X17000000Y81750000D03*
X16795000Y80455000D03*
X17500000Y38750000D03*
X13750000Y81000000D03*
X12500000Y80000000D03*
X17500000Y76904000D03*
X16741999Y53008001D03*
X11250000Y53000000D03*
X17750000Y57000000D03*
X11250000Y57000000D03*
X19000000Y60750000D03*
X20000000Y65000000D03*
X11250000Y64500000D03*
X17500000Y40250000D03*
D30*
X32272581Y31277360D03*
D47*
X15500000Y75500000D03*
X15250000Y56308800D03*
D30*
X34025490Y38747168D03*
D47*
X3600000Y38000000D03*
X3600000Y40400000D03*
X6200000Y38000000D03*
X5000000Y43000000D03*
X5000000Y45400000D03*
X3600000Y45400000D03*
X5000000Y48000000D03*
X3600000Y48200000D03*
X8800000Y58200000D03*
X12600000Y58200000D03*
X6200000Y64600000D03*
X10000000Y50600000D03*
X12600000Y50600000D03*
X12600000Y54400000D03*
X11200000Y55600000D03*
X8800000Y55600000D03*
X10000000Y57000000D03*
X5000000Y50600000D03*
X3600000Y50600000D03*
X2200000Y55800000D03*
X5000000Y58200000D03*
X6200000Y58200000D03*
X3800000Y60800000D03*
X5000000Y60600000D03*
X6200000Y60800000D03*
X12600000Y62000000D03*
X8800000Y64600000D03*
X5000000Y68400000D03*
X3600000Y65800000D03*
X5000000Y65800000D03*
X8800000Y67200000D03*
X10000000Y67200000D03*
X8800000Y71000000D03*
X12600000Y78600000D03*
X10000000Y77200000D03*
X12600000Y74800000D03*
X10000000Y74800000D03*
X2600000Y69600000D03*
X5000000Y78600000D03*
X2143224Y79456776D03*
X2400000Y80400000D03*
X3600000Y83600000D03*
X5000000Y83600000D03*
X11400000Y82400000D03*
X15200000Y83000000D03*
D30*
X24000000Y36400000D03*
D47*
X13800000Y48000000D03*
X11200000Y48000000D03*
X6250000Y69750000D03*
X11250000Y67000000D03*
X12500000Y67250000D03*
X13750000Y78500000D03*
D30*
X147750000Y87250000D03*
X146250000Y79250000D03*
X124250000Y87250000D03*
X122750000Y79250000D03*
X137250000Y86500000D03*
X137250000Y80000000D03*
X113750000Y86500000D03*
X113750000Y80000000D03*
X154500000Y80500000D03*
D47*
X11250000Y72250000D03*
D30*
X148750000Y82500000D03*
X146250000Y82500000D03*
X122750000Y82500000D03*
X143000000Y85000000D03*
X131000000Y80500000D03*
X119500000Y85000000D03*
X190750000Y116000000D03*
X140250000Y116000000D03*
D48*
X25000000Y76750000D03*
X24000000Y76750000D03*
X25000000Y114500000D03*
D30*
X26500000Y104500000D03*
X95750000Y89000000D03*
X95750000Y91000000D03*
X88750000Y106750000D03*
X92000000Y103500000D03*
X93250000Y103500000D03*
X97000000Y105250000D03*
X101250000Y92750000D03*
X98750000Y94250000D03*
X97250000Y92750000D03*
X91500000Y94500000D03*
X93250000Y94500000D03*
X92500000Y94500000D03*
X90250000Y90000000D03*
X187400000Y98550000D03*
X67250000Y91250000D03*
X67250000Y112750000D03*
X64500000Y112750000D03*
X64500000Y105750000D03*
X64500000Y98750000D03*
X64500000Y91750000D03*
D47*
X8780000Y63384477D03*
D48*
X36500000Y47000000D03*
D47*
X8700000Y82400000D03*
X8800000Y81100000D03*
X6200000Y77300000D03*
X6250000Y79750000D03*
D30*
X73000000Y112750000D03*
X73000000Y105750000D03*
X73000000Y98750000D03*
X73000000Y91750000D03*
X84750000Y107500000D03*
X83500000Y94250000D03*
X83000000Y104000000D03*
D47*
X8769157Y54482427D03*
X6200000Y83600000D03*
X6200000Y82400000D03*
X6200000Y78500000D03*
X8800000Y72200000D03*
D30*
X184250000Y98750000D03*
X191000000Y91000000D03*
X137750000Y96750000D03*
D48*
X20500000Y80750000D03*
X20500000Y82750000D03*
X20500000Y81750000D03*
D30*
X35500000Y38750000D03*
X35250000Y41500000D03*
X24250000Y17000000D03*
X36000000Y17000000D03*
X30750000Y28500000D03*
X30250000Y84500000D03*
D48*
X30250000Y114500000D03*
D30*
X91250000Y105750000D03*
X103500000Y102750000D03*
X91750000Y92000000D03*
D48*
X52600000Y104500000D03*
X52600000Y105500000D03*
D30*
X187500000Y91000000D03*
X149000000Y93750000D03*
X125500000Y93750000D03*
D48*
X49400000Y78250000D03*
X49400000Y79250000D03*
X49400000Y80250000D03*
X49400000Y81250000D03*
D30*
X87000000Y108750000D03*
D47*
X81750000Y96404000D03*
D48*
X25000000Y95000000D03*
D30*
X67250000Y111500000D03*
X67250000Y108250000D03*
X70250000Y108250000D03*
X70250000Y111750000D03*
X70250000Y104750000D03*
X70250000Y101250000D03*
X67250000Y101250000D03*
X67250000Y97750000D03*
X70250000Y97750000D03*
X70250000Y94250000D03*
X67250000Y94250000D03*
X67250000Y87250000D03*
X70250000Y87250000D03*
X70250000Y90750000D03*
X76250000Y91750000D03*
X76250000Y98750000D03*
X76250000Y105750000D03*
X76250000Y112750000D03*
X61250000Y112750000D03*
X61250000Y105750000D03*
X61250000Y98750000D03*
X61250000Y91750000D03*
X78250000Y95750000D03*
X81000000Y102500000D03*
X88750000Y113750000D03*
X93500000Y117750000D03*
X95750000Y114500000D03*
X86000000Y94500000D03*
X82250000Y91750000D03*
X85250000Y99250000D03*
X85250000Y102000000D03*
X86000000Y103500000D03*
D47*
X6250000Y48000000D03*
D30*
X40000000Y10250000D03*
X29250000Y21250000D03*
X41000000Y21250000D03*
X35250000Y28500000D03*
X32750000Y28500000D03*
X30750000Y41500000D03*
X34000000Y41500000D03*
X34750000Y44500000D03*
X30750000Y44500000D03*
X34500000Y47250000D03*
X38988900Y10250000D03*
X38011100Y10250000D03*
M02*
