G04 #@! TF.GenerationSoftware,KiCad,Pcbnew,(5.0.0-rc2-dev-86-gcd2224b94)*
G04 #@! TF.CreationDate,2018-04-27T13:43:40-06:00*
G04 #@! TF.ProjectId,audio_beamforming_daughter_board,617564696F5F6265616D666F726D696E,1*
G04 #@! TF.SameCoordinates,PX175d720PY88601c0*
G04 #@! TF.FileFunction,Legend,Bot*
G04 #@! TF.FilePolarity,Positive*
%FSLAX46Y46*%
G04 Gerber Fmt 4.6, Leading zero omitted, Abs format (unit mm)*
G04 Created by KiCad (PCBNEW (5.0.0-rc2-dev-86-gcd2224b94)) date Fri Apr 27 13:43:40 2018*
%MOMM*%
%LPD*%
G01*
G04 APERTURE LIST*
%ADD10C,0.120000*%
%ADD11C,0.150000*%
%ADD12C,0.080000*%
G04 APERTURE END LIST*
D10*
X186725000Y91150000D02*
X186725000Y90525000D01*
X186725000Y94475000D02*
X186725000Y93850000D01*
X186100000Y94475000D02*
X186725000Y94475000D01*
X182775000Y94475000D02*
X183400000Y94475000D01*
X182775000Y93850000D02*
X182775000Y94475000D01*
X182775000Y90525000D02*
X182775000Y91150000D01*
X183400000Y90525000D02*
X182775000Y90525000D01*
X186150000Y89600000D02*
G75*
G03X186150000Y89600000I-100000J0D01*
G01*
X206170000Y87590000D02*
X211370000Y87590000D01*
X206170000Y39270000D02*
X206170000Y87590000D01*
X211370000Y36670000D02*
X211370000Y87590000D01*
X206170000Y39270000D02*
X208770000Y39270000D01*
X208770000Y39270000D02*
X208770000Y36670000D01*
X208770000Y36670000D02*
X211370000Y36670000D01*
X206170000Y38000000D02*
X206170000Y36670000D01*
X206170000Y36670000D02*
X207500000Y36670000D01*
X178900000Y100700000D02*
X178900000Y118800000D01*
X190100000Y100700000D02*
X178900000Y100700000D01*
X190100000Y118800000D02*
X190100000Y100700000D01*
X178900000Y118800000D02*
X190100000Y118800000D01*
X128400000Y100700000D02*
X128400000Y118800000D01*
X139600000Y100700000D02*
X128400000Y100700000D01*
X139600000Y118800000D02*
X139600000Y100700000D01*
X128400000Y118800000D02*
X139600000Y118800000D01*
X16120000Y31610000D02*
X16120000Y87390000D01*
X9540000Y31610000D02*
X16120000Y31610000D01*
X9540000Y30720000D02*
X9540000Y31610000D01*
X8020000Y30720000D02*
X9540000Y30720000D01*
X8020000Y31610000D02*
X8020000Y30720000D01*
X1440000Y31610000D02*
X8020000Y31610000D01*
X1440000Y87390000D02*
X1440000Y31610000D01*
X16120000Y87390000D02*
X1440000Y87390000D01*
X188900000Y90400000D02*
X189600000Y90400000D01*
X189600000Y91600000D02*
X188900000Y91600000D01*
X188150000Y93850000D02*
X188150000Y93150000D01*
X189350000Y93150000D02*
X189350000Y93850000D01*
X186800000Y97100000D02*
X186800000Y96400000D01*
X188000000Y96400000D02*
X188000000Y97100000D01*
X184850000Y96650000D02*
X184850000Y97350000D01*
X183650000Y97350000D02*
X183650000Y96650000D01*
X35100000Y38350000D02*
X34400000Y38350000D01*
X34400000Y37150000D02*
X35100000Y37150000D01*
X35400000Y47650000D02*
X36100000Y47650000D01*
X36100000Y48850000D02*
X35400000Y48850000D01*
X58100000Y38350000D02*
X57400000Y38350000D01*
X57400000Y37150000D02*
X58100000Y37150000D01*
X58400000Y47650000D02*
X59100000Y47650000D01*
X59100000Y48850000D02*
X58400000Y48850000D01*
X80400000Y37150000D02*
X81100000Y37150000D01*
X81100000Y38350000D02*
X80400000Y38350000D01*
X82100000Y48850000D02*
X81400000Y48850000D01*
X81400000Y47650000D02*
X82100000Y47650000D01*
X104100000Y38350000D02*
X103400000Y38350000D01*
X103400000Y37150000D02*
X104100000Y37150000D01*
X104400000Y47650000D02*
X105100000Y47650000D01*
X105100000Y48850000D02*
X104400000Y48850000D01*
X126400000Y37150000D02*
X127100000Y37150000D01*
X127100000Y38350000D02*
X126400000Y38350000D01*
X128100000Y48850000D02*
X127400000Y48850000D01*
X127400000Y47650000D02*
X128100000Y47650000D01*
X150100000Y38350000D02*
X149400000Y38350000D01*
X149400000Y37150000D02*
X150100000Y37150000D01*
X150400000Y47650000D02*
X151100000Y47650000D01*
X151100000Y48850000D02*
X150400000Y48850000D01*
X173100000Y38350000D02*
X172400000Y38350000D01*
X172400000Y37150000D02*
X173100000Y37150000D01*
X173400000Y47650000D02*
X174100000Y47650000D01*
X174100000Y48850000D02*
X173400000Y48850000D01*
X195400000Y37150000D02*
X196100000Y37150000D01*
X196100000Y38350000D02*
X195400000Y38350000D01*
X197100000Y48850000D02*
X196400000Y48850000D01*
X196400000Y47650000D02*
X197100000Y47650000D01*
X30080000Y18240000D02*
X30080000Y19700000D01*
X26920000Y18240000D02*
X26920000Y20400000D01*
X26920000Y18240000D02*
X27850000Y18240000D01*
X30080000Y18240000D02*
X29150000Y18240000D01*
X41830000Y18240000D02*
X41830000Y19700000D01*
X38670000Y18240000D02*
X38670000Y20400000D01*
X38670000Y18240000D02*
X39600000Y18240000D01*
X41830000Y18240000D02*
X40900000Y18240000D01*
X53080000Y18240000D02*
X52150000Y18240000D01*
X49920000Y18240000D02*
X50850000Y18240000D01*
X49920000Y18240000D02*
X49920000Y20400000D01*
X53080000Y18240000D02*
X53080000Y19700000D01*
X64830000Y18240000D02*
X63900000Y18240000D01*
X61670000Y18240000D02*
X62600000Y18240000D01*
X61670000Y18240000D02*
X61670000Y20400000D01*
X64830000Y18240000D02*
X64830000Y19700000D01*
X76080000Y18240000D02*
X75150000Y18240000D01*
X72920000Y18240000D02*
X73850000Y18240000D01*
X72920000Y18240000D02*
X72920000Y20400000D01*
X76080000Y18240000D02*
X76080000Y19700000D01*
X87830000Y18240000D02*
X87830000Y19700000D01*
X84670000Y18240000D02*
X84670000Y20400000D01*
X84670000Y18240000D02*
X85600000Y18240000D01*
X87830000Y18240000D02*
X86900000Y18240000D01*
X99080000Y18240000D02*
X99080000Y19700000D01*
X95920000Y18240000D02*
X95920000Y20400000D01*
X95920000Y18240000D02*
X96850000Y18240000D01*
X99080000Y18240000D02*
X98150000Y18240000D01*
X110830000Y18240000D02*
X109900000Y18240000D01*
X107670000Y18240000D02*
X108600000Y18240000D01*
X107670000Y18240000D02*
X107670000Y20400000D01*
X110830000Y18240000D02*
X110830000Y19700000D01*
X122080000Y18240000D02*
X121150000Y18240000D01*
X118920000Y18240000D02*
X119850000Y18240000D01*
X118920000Y18240000D02*
X118920000Y20400000D01*
X122080000Y18240000D02*
X122080000Y19700000D01*
X133830000Y18240000D02*
X132900000Y18240000D01*
X130670000Y18240000D02*
X131600000Y18240000D01*
X130670000Y18240000D02*
X130670000Y20400000D01*
X133830000Y18240000D02*
X133830000Y19700000D01*
X145080000Y18240000D02*
X145080000Y19700000D01*
X141920000Y18240000D02*
X141920000Y20400000D01*
X141920000Y18240000D02*
X142850000Y18240000D01*
X145080000Y18240000D02*
X144150000Y18240000D01*
X156830000Y18240000D02*
X156830000Y19700000D01*
X153670000Y18240000D02*
X153670000Y20400000D01*
X153670000Y18240000D02*
X154600000Y18240000D01*
X156830000Y18240000D02*
X155900000Y18240000D01*
X168080000Y18240000D02*
X167150000Y18240000D01*
X164920000Y18240000D02*
X165850000Y18240000D01*
X164920000Y18240000D02*
X164920000Y20400000D01*
X168080000Y18240000D02*
X168080000Y19700000D01*
X179830000Y18240000D02*
X179830000Y19700000D01*
X176670000Y18240000D02*
X176670000Y20400000D01*
X176670000Y18240000D02*
X177600000Y18240000D01*
X179830000Y18240000D02*
X178900000Y18240000D01*
X191080000Y18240000D02*
X191080000Y19700000D01*
X187920000Y18240000D02*
X187920000Y20400000D01*
X187920000Y18240000D02*
X188850000Y18240000D01*
X191080000Y18240000D02*
X190150000Y18240000D01*
X202830000Y18240000D02*
X201900000Y18240000D01*
X199670000Y18240000D02*
X200600000Y18240000D01*
X199670000Y18240000D02*
X199670000Y20400000D01*
X202830000Y18240000D02*
X202830000Y19700000D01*
X151070000Y73750000D02*
X151070000Y72750000D01*
X152430000Y72750000D02*
X152430000Y73750000D01*
X150430000Y73750000D02*
X150430000Y74750000D01*
X149070000Y74750000D02*
X149070000Y73750000D01*
X28000000Y21820000D02*
X29000000Y21820000D01*
X29000000Y23180000D02*
X28000000Y23180000D01*
X40750000Y23180000D02*
X39750000Y23180000D01*
X39750000Y21820000D02*
X40750000Y21820000D01*
X37250000Y18930000D02*
X36250000Y18930000D01*
X36250000Y17570000D02*
X37250000Y17570000D01*
X24500000Y17570000D02*
X25500000Y17570000D01*
X25500000Y18930000D02*
X24500000Y18930000D01*
X52000000Y23180000D02*
X51000000Y23180000D01*
X51000000Y21820000D02*
X52000000Y21820000D01*
X62750000Y21820000D02*
X63750000Y21820000D01*
X63750000Y23180000D02*
X62750000Y23180000D01*
X60250000Y18930000D02*
X59250000Y18930000D01*
X59250000Y17570000D02*
X60250000Y17570000D01*
X47500000Y17570000D02*
X48500000Y17570000D01*
X48500000Y18930000D02*
X47500000Y18930000D01*
X75000000Y23180000D02*
X74000000Y23180000D01*
X74000000Y21820000D02*
X75000000Y21820000D01*
X85750000Y21820000D02*
X86750000Y21820000D01*
X86750000Y23180000D02*
X85750000Y23180000D01*
X83250000Y18930000D02*
X82250000Y18930000D01*
X82250000Y17570000D02*
X83250000Y17570000D01*
X71500000Y18930000D02*
X70500000Y18930000D01*
X70500000Y17570000D02*
X71500000Y17570000D01*
X98000000Y23180000D02*
X97000000Y23180000D01*
X97000000Y21820000D02*
X98000000Y21820000D01*
X109750000Y23180000D02*
X108750000Y23180000D01*
X108750000Y21820000D02*
X109750000Y21820000D01*
X105250000Y17570000D02*
X106250000Y17570000D01*
X106250000Y18930000D02*
X105250000Y18930000D01*
X94500000Y18930000D02*
X93500000Y18930000D01*
X93500000Y17570000D02*
X94500000Y17570000D01*
X121000000Y23180000D02*
X120000000Y23180000D01*
X120000000Y21820000D02*
X121000000Y21820000D01*
X131750000Y21820000D02*
X132750000Y21820000D01*
X132750000Y23180000D02*
X131750000Y23180000D01*
X128250000Y17570000D02*
X129250000Y17570000D01*
X129250000Y18930000D02*
X128250000Y18930000D01*
X116500000Y17570000D02*
X117500000Y17570000D01*
X117500000Y18930000D02*
X116500000Y18930000D01*
X143000000Y21820000D02*
X144000000Y21820000D01*
X144000000Y23180000D02*
X143000000Y23180000D01*
X154750000Y21820000D02*
X155750000Y21820000D01*
X155750000Y23180000D02*
X154750000Y23180000D01*
X152250000Y18930000D02*
X151250000Y18930000D01*
X151250000Y17570000D02*
X152250000Y17570000D01*
X139500000Y17570000D02*
X140500000Y17570000D01*
X140500000Y18930000D02*
X139500000Y18930000D01*
X166000000Y21820000D02*
X167000000Y21820000D01*
X167000000Y23180000D02*
X166000000Y23180000D01*
X177750000Y21820000D02*
X178750000Y21820000D01*
X178750000Y23180000D02*
X177750000Y23180000D01*
X174250000Y17570000D02*
X175250000Y17570000D01*
X175250000Y18930000D02*
X174250000Y18930000D01*
X163500000Y18930000D02*
X162500000Y18930000D01*
X162500000Y17570000D02*
X163500000Y17570000D01*
X189000000Y21820000D02*
X190000000Y21820000D01*
X190000000Y23180000D02*
X189000000Y23180000D01*
X201750000Y23180000D02*
X200750000Y23180000D01*
X200750000Y21820000D02*
X201750000Y21820000D01*
X198250000Y18930000D02*
X197250000Y18930000D01*
X197250000Y17570000D02*
X198250000Y17570000D01*
X185500000Y17570000D02*
X186500000Y17570000D01*
X186500000Y18930000D02*
X185500000Y18930000D01*
D11*
X35800000Y39225000D02*
X35800000Y45200000D01*
X30275000Y40800000D02*
X30275000Y45200000D01*
X53275000Y40800000D02*
X53275000Y45200000D01*
X58800000Y39225000D02*
X58800000Y45200000D01*
X76275000Y40800000D02*
X76275000Y45200000D01*
X81800000Y39225000D02*
X81800000Y45200000D01*
X99275000Y40800000D02*
X99275000Y45200000D01*
X104800000Y39225000D02*
X104800000Y45200000D01*
X127800000Y39225000D02*
X127800000Y45200000D01*
X122275000Y40800000D02*
X122275000Y45200000D01*
X145275000Y40800000D02*
X145275000Y45200000D01*
X150800000Y39225000D02*
X150800000Y45200000D01*
X168275000Y40800000D02*
X168275000Y45200000D01*
X173800000Y39225000D02*
X173800000Y45200000D01*
X196800000Y39225000D02*
X196800000Y45200000D01*
X191275000Y40800000D02*
X191275000Y45200000D01*
D10*
X70010000Y72080000D02*
X68550000Y72080000D01*
X70010000Y68920000D02*
X67850000Y68920000D01*
X70010000Y68920000D02*
X70010000Y69850000D01*
X70010000Y72080000D02*
X70010000Y71150000D01*
X65320000Y71000000D02*
X65320000Y70000000D01*
X66680000Y70000000D02*
X66680000Y71000000D01*
X73180000Y69250000D02*
X73180000Y70250000D01*
X71820000Y70250000D02*
X71820000Y69250000D01*
D12*
X181061904Y95740477D02*
X181709523Y95740477D01*
X181785714Y95702381D01*
X181823809Y95664286D01*
X181861904Y95588096D01*
X181861904Y95435715D01*
X181823809Y95359524D01*
X181785714Y95321429D01*
X181709523Y95283334D01*
X181061904Y95283334D01*
X181861904Y94483334D02*
X181861904Y94940477D01*
X181861904Y94711905D02*
X181061904Y94711905D01*
X181176190Y94788096D01*
X181252380Y94864286D01*
X181290476Y94940477D01*
X181061904Y93988096D02*
X181061904Y93911905D01*
X181100000Y93835715D01*
X181138095Y93797620D01*
X181214285Y93759524D01*
X181366666Y93721429D01*
X181557142Y93721429D01*
X181709523Y93759524D01*
X181785714Y93797620D01*
X181823809Y93835715D01*
X181861904Y93911905D01*
X181861904Y93988096D01*
X181823809Y94064286D01*
X181785714Y94102381D01*
X181709523Y94140477D01*
X181557142Y94178572D01*
X181366666Y94178572D01*
X181214285Y94140477D01*
X181138095Y94102381D01*
X181100000Y94064286D01*
X181061904Y93988096D01*
X177561904Y110016667D02*
X178133333Y110016667D01*
X178247619Y110054762D01*
X178323809Y110130953D01*
X178361904Y110245239D01*
X178361904Y110321429D01*
X177561904Y109711905D02*
X177561904Y109216667D01*
X177866666Y109483334D01*
X177866666Y109369048D01*
X177904761Y109292858D01*
X177942857Y109254762D01*
X178019047Y109216667D01*
X178209523Y109216667D01*
X178285714Y109254762D01*
X178323809Y109292858D01*
X178361904Y109369048D01*
X178361904Y109597620D01*
X178323809Y109673810D01*
X178285714Y109711905D01*
X127061904Y110016667D02*
X127633333Y110016667D01*
X127747619Y110054762D01*
X127823809Y110130953D01*
X127861904Y110245239D01*
X127861904Y110321429D01*
X127328571Y109292858D02*
X127861904Y109292858D01*
X127023809Y109483334D02*
X127595238Y109673810D01*
X127595238Y109178572D01*
D11*
X16702380Y59833334D02*
X17416666Y59833334D01*
X17559523Y59880953D01*
X17654761Y59976191D01*
X17702380Y60119048D01*
X17702380Y60214286D01*
X17702380Y58833334D02*
X17702380Y59404762D01*
X17702380Y59119048D02*
X16702380Y59119048D01*
X16845238Y59214286D01*
X16940476Y59309524D01*
X16988095Y59404762D01*
D12*
X189764285Y89214286D02*
X189802380Y89176191D01*
X189916666Y89138096D01*
X189992857Y89138096D01*
X190107142Y89176191D01*
X190183333Y89252381D01*
X190221428Y89328572D01*
X190259523Y89480953D01*
X190259523Y89595239D01*
X190221428Y89747620D01*
X190183333Y89823810D01*
X190107142Y89900000D01*
X189992857Y89938096D01*
X189916666Y89938096D01*
X189802380Y89900000D01*
X189764285Y89861905D01*
X189040476Y89938096D02*
X189421428Y89938096D01*
X189459523Y89557143D01*
X189421428Y89595239D01*
X189345238Y89633334D01*
X189154761Y89633334D01*
X189078571Y89595239D01*
X189040476Y89557143D01*
X189002380Y89480953D01*
X189002380Y89290477D01*
X189040476Y89214286D01*
X189078571Y89176191D01*
X189154761Y89138096D01*
X189345238Y89138096D01*
X189421428Y89176191D01*
X189459523Y89214286D01*
X188697619Y89861905D02*
X188659523Y89900000D01*
X188583333Y89938096D01*
X188392857Y89938096D01*
X188316666Y89900000D01*
X188278571Y89861905D01*
X188240476Y89785715D01*
X188240476Y89709524D01*
X188278571Y89595239D01*
X188735714Y89138096D01*
X188240476Y89138096D01*
X190535714Y94264286D02*
X190573809Y94302381D01*
X190611904Y94416667D01*
X190611904Y94492858D01*
X190573809Y94607143D01*
X190497619Y94683334D01*
X190421428Y94721429D01*
X190269047Y94759524D01*
X190154761Y94759524D01*
X190002380Y94721429D01*
X189926190Y94683334D01*
X189850000Y94607143D01*
X189811904Y94492858D01*
X189811904Y94416667D01*
X189850000Y94302381D01*
X189888095Y94264286D01*
X189811904Y93540477D02*
X189811904Y93921429D01*
X190192857Y93959524D01*
X190154761Y93921429D01*
X190116666Y93845239D01*
X190116666Y93654762D01*
X190154761Y93578572D01*
X190192857Y93540477D01*
X190269047Y93502381D01*
X190459523Y93502381D01*
X190535714Y93540477D01*
X190573809Y93578572D01*
X190611904Y93654762D01*
X190611904Y93845239D01*
X190573809Y93921429D01*
X190535714Y93959524D01*
X189811904Y93235715D02*
X189811904Y92740477D01*
X190116666Y93007143D01*
X190116666Y92892858D01*
X190154761Y92816667D01*
X190192857Y92778572D01*
X190269047Y92740477D01*
X190459523Y92740477D01*
X190535714Y92778572D01*
X190573809Y92816667D01*
X190611904Y92892858D01*
X190611904Y93121429D01*
X190573809Y93197620D01*
X190535714Y93235715D01*
X186185714Y97264286D02*
X186223809Y97302381D01*
X186261904Y97416667D01*
X186261904Y97492858D01*
X186223809Y97607143D01*
X186147619Y97683334D01*
X186071428Y97721429D01*
X185919047Y97759524D01*
X185804761Y97759524D01*
X185652380Y97721429D01*
X185576190Y97683334D01*
X185500000Y97607143D01*
X185461904Y97492858D01*
X185461904Y97416667D01*
X185500000Y97302381D01*
X185538095Y97264286D01*
X185461904Y96540477D02*
X185461904Y96921429D01*
X185842857Y96959524D01*
X185804761Y96921429D01*
X185766666Y96845239D01*
X185766666Y96654762D01*
X185804761Y96578572D01*
X185842857Y96540477D01*
X185919047Y96502381D01*
X186109523Y96502381D01*
X186185714Y96540477D01*
X186223809Y96578572D01*
X186261904Y96654762D01*
X186261904Y96845239D01*
X186223809Y96921429D01*
X186185714Y96959524D01*
X185728571Y95816667D02*
X186261904Y95816667D01*
X185423809Y96007143D02*
X185995238Y96197620D01*
X185995238Y95702381D01*
X183035714Y97514286D02*
X183073809Y97552381D01*
X183111904Y97666667D01*
X183111904Y97742858D01*
X183073809Y97857143D01*
X182997619Y97933334D01*
X182921428Y97971429D01*
X182769047Y98009524D01*
X182654761Y98009524D01*
X182502380Y97971429D01*
X182426190Y97933334D01*
X182350000Y97857143D01*
X182311904Y97742858D01*
X182311904Y97666667D01*
X182350000Y97552381D01*
X182388095Y97514286D01*
X182311904Y96790477D02*
X182311904Y97171429D01*
X182692857Y97209524D01*
X182654761Y97171429D01*
X182616666Y97095239D01*
X182616666Y96904762D01*
X182654761Y96828572D01*
X182692857Y96790477D01*
X182769047Y96752381D01*
X182959523Y96752381D01*
X183035714Y96790477D01*
X183073809Y96828572D01*
X183111904Y96904762D01*
X183111904Y97095239D01*
X183073809Y97171429D01*
X183035714Y97209524D01*
X182311904Y96028572D02*
X182311904Y96409524D01*
X182692857Y96447620D01*
X182654761Y96409524D01*
X182616666Y96333334D01*
X182616666Y96142858D01*
X182654761Y96066667D01*
X182692857Y96028572D01*
X182769047Y95990477D01*
X182959523Y95990477D01*
X183035714Y96028572D01*
X183073809Y96066667D01*
X183111904Y96142858D01*
X183111904Y96333334D01*
X183073809Y96409524D01*
X183035714Y96447620D01*
X35264285Y36214286D02*
X35302380Y36176191D01*
X35416666Y36138096D01*
X35492857Y36138096D01*
X35607142Y36176191D01*
X35683333Y36252381D01*
X35721428Y36328572D01*
X35759523Y36480953D01*
X35759523Y36595239D01*
X35721428Y36747620D01*
X35683333Y36823810D01*
X35607142Y36900000D01*
X35492857Y36938096D01*
X35416666Y36938096D01*
X35302380Y36900000D01*
X35264285Y36861905D01*
X34807142Y36595239D02*
X34883333Y36633334D01*
X34921428Y36671429D01*
X34959523Y36747620D01*
X34959523Y36785715D01*
X34921428Y36861905D01*
X34883333Y36900000D01*
X34807142Y36938096D01*
X34654761Y36938096D01*
X34578571Y36900000D01*
X34540476Y36861905D01*
X34502380Y36785715D01*
X34502380Y36747620D01*
X34540476Y36671429D01*
X34578571Y36633334D01*
X34654761Y36595239D01*
X34807142Y36595239D01*
X34883333Y36557143D01*
X34921428Y36519048D01*
X34959523Y36442858D01*
X34959523Y36290477D01*
X34921428Y36214286D01*
X34883333Y36176191D01*
X34807142Y36138096D01*
X34654761Y36138096D01*
X34578571Y36176191D01*
X34540476Y36214286D01*
X34502380Y36290477D01*
X34502380Y36442858D01*
X34540476Y36519048D01*
X34578571Y36557143D01*
X34654761Y36595239D01*
X33816666Y36671429D02*
X33816666Y36138096D01*
X34007142Y36976191D02*
X34197619Y36404762D01*
X33702380Y36404762D01*
X36264285Y49364286D02*
X36302380Y49326191D01*
X36416666Y49288096D01*
X36492857Y49288096D01*
X36607142Y49326191D01*
X36683333Y49402381D01*
X36721428Y49478572D01*
X36759523Y49630953D01*
X36759523Y49745239D01*
X36721428Y49897620D01*
X36683333Y49973810D01*
X36607142Y50050000D01*
X36492857Y50088096D01*
X36416666Y50088096D01*
X36302380Y50050000D01*
X36264285Y50011905D01*
X35807142Y49745239D02*
X35883333Y49783334D01*
X35921428Y49821429D01*
X35959523Y49897620D01*
X35959523Y49935715D01*
X35921428Y50011905D01*
X35883333Y50050000D01*
X35807142Y50088096D01*
X35654761Y50088096D01*
X35578571Y50050000D01*
X35540476Y50011905D01*
X35502380Y49935715D01*
X35502380Y49897620D01*
X35540476Y49821429D01*
X35578571Y49783334D01*
X35654761Y49745239D01*
X35807142Y49745239D01*
X35883333Y49707143D01*
X35921428Y49669048D01*
X35959523Y49592858D01*
X35959523Y49440477D01*
X35921428Y49364286D01*
X35883333Y49326191D01*
X35807142Y49288096D01*
X35654761Y49288096D01*
X35578571Y49326191D01*
X35540476Y49364286D01*
X35502380Y49440477D01*
X35502380Y49592858D01*
X35540476Y49669048D01*
X35578571Y49707143D01*
X35654761Y49745239D01*
X34778571Y50088096D02*
X35159523Y50088096D01*
X35197619Y49707143D01*
X35159523Y49745239D01*
X35083333Y49783334D01*
X34892857Y49783334D01*
X34816666Y49745239D01*
X34778571Y49707143D01*
X34740476Y49630953D01*
X34740476Y49440477D01*
X34778571Y49364286D01*
X34816666Y49326191D01*
X34892857Y49288096D01*
X35083333Y49288096D01*
X35159523Y49326191D01*
X35197619Y49364286D01*
X58264285Y36214286D02*
X58302380Y36176191D01*
X58416666Y36138096D01*
X58492857Y36138096D01*
X58607142Y36176191D01*
X58683333Y36252381D01*
X58721428Y36328572D01*
X58759523Y36480953D01*
X58759523Y36595239D01*
X58721428Y36747620D01*
X58683333Y36823810D01*
X58607142Y36900000D01*
X58492857Y36938096D01*
X58416666Y36938096D01*
X58302380Y36900000D01*
X58264285Y36861905D01*
X57807142Y36595239D02*
X57883333Y36633334D01*
X57921428Y36671429D01*
X57959523Y36747620D01*
X57959523Y36785715D01*
X57921428Y36861905D01*
X57883333Y36900000D01*
X57807142Y36938096D01*
X57654761Y36938096D01*
X57578571Y36900000D01*
X57540476Y36861905D01*
X57502380Y36785715D01*
X57502380Y36747620D01*
X57540476Y36671429D01*
X57578571Y36633334D01*
X57654761Y36595239D01*
X57807142Y36595239D01*
X57883333Y36557143D01*
X57921428Y36519048D01*
X57959523Y36442858D01*
X57959523Y36290477D01*
X57921428Y36214286D01*
X57883333Y36176191D01*
X57807142Y36138096D01*
X57654761Y36138096D01*
X57578571Y36176191D01*
X57540476Y36214286D01*
X57502380Y36290477D01*
X57502380Y36442858D01*
X57540476Y36519048D01*
X57578571Y36557143D01*
X57654761Y36595239D01*
X57045238Y36595239D02*
X57121428Y36633334D01*
X57159523Y36671429D01*
X57197619Y36747620D01*
X57197619Y36785715D01*
X57159523Y36861905D01*
X57121428Y36900000D01*
X57045238Y36938096D01*
X56892857Y36938096D01*
X56816666Y36900000D01*
X56778571Y36861905D01*
X56740476Y36785715D01*
X56740476Y36747620D01*
X56778571Y36671429D01*
X56816666Y36633334D01*
X56892857Y36595239D01*
X57045238Y36595239D01*
X57121428Y36557143D01*
X57159523Y36519048D01*
X57197619Y36442858D01*
X57197619Y36290477D01*
X57159523Y36214286D01*
X57121428Y36176191D01*
X57045238Y36138096D01*
X56892857Y36138096D01*
X56816666Y36176191D01*
X56778571Y36214286D01*
X56740476Y36290477D01*
X56740476Y36442858D01*
X56778571Y36519048D01*
X56816666Y36557143D01*
X56892857Y36595239D01*
X59264285Y49364286D02*
X59302380Y49326191D01*
X59416666Y49288096D01*
X59492857Y49288096D01*
X59607142Y49326191D01*
X59683333Y49402381D01*
X59721428Y49478572D01*
X59759523Y49630953D01*
X59759523Y49745239D01*
X59721428Y49897620D01*
X59683333Y49973810D01*
X59607142Y50050000D01*
X59492857Y50088096D01*
X59416666Y50088096D01*
X59302380Y50050000D01*
X59264285Y50011905D01*
X58807142Y49745239D02*
X58883333Y49783334D01*
X58921428Y49821429D01*
X58959523Y49897620D01*
X58959523Y49935715D01*
X58921428Y50011905D01*
X58883333Y50050000D01*
X58807142Y50088096D01*
X58654761Y50088096D01*
X58578571Y50050000D01*
X58540476Y50011905D01*
X58502380Y49935715D01*
X58502380Y49897620D01*
X58540476Y49821429D01*
X58578571Y49783334D01*
X58654761Y49745239D01*
X58807142Y49745239D01*
X58883333Y49707143D01*
X58921428Y49669048D01*
X58959523Y49592858D01*
X58959523Y49440477D01*
X58921428Y49364286D01*
X58883333Y49326191D01*
X58807142Y49288096D01*
X58654761Y49288096D01*
X58578571Y49326191D01*
X58540476Y49364286D01*
X58502380Y49440477D01*
X58502380Y49592858D01*
X58540476Y49669048D01*
X58578571Y49707143D01*
X58654761Y49745239D01*
X58121428Y49288096D02*
X57969047Y49288096D01*
X57892857Y49326191D01*
X57854761Y49364286D01*
X57778571Y49478572D01*
X57740476Y49630953D01*
X57740476Y49935715D01*
X57778571Y50011905D01*
X57816666Y50050000D01*
X57892857Y50088096D01*
X58045238Y50088096D01*
X58121428Y50050000D01*
X58159523Y50011905D01*
X58197619Y49935715D01*
X58197619Y49745239D01*
X58159523Y49669048D01*
X58121428Y49630953D01*
X58045238Y49592858D01*
X57892857Y49592858D01*
X57816666Y49630953D01*
X57778571Y49669048D01*
X57740476Y49745239D01*
X81264285Y36214286D02*
X81302380Y36176191D01*
X81416666Y36138096D01*
X81492857Y36138096D01*
X81607142Y36176191D01*
X81683333Y36252381D01*
X81721428Y36328572D01*
X81759523Y36480953D01*
X81759523Y36595239D01*
X81721428Y36747620D01*
X81683333Y36823810D01*
X81607142Y36900000D01*
X81492857Y36938096D01*
X81416666Y36938096D01*
X81302380Y36900000D01*
X81264285Y36861905D01*
X80883333Y36138096D02*
X80730952Y36138096D01*
X80654761Y36176191D01*
X80616666Y36214286D01*
X80540476Y36328572D01*
X80502380Y36480953D01*
X80502380Y36785715D01*
X80540476Y36861905D01*
X80578571Y36900000D01*
X80654761Y36938096D01*
X80807142Y36938096D01*
X80883333Y36900000D01*
X80921428Y36861905D01*
X80959523Y36785715D01*
X80959523Y36595239D01*
X80921428Y36519048D01*
X80883333Y36480953D01*
X80807142Y36442858D01*
X80654761Y36442858D01*
X80578571Y36480953D01*
X80540476Y36519048D01*
X80502380Y36595239D01*
X80197619Y36861905D02*
X80159523Y36900000D01*
X80083333Y36938096D01*
X79892857Y36938096D01*
X79816666Y36900000D01*
X79778571Y36861905D01*
X79740476Y36785715D01*
X79740476Y36709524D01*
X79778571Y36595239D01*
X80235714Y36138096D01*
X79740476Y36138096D01*
X82264285Y49364286D02*
X82302380Y49326191D01*
X82416666Y49288096D01*
X82492857Y49288096D01*
X82607142Y49326191D01*
X82683333Y49402381D01*
X82721428Y49478572D01*
X82759523Y49630953D01*
X82759523Y49745239D01*
X82721428Y49897620D01*
X82683333Y49973810D01*
X82607142Y50050000D01*
X82492857Y50088096D01*
X82416666Y50088096D01*
X82302380Y50050000D01*
X82264285Y50011905D01*
X81883333Y49288096D02*
X81730952Y49288096D01*
X81654761Y49326191D01*
X81616666Y49364286D01*
X81540476Y49478572D01*
X81502380Y49630953D01*
X81502380Y49935715D01*
X81540476Y50011905D01*
X81578571Y50050000D01*
X81654761Y50088096D01*
X81807142Y50088096D01*
X81883333Y50050000D01*
X81921428Y50011905D01*
X81959523Y49935715D01*
X81959523Y49745239D01*
X81921428Y49669048D01*
X81883333Y49630953D01*
X81807142Y49592858D01*
X81654761Y49592858D01*
X81578571Y49630953D01*
X81540476Y49669048D01*
X81502380Y49745239D01*
X81235714Y50088096D02*
X80740476Y50088096D01*
X81007142Y49783334D01*
X80892857Y49783334D01*
X80816666Y49745239D01*
X80778571Y49707143D01*
X80740476Y49630953D01*
X80740476Y49440477D01*
X80778571Y49364286D01*
X80816666Y49326191D01*
X80892857Y49288096D01*
X81121428Y49288096D01*
X81197619Y49326191D01*
X81235714Y49364286D01*
X104264285Y36214286D02*
X104302380Y36176191D01*
X104416666Y36138096D01*
X104492857Y36138096D01*
X104607142Y36176191D01*
X104683333Y36252381D01*
X104721428Y36328572D01*
X104759523Y36480953D01*
X104759523Y36595239D01*
X104721428Y36747620D01*
X104683333Y36823810D01*
X104607142Y36900000D01*
X104492857Y36938096D01*
X104416666Y36938096D01*
X104302380Y36900000D01*
X104264285Y36861905D01*
X103883333Y36138096D02*
X103730952Y36138096D01*
X103654761Y36176191D01*
X103616666Y36214286D01*
X103540476Y36328572D01*
X103502380Y36480953D01*
X103502380Y36785715D01*
X103540476Y36861905D01*
X103578571Y36900000D01*
X103654761Y36938096D01*
X103807142Y36938096D01*
X103883333Y36900000D01*
X103921428Y36861905D01*
X103959523Y36785715D01*
X103959523Y36595239D01*
X103921428Y36519048D01*
X103883333Y36480953D01*
X103807142Y36442858D01*
X103654761Y36442858D01*
X103578571Y36480953D01*
X103540476Y36519048D01*
X103502380Y36595239D01*
X102816666Y36938096D02*
X102969047Y36938096D01*
X103045238Y36900000D01*
X103083333Y36861905D01*
X103159523Y36747620D01*
X103197619Y36595239D01*
X103197619Y36290477D01*
X103159523Y36214286D01*
X103121428Y36176191D01*
X103045238Y36138096D01*
X102892857Y36138096D01*
X102816666Y36176191D01*
X102778571Y36214286D01*
X102740476Y36290477D01*
X102740476Y36480953D01*
X102778571Y36557143D01*
X102816666Y36595239D01*
X102892857Y36633334D01*
X103045238Y36633334D01*
X103121428Y36595239D01*
X103159523Y36557143D01*
X103197619Y36480953D01*
X105264285Y49364286D02*
X105302380Y49326191D01*
X105416666Y49288096D01*
X105492857Y49288096D01*
X105607142Y49326191D01*
X105683333Y49402381D01*
X105721428Y49478572D01*
X105759523Y49630953D01*
X105759523Y49745239D01*
X105721428Y49897620D01*
X105683333Y49973810D01*
X105607142Y50050000D01*
X105492857Y50088096D01*
X105416666Y50088096D01*
X105302380Y50050000D01*
X105264285Y50011905D01*
X104883333Y49288096D02*
X104730952Y49288096D01*
X104654761Y49326191D01*
X104616666Y49364286D01*
X104540476Y49478572D01*
X104502380Y49630953D01*
X104502380Y49935715D01*
X104540476Y50011905D01*
X104578571Y50050000D01*
X104654761Y50088096D01*
X104807142Y50088096D01*
X104883333Y50050000D01*
X104921428Y50011905D01*
X104959523Y49935715D01*
X104959523Y49745239D01*
X104921428Y49669048D01*
X104883333Y49630953D01*
X104807142Y49592858D01*
X104654761Y49592858D01*
X104578571Y49630953D01*
X104540476Y49669048D01*
X104502380Y49745239D01*
X104235714Y50088096D02*
X103702380Y50088096D01*
X104045238Y49288096D01*
X127645238Y36214286D02*
X127683333Y36176191D01*
X127797619Y36138096D01*
X127873809Y36138096D01*
X127988095Y36176191D01*
X128064285Y36252381D01*
X128102380Y36328572D01*
X128140476Y36480953D01*
X128140476Y36595239D01*
X128102380Y36747620D01*
X128064285Y36823810D01*
X127988095Y36900000D01*
X127873809Y36938096D01*
X127797619Y36938096D01*
X127683333Y36900000D01*
X127645238Y36861905D01*
X126883333Y36138096D02*
X127340476Y36138096D01*
X127111904Y36138096D02*
X127111904Y36938096D01*
X127188095Y36823810D01*
X127264285Y36747620D01*
X127340476Y36709524D01*
X126388095Y36938096D02*
X126311904Y36938096D01*
X126235714Y36900000D01*
X126197619Y36861905D01*
X126159523Y36785715D01*
X126121428Y36633334D01*
X126121428Y36442858D01*
X126159523Y36290477D01*
X126197619Y36214286D01*
X126235714Y36176191D01*
X126311904Y36138096D01*
X126388095Y36138096D01*
X126464285Y36176191D01*
X126502380Y36214286D01*
X126540476Y36290477D01*
X126578571Y36442858D01*
X126578571Y36633334D01*
X126540476Y36785715D01*
X126502380Y36861905D01*
X126464285Y36900000D01*
X126388095Y36938096D01*
X125626190Y36938096D02*
X125550000Y36938096D01*
X125473809Y36900000D01*
X125435714Y36861905D01*
X125397619Y36785715D01*
X125359523Y36633334D01*
X125359523Y36442858D01*
X125397619Y36290477D01*
X125435714Y36214286D01*
X125473809Y36176191D01*
X125550000Y36138096D01*
X125626190Y36138096D01*
X125702380Y36176191D01*
X125740476Y36214286D01*
X125778571Y36290477D01*
X125816666Y36442858D01*
X125816666Y36633334D01*
X125778571Y36785715D01*
X125740476Y36861905D01*
X125702380Y36900000D01*
X125626190Y36938096D01*
X128645238Y49364286D02*
X128683333Y49326191D01*
X128797619Y49288096D01*
X128873809Y49288096D01*
X128988095Y49326191D01*
X129064285Y49402381D01*
X129102380Y49478572D01*
X129140476Y49630953D01*
X129140476Y49745239D01*
X129102380Y49897620D01*
X129064285Y49973810D01*
X128988095Y50050000D01*
X128873809Y50088096D01*
X128797619Y50088096D01*
X128683333Y50050000D01*
X128645238Y50011905D01*
X127883333Y49288096D02*
X128340476Y49288096D01*
X128111904Y49288096D02*
X128111904Y50088096D01*
X128188095Y49973810D01*
X128264285Y49897620D01*
X128340476Y49859524D01*
X127388095Y50088096D02*
X127311904Y50088096D01*
X127235714Y50050000D01*
X127197619Y50011905D01*
X127159523Y49935715D01*
X127121428Y49783334D01*
X127121428Y49592858D01*
X127159523Y49440477D01*
X127197619Y49364286D01*
X127235714Y49326191D01*
X127311904Y49288096D01*
X127388095Y49288096D01*
X127464285Y49326191D01*
X127502380Y49364286D01*
X127540476Y49440477D01*
X127578571Y49592858D01*
X127578571Y49783334D01*
X127540476Y49935715D01*
X127502380Y50011905D01*
X127464285Y50050000D01*
X127388095Y50088096D01*
X126359523Y49288096D02*
X126816666Y49288096D01*
X126588095Y49288096D02*
X126588095Y50088096D01*
X126664285Y49973810D01*
X126740476Y49897620D01*
X126816666Y49859524D01*
X150645238Y36214286D02*
X150683333Y36176191D01*
X150797619Y36138096D01*
X150873809Y36138096D01*
X150988095Y36176191D01*
X151064285Y36252381D01*
X151102380Y36328572D01*
X151140476Y36480953D01*
X151140476Y36595239D01*
X151102380Y36747620D01*
X151064285Y36823810D01*
X150988095Y36900000D01*
X150873809Y36938096D01*
X150797619Y36938096D01*
X150683333Y36900000D01*
X150645238Y36861905D01*
X149883333Y36138096D02*
X150340476Y36138096D01*
X150111904Y36138096D02*
X150111904Y36938096D01*
X150188095Y36823810D01*
X150264285Y36747620D01*
X150340476Y36709524D01*
X149388095Y36938096D02*
X149311904Y36938096D01*
X149235714Y36900000D01*
X149197619Y36861905D01*
X149159523Y36785715D01*
X149121428Y36633334D01*
X149121428Y36442858D01*
X149159523Y36290477D01*
X149197619Y36214286D01*
X149235714Y36176191D01*
X149311904Y36138096D01*
X149388095Y36138096D01*
X149464285Y36176191D01*
X149502380Y36214286D01*
X149540476Y36290477D01*
X149578571Y36442858D01*
X149578571Y36633334D01*
X149540476Y36785715D01*
X149502380Y36861905D01*
X149464285Y36900000D01*
X149388095Y36938096D01*
X148435714Y36671429D02*
X148435714Y36138096D01*
X148626190Y36976191D02*
X148816666Y36404762D01*
X148321428Y36404762D01*
X151645238Y49364286D02*
X151683333Y49326191D01*
X151797619Y49288096D01*
X151873809Y49288096D01*
X151988095Y49326191D01*
X152064285Y49402381D01*
X152102380Y49478572D01*
X152140476Y49630953D01*
X152140476Y49745239D01*
X152102380Y49897620D01*
X152064285Y49973810D01*
X151988095Y50050000D01*
X151873809Y50088096D01*
X151797619Y50088096D01*
X151683333Y50050000D01*
X151645238Y50011905D01*
X150883333Y49288096D02*
X151340476Y49288096D01*
X151111904Y49288096D02*
X151111904Y50088096D01*
X151188095Y49973810D01*
X151264285Y49897620D01*
X151340476Y49859524D01*
X150388095Y50088096D02*
X150311904Y50088096D01*
X150235714Y50050000D01*
X150197619Y50011905D01*
X150159523Y49935715D01*
X150121428Y49783334D01*
X150121428Y49592858D01*
X150159523Y49440477D01*
X150197619Y49364286D01*
X150235714Y49326191D01*
X150311904Y49288096D01*
X150388095Y49288096D01*
X150464285Y49326191D01*
X150502380Y49364286D01*
X150540476Y49440477D01*
X150578571Y49592858D01*
X150578571Y49783334D01*
X150540476Y49935715D01*
X150502380Y50011905D01*
X150464285Y50050000D01*
X150388095Y50088096D01*
X149397619Y50088096D02*
X149778571Y50088096D01*
X149816666Y49707143D01*
X149778571Y49745239D01*
X149702380Y49783334D01*
X149511904Y49783334D01*
X149435714Y49745239D01*
X149397619Y49707143D01*
X149359523Y49630953D01*
X149359523Y49440477D01*
X149397619Y49364286D01*
X149435714Y49326191D01*
X149511904Y49288096D01*
X149702380Y49288096D01*
X149778571Y49326191D01*
X149816666Y49364286D01*
X173645238Y36214286D02*
X173683333Y36176191D01*
X173797619Y36138096D01*
X173873809Y36138096D01*
X173988095Y36176191D01*
X174064285Y36252381D01*
X174102380Y36328572D01*
X174140476Y36480953D01*
X174140476Y36595239D01*
X174102380Y36747620D01*
X174064285Y36823810D01*
X173988095Y36900000D01*
X173873809Y36938096D01*
X173797619Y36938096D01*
X173683333Y36900000D01*
X173645238Y36861905D01*
X172883333Y36138096D02*
X173340476Y36138096D01*
X173111904Y36138096D02*
X173111904Y36938096D01*
X173188095Y36823810D01*
X173264285Y36747620D01*
X173340476Y36709524D01*
X172388095Y36938096D02*
X172311904Y36938096D01*
X172235714Y36900000D01*
X172197619Y36861905D01*
X172159523Y36785715D01*
X172121428Y36633334D01*
X172121428Y36442858D01*
X172159523Y36290477D01*
X172197619Y36214286D01*
X172235714Y36176191D01*
X172311904Y36138096D01*
X172388095Y36138096D01*
X172464285Y36176191D01*
X172502380Y36214286D01*
X172540476Y36290477D01*
X172578571Y36442858D01*
X172578571Y36633334D01*
X172540476Y36785715D01*
X172502380Y36861905D01*
X172464285Y36900000D01*
X172388095Y36938096D01*
X171664285Y36595239D02*
X171740476Y36633334D01*
X171778571Y36671429D01*
X171816666Y36747620D01*
X171816666Y36785715D01*
X171778571Y36861905D01*
X171740476Y36900000D01*
X171664285Y36938096D01*
X171511904Y36938096D01*
X171435714Y36900000D01*
X171397619Y36861905D01*
X171359523Y36785715D01*
X171359523Y36747620D01*
X171397619Y36671429D01*
X171435714Y36633334D01*
X171511904Y36595239D01*
X171664285Y36595239D01*
X171740476Y36557143D01*
X171778571Y36519048D01*
X171816666Y36442858D01*
X171816666Y36290477D01*
X171778571Y36214286D01*
X171740476Y36176191D01*
X171664285Y36138096D01*
X171511904Y36138096D01*
X171435714Y36176191D01*
X171397619Y36214286D01*
X171359523Y36290477D01*
X171359523Y36442858D01*
X171397619Y36519048D01*
X171435714Y36557143D01*
X171511904Y36595239D01*
X174645238Y49364286D02*
X174683333Y49326191D01*
X174797619Y49288096D01*
X174873809Y49288096D01*
X174988095Y49326191D01*
X175064285Y49402381D01*
X175102380Y49478572D01*
X175140476Y49630953D01*
X175140476Y49745239D01*
X175102380Y49897620D01*
X175064285Y49973810D01*
X174988095Y50050000D01*
X174873809Y50088096D01*
X174797619Y50088096D01*
X174683333Y50050000D01*
X174645238Y50011905D01*
X173883333Y49288096D02*
X174340476Y49288096D01*
X174111904Y49288096D02*
X174111904Y50088096D01*
X174188095Y49973810D01*
X174264285Y49897620D01*
X174340476Y49859524D01*
X173388095Y50088096D02*
X173311904Y50088096D01*
X173235714Y50050000D01*
X173197619Y50011905D01*
X173159523Y49935715D01*
X173121428Y49783334D01*
X173121428Y49592858D01*
X173159523Y49440477D01*
X173197619Y49364286D01*
X173235714Y49326191D01*
X173311904Y49288096D01*
X173388095Y49288096D01*
X173464285Y49326191D01*
X173502380Y49364286D01*
X173540476Y49440477D01*
X173578571Y49592858D01*
X173578571Y49783334D01*
X173540476Y49935715D01*
X173502380Y50011905D01*
X173464285Y50050000D01*
X173388095Y50088096D01*
X172740476Y49288096D02*
X172588095Y49288096D01*
X172511904Y49326191D01*
X172473809Y49364286D01*
X172397619Y49478572D01*
X172359523Y49630953D01*
X172359523Y49935715D01*
X172397619Y50011905D01*
X172435714Y50050000D01*
X172511904Y50088096D01*
X172664285Y50088096D01*
X172740476Y50050000D01*
X172778571Y50011905D01*
X172816666Y49935715D01*
X172816666Y49745239D01*
X172778571Y49669048D01*
X172740476Y49630953D01*
X172664285Y49592858D01*
X172511904Y49592858D01*
X172435714Y49630953D01*
X172397619Y49669048D01*
X172359523Y49745239D01*
X196645238Y36214286D02*
X196683333Y36176191D01*
X196797619Y36138096D01*
X196873809Y36138096D01*
X196988095Y36176191D01*
X197064285Y36252381D01*
X197102380Y36328572D01*
X197140476Y36480953D01*
X197140476Y36595239D01*
X197102380Y36747620D01*
X197064285Y36823810D01*
X196988095Y36900000D01*
X196873809Y36938096D01*
X196797619Y36938096D01*
X196683333Y36900000D01*
X196645238Y36861905D01*
X195883333Y36138096D02*
X196340476Y36138096D01*
X196111904Y36138096D02*
X196111904Y36938096D01*
X196188095Y36823810D01*
X196264285Y36747620D01*
X196340476Y36709524D01*
X195121428Y36138096D02*
X195578571Y36138096D01*
X195350000Y36138096D02*
X195350000Y36938096D01*
X195426190Y36823810D01*
X195502380Y36747620D01*
X195578571Y36709524D01*
X194816666Y36861905D02*
X194778571Y36900000D01*
X194702380Y36938096D01*
X194511904Y36938096D01*
X194435714Y36900000D01*
X194397619Y36861905D01*
X194359523Y36785715D01*
X194359523Y36709524D01*
X194397619Y36595239D01*
X194854761Y36138096D01*
X194359523Y36138096D01*
X197645238Y49364286D02*
X197683333Y49326191D01*
X197797619Y49288096D01*
X197873809Y49288096D01*
X197988095Y49326191D01*
X198064285Y49402381D01*
X198102380Y49478572D01*
X198140476Y49630953D01*
X198140476Y49745239D01*
X198102380Y49897620D01*
X198064285Y49973810D01*
X197988095Y50050000D01*
X197873809Y50088096D01*
X197797619Y50088096D01*
X197683333Y50050000D01*
X197645238Y50011905D01*
X196883333Y49288096D02*
X197340476Y49288096D01*
X197111904Y49288096D02*
X197111904Y50088096D01*
X197188095Y49973810D01*
X197264285Y49897620D01*
X197340476Y49859524D01*
X196121428Y49288096D02*
X196578571Y49288096D01*
X196350000Y49288096D02*
X196350000Y50088096D01*
X196426190Y49973810D01*
X196502380Y49897620D01*
X196578571Y49859524D01*
X195854761Y50088096D02*
X195359523Y50088096D01*
X195626190Y49783334D01*
X195511904Y49783334D01*
X195435714Y49745239D01*
X195397619Y49707143D01*
X195359523Y49630953D01*
X195359523Y49440477D01*
X195397619Y49364286D01*
X195435714Y49326191D01*
X195511904Y49288096D01*
X195740476Y49288096D01*
X195816666Y49326191D01*
X195854761Y49364286D01*
X31488095Y19026191D02*
X31450000Y19102381D01*
X31373809Y19178572D01*
X31259523Y19292858D01*
X31221428Y19369048D01*
X31221428Y19445239D01*
X31411904Y19407143D02*
X31373809Y19483334D01*
X31297619Y19559524D01*
X31145238Y19597620D01*
X30878571Y19597620D01*
X30726190Y19559524D01*
X30650000Y19483334D01*
X30611904Y19407143D01*
X30611904Y19254762D01*
X30650000Y19178572D01*
X30726190Y19102381D01*
X30878571Y19064286D01*
X31145238Y19064286D01*
X31297619Y19102381D01*
X31373809Y19178572D01*
X31411904Y19254762D01*
X31411904Y19407143D01*
X31411904Y18302381D02*
X31411904Y18759524D01*
X31411904Y18530953D02*
X30611904Y18530953D01*
X30726190Y18607143D01*
X30802380Y18683334D01*
X30840476Y18759524D01*
X43163095Y19026191D02*
X43125000Y19102381D01*
X43048809Y19178572D01*
X42934523Y19292858D01*
X42896428Y19369048D01*
X42896428Y19445239D01*
X43086904Y19407143D02*
X43048809Y19483334D01*
X42972619Y19559524D01*
X42820238Y19597620D01*
X42553571Y19597620D01*
X42401190Y19559524D01*
X42325000Y19483334D01*
X42286904Y19407143D01*
X42286904Y19254762D01*
X42325000Y19178572D01*
X42401190Y19102381D01*
X42553571Y19064286D01*
X42820238Y19064286D01*
X42972619Y19102381D01*
X43048809Y19178572D01*
X43086904Y19254762D01*
X43086904Y19407143D01*
X42363095Y18759524D02*
X42325000Y18721429D01*
X42286904Y18645239D01*
X42286904Y18454762D01*
X42325000Y18378572D01*
X42363095Y18340477D01*
X42439285Y18302381D01*
X42515476Y18302381D01*
X42629761Y18340477D01*
X43086904Y18797620D01*
X43086904Y18302381D01*
X54488095Y19026191D02*
X54450000Y19102381D01*
X54373809Y19178572D01*
X54259523Y19292858D01*
X54221428Y19369048D01*
X54221428Y19445239D01*
X54411904Y19407143D02*
X54373809Y19483334D01*
X54297619Y19559524D01*
X54145238Y19597620D01*
X53878571Y19597620D01*
X53726190Y19559524D01*
X53650000Y19483334D01*
X53611904Y19407143D01*
X53611904Y19254762D01*
X53650000Y19178572D01*
X53726190Y19102381D01*
X53878571Y19064286D01*
X54145238Y19064286D01*
X54297619Y19102381D01*
X54373809Y19178572D01*
X54411904Y19254762D01*
X54411904Y19407143D01*
X53611904Y18797620D02*
X53611904Y18302381D01*
X53916666Y18569048D01*
X53916666Y18454762D01*
X53954761Y18378572D01*
X53992857Y18340477D01*
X54069047Y18302381D01*
X54259523Y18302381D01*
X54335714Y18340477D01*
X54373809Y18378572D01*
X54411904Y18454762D01*
X54411904Y18683334D01*
X54373809Y18759524D01*
X54335714Y18797620D01*
X66163095Y19026191D02*
X66125000Y19102381D01*
X66048809Y19178572D01*
X65934523Y19292858D01*
X65896428Y19369048D01*
X65896428Y19445239D01*
X66086904Y19407143D02*
X66048809Y19483334D01*
X65972619Y19559524D01*
X65820238Y19597620D01*
X65553571Y19597620D01*
X65401190Y19559524D01*
X65325000Y19483334D01*
X65286904Y19407143D01*
X65286904Y19254762D01*
X65325000Y19178572D01*
X65401190Y19102381D01*
X65553571Y19064286D01*
X65820238Y19064286D01*
X65972619Y19102381D01*
X66048809Y19178572D01*
X66086904Y19254762D01*
X66086904Y19407143D01*
X65553571Y18378572D02*
X66086904Y18378572D01*
X65248809Y18569048D02*
X65820238Y18759524D01*
X65820238Y18264286D01*
X77488095Y19026191D02*
X77450000Y19102381D01*
X77373809Y19178572D01*
X77259523Y19292858D01*
X77221428Y19369048D01*
X77221428Y19445239D01*
X77411904Y19407143D02*
X77373809Y19483334D01*
X77297619Y19559524D01*
X77145238Y19597620D01*
X76878571Y19597620D01*
X76726190Y19559524D01*
X76650000Y19483334D01*
X76611904Y19407143D01*
X76611904Y19254762D01*
X76650000Y19178572D01*
X76726190Y19102381D01*
X76878571Y19064286D01*
X77145238Y19064286D01*
X77297619Y19102381D01*
X77373809Y19178572D01*
X77411904Y19254762D01*
X77411904Y19407143D01*
X76611904Y18340477D02*
X76611904Y18721429D01*
X76992857Y18759524D01*
X76954761Y18721429D01*
X76916666Y18645239D01*
X76916666Y18454762D01*
X76954761Y18378572D01*
X76992857Y18340477D01*
X77069047Y18302381D01*
X77259523Y18302381D01*
X77335714Y18340477D01*
X77373809Y18378572D01*
X77411904Y18454762D01*
X77411904Y18645239D01*
X77373809Y18721429D01*
X77335714Y18759524D01*
X89163095Y19026191D02*
X89125000Y19102381D01*
X89048809Y19178572D01*
X88934523Y19292858D01*
X88896428Y19369048D01*
X88896428Y19445239D01*
X89086904Y19407143D02*
X89048809Y19483334D01*
X88972619Y19559524D01*
X88820238Y19597620D01*
X88553571Y19597620D01*
X88401190Y19559524D01*
X88325000Y19483334D01*
X88286904Y19407143D01*
X88286904Y19254762D01*
X88325000Y19178572D01*
X88401190Y19102381D01*
X88553571Y19064286D01*
X88820238Y19064286D01*
X88972619Y19102381D01*
X89048809Y19178572D01*
X89086904Y19254762D01*
X89086904Y19407143D01*
X88286904Y18378572D02*
X88286904Y18530953D01*
X88325000Y18607143D01*
X88363095Y18645239D01*
X88477380Y18721429D01*
X88629761Y18759524D01*
X88934523Y18759524D01*
X89010714Y18721429D01*
X89048809Y18683334D01*
X89086904Y18607143D01*
X89086904Y18454762D01*
X89048809Y18378572D01*
X89010714Y18340477D01*
X88934523Y18302381D01*
X88744047Y18302381D01*
X88667857Y18340477D01*
X88629761Y18378572D01*
X88591666Y18454762D01*
X88591666Y18607143D01*
X88629761Y18683334D01*
X88667857Y18721429D01*
X88744047Y18759524D01*
X100488095Y19026191D02*
X100450000Y19102381D01*
X100373809Y19178572D01*
X100259523Y19292858D01*
X100221428Y19369048D01*
X100221428Y19445239D01*
X100411904Y19407143D02*
X100373809Y19483334D01*
X100297619Y19559524D01*
X100145238Y19597620D01*
X99878571Y19597620D01*
X99726190Y19559524D01*
X99650000Y19483334D01*
X99611904Y19407143D01*
X99611904Y19254762D01*
X99650000Y19178572D01*
X99726190Y19102381D01*
X99878571Y19064286D01*
X100145238Y19064286D01*
X100297619Y19102381D01*
X100373809Y19178572D01*
X100411904Y19254762D01*
X100411904Y19407143D01*
X99611904Y18797620D02*
X99611904Y18264286D01*
X100411904Y18607143D01*
X112163095Y19026191D02*
X112125000Y19102381D01*
X112048809Y19178572D01*
X111934523Y19292858D01*
X111896428Y19369048D01*
X111896428Y19445239D01*
X112086904Y19407143D02*
X112048809Y19483334D01*
X111972619Y19559524D01*
X111820238Y19597620D01*
X111553571Y19597620D01*
X111401190Y19559524D01*
X111325000Y19483334D01*
X111286904Y19407143D01*
X111286904Y19254762D01*
X111325000Y19178572D01*
X111401190Y19102381D01*
X111553571Y19064286D01*
X111820238Y19064286D01*
X111972619Y19102381D01*
X112048809Y19178572D01*
X112086904Y19254762D01*
X112086904Y19407143D01*
X111629761Y18607143D02*
X111591666Y18683334D01*
X111553571Y18721429D01*
X111477380Y18759524D01*
X111439285Y18759524D01*
X111363095Y18721429D01*
X111325000Y18683334D01*
X111286904Y18607143D01*
X111286904Y18454762D01*
X111325000Y18378572D01*
X111363095Y18340477D01*
X111439285Y18302381D01*
X111477380Y18302381D01*
X111553571Y18340477D01*
X111591666Y18378572D01*
X111629761Y18454762D01*
X111629761Y18607143D01*
X111667857Y18683334D01*
X111705952Y18721429D01*
X111782142Y18759524D01*
X111934523Y18759524D01*
X112010714Y18721429D01*
X112048809Y18683334D01*
X112086904Y18607143D01*
X112086904Y18454762D01*
X112048809Y18378572D01*
X112010714Y18340477D01*
X111934523Y18302381D01*
X111782142Y18302381D01*
X111705952Y18340477D01*
X111667857Y18378572D01*
X111629761Y18454762D01*
X123488095Y19026191D02*
X123450000Y19102381D01*
X123373809Y19178572D01*
X123259523Y19292858D01*
X123221428Y19369048D01*
X123221428Y19445239D01*
X123411904Y19407143D02*
X123373809Y19483334D01*
X123297619Y19559524D01*
X123145238Y19597620D01*
X122878571Y19597620D01*
X122726190Y19559524D01*
X122650000Y19483334D01*
X122611904Y19407143D01*
X122611904Y19254762D01*
X122650000Y19178572D01*
X122726190Y19102381D01*
X122878571Y19064286D01*
X123145238Y19064286D01*
X123297619Y19102381D01*
X123373809Y19178572D01*
X123411904Y19254762D01*
X123411904Y19407143D01*
X123411904Y18683334D02*
X123411904Y18530953D01*
X123373809Y18454762D01*
X123335714Y18416667D01*
X123221428Y18340477D01*
X123069047Y18302381D01*
X122764285Y18302381D01*
X122688095Y18340477D01*
X122650000Y18378572D01*
X122611904Y18454762D01*
X122611904Y18607143D01*
X122650000Y18683334D01*
X122688095Y18721429D01*
X122764285Y18759524D01*
X122954761Y18759524D01*
X123030952Y18721429D01*
X123069047Y18683334D01*
X123107142Y18607143D01*
X123107142Y18454762D01*
X123069047Y18378572D01*
X123030952Y18340477D01*
X122954761Y18302381D01*
X135163095Y19407143D02*
X135125000Y19483334D01*
X135048809Y19559524D01*
X134934523Y19673810D01*
X134896428Y19750000D01*
X134896428Y19826191D01*
X135086904Y19788096D02*
X135048809Y19864286D01*
X134972619Y19940477D01*
X134820238Y19978572D01*
X134553571Y19978572D01*
X134401190Y19940477D01*
X134325000Y19864286D01*
X134286904Y19788096D01*
X134286904Y19635715D01*
X134325000Y19559524D01*
X134401190Y19483334D01*
X134553571Y19445239D01*
X134820238Y19445239D01*
X134972619Y19483334D01*
X135048809Y19559524D01*
X135086904Y19635715D01*
X135086904Y19788096D01*
X135086904Y18683334D02*
X135086904Y19140477D01*
X135086904Y18911905D02*
X134286904Y18911905D01*
X134401190Y18988096D01*
X134477380Y19064286D01*
X134515476Y19140477D01*
X134286904Y18188096D02*
X134286904Y18111905D01*
X134325000Y18035715D01*
X134363095Y17997620D01*
X134439285Y17959524D01*
X134591666Y17921429D01*
X134782142Y17921429D01*
X134934523Y17959524D01*
X135010714Y17997620D01*
X135048809Y18035715D01*
X135086904Y18111905D01*
X135086904Y18188096D01*
X135048809Y18264286D01*
X135010714Y18302381D01*
X134934523Y18340477D01*
X134782142Y18378572D01*
X134591666Y18378572D01*
X134439285Y18340477D01*
X134363095Y18302381D01*
X134325000Y18264286D01*
X134286904Y18188096D01*
X146488095Y19407143D02*
X146450000Y19483334D01*
X146373809Y19559524D01*
X146259523Y19673810D01*
X146221428Y19750000D01*
X146221428Y19826191D01*
X146411904Y19788096D02*
X146373809Y19864286D01*
X146297619Y19940477D01*
X146145238Y19978572D01*
X145878571Y19978572D01*
X145726190Y19940477D01*
X145650000Y19864286D01*
X145611904Y19788096D01*
X145611904Y19635715D01*
X145650000Y19559524D01*
X145726190Y19483334D01*
X145878571Y19445239D01*
X146145238Y19445239D01*
X146297619Y19483334D01*
X146373809Y19559524D01*
X146411904Y19635715D01*
X146411904Y19788096D01*
X146411904Y18683334D02*
X146411904Y19140477D01*
X146411904Y18911905D02*
X145611904Y18911905D01*
X145726190Y18988096D01*
X145802380Y19064286D01*
X145840476Y19140477D01*
X146411904Y17921429D02*
X146411904Y18378572D01*
X146411904Y18150000D02*
X145611904Y18150000D01*
X145726190Y18226191D01*
X145802380Y18302381D01*
X145840476Y18378572D01*
X158163095Y19407143D02*
X158125000Y19483334D01*
X158048809Y19559524D01*
X157934523Y19673810D01*
X157896428Y19750000D01*
X157896428Y19826191D01*
X158086904Y19788096D02*
X158048809Y19864286D01*
X157972619Y19940477D01*
X157820238Y19978572D01*
X157553571Y19978572D01*
X157401190Y19940477D01*
X157325000Y19864286D01*
X157286904Y19788096D01*
X157286904Y19635715D01*
X157325000Y19559524D01*
X157401190Y19483334D01*
X157553571Y19445239D01*
X157820238Y19445239D01*
X157972619Y19483334D01*
X158048809Y19559524D01*
X158086904Y19635715D01*
X158086904Y19788096D01*
X158086904Y18683334D02*
X158086904Y19140477D01*
X158086904Y18911905D02*
X157286904Y18911905D01*
X157401190Y18988096D01*
X157477380Y19064286D01*
X157515476Y19140477D01*
X157363095Y18378572D02*
X157325000Y18340477D01*
X157286904Y18264286D01*
X157286904Y18073810D01*
X157325000Y17997620D01*
X157363095Y17959524D01*
X157439285Y17921429D01*
X157515476Y17921429D01*
X157629761Y17959524D01*
X158086904Y18416667D01*
X158086904Y17921429D01*
X169488095Y19407143D02*
X169450000Y19483334D01*
X169373809Y19559524D01*
X169259523Y19673810D01*
X169221428Y19750000D01*
X169221428Y19826191D01*
X169411904Y19788096D02*
X169373809Y19864286D01*
X169297619Y19940477D01*
X169145238Y19978572D01*
X168878571Y19978572D01*
X168726190Y19940477D01*
X168650000Y19864286D01*
X168611904Y19788096D01*
X168611904Y19635715D01*
X168650000Y19559524D01*
X168726190Y19483334D01*
X168878571Y19445239D01*
X169145238Y19445239D01*
X169297619Y19483334D01*
X169373809Y19559524D01*
X169411904Y19635715D01*
X169411904Y19788096D01*
X169411904Y18683334D02*
X169411904Y19140477D01*
X169411904Y18911905D02*
X168611904Y18911905D01*
X168726190Y18988096D01*
X168802380Y19064286D01*
X168840476Y19140477D01*
X168611904Y18416667D02*
X168611904Y17921429D01*
X168916666Y18188096D01*
X168916666Y18073810D01*
X168954761Y17997620D01*
X168992857Y17959524D01*
X169069047Y17921429D01*
X169259523Y17921429D01*
X169335714Y17959524D01*
X169373809Y17997620D01*
X169411904Y18073810D01*
X169411904Y18302381D01*
X169373809Y18378572D01*
X169335714Y18416667D01*
X181163095Y19407143D02*
X181125000Y19483334D01*
X181048809Y19559524D01*
X180934523Y19673810D01*
X180896428Y19750000D01*
X180896428Y19826191D01*
X181086904Y19788096D02*
X181048809Y19864286D01*
X180972619Y19940477D01*
X180820238Y19978572D01*
X180553571Y19978572D01*
X180401190Y19940477D01*
X180325000Y19864286D01*
X180286904Y19788096D01*
X180286904Y19635715D01*
X180325000Y19559524D01*
X180401190Y19483334D01*
X180553571Y19445239D01*
X180820238Y19445239D01*
X180972619Y19483334D01*
X181048809Y19559524D01*
X181086904Y19635715D01*
X181086904Y19788096D01*
X181086904Y18683334D02*
X181086904Y19140477D01*
X181086904Y18911905D02*
X180286904Y18911905D01*
X180401190Y18988096D01*
X180477380Y19064286D01*
X180515476Y19140477D01*
X180553571Y17997620D02*
X181086904Y17997620D01*
X180248809Y18188096D02*
X180820238Y18378572D01*
X180820238Y17883334D01*
X192488095Y19407143D02*
X192450000Y19483334D01*
X192373809Y19559524D01*
X192259523Y19673810D01*
X192221428Y19750000D01*
X192221428Y19826191D01*
X192411904Y19788096D02*
X192373809Y19864286D01*
X192297619Y19940477D01*
X192145238Y19978572D01*
X191878571Y19978572D01*
X191726190Y19940477D01*
X191650000Y19864286D01*
X191611904Y19788096D01*
X191611904Y19635715D01*
X191650000Y19559524D01*
X191726190Y19483334D01*
X191878571Y19445239D01*
X192145238Y19445239D01*
X192297619Y19483334D01*
X192373809Y19559524D01*
X192411904Y19635715D01*
X192411904Y19788096D01*
X192411904Y18683334D02*
X192411904Y19140477D01*
X192411904Y18911905D02*
X191611904Y18911905D01*
X191726190Y18988096D01*
X191802380Y19064286D01*
X191840476Y19140477D01*
X191611904Y17959524D02*
X191611904Y18340477D01*
X191992857Y18378572D01*
X191954761Y18340477D01*
X191916666Y18264286D01*
X191916666Y18073810D01*
X191954761Y17997620D01*
X191992857Y17959524D01*
X192069047Y17921429D01*
X192259523Y17921429D01*
X192335714Y17959524D01*
X192373809Y17997620D01*
X192411904Y18073810D01*
X192411904Y18264286D01*
X192373809Y18340477D01*
X192335714Y18378572D01*
X204163095Y19407143D02*
X204125000Y19483334D01*
X204048809Y19559524D01*
X203934523Y19673810D01*
X203896428Y19750000D01*
X203896428Y19826191D01*
X204086904Y19788096D02*
X204048809Y19864286D01*
X203972619Y19940477D01*
X203820238Y19978572D01*
X203553571Y19978572D01*
X203401190Y19940477D01*
X203325000Y19864286D01*
X203286904Y19788096D01*
X203286904Y19635715D01*
X203325000Y19559524D01*
X203401190Y19483334D01*
X203553571Y19445239D01*
X203820238Y19445239D01*
X203972619Y19483334D01*
X204048809Y19559524D01*
X204086904Y19635715D01*
X204086904Y19788096D01*
X204086904Y18683334D02*
X204086904Y19140477D01*
X204086904Y18911905D02*
X203286904Y18911905D01*
X203401190Y18988096D01*
X203477380Y19064286D01*
X203515476Y19140477D01*
X203286904Y17997620D02*
X203286904Y18150000D01*
X203325000Y18226191D01*
X203363095Y18264286D01*
X203477380Y18340477D01*
X203629761Y18378572D01*
X203934523Y18378572D01*
X204010714Y18340477D01*
X204048809Y18302381D01*
X204086904Y18226191D01*
X204086904Y18073810D01*
X204048809Y17997620D01*
X204010714Y17959524D01*
X203934523Y17921429D01*
X203744047Y17921429D01*
X203667857Y17959524D01*
X203629761Y17997620D01*
X203591666Y18073810D01*
X203591666Y18226191D01*
X203629761Y18302381D01*
X203667857Y18340477D01*
X203744047Y18378572D01*
X153361904Y73764286D02*
X152980952Y74030953D01*
X153361904Y74221429D02*
X152561904Y74221429D01*
X152561904Y73916667D01*
X152600000Y73840477D01*
X152638095Y73802381D01*
X152714285Y73764286D01*
X152828571Y73764286D01*
X152904761Y73802381D01*
X152942857Y73840477D01*
X152980952Y73916667D01*
X152980952Y74221429D01*
X153361904Y73002381D02*
X153361904Y73459524D01*
X153361904Y73230953D02*
X152561904Y73230953D01*
X152676190Y73307143D01*
X152752380Y73383334D01*
X152790476Y73459524D01*
X152638095Y72697620D02*
X152600000Y72659524D01*
X152561904Y72583334D01*
X152561904Y72392858D01*
X152600000Y72316667D01*
X152638095Y72278572D01*
X152714285Y72240477D01*
X152790476Y72240477D01*
X152904761Y72278572D01*
X153361904Y72735715D01*
X153361904Y72240477D01*
X148861904Y74764286D02*
X148480952Y75030953D01*
X148861904Y75221429D02*
X148061904Y75221429D01*
X148061904Y74916667D01*
X148100000Y74840477D01*
X148138095Y74802381D01*
X148214285Y74764286D01*
X148328571Y74764286D01*
X148404761Y74802381D01*
X148442857Y74840477D01*
X148480952Y74916667D01*
X148480952Y75221429D01*
X148861904Y74002381D02*
X148861904Y74459524D01*
X148861904Y74230953D02*
X148061904Y74230953D01*
X148176190Y74307143D01*
X148252380Y74383334D01*
X148290476Y74459524D01*
X148061904Y73735715D02*
X148061904Y73240477D01*
X148366666Y73507143D01*
X148366666Y73392858D01*
X148404761Y73316667D01*
X148442857Y73278572D01*
X148519047Y73240477D01*
X148709523Y73240477D01*
X148785714Y73278572D01*
X148823809Y73316667D01*
X148861904Y73392858D01*
X148861904Y73621429D01*
X148823809Y73697620D01*
X148785714Y73735715D01*
X28964285Y23798096D02*
X29230952Y24179048D01*
X29421428Y23798096D02*
X29421428Y24598096D01*
X29116666Y24598096D01*
X29040476Y24560000D01*
X29002380Y24521905D01*
X28964285Y24445715D01*
X28964285Y24331429D01*
X29002380Y24255239D01*
X29040476Y24217143D01*
X29116666Y24179048D01*
X29421428Y24179048D01*
X28697619Y24598096D02*
X28202380Y24598096D01*
X28469047Y24293334D01*
X28354761Y24293334D01*
X28278571Y24255239D01*
X28240476Y24217143D01*
X28202380Y24140953D01*
X28202380Y23950477D01*
X28240476Y23874286D01*
X28278571Y23836191D01*
X28354761Y23798096D01*
X28583333Y23798096D01*
X28659523Y23836191D01*
X28697619Y23874286D01*
X27707142Y24598096D02*
X27630952Y24598096D01*
X27554761Y24560000D01*
X27516666Y24521905D01*
X27478571Y24445715D01*
X27440476Y24293334D01*
X27440476Y24102858D01*
X27478571Y23950477D01*
X27516666Y23874286D01*
X27554761Y23836191D01*
X27630952Y23798096D01*
X27707142Y23798096D01*
X27783333Y23836191D01*
X27821428Y23874286D01*
X27859523Y23950477D01*
X27897619Y24102858D01*
X27897619Y24293334D01*
X27859523Y24445715D01*
X27821428Y24521905D01*
X27783333Y24560000D01*
X27707142Y24598096D01*
X40644285Y23568096D02*
X40910952Y23949048D01*
X41101428Y23568096D02*
X41101428Y24368096D01*
X40796666Y24368096D01*
X40720476Y24330000D01*
X40682380Y24291905D01*
X40644285Y24215715D01*
X40644285Y24101429D01*
X40682380Y24025239D01*
X40720476Y23987143D01*
X40796666Y23949048D01*
X41101428Y23949048D01*
X40377619Y24368096D02*
X39882380Y24368096D01*
X40149047Y24063334D01*
X40034761Y24063334D01*
X39958571Y24025239D01*
X39920476Y23987143D01*
X39882380Y23910953D01*
X39882380Y23720477D01*
X39920476Y23644286D01*
X39958571Y23606191D01*
X40034761Y23568096D01*
X40263333Y23568096D01*
X40339523Y23606191D01*
X40377619Y23644286D01*
X39120476Y23568096D02*
X39577619Y23568096D01*
X39349047Y23568096D02*
X39349047Y24368096D01*
X39425238Y24253810D01*
X39501428Y24177620D01*
X39577619Y24139524D01*
X37214285Y19488096D02*
X37480952Y19869048D01*
X37671428Y19488096D02*
X37671428Y20288096D01*
X37366666Y20288096D01*
X37290476Y20250000D01*
X37252380Y20211905D01*
X37214285Y20135715D01*
X37214285Y20021429D01*
X37252380Y19945239D01*
X37290476Y19907143D01*
X37366666Y19869048D01*
X37671428Y19869048D01*
X36947619Y20288096D02*
X36452380Y20288096D01*
X36719047Y19983334D01*
X36604761Y19983334D01*
X36528571Y19945239D01*
X36490476Y19907143D01*
X36452380Y19830953D01*
X36452380Y19640477D01*
X36490476Y19564286D01*
X36528571Y19526191D01*
X36604761Y19488096D01*
X36833333Y19488096D01*
X36909523Y19526191D01*
X36947619Y19564286D01*
X36147619Y20211905D02*
X36109523Y20250000D01*
X36033333Y20288096D01*
X35842857Y20288096D01*
X35766666Y20250000D01*
X35728571Y20211905D01*
X35690476Y20135715D01*
X35690476Y20059524D01*
X35728571Y19945239D01*
X36185714Y19488096D01*
X35690476Y19488096D01*
X25514285Y19388096D02*
X25780952Y19769048D01*
X25971428Y19388096D02*
X25971428Y20188096D01*
X25666666Y20188096D01*
X25590476Y20150000D01*
X25552380Y20111905D01*
X25514285Y20035715D01*
X25514285Y19921429D01*
X25552380Y19845239D01*
X25590476Y19807143D01*
X25666666Y19769048D01*
X25971428Y19769048D01*
X25247619Y20188096D02*
X24752380Y20188096D01*
X25019047Y19883334D01*
X24904761Y19883334D01*
X24828571Y19845239D01*
X24790476Y19807143D01*
X24752380Y19730953D01*
X24752380Y19540477D01*
X24790476Y19464286D01*
X24828571Y19426191D01*
X24904761Y19388096D01*
X25133333Y19388096D01*
X25209523Y19426191D01*
X25247619Y19464286D01*
X24485714Y20188096D02*
X23990476Y20188096D01*
X24257142Y19883334D01*
X24142857Y19883334D01*
X24066666Y19845239D01*
X24028571Y19807143D01*
X23990476Y19730953D01*
X23990476Y19540477D01*
X24028571Y19464286D01*
X24066666Y19426191D01*
X24142857Y19388096D01*
X24371428Y19388096D01*
X24447619Y19426191D01*
X24485714Y19464286D01*
X51964285Y23798096D02*
X52230952Y24179048D01*
X52421428Y23798096D02*
X52421428Y24598096D01*
X52116666Y24598096D01*
X52040476Y24560000D01*
X52002380Y24521905D01*
X51964285Y24445715D01*
X51964285Y24331429D01*
X52002380Y24255239D01*
X52040476Y24217143D01*
X52116666Y24179048D01*
X52421428Y24179048D01*
X51697619Y24598096D02*
X51202380Y24598096D01*
X51469047Y24293334D01*
X51354761Y24293334D01*
X51278571Y24255239D01*
X51240476Y24217143D01*
X51202380Y24140953D01*
X51202380Y23950477D01*
X51240476Y23874286D01*
X51278571Y23836191D01*
X51354761Y23798096D01*
X51583333Y23798096D01*
X51659523Y23836191D01*
X51697619Y23874286D01*
X50478571Y24598096D02*
X50859523Y24598096D01*
X50897619Y24217143D01*
X50859523Y24255239D01*
X50783333Y24293334D01*
X50592857Y24293334D01*
X50516666Y24255239D01*
X50478571Y24217143D01*
X50440476Y24140953D01*
X50440476Y23950477D01*
X50478571Y23874286D01*
X50516666Y23836191D01*
X50592857Y23798096D01*
X50783333Y23798096D01*
X50859523Y23836191D01*
X50897619Y23874286D01*
X63644285Y23568096D02*
X63910952Y23949048D01*
X64101428Y23568096D02*
X64101428Y24368096D01*
X63796666Y24368096D01*
X63720476Y24330000D01*
X63682380Y24291905D01*
X63644285Y24215715D01*
X63644285Y24101429D01*
X63682380Y24025239D01*
X63720476Y23987143D01*
X63796666Y23949048D01*
X64101428Y23949048D01*
X63377619Y24368096D02*
X62882380Y24368096D01*
X63149047Y24063334D01*
X63034761Y24063334D01*
X62958571Y24025239D01*
X62920476Y23987143D01*
X62882380Y23910953D01*
X62882380Y23720477D01*
X62920476Y23644286D01*
X62958571Y23606191D01*
X63034761Y23568096D01*
X63263333Y23568096D01*
X63339523Y23606191D01*
X63377619Y23644286D01*
X62196666Y24368096D02*
X62349047Y24368096D01*
X62425238Y24330000D01*
X62463333Y24291905D01*
X62539523Y24177620D01*
X62577619Y24025239D01*
X62577619Y23720477D01*
X62539523Y23644286D01*
X62501428Y23606191D01*
X62425238Y23568096D01*
X62272857Y23568096D01*
X62196666Y23606191D01*
X62158571Y23644286D01*
X62120476Y23720477D01*
X62120476Y23910953D01*
X62158571Y23987143D01*
X62196666Y24025239D01*
X62272857Y24063334D01*
X62425238Y24063334D01*
X62501428Y24025239D01*
X62539523Y23987143D01*
X62577619Y23910953D01*
X60214285Y19488096D02*
X60480952Y19869048D01*
X60671428Y19488096D02*
X60671428Y20288096D01*
X60366666Y20288096D01*
X60290476Y20250000D01*
X60252380Y20211905D01*
X60214285Y20135715D01*
X60214285Y20021429D01*
X60252380Y19945239D01*
X60290476Y19907143D01*
X60366666Y19869048D01*
X60671428Y19869048D01*
X59947619Y20288096D02*
X59452380Y20288096D01*
X59719047Y19983334D01*
X59604761Y19983334D01*
X59528571Y19945239D01*
X59490476Y19907143D01*
X59452380Y19830953D01*
X59452380Y19640477D01*
X59490476Y19564286D01*
X59528571Y19526191D01*
X59604761Y19488096D01*
X59833333Y19488096D01*
X59909523Y19526191D01*
X59947619Y19564286D01*
X59185714Y20288096D02*
X58652380Y20288096D01*
X58995238Y19488096D01*
X48514285Y19388096D02*
X48780952Y19769048D01*
X48971428Y19388096D02*
X48971428Y20188096D01*
X48666666Y20188096D01*
X48590476Y20150000D01*
X48552380Y20111905D01*
X48514285Y20035715D01*
X48514285Y19921429D01*
X48552380Y19845239D01*
X48590476Y19807143D01*
X48666666Y19769048D01*
X48971428Y19769048D01*
X48247619Y20188096D02*
X47752380Y20188096D01*
X48019047Y19883334D01*
X47904761Y19883334D01*
X47828571Y19845239D01*
X47790476Y19807143D01*
X47752380Y19730953D01*
X47752380Y19540477D01*
X47790476Y19464286D01*
X47828571Y19426191D01*
X47904761Y19388096D01*
X48133333Y19388096D01*
X48209523Y19426191D01*
X48247619Y19464286D01*
X47295238Y19845239D02*
X47371428Y19883334D01*
X47409523Y19921429D01*
X47447619Y19997620D01*
X47447619Y20035715D01*
X47409523Y20111905D01*
X47371428Y20150000D01*
X47295238Y20188096D01*
X47142857Y20188096D01*
X47066666Y20150000D01*
X47028571Y20111905D01*
X46990476Y20035715D01*
X46990476Y19997620D01*
X47028571Y19921429D01*
X47066666Y19883334D01*
X47142857Y19845239D01*
X47295238Y19845239D01*
X47371428Y19807143D01*
X47409523Y19769048D01*
X47447619Y19692858D01*
X47447619Y19540477D01*
X47409523Y19464286D01*
X47371428Y19426191D01*
X47295238Y19388096D01*
X47142857Y19388096D01*
X47066666Y19426191D01*
X47028571Y19464286D01*
X46990476Y19540477D01*
X46990476Y19692858D01*
X47028571Y19769048D01*
X47066666Y19807143D01*
X47142857Y19845239D01*
X74964285Y23798096D02*
X75230952Y24179048D01*
X75421428Y23798096D02*
X75421428Y24598096D01*
X75116666Y24598096D01*
X75040476Y24560000D01*
X75002380Y24521905D01*
X74964285Y24445715D01*
X74964285Y24331429D01*
X75002380Y24255239D01*
X75040476Y24217143D01*
X75116666Y24179048D01*
X75421428Y24179048D01*
X74278571Y24331429D02*
X74278571Y23798096D01*
X74469047Y24636191D02*
X74659523Y24064762D01*
X74164285Y24064762D01*
X73707142Y24598096D02*
X73630952Y24598096D01*
X73554761Y24560000D01*
X73516666Y24521905D01*
X73478571Y24445715D01*
X73440476Y24293334D01*
X73440476Y24102858D01*
X73478571Y23950477D01*
X73516666Y23874286D01*
X73554761Y23836191D01*
X73630952Y23798096D01*
X73707142Y23798096D01*
X73783333Y23836191D01*
X73821428Y23874286D01*
X73859523Y23950477D01*
X73897619Y24102858D01*
X73897619Y24293334D01*
X73859523Y24445715D01*
X73821428Y24521905D01*
X73783333Y24560000D01*
X73707142Y24598096D01*
X86644285Y23568096D02*
X86910952Y23949048D01*
X87101428Y23568096D02*
X87101428Y24368096D01*
X86796666Y24368096D01*
X86720476Y24330000D01*
X86682380Y24291905D01*
X86644285Y24215715D01*
X86644285Y24101429D01*
X86682380Y24025239D01*
X86720476Y23987143D01*
X86796666Y23949048D01*
X87101428Y23949048D01*
X85958571Y24101429D02*
X85958571Y23568096D01*
X86149047Y24406191D02*
X86339523Y23834762D01*
X85844285Y23834762D01*
X85120476Y23568096D02*
X85577619Y23568096D01*
X85349047Y23568096D02*
X85349047Y24368096D01*
X85425238Y24253810D01*
X85501428Y24177620D01*
X85577619Y24139524D01*
X83214285Y19488096D02*
X83480952Y19869048D01*
X83671428Y19488096D02*
X83671428Y20288096D01*
X83366666Y20288096D01*
X83290476Y20250000D01*
X83252380Y20211905D01*
X83214285Y20135715D01*
X83214285Y20021429D01*
X83252380Y19945239D01*
X83290476Y19907143D01*
X83366666Y19869048D01*
X83671428Y19869048D01*
X82528571Y20021429D02*
X82528571Y19488096D01*
X82719047Y20326191D02*
X82909523Y19754762D01*
X82414285Y19754762D01*
X82147619Y20211905D02*
X82109523Y20250000D01*
X82033333Y20288096D01*
X81842857Y20288096D01*
X81766666Y20250000D01*
X81728571Y20211905D01*
X81690476Y20135715D01*
X81690476Y20059524D01*
X81728571Y19945239D01*
X82185714Y19488096D01*
X81690476Y19488096D01*
X71514285Y19388096D02*
X71780952Y19769048D01*
X71971428Y19388096D02*
X71971428Y20188096D01*
X71666666Y20188096D01*
X71590476Y20150000D01*
X71552380Y20111905D01*
X71514285Y20035715D01*
X71514285Y19921429D01*
X71552380Y19845239D01*
X71590476Y19807143D01*
X71666666Y19769048D01*
X71971428Y19769048D01*
X70828571Y19921429D02*
X70828571Y19388096D01*
X71019047Y20226191D02*
X71209523Y19654762D01*
X70714285Y19654762D01*
X70485714Y20188096D02*
X69990476Y20188096D01*
X70257142Y19883334D01*
X70142857Y19883334D01*
X70066666Y19845239D01*
X70028571Y19807143D01*
X69990476Y19730953D01*
X69990476Y19540477D01*
X70028571Y19464286D01*
X70066666Y19426191D01*
X70142857Y19388096D01*
X70371428Y19388096D01*
X70447619Y19426191D01*
X70485714Y19464286D01*
X97964285Y23798096D02*
X98230952Y24179048D01*
X98421428Y23798096D02*
X98421428Y24598096D01*
X98116666Y24598096D01*
X98040476Y24560000D01*
X98002380Y24521905D01*
X97964285Y24445715D01*
X97964285Y24331429D01*
X98002380Y24255239D01*
X98040476Y24217143D01*
X98116666Y24179048D01*
X98421428Y24179048D01*
X97278571Y24331429D02*
X97278571Y23798096D01*
X97469047Y24636191D02*
X97659523Y24064762D01*
X97164285Y24064762D01*
X96478571Y24598096D02*
X96859523Y24598096D01*
X96897619Y24217143D01*
X96859523Y24255239D01*
X96783333Y24293334D01*
X96592857Y24293334D01*
X96516666Y24255239D01*
X96478571Y24217143D01*
X96440476Y24140953D01*
X96440476Y23950477D01*
X96478571Y23874286D01*
X96516666Y23836191D01*
X96592857Y23798096D01*
X96783333Y23798096D01*
X96859523Y23836191D01*
X96897619Y23874286D01*
X109644285Y23568096D02*
X109910952Y23949048D01*
X110101428Y23568096D02*
X110101428Y24368096D01*
X109796666Y24368096D01*
X109720476Y24330000D01*
X109682380Y24291905D01*
X109644285Y24215715D01*
X109644285Y24101429D01*
X109682380Y24025239D01*
X109720476Y23987143D01*
X109796666Y23949048D01*
X110101428Y23949048D01*
X108958571Y24101429D02*
X108958571Y23568096D01*
X109149047Y24406191D02*
X109339523Y23834762D01*
X108844285Y23834762D01*
X108196666Y24368096D02*
X108349047Y24368096D01*
X108425238Y24330000D01*
X108463333Y24291905D01*
X108539523Y24177620D01*
X108577619Y24025239D01*
X108577619Y23720477D01*
X108539523Y23644286D01*
X108501428Y23606191D01*
X108425238Y23568096D01*
X108272857Y23568096D01*
X108196666Y23606191D01*
X108158571Y23644286D01*
X108120476Y23720477D01*
X108120476Y23910953D01*
X108158571Y23987143D01*
X108196666Y24025239D01*
X108272857Y24063334D01*
X108425238Y24063334D01*
X108501428Y24025239D01*
X108539523Y23987143D01*
X108577619Y23910953D01*
X106214285Y19488096D02*
X106480952Y19869048D01*
X106671428Y19488096D02*
X106671428Y20288096D01*
X106366666Y20288096D01*
X106290476Y20250000D01*
X106252380Y20211905D01*
X106214285Y20135715D01*
X106214285Y20021429D01*
X106252380Y19945239D01*
X106290476Y19907143D01*
X106366666Y19869048D01*
X106671428Y19869048D01*
X105528571Y20021429D02*
X105528571Y19488096D01*
X105719047Y20326191D02*
X105909523Y19754762D01*
X105414285Y19754762D01*
X105185714Y20288096D02*
X104652380Y20288096D01*
X104995238Y19488096D01*
X94514285Y19388096D02*
X94780952Y19769048D01*
X94971428Y19388096D02*
X94971428Y20188096D01*
X94666666Y20188096D01*
X94590476Y20150000D01*
X94552380Y20111905D01*
X94514285Y20035715D01*
X94514285Y19921429D01*
X94552380Y19845239D01*
X94590476Y19807143D01*
X94666666Y19769048D01*
X94971428Y19769048D01*
X93828571Y19921429D02*
X93828571Y19388096D01*
X94019047Y20226191D02*
X94209523Y19654762D01*
X93714285Y19654762D01*
X93295238Y19845239D02*
X93371428Y19883334D01*
X93409523Y19921429D01*
X93447619Y19997620D01*
X93447619Y20035715D01*
X93409523Y20111905D01*
X93371428Y20150000D01*
X93295238Y20188096D01*
X93142857Y20188096D01*
X93066666Y20150000D01*
X93028571Y20111905D01*
X92990476Y20035715D01*
X92990476Y19997620D01*
X93028571Y19921429D01*
X93066666Y19883334D01*
X93142857Y19845239D01*
X93295238Y19845239D01*
X93371428Y19807143D01*
X93409523Y19769048D01*
X93447619Y19692858D01*
X93447619Y19540477D01*
X93409523Y19464286D01*
X93371428Y19426191D01*
X93295238Y19388096D01*
X93142857Y19388096D01*
X93066666Y19426191D01*
X93028571Y19464286D01*
X92990476Y19540477D01*
X92990476Y19692858D01*
X93028571Y19769048D01*
X93066666Y19807143D01*
X93142857Y19845239D01*
X120964285Y23798096D02*
X121230952Y24179048D01*
X121421428Y23798096D02*
X121421428Y24598096D01*
X121116666Y24598096D01*
X121040476Y24560000D01*
X121002380Y24521905D01*
X120964285Y24445715D01*
X120964285Y24331429D01*
X121002380Y24255239D01*
X121040476Y24217143D01*
X121116666Y24179048D01*
X121421428Y24179048D01*
X120240476Y24598096D02*
X120621428Y24598096D01*
X120659523Y24217143D01*
X120621428Y24255239D01*
X120545238Y24293334D01*
X120354761Y24293334D01*
X120278571Y24255239D01*
X120240476Y24217143D01*
X120202380Y24140953D01*
X120202380Y23950477D01*
X120240476Y23874286D01*
X120278571Y23836191D01*
X120354761Y23798096D01*
X120545238Y23798096D01*
X120621428Y23836191D01*
X120659523Y23874286D01*
X119707142Y24598096D02*
X119630952Y24598096D01*
X119554761Y24560000D01*
X119516666Y24521905D01*
X119478571Y24445715D01*
X119440476Y24293334D01*
X119440476Y24102858D01*
X119478571Y23950477D01*
X119516666Y23874286D01*
X119554761Y23836191D01*
X119630952Y23798096D01*
X119707142Y23798096D01*
X119783333Y23836191D01*
X119821428Y23874286D01*
X119859523Y23950477D01*
X119897619Y24102858D01*
X119897619Y24293334D01*
X119859523Y24445715D01*
X119821428Y24521905D01*
X119783333Y24560000D01*
X119707142Y24598096D01*
X132644285Y23568096D02*
X132910952Y23949048D01*
X133101428Y23568096D02*
X133101428Y24368096D01*
X132796666Y24368096D01*
X132720476Y24330000D01*
X132682380Y24291905D01*
X132644285Y24215715D01*
X132644285Y24101429D01*
X132682380Y24025239D01*
X132720476Y23987143D01*
X132796666Y23949048D01*
X133101428Y23949048D01*
X131920476Y24368096D02*
X132301428Y24368096D01*
X132339523Y23987143D01*
X132301428Y24025239D01*
X132225238Y24063334D01*
X132034761Y24063334D01*
X131958571Y24025239D01*
X131920476Y23987143D01*
X131882380Y23910953D01*
X131882380Y23720477D01*
X131920476Y23644286D01*
X131958571Y23606191D01*
X132034761Y23568096D01*
X132225238Y23568096D01*
X132301428Y23606191D01*
X132339523Y23644286D01*
X131120476Y23568096D02*
X131577619Y23568096D01*
X131349047Y23568096D02*
X131349047Y24368096D01*
X131425238Y24253810D01*
X131501428Y24177620D01*
X131577619Y24139524D01*
X129214285Y19488096D02*
X129480952Y19869048D01*
X129671428Y19488096D02*
X129671428Y20288096D01*
X129366666Y20288096D01*
X129290476Y20250000D01*
X129252380Y20211905D01*
X129214285Y20135715D01*
X129214285Y20021429D01*
X129252380Y19945239D01*
X129290476Y19907143D01*
X129366666Y19869048D01*
X129671428Y19869048D01*
X128490476Y20288096D02*
X128871428Y20288096D01*
X128909523Y19907143D01*
X128871428Y19945239D01*
X128795238Y19983334D01*
X128604761Y19983334D01*
X128528571Y19945239D01*
X128490476Y19907143D01*
X128452380Y19830953D01*
X128452380Y19640477D01*
X128490476Y19564286D01*
X128528571Y19526191D01*
X128604761Y19488096D01*
X128795238Y19488096D01*
X128871428Y19526191D01*
X128909523Y19564286D01*
X128147619Y20211905D02*
X128109523Y20250000D01*
X128033333Y20288096D01*
X127842857Y20288096D01*
X127766666Y20250000D01*
X127728571Y20211905D01*
X127690476Y20135715D01*
X127690476Y20059524D01*
X127728571Y19945239D01*
X128185714Y19488096D01*
X127690476Y19488096D01*
X117514285Y19388096D02*
X117780952Y19769048D01*
X117971428Y19388096D02*
X117971428Y20188096D01*
X117666666Y20188096D01*
X117590476Y20150000D01*
X117552380Y20111905D01*
X117514285Y20035715D01*
X117514285Y19921429D01*
X117552380Y19845239D01*
X117590476Y19807143D01*
X117666666Y19769048D01*
X117971428Y19769048D01*
X116790476Y20188096D02*
X117171428Y20188096D01*
X117209523Y19807143D01*
X117171428Y19845239D01*
X117095238Y19883334D01*
X116904761Y19883334D01*
X116828571Y19845239D01*
X116790476Y19807143D01*
X116752380Y19730953D01*
X116752380Y19540477D01*
X116790476Y19464286D01*
X116828571Y19426191D01*
X116904761Y19388096D01*
X117095238Y19388096D01*
X117171428Y19426191D01*
X117209523Y19464286D01*
X116485714Y20188096D02*
X115990476Y20188096D01*
X116257142Y19883334D01*
X116142857Y19883334D01*
X116066666Y19845239D01*
X116028571Y19807143D01*
X115990476Y19730953D01*
X115990476Y19540477D01*
X116028571Y19464286D01*
X116066666Y19426191D01*
X116142857Y19388096D01*
X116371428Y19388096D01*
X116447619Y19426191D01*
X116485714Y19464286D01*
X143964285Y23798096D02*
X144230952Y24179048D01*
X144421428Y23798096D02*
X144421428Y24598096D01*
X144116666Y24598096D01*
X144040476Y24560000D01*
X144002380Y24521905D01*
X143964285Y24445715D01*
X143964285Y24331429D01*
X144002380Y24255239D01*
X144040476Y24217143D01*
X144116666Y24179048D01*
X144421428Y24179048D01*
X143240476Y24598096D02*
X143621428Y24598096D01*
X143659523Y24217143D01*
X143621428Y24255239D01*
X143545238Y24293334D01*
X143354761Y24293334D01*
X143278571Y24255239D01*
X143240476Y24217143D01*
X143202380Y24140953D01*
X143202380Y23950477D01*
X143240476Y23874286D01*
X143278571Y23836191D01*
X143354761Y23798096D01*
X143545238Y23798096D01*
X143621428Y23836191D01*
X143659523Y23874286D01*
X142478571Y24598096D02*
X142859523Y24598096D01*
X142897619Y24217143D01*
X142859523Y24255239D01*
X142783333Y24293334D01*
X142592857Y24293334D01*
X142516666Y24255239D01*
X142478571Y24217143D01*
X142440476Y24140953D01*
X142440476Y23950477D01*
X142478571Y23874286D01*
X142516666Y23836191D01*
X142592857Y23798096D01*
X142783333Y23798096D01*
X142859523Y23836191D01*
X142897619Y23874286D01*
X155644285Y23568096D02*
X155910952Y23949048D01*
X156101428Y23568096D02*
X156101428Y24368096D01*
X155796666Y24368096D01*
X155720476Y24330000D01*
X155682380Y24291905D01*
X155644285Y24215715D01*
X155644285Y24101429D01*
X155682380Y24025239D01*
X155720476Y23987143D01*
X155796666Y23949048D01*
X156101428Y23949048D01*
X154920476Y24368096D02*
X155301428Y24368096D01*
X155339523Y23987143D01*
X155301428Y24025239D01*
X155225238Y24063334D01*
X155034761Y24063334D01*
X154958571Y24025239D01*
X154920476Y23987143D01*
X154882380Y23910953D01*
X154882380Y23720477D01*
X154920476Y23644286D01*
X154958571Y23606191D01*
X155034761Y23568096D01*
X155225238Y23568096D01*
X155301428Y23606191D01*
X155339523Y23644286D01*
X154196666Y24368096D02*
X154349047Y24368096D01*
X154425238Y24330000D01*
X154463333Y24291905D01*
X154539523Y24177620D01*
X154577619Y24025239D01*
X154577619Y23720477D01*
X154539523Y23644286D01*
X154501428Y23606191D01*
X154425238Y23568096D01*
X154272857Y23568096D01*
X154196666Y23606191D01*
X154158571Y23644286D01*
X154120476Y23720477D01*
X154120476Y23910953D01*
X154158571Y23987143D01*
X154196666Y24025239D01*
X154272857Y24063334D01*
X154425238Y24063334D01*
X154501428Y24025239D01*
X154539523Y23987143D01*
X154577619Y23910953D01*
X152214285Y19488096D02*
X152480952Y19869048D01*
X152671428Y19488096D02*
X152671428Y20288096D01*
X152366666Y20288096D01*
X152290476Y20250000D01*
X152252380Y20211905D01*
X152214285Y20135715D01*
X152214285Y20021429D01*
X152252380Y19945239D01*
X152290476Y19907143D01*
X152366666Y19869048D01*
X152671428Y19869048D01*
X151490476Y20288096D02*
X151871428Y20288096D01*
X151909523Y19907143D01*
X151871428Y19945239D01*
X151795238Y19983334D01*
X151604761Y19983334D01*
X151528571Y19945239D01*
X151490476Y19907143D01*
X151452380Y19830953D01*
X151452380Y19640477D01*
X151490476Y19564286D01*
X151528571Y19526191D01*
X151604761Y19488096D01*
X151795238Y19488096D01*
X151871428Y19526191D01*
X151909523Y19564286D01*
X151185714Y20288096D02*
X150652380Y20288096D01*
X150995238Y19488096D01*
X140514285Y19388096D02*
X140780952Y19769048D01*
X140971428Y19388096D02*
X140971428Y20188096D01*
X140666666Y20188096D01*
X140590476Y20150000D01*
X140552380Y20111905D01*
X140514285Y20035715D01*
X140514285Y19921429D01*
X140552380Y19845239D01*
X140590476Y19807143D01*
X140666666Y19769048D01*
X140971428Y19769048D01*
X139790476Y20188096D02*
X140171428Y20188096D01*
X140209523Y19807143D01*
X140171428Y19845239D01*
X140095238Y19883334D01*
X139904761Y19883334D01*
X139828571Y19845239D01*
X139790476Y19807143D01*
X139752380Y19730953D01*
X139752380Y19540477D01*
X139790476Y19464286D01*
X139828571Y19426191D01*
X139904761Y19388096D01*
X140095238Y19388096D01*
X140171428Y19426191D01*
X140209523Y19464286D01*
X139295238Y19845239D02*
X139371428Y19883334D01*
X139409523Y19921429D01*
X139447619Y19997620D01*
X139447619Y20035715D01*
X139409523Y20111905D01*
X139371428Y20150000D01*
X139295238Y20188096D01*
X139142857Y20188096D01*
X139066666Y20150000D01*
X139028571Y20111905D01*
X138990476Y20035715D01*
X138990476Y19997620D01*
X139028571Y19921429D01*
X139066666Y19883334D01*
X139142857Y19845239D01*
X139295238Y19845239D01*
X139371428Y19807143D01*
X139409523Y19769048D01*
X139447619Y19692858D01*
X139447619Y19540477D01*
X139409523Y19464286D01*
X139371428Y19426191D01*
X139295238Y19388096D01*
X139142857Y19388096D01*
X139066666Y19426191D01*
X139028571Y19464286D01*
X138990476Y19540477D01*
X138990476Y19692858D01*
X139028571Y19769048D01*
X139066666Y19807143D01*
X139142857Y19845239D01*
X166964285Y23798096D02*
X167230952Y24179048D01*
X167421428Y23798096D02*
X167421428Y24598096D01*
X167116666Y24598096D01*
X167040476Y24560000D01*
X167002380Y24521905D01*
X166964285Y24445715D01*
X166964285Y24331429D01*
X167002380Y24255239D01*
X167040476Y24217143D01*
X167116666Y24179048D01*
X167421428Y24179048D01*
X166278571Y24598096D02*
X166430952Y24598096D01*
X166507142Y24560000D01*
X166545238Y24521905D01*
X166621428Y24407620D01*
X166659523Y24255239D01*
X166659523Y23950477D01*
X166621428Y23874286D01*
X166583333Y23836191D01*
X166507142Y23798096D01*
X166354761Y23798096D01*
X166278571Y23836191D01*
X166240476Y23874286D01*
X166202380Y23950477D01*
X166202380Y24140953D01*
X166240476Y24217143D01*
X166278571Y24255239D01*
X166354761Y24293334D01*
X166507142Y24293334D01*
X166583333Y24255239D01*
X166621428Y24217143D01*
X166659523Y24140953D01*
X165707142Y24598096D02*
X165630952Y24598096D01*
X165554761Y24560000D01*
X165516666Y24521905D01*
X165478571Y24445715D01*
X165440476Y24293334D01*
X165440476Y24102858D01*
X165478571Y23950477D01*
X165516666Y23874286D01*
X165554761Y23836191D01*
X165630952Y23798096D01*
X165707142Y23798096D01*
X165783333Y23836191D01*
X165821428Y23874286D01*
X165859523Y23950477D01*
X165897619Y24102858D01*
X165897619Y24293334D01*
X165859523Y24445715D01*
X165821428Y24521905D01*
X165783333Y24560000D01*
X165707142Y24598096D01*
X178644285Y23568096D02*
X178910952Y23949048D01*
X179101428Y23568096D02*
X179101428Y24368096D01*
X178796666Y24368096D01*
X178720476Y24330000D01*
X178682380Y24291905D01*
X178644285Y24215715D01*
X178644285Y24101429D01*
X178682380Y24025239D01*
X178720476Y23987143D01*
X178796666Y23949048D01*
X179101428Y23949048D01*
X177958571Y24368096D02*
X178110952Y24368096D01*
X178187142Y24330000D01*
X178225238Y24291905D01*
X178301428Y24177620D01*
X178339523Y24025239D01*
X178339523Y23720477D01*
X178301428Y23644286D01*
X178263333Y23606191D01*
X178187142Y23568096D01*
X178034761Y23568096D01*
X177958571Y23606191D01*
X177920476Y23644286D01*
X177882380Y23720477D01*
X177882380Y23910953D01*
X177920476Y23987143D01*
X177958571Y24025239D01*
X178034761Y24063334D01*
X178187142Y24063334D01*
X178263333Y24025239D01*
X178301428Y23987143D01*
X178339523Y23910953D01*
X177120476Y23568096D02*
X177577619Y23568096D01*
X177349047Y23568096D02*
X177349047Y24368096D01*
X177425238Y24253810D01*
X177501428Y24177620D01*
X177577619Y24139524D01*
X175214285Y19488096D02*
X175480952Y19869048D01*
X175671428Y19488096D02*
X175671428Y20288096D01*
X175366666Y20288096D01*
X175290476Y20250000D01*
X175252380Y20211905D01*
X175214285Y20135715D01*
X175214285Y20021429D01*
X175252380Y19945239D01*
X175290476Y19907143D01*
X175366666Y19869048D01*
X175671428Y19869048D01*
X174528571Y20288096D02*
X174680952Y20288096D01*
X174757142Y20250000D01*
X174795238Y20211905D01*
X174871428Y20097620D01*
X174909523Y19945239D01*
X174909523Y19640477D01*
X174871428Y19564286D01*
X174833333Y19526191D01*
X174757142Y19488096D01*
X174604761Y19488096D01*
X174528571Y19526191D01*
X174490476Y19564286D01*
X174452380Y19640477D01*
X174452380Y19830953D01*
X174490476Y19907143D01*
X174528571Y19945239D01*
X174604761Y19983334D01*
X174757142Y19983334D01*
X174833333Y19945239D01*
X174871428Y19907143D01*
X174909523Y19830953D01*
X174147619Y20211905D02*
X174109523Y20250000D01*
X174033333Y20288096D01*
X173842857Y20288096D01*
X173766666Y20250000D01*
X173728571Y20211905D01*
X173690476Y20135715D01*
X173690476Y20059524D01*
X173728571Y19945239D01*
X174185714Y19488096D01*
X173690476Y19488096D01*
X163514285Y19388096D02*
X163780952Y19769048D01*
X163971428Y19388096D02*
X163971428Y20188096D01*
X163666666Y20188096D01*
X163590476Y20150000D01*
X163552380Y20111905D01*
X163514285Y20035715D01*
X163514285Y19921429D01*
X163552380Y19845239D01*
X163590476Y19807143D01*
X163666666Y19769048D01*
X163971428Y19769048D01*
X162828571Y20188096D02*
X162980952Y20188096D01*
X163057142Y20150000D01*
X163095238Y20111905D01*
X163171428Y19997620D01*
X163209523Y19845239D01*
X163209523Y19540477D01*
X163171428Y19464286D01*
X163133333Y19426191D01*
X163057142Y19388096D01*
X162904761Y19388096D01*
X162828571Y19426191D01*
X162790476Y19464286D01*
X162752380Y19540477D01*
X162752380Y19730953D01*
X162790476Y19807143D01*
X162828571Y19845239D01*
X162904761Y19883334D01*
X163057142Y19883334D01*
X163133333Y19845239D01*
X163171428Y19807143D01*
X163209523Y19730953D01*
X162485714Y20188096D02*
X161990476Y20188096D01*
X162257142Y19883334D01*
X162142857Y19883334D01*
X162066666Y19845239D01*
X162028571Y19807143D01*
X161990476Y19730953D01*
X161990476Y19540477D01*
X162028571Y19464286D01*
X162066666Y19426191D01*
X162142857Y19388096D01*
X162371428Y19388096D01*
X162447619Y19426191D01*
X162485714Y19464286D01*
X189964285Y23798096D02*
X190230952Y24179048D01*
X190421428Y23798096D02*
X190421428Y24598096D01*
X190116666Y24598096D01*
X190040476Y24560000D01*
X190002380Y24521905D01*
X189964285Y24445715D01*
X189964285Y24331429D01*
X190002380Y24255239D01*
X190040476Y24217143D01*
X190116666Y24179048D01*
X190421428Y24179048D01*
X189278571Y24598096D02*
X189430952Y24598096D01*
X189507142Y24560000D01*
X189545238Y24521905D01*
X189621428Y24407620D01*
X189659523Y24255239D01*
X189659523Y23950477D01*
X189621428Y23874286D01*
X189583333Y23836191D01*
X189507142Y23798096D01*
X189354761Y23798096D01*
X189278571Y23836191D01*
X189240476Y23874286D01*
X189202380Y23950477D01*
X189202380Y24140953D01*
X189240476Y24217143D01*
X189278571Y24255239D01*
X189354761Y24293334D01*
X189507142Y24293334D01*
X189583333Y24255239D01*
X189621428Y24217143D01*
X189659523Y24140953D01*
X188478571Y24598096D02*
X188859523Y24598096D01*
X188897619Y24217143D01*
X188859523Y24255239D01*
X188783333Y24293334D01*
X188592857Y24293334D01*
X188516666Y24255239D01*
X188478571Y24217143D01*
X188440476Y24140953D01*
X188440476Y23950477D01*
X188478571Y23874286D01*
X188516666Y23836191D01*
X188592857Y23798096D01*
X188783333Y23798096D01*
X188859523Y23836191D01*
X188897619Y23874286D01*
X201644285Y23568096D02*
X201910952Y23949048D01*
X202101428Y23568096D02*
X202101428Y24368096D01*
X201796666Y24368096D01*
X201720476Y24330000D01*
X201682380Y24291905D01*
X201644285Y24215715D01*
X201644285Y24101429D01*
X201682380Y24025239D01*
X201720476Y23987143D01*
X201796666Y23949048D01*
X202101428Y23949048D01*
X200958571Y24368096D02*
X201110952Y24368096D01*
X201187142Y24330000D01*
X201225238Y24291905D01*
X201301428Y24177620D01*
X201339523Y24025239D01*
X201339523Y23720477D01*
X201301428Y23644286D01*
X201263333Y23606191D01*
X201187142Y23568096D01*
X201034761Y23568096D01*
X200958571Y23606191D01*
X200920476Y23644286D01*
X200882380Y23720477D01*
X200882380Y23910953D01*
X200920476Y23987143D01*
X200958571Y24025239D01*
X201034761Y24063334D01*
X201187142Y24063334D01*
X201263333Y24025239D01*
X201301428Y23987143D01*
X201339523Y23910953D01*
X200196666Y24368096D02*
X200349047Y24368096D01*
X200425238Y24330000D01*
X200463333Y24291905D01*
X200539523Y24177620D01*
X200577619Y24025239D01*
X200577619Y23720477D01*
X200539523Y23644286D01*
X200501428Y23606191D01*
X200425238Y23568096D01*
X200272857Y23568096D01*
X200196666Y23606191D01*
X200158571Y23644286D01*
X200120476Y23720477D01*
X200120476Y23910953D01*
X200158571Y23987143D01*
X200196666Y24025239D01*
X200272857Y24063334D01*
X200425238Y24063334D01*
X200501428Y24025239D01*
X200539523Y23987143D01*
X200577619Y23910953D01*
X198214285Y19488096D02*
X198480952Y19869048D01*
X198671428Y19488096D02*
X198671428Y20288096D01*
X198366666Y20288096D01*
X198290476Y20250000D01*
X198252380Y20211905D01*
X198214285Y20135715D01*
X198214285Y20021429D01*
X198252380Y19945239D01*
X198290476Y19907143D01*
X198366666Y19869048D01*
X198671428Y19869048D01*
X197528571Y20288096D02*
X197680952Y20288096D01*
X197757142Y20250000D01*
X197795238Y20211905D01*
X197871428Y20097620D01*
X197909523Y19945239D01*
X197909523Y19640477D01*
X197871428Y19564286D01*
X197833333Y19526191D01*
X197757142Y19488096D01*
X197604761Y19488096D01*
X197528571Y19526191D01*
X197490476Y19564286D01*
X197452380Y19640477D01*
X197452380Y19830953D01*
X197490476Y19907143D01*
X197528571Y19945239D01*
X197604761Y19983334D01*
X197757142Y19983334D01*
X197833333Y19945239D01*
X197871428Y19907143D01*
X197909523Y19830953D01*
X197185714Y20288096D02*
X196652380Y20288096D01*
X196995238Y19488096D01*
X186514285Y19388096D02*
X186780952Y19769048D01*
X186971428Y19388096D02*
X186971428Y20188096D01*
X186666666Y20188096D01*
X186590476Y20150000D01*
X186552380Y20111905D01*
X186514285Y20035715D01*
X186514285Y19921429D01*
X186552380Y19845239D01*
X186590476Y19807143D01*
X186666666Y19769048D01*
X186971428Y19769048D01*
X185828571Y20188096D02*
X185980952Y20188096D01*
X186057142Y20150000D01*
X186095238Y20111905D01*
X186171428Y19997620D01*
X186209523Y19845239D01*
X186209523Y19540477D01*
X186171428Y19464286D01*
X186133333Y19426191D01*
X186057142Y19388096D01*
X185904761Y19388096D01*
X185828571Y19426191D01*
X185790476Y19464286D01*
X185752380Y19540477D01*
X185752380Y19730953D01*
X185790476Y19807143D01*
X185828571Y19845239D01*
X185904761Y19883334D01*
X186057142Y19883334D01*
X186133333Y19845239D01*
X186171428Y19807143D01*
X186209523Y19730953D01*
X185295238Y19845239D02*
X185371428Y19883334D01*
X185409523Y19921429D01*
X185447619Y19997620D01*
X185447619Y20035715D01*
X185409523Y20111905D01*
X185371428Y20150000D01*
X185295238Y20188096D01*
X185142857Y20188096D01*
X185066666Y20150000D01*
X185028571Y20111905D01*
X184990476Y20035715D01*
X184990476Y19997620D01*
X185028571Y19921429D01*
X185066666Y19883334D01*
X185142857Y19845239D01*
X185295238Y19845239D01*
X185371428Y19807143D01*
X185409523Y19769048D01*
X185447619Y19692858D01*
X185447619Y19540477D01*
X185409523Y19464286D01*
X185371428Y19426191D01*
X185295238Y19388096D01*
X185142857Y19388096D01*
X185066666Y19426191D01*
X185028571Y19464286D01*
X184990476Y19540477D01*
X184990476Y19692858D01*
X185028571Y19769048D01*
X185066666Y19807143D01*
X185142857Y19845239D01*
X28861904Y43990477D02*
X29509523Y43990477D01*
X29585714Y43952381D01*
X29623809Y43914286D01*
X29661904Y43838096D01*
X29661904Y43685715D01*
X29623809Y43609524D01*
X29585714Y43571429D01*
X29509523Y43533334D01*
X28861904Y43533334D01*
X29661904Y42733334D02*
X29661904Y43190477D01*
X29661904Y42961905D02*
X28861904Y42961905D01*
X28976190Y43038096D01*
X29052380Y43114286D01*
X29090476Y43190477D01*
X29128571Y42047620D02*
X29661904Y42047620D01*
X28823809Y42238096D02*
X29395238Y42428572D01*
X29395238Y41933334D01*
X51861904Y43990477D02*
X52509523Y43990477D01*
X52585714Y43952381D01*
X52623809Y43914286D01*
X52661904Y43838096D01*
X52661904Y43685715D01*
X52623809Y43609524D01*
X52585714Y43571429D01*
X52509523Y43533334D01*
X51861904Y43533334D01*
X52661904Y42733334D02*
X52661904Y43190477D01*
X52661904Y42961905D02*
X51861904Y42961905D01*
X51976190Y43038096D01*
X52052380Y43114286D01*
X52090476Y43190477D01*
X51861904Y42047620D02*
X51861904Y42200000D01*
X51900000Y42276191D01*
X51938095Y42314286D01*
X52052380Y42390477D01*
X52204761Y42428572D01*
X52509523Y42428572D01*
X52585714Y42390477D01*
X52623809Y42352381D01*
X52661904Y42276191D01*
X52661904Y42123810D01*
X52623809Y42047620D01*
X52585714Y42009524D01*
X52509523Y41971429D01*
X52319047Y41971429D01*
X52242857Y42009524D01*
X52204761Y42047620D01*
X52166666Y42123810D01*
X52166666Y42276191D01*
X52204761Y42352381D01*
X52242857Y42390477D01*
X52319047Y42428572D01*
X74861904Y43990477D02*
X75509523Y43990477D01*
X75585714Y43952381D01*
X75623809Y43914286D01*
X75661904Y43838096D01*
X75661904Y43685715D01*
X75623809Y43609524D01*
X75585714Y43571429D01*
X75509523Y43533334D01*
X74861904Y43533334D01*
X75661904Y42733334D02*
X75661904Y43190477D01*
X75661904Y42961905D02*
X74861904Y42961905D01*
X74976190Y43038096D01*
X75052380Y43114286D01*
X75090476Y43190477D01*
X75204761Y42276191D02*
X75166666Y42352381D01*
X75128571Y42390477D01*
X75052380Y42428572D01*
X75014285Y42428572D01*
X74938095Y42390477D01*
X74900000Y42352381D01*
X74861904Y42276191D01*
X74861904Y42123810D01*
X74900000Y42047620D01*
X74938095Y42009524D01*
X75014285Y41971429D01*
X75052380Y41971429D01*
X75128571Y42009524D01*
X75166666Y42047620D01*
X75204761Y42123810D01*
X75204761Y42276191D01*
X75242857Y42352381D01*
X75280952Y42390477D01*
X75357142Y42428572D01*
X75509523Y42428572D01*
X75585714Y42390477D01*
X75623809Y42352381D01*
X75661904Y42276191D01*
X75661904Y42123810D01*
X75623809Y42047620D01*
X75585714Y42009524D01*
X75509523Y41971429D01*
X75357142Y41971429D01*
X75280952Y42009524D01*
X75242857Y42047620D01*
X75204761Y42123810D01*
X97861904Y43990477D02*
X98509523Y43990477D01*
X98585714Y43952381D01*
X98623809Y43914286D01*
X98661904Y43838096D01*
X98661904Y43685715D01*
X98623809Y43609524D01*
X98585714Y43571429D01*
X98509523Y43533334D01*
X97861904Y43533334D01*
X97938095Y43190477D02*
X97900000Y43152381D01*
X97861904Y43076191D01*
X97861904Y42885715D01*
X97900000Y42809524D01*
X97938095Y42771429D01*
X98014285Y42733334D01*
X98090476Y42733334D01*
X98204761Y42771429D01*
X98661904Y43228572D01*
X98661904Y42733334D01*
X97861904Y42238096D02*
X97861904Y42161905D01*
X97900000Y42085715D01*
X97938095Y42047620D01*
X98014285Y42009524D01*
X98166666Y41971429D01*
X98357142Y41971429D01*
X98509523Y42009524D01*
X98585714Y42047620D01*
X98623809Y42085715D01*
X98661904Y42161905D01*
X98661904Y42238096D01*
X98623809Y42314286D01*
X98585714Y42352381D01*
X98509523Y42390477D01*
X98357142Y42428572D01*
X98166666Y42428572D01*
X98014285Y42390477D01*
X97938095Y42352381D01*
X97900000Y42314286D01*
X97861904Y42238096D01*
X120861904Y43990477D02*
X121509523Y43990477D01*
X121585714Y43952381D01*
X121623809Y43914286D01*
X121661904Y43838096D01*
X121661904Y43685715D01*
X121623809Y43609524D01*
X121585714Y43571429D01*
X121509523Y43533334D01*
X120861904Y43533334D01*
X120938095Y43190477D02*
X120900000Y43152381D01*
X120861904Y43076191D01*
X120861904Y42885715D01*
X120900000Y42809524D01*
X120938095Y42771429D01*
X121014285Y42733334D01*
X121090476Y42733334D01*
X121204761Y42771429D01*
X121661904Y43228572D01*
X121661904Y42733334D01*
X120938095Y42428572D02*
X120900000Y42390477D01*
X120861904Y42314286D01*
X120861904Y42123810D01*
X120900000Y42047620D01*
X120938095Y42009524D01*
X121014285Y41971429D01*
X121090476Y41971429D01*
X121204761Y42009524D01*
X121661904Y42466667D01*
X121661904Y41971429D01*
X143861904Y43990477D02*
X144509523Y43990477D01*
X144585714Y43952381D01*
X144623809Y43914286D01*
X144661904Y43838096D01*
X144661904Y43685715D01*
X144623809Y43609524D01*
X144585714Y43571429D01*
X144509523Y43533334D01*
X143861904Y43533334D01*
X143938095Y43190477D02*
X143900000Y43152381D01*
X143861904Y43076191D01*
X143861904Y42885715D01*
X143900000Y42809524D01*
X143938095Y42771429D01*
X144014285Y42733334D01*
X144090476Y42733334D01*
X144204761Y42771429D01*
X144661904Y43228572D01*
X144661904Y42733334D01*
X144128571Y42047620D02*
X144661904Y42047620D01*
X143823809Y42238096D02*
X144395238Y42428572D01*
X144395238Y41933334D01*
X166861904Y43990477D02*
X167509523Y43990477D01*
X167585714Y43952381D01*
X167623809Y43914286D01*
X167661904Y43838096D01*
X167661904Y43685715D01*
X167623809Y43609524D01*
X167585714Y43571429D01*
X167509523Y43533334D01*
X166861904Y43533334D01*
X166938095Y43190477D02*
X166900000Y43152381D01*
X166861904Y43076191D01*
X166861904Y42885715D01*
X166900000Y42809524D01*
X166938095Y42771429D01*
X167014285Y42733334D01*
X167090476Y42733334D01*
X167204761Y42771429D01*
X167661904Y43228572D01*
X167661904Y42733334D01*
X166861904Y42047620D02*
X166861904Y42200000D01*
X166900000Y42276191D01*
X166938095Y42314286D01*
X167052380Y42390477D01*
X167204761Y42428572D01*
X167509523Y42428572D01*
X167585714Y42390477D01*
X167623809Y42352381D01*
X167661904Y42276191D01*
X167661904Y42123810D01*
X167623809Y42047620D01*
X167585714Y42009524D01*
X167509523Y41971429D01*
X167319047Y41971429D01*
X167242857Y42009524D01*
X167204761Y42047620D01*
X167166666Y42123810D01*
X167166666Y42276191D01*
X167204761Y42352381D01*
X167242857Y42390477D01*
X167319047Y42428572D01*
X189861904Y43990477D02*
X190509523Y43990477D01*
X190585714Y43952381D01*
X190623809Y43914286D01*
X190661904Y43838096D01*
X190661904Y43685715D01*
X190623809Y43609524D01*
X190585714Y43571429D01*
X190509523Y43533334D01*
X189861904Y43533334D01*
X189938095Y43190477D02*
X189900000Y43152381D01*
X189861904Y43076191D01*
X189861904Y42885715D01*
X189900000Y42809524D01*
X189938095Y42771429D01*
X190014285Y42733334D01*
X190090476Y42733334D01*
X190204761Y42771429D01*
X190661904Y43228572D01*
X190661904Y42733334D01*
X190204761Y42276191D02*
X190166666Y42352381D01*
X190128571Y42390477D01*
X190052380Y42428572D01*
X190014285Y42428572D01*
X189938095Y42390477D01*
X189900000Y42352381D01*
X189861904Y42276191D01*
X189861904Y42123810D01*
X189900000Y42047620D01*
X189938095Y42009524D01*
X190014285Y41971429D01*
X190052380Y41971429D01*
X190128571Y42009524D01*
X190166666Y42047620D01*
X190204761Y42123810D01*
X190204761Y42276191D01*
X190242857Y42352381D01*
X190280952Y42390477D01*
X190357142Y42428572D01*
X190509523Y42428572D01*
X190585714Y42390477D01*
X190623809Y42352381D01*
X190661904Y42276191D01*
X190661904Y42123810D01*
X190623809Y42047620D01*
X190585714Y42009524D01*
X190509523Y41971429D01*
X190357142Y41971429D01*
X190280952Y42009524D01*
X190242857Y42047620D01*
X190204761Y42123810D01*
X69707142Y72561905D02*
X69783333Y72600000D01*
X69859523Y72676191D01*
X69973809Y72790477D01*
X70050000Y72828572D01*
X70126190Y72828572D01*
X70088095Y72638096D02*
X70164285Y72676191D01*
X70240476Y72752381D01*
X70278571Y72904762D01*
X70278571Y73171429D01*
X70240476Y73323810D01*
X70164285Y73400000D01*
X70088095Y73438096D01*
X69935714Y73438096D01*
X69859523Y73400000D01*
X69783333Y73323810D01*
X69745238Y73171429D01*
X69745238Y72904762D01*
X69783333Y72752381D01*
X69859523Y72676191D01*
X69935714Y72638096D01*
X70088095Y72638096D01*
X68983333Y72638096D02*
X69440476Y72638096D01*
X69211904Y72638096D02*
X69211904Y73438096D01*
X69288095Y73323810D01*
X69364285Y73247620D01*
X69440476Y73209524D01*
X68716666Y73438096D02*
X68183333Y73438096D01*
X68526190Y72638096D01*
X64861904Y71014286D02*
X64480952Y71280953D01*
X64861904Y71471429D02*
X64061904Y71471429D01*
X64061904Y71166667D01*
X64100000Y71090477D01*
X64138095Y71052381D01*
X64214285Y71014286D01*
X64328571Y71014286D01*
X64404761Y71052381D01*
X64442857Y71090477D01*
X64480952Y71166667D01*
X64480952Y71471429D01*
X64061904Y70747620D02*
X64061904Y70214286D01*
X64861904Y70557143D01*
X64061904Y69757143D02*
X64061904Y69680953D01*
X64100000Y69604762D01*
X64138095Y69566667D01*
X64214285Y69528572D01*
X64366666Y69490477D01*
X64557142Y69490477D01*
X64709523Y69528572D01*
X64785714Y69566667D01*
X64823809Y69604762D01*
X64861904Y69680953D01*
X64861904Y69757143D01*
X64823809Y69833334D01*
X64785714Y69871429D01*
X64709523Y69909524D01*
X64557142Y69947620D01*
X64366666Y69947620D01*
X64214285Y69909524D01*
X64138095Y69871429D01*
X64100000Y69833334D01*
X64061904Y69757143D01*
X71111904Y70264286D02*
X70730952Y70530953D01*
X71111904Y70721429D02*
X70311904Y70721429D01*
X70311904Y70416667D01*
X70350000Y70340477D01*
X70388095Y70302381D01*
X70464285Y70264286D01*
X70578571Y70264286D01*
X70654761Y70302381D01*
X70692857Y70340477D01*
X70730952Y70416667D01*
X70730952Y70721429D01*
X70311904Y69997620D02*
X70311904Y69464286D01*
X71111904Y69807143D01*
X71111904Y68740477D02*
X71111904Y69197620D01*
X71111904Y68969048D02*
X70311904Y68969048D01*
X70426190Y69045239D01*
X70502380Y69121429D01*
X70540476Y69197620D01*
M02*
